ISO-10303-21;
HEADER;
/* Generated by software containing ST-Developer
 * from STEP Tools, Inc. (www.steptools.com) 
 */

FILE_DESCRIPTION(
/* description */ ('STEP AP214'),
/* implementation_level */ '2;1');

FILE_NAME(
/* name */ 'FemaleHeader 2.54mm.step',
/* time_stamp */ '2026-06-11T13:04:07-04:00',
/* author */ (''),
/* organization */ (''),
/* preprocessor_version */ 'ST-DEVELOPER v20.1',
/* originating_system */ 'Autodesk Translation Framework v15.8.0.0',
/* authorisation */ '');

FILE_SCHEMA (('AUTOMOTIVE_DESIGN { 1 0 10303 214 3 1 1 }'));
ENDSEC;

DATA;
#10=MECHANICAL_DESIGN_GEOMETRIC_PRESENTATION_REPRESENTATION('',(#17,#18),
#808);
#11=ITEM_DEFINED_TRANSFORMATION($,$,#512,#541);
#12=(
REPRESENTATION_RELATIONSHIP($,$,#819,#818)
REPRESENTATION_RELATIONSHIP_WITH_TRANSFORMATION(#11)
SHAPE_REPRESENTATION_RELATIONSHIP()
);
#13=CONTEXT_DEPENDENT_SHAPE_REPRESENTATION(#12,#817);
#14=NEXT_ASSEMBLY_USAGE_OCCURRENCE('Female_Header:1','Female_Header:1',
'Female_Header:1',#821,#822,'Female_Header:1');
#15=SHAPE_REPRESENTATION_RELATIONSHIP('SRR','None',#819,#16);
#16=ADVANCED_BREP_SHAPE_REPRESENTATION('',(#19,#20),#807);
#17=STYLED_ITEM('',(#833),#19);
#18=STYLED_ITEM('',(#834),#20);
#19=MANIFOLD_SOLID_BREP('Plastic',#497);
#20=MANIFOLD_SOLID_BREP('Copper pin',#498);
#21=FACE_BOUND('',#64,.T.);
#22=FACE_BOUND('',#66,.T.);
#23=FACE_OUTER_BOUND('',#51,.T.);
#24=FACE_OUTER_BOUND('',#52,.T.);
#25=FACE_OUTER_BOUND('',#53,.T.);
#26=FACE_OUTER_BOUND('',#54,.T.);
#27=FACE_OUTER_BOUND('',#55,.T.);
#28=FACE_OUTER_BOUND('',#56,.T.);
#29=FACE_OUTER_BOUND('',#57,.T.);
#30=FACE_OUTER_BOUND('',#58,.T.);
#31=FACE_OUTER_BOUND('',#59,.T.);
#32=FACE_OUTER_BOUND('',#60,.T.);
#33=FACE_OUTER_BOUND('',#61,.T.);
#34=FACE_OUTER_BOUND('',#62,.T.);
#35=FACE_OUTER_BOUND('',#63,.T.);
#36=FACE_OUTER_BOUND('',#65,.T.);
#37=FACE_OUTER_BOUND('',#67,.T.);
#38=FACE_OUTER_BOUND('',#68,.T.);
#39=FACE_OUTER_BOUND('',#69,.T.);
#40=FACE_OUTER_BOUND('',#70,.T.);
#41=FACE_OUTER_BOUND('',#71,.T.);
#42=FACE_OUTER_BOUND('',#72,.T.);
#43=FACE_OUTER_BOUND('',#73,.T.);
#44=FACE_OUTER_BOUND('',#74,.T.);
#45=FACE_OUTER_BOUND('',#75,.T.);
#46=FACE_OUTER_BOUND('',#76,.T.);
#47=FACE_OUTER_BOUND('',#77,.T.);
#48=FACE_OUTER_BOUND('',#78,.T.);
#49=FACE_OUTER_BOUND('',#79,.T.);
#50=FACE_OUTER_BOUND('',#80,.T.);
#51=EDGE_LOOP('',(#313,#314,#315,#316));
#52=EDGE_LOOP('',(#317,#318,#319,#320));
#53=EDGE_LOOP('',(#321,#322,#323,#324));
#54=EDGE_LOOP('',(#325,#326,#327,#328));
#55=EDGE_LOOP('',(#329,#330,#331,#332));
#56=EDGE_LOOP('',(#333,#334,#335,#336));
#57=EDGE_LOOP('',(#337,#338,#339,#340));
#58=EDGE_LOOP('',(#341,#342,#343,#344));
#59=EDGE_LOOP('',(#345,#346,#347,#348));
#60=EDGE_LOOP('',(#349,#350,#351,#352));
#61=EDGE_LOOP('',(#353,#354,#355,#356));
#62=EDGE_LOOP('',(#357,#358,#359,#360,#361,#362,#363,#364));
#63=EDGE_LOOP('',(#365,#366,#367,#368));
#64=EDGE_LOOP('',(#369,#370,#371,#372));
#65=EDGE_LOOP('',(#373,#374,#375,#376));
#66=EDGE_LOOP('',(#377,#378,#379,#380));
#67=EDGE_LOOP('',(#381,#382,#383,#384));
#68=EDGE_LOOP('',(#385,#386,#387,#388));
#69=EDGE_LOOP('',(#389,#390,#391,#392));
#70=EDGE_LOOP('',(#393,#394,#395,#396,#397,#398,#399,#400));
#71=EDGE_LOOP('',(#401,#402,#403,#404));
#72=EDGE_LOOP('',(#405,#406,#407,#408));
#73=EDGE_LOOP('',(#409,#410,#411,#412));
#74=EDGE_LOOP('',(#413,#414,#415,#416));
#75=EDGE_LOOP('',(#417,#418,#419,#420));
#76=EDGE_LOOP('',(#421,#422,#423,#424));
#77=EDGE_LOOP('',(#425,#426,#427,#428));
#78=EDGE_LOOP('',(#429,#430,#431,#432));
#79=EDGE_LOOP('',(#433,#434,#435,#436));
#80=EDGE_LOOP('',(#437,#438,#439,#440));
#81=LINE('',#673,#145);
#82=LINE('',#675,#146);
#83=LINE('',#677,#147);
#84=LINE('',#678,#148);
#85=LINE('',#682,#149);
#86=LINE('',#684,#150);
#87=LINE('',#686,#151);
#88=LINE('',#687,#152);
#89=LINE('',#691,#153);
#90=LINE('',#692,#154);
#91=LINE('',#693,#155);
#92=LINE('',#697,#156);
#93=LINE('',#698,#157);
#94=LINE('',#699,#158);
#95=LINE('',#701,#159);
#96=LINE('',#702,#160);
#97=LINE('',#705,#161);
#98=LINE('',#707,#162);
#99=LINE('',#708,#163);
#100=LINE('',#711,#164);
#101=LINE('',#712,#165);
#102=LINE('',#715,#166);
#103=LINE('',#716,#167);
#104=LINE('',#718,#168);
#105=LINE('',#721,#169);
#106=LINE('',#723,#170);
#107=LINE('',#724,#171);
#108=LINE('',#727,#172);
#109=LINE('',#729,#173);
#110=LINE('',#730,#174);
#111=LINE('',#734,#175);
#112=LINE('',#736,#176);
#113=LINE('',#737,#177);
#114=LINE('',#739,#178);
#115=LINE('',#740,#179);
#116=LINE('',#743,#180);
#117=LINE('',#744,#181);
#118=LINE('',#747,#182);
#119=LINE('',#748,#183);
#120=LINE('',#751,#184);
#121=LINE('',#752,#185);
#122=LINE('',#755,#186);
#123=LINE('',#756,#187);
#124=LINE('',#758,#188);
#125=LINE('',#763,#189);
#126=LINE('',#765,#190);
#127=LINE('',#767,#191);
#128=LINE('',#768,#192);
#129=LINE('',#771,#193);
#130=LINE('',#773,#194);
#131=LINE('',#774,#195);
#132=LINE('',#777,#196);
#133=LINE('',#779,#197);
#134=LINE('',#780,#198);
#135=LINE('',#782,#199);
#136=LINE('',#783,#200);
#137=LINE('',#788,#201);
#138=LINE('',#790,#202);
#139=LINE('',#792,#203);
#140=LINE('',#793,#204);
#141=LINE('',#795,#205);
#142=LINE('',#796,#206);
#143=LINE('',#798,#207);
#144=LINE('',#800,#208);
#145=VECTOR('',#548,10.);
#146=VECTOR('',#549,1000.);
#147=VECTOR('',#550,1000.);
#148=VECTOR('',#551,1000.);
#149=VECTOR('',#554,1000.);
#150=VECTOR('',#555,1000.);
#151=VECTOR('',#556,1000.);
#152=VECTOR('',#557,1000.);
#153=VECTOR('',#560,1000.);
#154=VECTOR('',#561,1000.);
#155=VECTOR('',#562,1000.);
#156=VECTOR('',#565,1000.);
#157=VECTOR('',#566,1000.);
#158=VECTOR('',#567,1000.);
#159=VECTOR('',#570,1000.);
#160=VECTOR('',#571,1000.);
#161=VECTOR('',#574,1000.);
#162=VECTOR('',#575,1000.);
#163=VECTOR('',#576,1000.);
#164=VECTOR('',#579,1000.);
#165=VECTOR('',#580,1000.);
#166=VECTOR('',#583,1000.);
#167=VECTOR('',#584,1000.);
#168=VECTOR('',#587,1000.);
#169=VECTOR('',#590,10.);
#170=VECTOR('',#591,1000.);
#171=VECTOR('',#592,1000.);
#172=VECTOR('',#595,10.);
#173=VECTOR('',#596,1000.);
#174=VECTOR('',#597,1000.);
#175=VECTOR('',#600,1000.);
#176=VECTOR('',#601,1000.);
#177=VECTOR('',#602,1000.);
#178=VECTOR('',#603,1000.);
#179=VECTOR('',#604,1000.);
#180=VECTOR('',#607,10.);
#181=VECTOR('',#608,1000.);
#182=VECTOR('',#611,10.);
#183=VECTOR('',#612,1000.);
#184=VECTOR('',#615,10.);
#185=VECTOR('',#616,1000.);
#186=VECTOR('',#619,10.);
#187=VECTOR('',#620,1000.);
#188=VECTOR('',#623,10.);
#189=VECTOR('',#628,1000.);
#190=VECTOR('',#629,1000.);
#191=VECTOR('',#630,1000.);
#192=VECTOR('',#631,1000.);
#193=VECTOR('',#634,1000.);
#194=VECTOR('',#635,1000.);
#195=VECTOR('',#636,1000.);
#196=VECTOR('',#639,1000.);
#197=VECTOR('',#640,1000.);
#198=VECTOR('',#641,1000.);
#199=VECTOR('',#644,1000.);
#200=VECTOR('',#645,1000.);
#201=VECTOR('',#650,1000.);
#202=VECTOR('',#651,1000.);
#203=VECTOR('',#652,1000.);
#204=VECTOR('',#653,1000.);
#205=VECTOR('',#656,1000.);
#206=VECTOR('',#657,1000.);
#207=VECTOR('',#660,1000.);
#208=VECTOR('',#663,1000.);
#209=VERTEX_POINT('',#671);
#210=VERTEX_POINT('',#672);
#211=VERTEX_POINT('',#674);
#212=VERTEX_POINT('',#676);
#213=VERTEX_POINT('',#680);
#214=VERTEX_POINT('',#681);
#215=VERTEX_POINT('',#683);
#216=VERTEX_POINT('',#685);
#217=VERTEX_POINT('',#689);
#218=VERTEX_POINT('',#690);
#219=VERTEX_POINT('',#695);
#220=VERTEX_POINT('',#696);
#221=VERTEX_POINT('',#704);
#222=VERTEX_POINT('',#706);
#223=VERTEX_POINT('',#710);
#224=VERTEX_POINT('',#714);
#225=VERTEX_POINT('',#720);
#226=VERTEX_POINT('',#722);
#227=VERTEX_POINT('',#726);
#228=VERTEX_POINT('',#728);
#229=VERTEX_POINT('',#732);
#230=VERTEX_POINT('',#733);
#231=VERTEX_POINT('',#735);
#232=VERTEX_POINT('',#738);
#233=VERTEX_POINT('',#742);
#234=VERTEX_POINT('',#746);
#235=VERTEX_POINT('',#750);
#236=VERTEX_POINT('',#754);
#237=VERTEX_POINT('',#761);
#238=VERTEX_POINT('',#762);
#239=VERTEX_POINT('',#764);
#240=VERTEX_POINT('',#766);
#241=VERTEX_POINT('',#770);
#242=VERTEX_POINT('',#772);
#243=VERTEX_POINT('',#776);
#244=VERTEX_POINT('',#778);
#245=VERTEX_POINT('',#786);
#246=VERTEX_POINT('',#787);
#247=VERTEX_POINT('',#789);
#248=VERTEX_POINT('',#791);
#249=EDGE_CURVE('',#209,#210,#81,.T.);
#250=EDGE_CURVE('',#209,#211,#82,.T.);
#251=EDGE_CURVE('',#211,#212,#83,.T.);
#252=EDGE_CURVE('',#210,#212,#84,.T.);
#253=EDGE_CURVE('',#213,#214,#85,.T.);
#254=EDGE_CURVE('',#215,#214,#86,.T.);
#255=EDGE_CURVE('',#215,#216,#87,.T.);
#256=EDGE_CURVE('',#213,#216,#88,.T.);
#257=EDGE_CURVE('',#217,#218,#89,.T.);
#258=EDGE_CURVE('',#216,#218,#90,.T.);
#259=EDGE_CURVE('',#217,#215,#91,.T.);
#260=EDGE_CURVE('',#219,#220,#92,.T.);
#261=EDGE_CURVE('',#214,#220,#93,.T.);
#262=EDGE_CURVE('',#219,#213,#94,.T.);
#263=EDGE_CURVE('',#220,#217,#95,.T.);
#264=EDGE_CURVE('',#218,#219,#96,.T.);
#265=EDGE_CURVE('',#221,#219,#97,.T.);
#266=EDGE_CURVE('',#221,#222,#98,.T.);
#267=EDGE_CURVE('',#222,#218,#99,.T.);
#268=EDGE_CURVE('',#223,#213,#100,.T.);
#269=EDGE_CURVE('',#223,#221,#101,.T.);
#270=EDGE_CURVE('',#224,#216,#102,.T.);
#271=EDGE_CURVE('',#224,#223,#103,.T.);
#272=EDGE_CURVE('',#222,#224,#104,.T.);
#273=EDGE_CURVE('',#225,#209,#105,.T.);
#274=EDGE_CURVE('',#226,#225,#106,.T.);
#275=EDGE_CURVE('',#211,#226,#107,.T.);
#276=EDGE_CURVE('',#227,#225,#108,.T.);
#277=EDGE_CURVE('',#228,#227,#109,.T.);
#278=EDGE_CURVE('',#228,#226,#110,.T.);
#279=EDGE_CURVE('',#229,#230,#111,.T.);
#280=EDGE_CURVE('',#231,#230,#112,.T.);
#281=EDGE_CURVE('',#212,#231,#113,.T.);
#282=EDGE_CURVE('',#232,#228,#114,.T.);
#283=EDGE_CURVE('',#232,#229,#115,.T.);
#284=EDGE_CURVE('',#233,#227,#116,.T.);
#285=EDGE_CURVE('',#233,#232,#117,.T.);
#286=EDGE_CURVE('',#210,#234,#118,.T.);
#287=EDGE_CURVE('',#234,#231,#119,.T.);
#288=EDGE_CURVE('',#234,#235,#120,.T.);
#289=EDGE_CURVE('',#235,#230,#121,.T.);
#290=EDGE_CURVE('',#235,#236,#122,.T.);
#291=EDGE_CURVE('',#236,#229,#123,.T.);
#292=EDGE_CURVE('',#236,#233,#124,.T.);
#293=EDGE_CURVE('',#237,#238,#125,.T.);
#294=EDGE_CURVE('',#238,#239,#126,.T.);
#295=EDGE_CURVE('',#240,#239,#127,.T.);
#296=EDGE_CURVE('',#237,#240,#128,.T.);
#297=EDGE_CURVE('',#239,#241,#129,.T.);
#298=EDGE_CURVE('',#242,#241,#130,.T.);
#299=EDGE_CURVE('',#240,#242,#131,.T.);
#300=EDGE_CURVE('',#241,#243,#132,.T.);
#301=EDGE_CURVE('',#244,#243,#133,.T.);
#302=EDGE_CURVE('',#244,#242,#134,.T.);
#303=EDGE_CURVE('',#243,#238,#135,.T.);
#304=EDGE_CURVE('',#237,#244,#136,.T.);
#305=EDGE_CURVE('',#245,#246,#137,.T.);
#306=EDGE_CURVE('',#246,#247,#138,.T.);
#307=EDGE_CURVE('',#247,#248,#139,.T.);
#308=EDGE_CURVE('',#248,#245,#140,.T.);
#309=EDGE_CURVE('',#241,#248,#141,.T.);
#310=EDGE_CURVE('',#245,#239,#142,.T.);
#311=EDGE_CURVE('',#246,#238,#143,.T.);
#312=EDGE_CURVE('',#243,#247,#144,.T.);
#313=ORIENTED_EDGE('',*,*,#249,.F.);
#314=ORIENTED_EDGE('',*,*,#250,.T.);
#315=ORIENTED_EDGE('',*,*,#251,.T.);
#316=ORIENTED_EDGE('',*,*,#252,.F.);
#317=ORIENTED_EDGE('',*,*,#253,.T.);
#318=ORIENTED_EDGE('',*,*,#254,.F.);
#319=ORIENTED_EDGE('',*,*,#255,.T.);
#320=ORIENTED_EDGE('',*,*,#256,.F.);
#321=ORIENTED_EDGE('',*,*,#257,.T.);
#322=ORIENTED_EDGE('',*,*,#258,.F.);
#323=ORIENTED_EDGE('',*,*,#255,.F.);
#324=ORIENTED_EDGE('',*,*,#259,.F.);
#325=ORIENTED_EDGE('',*,*,#260,.T.);
#326=ORIENTED_EDGE('',*,*,#261,.F.);
#327=ORIENTED_EDGE('',*,*,#253,.F.);
#328=ORIENTED_EDGE('',*,*,#262,.F.);
#329=ORIENTED_EDGE('',*,*,#257,.F.);
#330=ORIENTED_EDGE('',*,*,#263,.F.);
#331=ORIENTED_EDGE('',*,*,#260,.F.);
#332=ORIENTED_EDGE('',*,*,#264,.F.);
#333=ORIENTED_EDGE('',*,*,#265,.F.);
#334=ORIENTED_EDGE('',*,*,#266,.T.);
#335=ORIENTED_EDGE('',*,*,#267,.T.);
#336=ORIENTED_EDGE('',*,*,#264,.T.);
#337=ORIENTED_EDGE('',*,*,#268,.F.);
#338=ORIENTED_EDGE('',*,*,#269,.T.);
#339=ORIENTED_EDGE('',*,*,#265,.T.);
#340=ORIENTED_EDGE('',*,*,#262,.T.);
#341=ORIENTED_EDGE('',*,*,#270,.F.);
#342=ORIENTED_EDGE('',*,*,#271,.T.);
#343=ORIENTED_EDGE('',*,*,#268,.T.);
#344=ORIENTED_EDGE('',*,*,#256,.T.);
#345=ORIENTED_EDGE('',*,*,#267,.F.);
#346=ORIENTED_EDGE('',*,*,#272,.T.);
#347=ORIENTED_EDGE('',*,*,#270,.T.);
#348=ORIENTED_EDGE('',*,*,#258,.T.);
#349=ORIENTED_EDGE('',*,*,#273,.F.);
#350=ORIENTED_EDGE('',*,*,#274,.F.);
#351=ORIENTED_EDGE('',*,*,#275,.F.);
#352=ORIENTED_EDGE('',*,*,#250,.F.);
#353=ORIENTED_EDGE('',*,*,#276,.F.);
#354=ORIENTED_EDGE('',*,*,#277,.F.);
#355=ORIENTED_EDGE('',*,*,#278,.T.);
#356=ORIENTED_EDGE('',*,*,#274,.T.);
#357=ORIENTED_EDGE('',*,*,#279,.T.);
#358=ORIENTED_EDGE('',*,*,#280,.F.);
#359=ORIENTED_EDGE('',*,*,#281,.F.);
#360=ORIENTED_EDGE('',*,*,#251,.F.);
#361=ORIENTED_EDGE('',*,*,#275,.T.);
#362=ORIENTED_EDGE('',*,*,#278,.F.);
#363=ORIENTED_EDGE('',*,*,#282,.F.);
#364=ORIENTED_EDGE('',*,*,#283,.T.);
#365=ORIENTED_EDGE('',*,*,#284,.F.);
#366=ORIENTED_EDGE('',*,*,#285,.T.);
#367=ORIENTED_EDGE('',*,*,#282,.T.);
#368=ORIENTED_EDGE('',*,*,#277,.T.);
#369=ORIENTED_EDGE('',*,*,#259,.T.);
#370=ORIENTED_EDGE('',*,*,#254,.T.);
#371=ORIENTED_EDGE('',*,*,#261,.T.);
#372=ORIENTED_EDGE('',*,*,#263,.T.);
#373=ORIENTED_EDGE('',*,*,#286,.F.);
#374=ORIENTED_EDGE('',*,*,#252,.T.);
#375=ORIENTED_EDGE('',*,*,#281,.T.);
#376=ORIENTED_EDGE('',*,*,#287,.F.);
#377=ORIENTED_EDGE('',*,*,#266,.F.);
#378=ORIENTED_EDGE('',*,*,#269,.F.);
#379=ORIENTED_EDGE('',*,*,#271,.F.);
#380=ORIENTED_EDGE('',*,*,#272,.F.);
#381=ORIENTED_EDGE('',*,*,#288,.F.);
#382=ORIENTED_EDGE('',*,*,#287,.T.);
#383=ORIENTED_EDGE('',*,*,#280,.T.);
#384=ORIENTED_EDGE('',*,*,#289,.F.);
#385=ORIENTED_EDGE('',*,*,#290,.F.);
#386=ORIENTED_EDGE('',*,*,#289,.T.);
#387=ORIENTED_EDGE('',*,*,#279,.F.);
#388=ORIENTED_EDGE('',*,*,#291,.F.);
#389=ORIENTED_EDGE('',*,*,#292,.F.);
#390=ORIENTED_EDGE('',*,*,#291,.T.);
#391=ORIENTED_EDGE('',*,*,#283,.F.);
#392=ORIENTED_EDGE('',*,*,#285,.F.);
#393=ORIENTED_EDGE('',*,*,#286,.T.);
#394=ORIENTED_EDGE('',*,*,#288,.T.);
#395=ORIENTED_EDGE('',*,*,#290,.T.);
#396=ORIENTED_EDGE('',*,*,#292,.T.);
#397=ORIENTED_EDGE('',*,*,#284,.T.);
#398=ORIENTED_EDGE('',*,*,#276,.T.);
#399=ORIENTED_EDGE('',*,*,#273,.T.);
#400=ORIENTED_EDGE('',*,*,#249,.T.);
#401=ORIENTED_EDGE('',*,*,#293,.T.);
#402=ORIENTED_EDGE('',*,*,#294,.T.);
#403=ORIENTED_EDGE('',*,*,#295,.F.);
#404=ORIENTED_EDGE('',*,*,#296,.F.);
#405=ORIENTED_EDGE('',*,*,#295,.T.);
#406=ORIENTED_EDGE('',*,*,#297,.T.);
#407=ORIENTED_EDGE('',*,*,#298,.F.);
#408=ORIENTED_EDGE('',*,*,#299,.F.);
#409=ORIENTED_EDGE('',*,*,#298,.T.);
#410=ORIENTED_EDGE('',*,*,#300,.T.);
#411=ORIENTED_EDGE('',*,*,#301,.F.);
#412=ORIENTED_EDGE('',*,*,#302,.T.);
#413=ORIENTED_EDGE('',*,*,#301,.T.);
#414=ORIENTED_EDGE('',*,*,#303,.T.);
#415=ORIENTED_EDGE('',*,*,#293,.F.);
#416=ORIENTED_EDGE('',*,*,#304,.T.);
#417=ORIENTED_EDGE('',*,*,#296,.T.);
#418=ORIENTED_EDGE('',*,*,#299,.T.);
#419=ORIENTED_EDGE('',*,*,#302,.F.);
#420=ORIENTED_EDGE('',*,*,#304,.F.);
#421=ORIENTED_EDGE('',*,*,#305,.T.);
#422=ORIENTED_EDGE('',*,*,#306,.T.);
#423=ORIENTED_EDGE('',*,*,#307,.T.);
#424=ORIENTED_EDGE('',*,*,#308,.T.);
#425=ORIENTED_EDGE('',*,*,#309,.F.);
#426=ORIENTED_EDGE('',*,*,#297,.F.);
#427=ORIENTED_EDGE('',*,*,#310,.F.);
#428=ORIENTED_EDGE('',*,*,#308,.F.);
#429=ORIENTED_EDGE('',*,*,#310,.T.);
#430=ORIENTED_EDGE('',*,*,#294,.F.);
#431=ORIENTED_EDGE('',*,*,#311,.F.);
#432=ORIENTED_EDGE('',*,*,#305,.F.);
#433=ORIENTED_EDGE('',*,*,#309,.T.);
#434=ORIENTED_EDGE('',*,*,#307,.F.);
#435=ORIENTED_EDGE('',*,*,#312,.F.);
#436=ORIENTED_EDGE('',*,*,#300,.F.);
#437=ORIENTED_EDGE('',*,*,#311,.T.);
#438=ORIENTED_EDGE('',*,*,#303,.F.);
#439=ORIENTED_EDGE('',*,*,#312,.T.);
#440=ORIENTED_EDGE('',*,*,#306,.F.);
#441=PLANE('',#513);
#442=PLANE('',#514);
#443=PLANE('',#515);
#444=PLANE('',#516);
#445=PLANE('',#517);
#446=PLANE('',#518);
#447=PLANE('',#519);
#448=PLANE('',#520);
#449=PLANE('',#521);
#450=PLANE('',#522);
#451=PLANE('',#523);
#452=PLANE('',#524);
#453=PLANE('',#525);
#454=PLANE('',#526);
#455=PLANE('',#527);
#456=PLANE('',#528);
#457=PLANE('',#529);
#458=PLANE('',#530);
#459=PLANE('',#531);
#460=PLANE('',#532);
#461=PLANE('',#533);
#462=PLANE('',#534);
#463=PLANE('',#535);
#464=PLANE('',#536);
#465=PLANE('',#537);
#466=PLANE('',#538);
#467=PLANE('',#539);
#468=PLANE('',#540);
#469=ADVANCED_FACE('',(#23),#441,.F.);
#470=ADVANCED_FACE('',(#24),#442,.T.);
#471=ADVANCED_FACE('',(#25),#443,.T.);
#472=ADVANCED_FACE('',(#26),#444,.T.);
#473=ADVANCED_FACE('',(#27),#445,.T.);
#474=ADVANCED_FACE('',(#28),#446,.F.);
#475=ADVANCED_FACE('',(#29),#447,.F.);
#476=ADVANCED_FACE('',(#30),#448,.F.);
#477=ADVANCED_FACE('',(#31),#449,.F.);
#478=ADVANCED_FACE('',(#32),#450,.F.);
#479=ADVANCED_FACE('',(#33),#451,.F.);
#480=ADVANCED_FACE('',(#34),#452,.F.);
#481=ADVANCED_FACE('',(#35,#21),#453,.T.);
#482=ADVANCED_FACE('',(#36,#22),#454,.F.);
#483=ADVANCED_FACE('',(#37),#455,.F.);
#484=ADVANCED_FACE('',(#38),#456,.F.);
#485=ADVANCED_FACE('',(#39),#457,.F.);
#486=ADVANCED_FACE('',(#40),#458,.T.);
#487=ADVANCED_FACE('',(#41),#459,.F.);
#488=ADVANCED_FACE('',(#42),#460,.F.);
#489=ADVANCED_FACE('',(#43),#461,.T.);
#490=ADVANCED_FACE('',(#44),#462,.T.);
#491=ADVANCED_FACE('',(#45),#463,.T.);
#492=ADVANCED_FACE('',(#46),#464,.F.);
#493=ADVANCED_FACE('',(#47),#465,.F.);
#494=ADVANCED_FACE('',(#48),#466,.F.);
#495=ADVANCED_FACE('',(#49),#467,.T.);
#496=ADVANCED_FACE('',(#50),#468,.T.);
#497=CLOSED_SHELL('',(#469,#470,#471,#472,#473,#474,#475,#476,#477,#478,
#479,#480,#481,#482,#483,#484,#485,#486));
#498=CLOSED_SHELL('',(#487,#488,#489,#490,#491,#492,#493,#494,#495,#496));
#499=DERIVED_UNIT_ELEMENT(#501,1.);
#500=DERIVED_UNIT_ELEMENT(#810,-3.);
#501=(
MASS_UNIT()
NAMED_UNIT(*)
SI_UNIT(.KILO.,.GRAM.)
);
#502=DERIVED_UNIT((#499,#500));
#503=MEASURE_REPRESENTATION_ITEM('density measure',
POSITIVE_RATIO_MEASURE(7850.),#502);
#504=PROPERTY_DEFINITION_REPRESENTATION(#509,#506);
#505=PROPERTY_DEFINITION_REPRESENTATION(#510,#507);
#506=REPRESENTATION('material name',(#508),#807);
#507=REPRESENTATION('density',(#503),#807);
#508=DESCRIPTIVE_REPRESENTATION_ITEM('Acero','Acero');
#509=PROPERTY_DEFINITION('material property','material name',#822);
#510=PROPERTY_DEFINITION('material property','density of part',#822);
#511=AXIS2_PLACEMENT_3D('',#668,#542,#543);
#512=AXIS2_PLACEMENT_3D('',#669,#544,#545);
#513=AXIS2_PLACEMENT_3D('',#670,#546,#547);
#514=AXIS2_PLACEMENT_3D('',#679,#552,#553);
#515=AXIS2_PLACEMENT_3D('',#688,#558,#559);
#516=AXIS2_PLACEMENT_3D('',#694,#563,#564);
#517=AXIS2_PLACEMENT_3D('',#700,#568,#569);
#518=AXIS2_PLACEMENT_3D('',#703,#572,#573);
#519=AXIS2_PLACEMENT_3D('',#709,#577,#578);
#520=AXIS2_PLACEMENT_3D('',#713,#581,#582);
#521=AXIS2_PLACEMENT_3D('',#717,#585,#586);
#522=AXIS2_PLACEMENT_3D('',#719,#588,#589);
#523=AXIS2_PLACEMENT_3D('',#725,#593,#594);
#524=AXIS2_PLACEMENT_3D('',#731,#598,#599);
#525=AXIS2_PLACEMENT_3D('',#741,#605,#606);
#526=AXIS2_PLACEMENT_3D('',#745,#609,#610);
#527=AXIS2_PLACEMENT_3D('',#749,#613,#614);
#528=AXIS2_PLACEMENT_3D('',#753,#617,#618);
#529=AXIS2_PLACEMENT_3D('',#757,#621,#622);
#530=AXIS2_PLACEMENT_3D('',#759,#624,#625);
#531=AXIS2_PLACEMENT_3D('',#760,#626,#627);
#532=AXIS2_PLACEMENT_3D('',#769,#632,#633);
#533=AXIS2_PLACEMENT_3D('',#775,#637,#638);
#534=AXIS2_PLACEMENT_3D('',#781,#642,#643);
#535=AXIS2_PLACEMENT_3D('',#784,#646,#647);
#536=AXIS2_PLACEMENT_3D('',#785,#648,#649);
#537=AXIS2_PLACEMENT_3D('',#794,#654,#655);
#538=AXIS2_PLACEMENT_3D('',#797,#658,#659);
#539=AXIS2_PLACEMENT_3D('',#799,#661,#662);
#540=AXIS2_PLACEMENT_3D('',#801,#664,#665);
#541=AXIS2_PLACEMENT_3D('',#802,#666,#667);
#542=DIRECTION('axis',(0.,0.,1.));
#543=DIRECTION('refdir',(1.,0.,0.));
#544=DIRECTION('axis',(0.,0.,1.));
#545=DIRECTION('refdir',(1.,0.,0.));
#546=DIRECTION('center_axis',(8.53702498020082E-17,-1.,0.));
#547=DIRECTION('ref_axis',(1.,8.53702498020082E-17,0.));
#548=DIRECTION('',(0.,0.,1.));
#549=DIRECTION('',(-1.,-8.53702498020082E-17,0.));
#550=DIRECTION('',(0.,0.,1.));
#551=DIRECTION('',(-1.,-8.53702498020082E-17,0.));
#552=DIRECTION('center_axis',(0.,-0.707106781186546,0.707106781186549));
#553=DIRECTION('ref_axis',(1.,0.,0.));
#554=DIRECTION('',(0.577350269189627,0.577350269189627,0.577350269189624));
#555=DIRECTION('',(1.,0.,0.));
#556=DIRECTION('',(0.577350269189627,-0.577350269189627,-0.577350269189624));
#557=DIRECTION('',(-1.,0.,0.));
#558=DIRECTION('center_axis',(0.707106781186546,5.89728237185912E-17,0.707106781186549));
#559=DIRECTION('ref_axis',(-8.34001671142696E-17,1.,-6.16297582203915E-33));
#560=DIRECTION('',(0.577350269189627,0.577350269189627,-0.577350269189624));
#561=DIRECTION('',(8.34001671142696E-17,-1.,0.));
#562=DIRECTION('',(-8.34001671142696E-17,1.,0.));
#563=DIRECTION('center_axis',(-0.707106781186546,-5.89728237185912E-17,
0.707106781186549));
#564=DIRECTION('ref_axis',(8.34001671142696E-17,-1.,-6.16297582203915E-33));
#565=DIRECTION('',(0.577350269189627,-0.577350269189627,0.577350269189624));
#566=DIRECTION('',(8.34001671142696E-17,-1.,0.));
#567=DIRECTION('',(-8.34001671142696E-17,1.,0.));
#568=DIRECTION('center_axis',(0.,0.707106781186546,0.707106781186549));
#569=DIRECTION('ref_axis',(-1.,0.,0.));
#570=DIRECTION('',(-1.,0.,0.));
#571=DIRECTION('',(1.,0.,0.));
#572=DIRECTION('center_axis',(0.,-1.,0.));
#573=DIRECTION('ref_axis',(0.,0.,-1.));
#574=DIRECTION('',(0.,0.,1.));
#575=DIRECTION('',(-1.,0.,0.));
#576=DIRECTION('',(0.,0.,1.));
#577=DIRECTION('center_axis',(1.,8.34001671142696E-17,0.));
#578=DIRECTION('ref_axis',(-8.34001671142696E-17,1.,0.));
#579=DIRECTION('',(0.,0.,1.));
#580=DIRECTION('',(8.34001671142696E-17,-1.,0.));
#581=DIRECTION('center_axis',(0.,1.,0.));
#582=DIRECTION('ref_axis',(0.,0.,1.));
#583=DIRECTION('',(0.,0.,1.));
#584=DIRECTION('',(1.,0.,0.));
#585=DIRECTION('center_axis',(-1.,-8.34001671142696E-17,0.));
#586=DIRECTION('ref_axis',(8.34001671142696E-17,-1.,0.));
#587=DIRECTION('',(-8.34001671142696E-17,1.,0.));
#588=DIRECTION('center_axis',(0.,0.,1.));
#589=DIRECTION('ref_axis',(1.,0.,0.));
#590=DIRECTION('',(1.80700362080917E-16,1.,0.));
#591=DIRECTION('',(1.,0.,0.));
#592=DIRECTION('',(8.53702498020082E-17,-1.,0.));
#593=DIRECTION('center_axis',(0.,1.,0.));
#594=DIRECTION('ref_axis',(0.,0.,1.));
#595=DIRECTION('',(0.,0.,-1.));
#596=DIRECTION('',(1.,0.,0.));
#597=DIRECTION('',(0.,0.,-1.));
#598=DIRECTION('center_axis',(1.,8.53702498020082E-17,0.));
#599=DIRECTION('ref_axis',(-8.53702498020082E-17,1.,0.));
#600=DIRECTION('',(8.53702498020082E-17,-1.,0.));
#601=DIRECTION('',(0.,-7.2280144832367E-16,-1.));
#602=DIRECTION('',(0.,1.,0.));
#603=DIRECTION('',(8.53702498020082E-17,-1.,0.));
#604=DIRECTION('',(0.,0.,-1.));
#605=DIRECTION('center_axis',(0.,0.,1.));
#606=DIRECTION('ref_axis',(1.,0.,0.));
#607=DIRECTION('',(-1.80700362080917E-16,-1.,0.));
#608=DIRECTION('',(-1.,0.,0.));
#609=DIRECTION('center_axis',(0.,0.,1.));
#610=DIRECTION('ref_axis',(1.,0.,0.));
#611=DIRECTION('',(1.80700362080917E-16,1.,0.));
#612=DIRECTION('',(-1.,-8.53702498020082E-17,0.));
#613=DIRECTION('center_axis',(-8.53702498020082E-17,1.,-7.2280144832367E-16));
#614=DIRECTION('ref_axis',(0.,7.2280144832367E-16,1.));
#615=DIRECTION('',(-1.30610483424699E-31,-7.2280144832367E-16,-1.));
#616=DIRECTION('',(-1.,-8.53702498020082E-17,0.));
#617=DIRECTION('center_axis',(0.,0.,1.));
#618=DIRECTION('ref_axis',(1.,0.,0.));
#619=DIRECTION('',(1.80700362080917E-16,1.,0.));
#620=DIRECTION('',(-1.,0.,0.));
#621=DIRECTION('center_axis',(0.,-1.,0.));
#622=DIRECTION('ref_axis',(0.,0.,-1.));
#623=DIRECTION('',(0.,0.,1.));
#624=DIRECTION('center_axis',(1.,-1.80700362080917E-16,0.));
#625=DIRECTION('ref_axis',(0.,0.,-1.));
#626=DIRECTION('center_axis',(0.,-1.,0.));
#627=DIRECTION('ref_axis',(0.,0.,-1.));
#628=DIRECTION('',(0.,0.,-1.));
#629=DIRECTION('',(-1.,0.,0.));
#630=DIRECTION('',(0.,0.,-1.));
#631=DIRECTION('',(-1.,0.,0.));
#632=DIRECTION('center_axis',(1.,-1.80700362080917E-16,0.));
#633=DIRECTION('ref_axis',(1.80700362080917E-16,1.,0.));
#634=DIRECTION('',(-1.80700362080917E-16,-1.,0.));
#635=DIRECTION('',(0.,0.,-1.));
#636=DIRECTION('',(-1.80700362080917E-16,-1.,0.));
#637=DIRECTION('center_axis',(0.,-1.,0.));
#638=DIRECTION('ref_axis',(0.,0.,-1.));
#639=DIRECTION('',(1.,0.,0.));
#640=DIRECTION('',(0.,0.,-1.));
#641=DIRECTION('',(-1.,0.,0.));
#642=DIRECTION('center_axis',(1.,-1.80700362080917E-16,0.));
#643=DIRECTION('ref_axis',(1.80700362080917E-16,1.,0.));
#644=DIRECTION('',(1.80700362080917E-16,1.,0.));
#645=DIRECTION('',(-1.80700362080917E-16,-1.,0.));
#646=DIRECTION('center_axis',(0.,0.,1.));
#647=DIRECTION('ref_axis',(1.,0.,0.));
#648=DIRECTION('center_axis',(0.,0.,1.));
#649=DIRECTION('ref_axis',(1.,0.,0.));
#650=DIRECTION('',(1.,0.,0.));
#651=DIRECTION('',(-1.80700362080917E-16,-1.,0.));
#652=DIRECTION('',(-1.,0.,0.));
#653=DIRECTION('',(1.80700362080917E-16,1.,0.));
#654=DIRECTION('center_axis',(0.70710678118655,-1.27774451390282E-16,0.707106781186545));
#655=DIRECTION('ref_axis',(-1.80700362080917E-16,-1.,1.23259516440783E-32));
#656=DIRECTION('',(0.577350269189625,0.577350269189625,-0.577350269189628));
#657=DIRECTION('',(-0.577350269189625,0.577350269189625,0.577350269189628));
#658=DIRECTION('center_axis',(0.,-0.70710678118655,0.707106781186545));
#659=DIRECTION('ref_axis',(-1.,0.,0.));
#660=DIRECTION('',(0.577350269189625,0.577350269189625,0.577350269189628));
#661=DIRECTION('center_axis',(0.,-0.70710678118655,-0.707106781186545));
#662=DIRECTION('ref_axis',(1.,0.,0.));
#663=DIRECTION('',(-0.577350269189625,0.577350269189625,-0.577350269189628));
#664=DIRECTION('center_axis',(0.70710678118655,-1.27774451390282E-16,-0.707106781186545));
#665=DIRECTION('ref_axis',(1.80700362080917E-16,1.,1.23259516440783E-32));
#666=DIRECTION('',(0.,0.,1.));
#667=DIRECTION('',(1.,0.,0.));
#668=CARTESIAN_POINT('',(0.,0.,0.));
#669=CARTESIAN_POINT('',(0.,0.,0.));
#670=CARTESIAN_POINT('Origin',(19.05,-0.599999999999998,1.70562279199527E-16));
#671=CARTESIAN_POINT('',(1.27,-0.6,1.70562279199527E-16));
#672=CARTESIAN_POINT('',(1.27,-0.6,0.3));
#673=CARTESIAN_POINT('',(1.27,-0.6,2.125));
#674=CARTESIAN_POINT('',(-1.27,-0.6,1.70562279199527E-16));
#675=CARTESIAN_POINT('',(19.05,-0.599999999999998,1.70562279199527E-16));
#676=CARTESIAN_POINT('',(-1.27,-0.6,0.3));
#677=CARTESIAN_POINT('',(-1.27,-0.6,1.70562279199527E-16));
#678=CARTESIAN_POINT('',(19.05,-0.599999999999998,0.3));
#679=CARTESIAN_POINT('Origin',(-0.325,0.325,7.85));
#680=CARTESIAN_POINT('',(0.325,0.325,7.85));
#681=CARTESIAN_POINT('',(0.975000000000001,0.975000000000001,8.5));
#682=CARTESIAN_POINT('',(0.108333333333333,0.108333333333333,7.63333333333334));
#683=CARTESIAN_POINT('',(-0.975000000000001,0.975000000000001,8.5));
#684=CARTESIAN_POINT('',(0.325,0.975000000000001,8.5));
#685=CARTESIAN_POINT('',(-0.325,0.325,7.85));
#686=CARTESIAN_POINT('',(-0.325,0.325,7.85));
#687=CARTESIAN_POINT('',(-0.325,0.325,7.85));
#688=CARTESIAN_POINT('Origin',(-0.325,0.325,7.85));
#689=CARTESIAN_POINT('',(-0.975000000000001,-0.975000000000001,8.5));
#690=CARTESIAN_POINT('',(-0.325,-0.325,7.85));
#691=CARTESIAN_POINT('',(-0.325,-0.325,7.85));
#692=CARTESIAN_POINT('',(-0.325,-0.325,7.85));
#693=CARTESIAN_POINT('',(-0.975000000000001,0.325,8.5));
#694=CARTESIAN_POINT('Origin',(0.325,0.325,7.85));
#695=CARTESIAN_POINT('',(0.325,-0.325,7.85));
#696=CARTESIAN_POINT('',(0.975000000000001,-0.975000000000001,8.5));
#697=CARTESIAN_POINT('',(0.108333333333333,-0.108333333333333,7.63333333333334));
#698=CARTESIAN_POINT('',(0.975000000000001,-0.325,8.5));
#699=CARTESIAN_POINT('',(0.325,0.325,7.85));
#700=CARTESIAN_POINT('Origin',(-0.325,-0.325,7.85));
#701=CARTESIAN_POINT('',(-0.325,-0.975000000000001,8.5));
#702=CARTESIAN_POINT('',(0.325,-0.325,7.85));
#703=CARTESIAN_POINT('Origin',(-0.325,-0.325,0.));
#704=CARTESIAN_POINT('',(0.325,-0.325,0.3));
#705=CARTESIAN_POINT('',(0.325,-0.325,0.));
#706=CARTESIAN_POINT('',(-0.325,-0.325,0.3));
#707=CARTESIAN_POINT('',(-0.325,-0.325,0.3));
#708=CARTESIAN_POINT('',(-0.325,-0.325,0.));
#709=CARTESIAN_POINT('Origin',(0.325,0.325,0.));
#710=CARTESIAN_POINT('',(0.325,0.325,0.3));
#711=CARTESIAN_POINT('',(0.325,0.325,0.));
#712=CARTESIAN_POINT('',(0.325,0.325,0.3));
#713=CARTESIAN_POINT('Origin',(-0.325,0.325,0.));
#714=CARTESIAN_POINT('',(-0.325,0.325,0.3));
#715=CARTESIAN_POINT('',(-0.325,0.325,0.));
#716=CARTESIAN_POINT('',(-0.325,0.325,0.3));
#717=CARTESIAN_POINT('Origin',(-0.325,0.325,0.));
#718=CARTESIAN_POINT('',(-0.325,0.325,0.3));
#719=CARTESIAN_POINT('Origin',(0.,0.,0.));
#720=CARTESIAN_POINT('',(1.27,-1.27,0.));
#721=CARTESIAN_POINT('',(1.27,4.34945771528768E-16,0.));
#722=CARTESIAN_POINT('',(-1.27,-1.27,0.));
#723=CARTESIAN_POINT('',(-1.27,-1.27,0.));
#724=CARTESIAN_POINT('',(-1.27,1.27,0.));
#725=CARTESIAN_POINT('Origin',(-1.27,-1.27,8.5));
#726=CARTESIAN_POINT('',(1.27,-1.27,8.5));
#727=CARTESIAN_POINT('',(1.27,-1.27,6.375));
#728=CARTESIAN_POINT('',(-1.27,-1.27,8.5));
#729=CARTESIAN_POINT('',(-1.27,-1.27,8.5));
#730=CARTESIAN_POINT('',(-1.27,-1.27,8.5));
#731=CARTESIAN_POINT('Origin',(-1.27,1.27,8.5));
#732=CARTESIAN_POINT('',(-1.27,1.27,0.));
#733=CARTESIAN_POINT('',(-1.27,0.6,-4.98741446469969E-17));
#734=CARTESIAN_POINT('',(-1.27,1.27,0.));
#735=CARTESIAN_POINT('',(-1.27,0.6,0.3));
#736=CARTESIAN_POINT('',(-1.27,0.6,-4.98741446469969E-17));
#737=CARTESIAN_POINT('',(-1.27,0.6,0.3));
#738=CARTESIAN_POINT('',(-1.27,1.27,8.5));
#739=CARTESIAN_POINT('',(-1.27,1.27,8.5));
#740=CARTESIAN_POINT('',(-1.27,1.27,8.5));
#741=CARTESIAN_POINT('Origin',(0.,0.,8.5));
#742=CARTESIAN_POINT('',(1.27,1.27,8.5));
#743=CARTESIAN_POINT('',(1.27,4.34945771528768E-16,8.5));
#744=CARTESIAN_POINT('',(-1.27,1.27,8.5));
#745=CARTESIAN_POINT('Origin',(19.05,0.600000000000002,0.3));
#746=CARTESIAN_POINT('',(1.27,0.6,0.3));
#747=CARTESIAN_POINT('',(1.27,0.300000000000003,0.3));
#748=CARTESIAN_POINT('',(19.05,0.600000000000002,0.3));
#749=CARTESIAN_POINT('Origin',(19.05,0.600000000000001,-4.98741446469969E-17));
#750=CARTESIAN_POINT('',(1.27,0.6,-4.98741446469969E-17));
#751=CARTESIAN_POINT('',(1.27,0.600000000000001,2.125));
#752=CARTESIAN_POINT('',(19.05,0.600000000000001,-4.98741446469969E-17));
#753=CARTESIAN_POINT('Origin',(0.,0.,0.));
#754=CARTESIAN_POINT('',(1.27,1.27,0.));
#755=CARTESIAN_POINT('',(1.27,4.34945771528768E-16,0.));
#756=CARTESIAN_POINT('',(-1.27,1.27,0.));
#757=CARTESIAN_POINT('Origin',(-1.27,1.27,8.5));
#758=CARTESIAN_POINT('',(1.27,1.27,6.375));
#759=CARTESIAN_POINT('Origin',(1.27,1.0993810029003E-15,4.25));
#760=CARTESIAN_POINT('Origin',(0.3,0.3,3.));
#761=CARTESIAN_POINT('',(0.3,0.3,3.));
#762=CARTESIAN_POINT('',(0.3,0.3,-2.85));
#763=CARTESIAN_POINT('',(0.3,0.3,3.));
#764=CARTESIAN_POINT('',(-0.3,0.3,-2.85));
#765=CARTESIAN_POINT('',(0.3,0.3,-2.85));
#766=CARTESIAN_POINT('',(-0.3,0.3,3.));
#767=CARTESIAN_POINT('',(-0.3,0.3,3.));
#768=CARTESIAN_POINT('',(0.3,0.3,3.));
#769=CARTESIAN_POINT('Origin',(-0.3,0.3,3.));
#770=CARTESIAN_POINT('',(-0.3,-0.3,-2.85));
#771=CARTESIAN_POINT('',(-0.3,0.3,-2.85));
#772=CARTESIAN_POINT('',(-0.3,-0.3,3.));
#773=CARTESIAN_POINT('',(-0.3,-0.3,3.));
#774=CARTESIAN_POINT('',(-0.3,0.3,3.));
#775=CARTESIAN_POINT('Origin',(0.3,-0.3,3.));
#776=CARTESIAN_POINT('',(0.3,-0.3,-2.85));
#777=CARTESIAN_POINT('',(0.3,-0.3,-2.85));
#778=CARTESIAN_POINT('',(0.3,-0.3,3.));
#779=CARTESIAN_POINT('',(0.3,-0.3,3.));
#780=CARTESIAN_POINT('',(0.3,-0.3,3.));
#781=CARTESIAN_POINT('Origin',(0.3,0.3,3.));
#782=CARTESIAN_POINT('',(0.3,0.3,-2.85));
#783=CARTESIAN_POINT('',(0.3,0.3,3.));
#784=CARTESIAN_POINT('Origin',(0.,0.,3.));
#785=CARTESIAN_POINT('Origin',(0.,0.,-3.));
#786=CARTESIAN_POINT('',(-0.149999999999999,0.149999999999999,-3.));
#787=CARTESIAN_POINT('',(0.149999999999999,0.149999999999999,-3.));
#788=CARTESIAN_POINT('',(0.,0.149999999999999,-3.));
#789=CARTESIAN_POINT('',(0.149999999999999,-0.149999999999999,-3.));
#790=CARTESIAN_POINT('',(0.149999999999999,-0.3,-3.));
#791=CARTESIAN_POINT('',(-0.149999999999999,-0.149999999999999,-3.));
#792=CARTESIAN_POINT('',(-0.3,-0.149999999999999,-3.));
#793=CARTESIAN_POINT('',(-0.149999999999999,2.71050543121375E-17,-3.));
#794=CARTESIAN_POINT('Origin',(-0.3,0.3,-2.85));
#795=CARTESIAN_POINT('',(-0.0999999999999997,-0.0999999999999995,-3.05));
#796=CARTESIAN_POINT('',(-0.3,0.3,-2.85));
#797=CARTESIAN_POINT('Origin',(0.3,0.3,-2.85));
#798=CARTESIAN_POINT('',(0.3,0.3,-2.85));
#799=CARTESIAN_POINT('Origin',(0.,-0.149999999999999,-3.));
#800=CARTESIAN_POINT('',(0.0999999999999996,-0.0999999999999996,-3.05));
#801=CARTESIAN_POINT('Origin',(0.149999999999999,-2.71050543121374E-17,
-3.));
#802=CARTESIAN_POINT('',(0.,0.,0.));
#803=UNCERTAINTY_MEASURE_WITH_UNIT(LENGTH_MEASURE(0.01),#809,
'DISTANCE_ACCURACY_VALUE',
'Maximum model space distance between geometric entities at asserted c
onnectivities');
#804=UNCERTAINTY_MEASURE_WITH_UNIT(LENGTH_MEASURE(0.01),#809,
'DISTANCE_ACCURACY_VALUE',
'Maximum model space distance between geometric entities at asserted c
onnectivities');
#805=UNCERTAINTY_MEASURE_WITH_UNIT(LENGTH_MEASURE(0.01),#809,
'DISTANCE_ACCURACY_VALUE',
'Maximum model space distance between geometric entities at asserted c
onnectivities');
#806=(
GEOMETRIC_REPRESENTATION_CONTEXT(3)
GLOBAL_UNCERTAINTY_ASSIGNED_CONTEXT((#803))
GLOBAL_UNIT_ASSIGNED_CONTEXT((#809,#811,#812))
REPRESENTATION_CONTEXT('','3D')
);
#807=(
GEOMETRIC_REPRESENTATION_CONTEXT(3)
GLOBAL_UNCERTAINTY_ASSIGNED_CONTEXT((#804))
GLOBAL_UNIT_ASSIGNED_CONTEXT((#809,#811,#812))
REPRESENTATION_CONTEXT('','3D')
);
#808=(
GEOMETRIC_REPRESENTATION_CONTEXT(3)
GLOBAL_UNCERTAINTY_ASSIGNED_CONTEXT((#805))
GLOBAL_UNIT_ASSIGNED_CONTEXT((#809,#811,#812))
REPRESENTATION_CONTEXT('','3D')
);
#809=(
LENGTH_UNIT()
NAMED_UNIT(*)
SI_UNIT(.MILLI.,.METRE.)
);
#810=(
LENGTH_UNIT()
NAMED_UNIT(*)
SI_UNIT($,.METRE.)
);
#811=(
NAMED_UNIT(*)
PLANE_ANGLE_UNIT()
SI_UNIT($,.RADIAN.)
);
#812=(
NAMED_UNIT(*)
SI_UNIT($,.STERADIAN.)
SOLID_ANGLE_UNIT()
);
#813=SHAPE_DEFINITION_REPRESENTATION(#815,#818);
#814=SHAPE_DEFINITION_REPRESENTATION(#816,#819);
#815=PRODUCT_DEFINITION_SHAPE('',$,#821);
#816=PRODUCT_DEFINITION_SHAPE('',$,#822);
#817=PRODUCT_DEFINITION_SHAPE($,$,#14);
#818=SHAPE_REPRESENTATION('',(#511,#541),#806);
#819=SHAPE_REPRESENTATION('',(#512),#807);
#820=PRODUCT_DEFINITION_CONTEXT('part definition',#828,'design');
#821=PRODUCT_DEFINITION('FemaleHeader','FemaleHeader 2.54mm v3',#823,#820);
#822=PRODUCT_DEFINITION('Female_Header','Female_Header',#824,#820);
#823=PRODUCT_DEFINITION_FORMATION('',$,#830);
#824=PRODUCT_DEFINITION_FORMATION('',$,#831);
#825=PRODUCT_RELATED_PRODUCT_CATEGORY('FemaleHeader 2.54mm v3',
'FemaleHeader 2.54mm v3',(#830));
#826=PRODUCT_RELATED_PRODUCT_CATEGORY('Female_Header','Female_Header',(#831));
#827=APPLICATION_PROTOCOL_DEFINITION('international standard',
'automotive_design',2009,#828);
#828=APPLICATION_CONTEXT(
'Core Data for Automotive Mechanical Design Process');
#829=PRODUCT_CONTEXT('part definition',#828,'mechanical');
#830=PRODUCT('FemaleHeader','FemaleHeader 2.54mm v3','STEP AP214',(#829));
#831=PRODUCT('Female_Header','Female_Header',$,(#829));
#832=PRESENTATION_STYLE_ASSIGNMENT((#835));
#833=PRESENTATION_STYLE_ASSIGNMENT((#836));
#834=PRESENTATION_STYLE_ASSIGNMENT((#837));
#835=SURFACE_STYLE_USAGE(.BOTH.,#838);
#836=SURFACE_STYLE_USAGE(.BOTH.,#839);
#837=SURFACE_STYLE_USAGE(.BOTH.,#840);
#838=SURFACE_SIDE_STYLE('',(#841));
#839=SURFACE_SIDE_STYLE('',(#842));
#840=SURFACE_SIDE_STYLE('',(#843));
#841=SURFACE_STYLE_FILL_AREA(#844);
#842=SURFACE_STYLE_FILL_AREA(#845);
#843=SURFACE_STYLE_FILL_AREA(#846);
#844=FILL_AREA_STYLE('Acero - Satinado',(#847));
#845=FILL_AREA_STYLE('Opaque(76,76,76)',(#848));
#846=FILL_AREA_STYLE('Opaque(229,235,237)',(#849));
#847=FILL_AREA_STYLE_COLOUR('Acero - Satinado',#850);
#848=FILL_AREA_STYLE_COLOUR('Opaque(76,76,76)',#851);
#849=FILL_AREA_STYLE_COLOUR('Opaque(229,235,237)',#852);
#850=COLOUR_RGB('Acero - Satinado',0.627450980392157,0.627450980392157,
0.627450980392157);
#851=COLOUR_RGB('Opaque(76,76,76)',0.298039215686275,0.298039215686275,
0.298039215686275);
#852=COLOUR_RGB('Opaque(229,235,237)',0.898039215686275,0.92156862745098,
0.929411764705882);
ENDSEC;
END-ISO-10303-21;
