ISO-10303-21;
HEADER;
/* Generated by software containing ST-Developer
 * from STEP Tools, Inc. (www.steptools.com) 
 */

FILE_DESCRIPTION(
/* description */ ('FreeCAD Model'),
/* implementation_level */ '2;1');

FILE_NAME(
/* name */ 'MaleHeader 2.54mm.step',
/* time_stamp */ '2026-06-11T13:04:21-04:00',
/* author */ (''),
/* organization */ (''),
/* preprocessor_version */ 'ST-DEVELOPER v20.1',
/* originating_system */ 'Autodesk Translation Framework v15.8.0.0',
/* authorisation */ '');

FILE_SCHEMA (('AUTOMOTIVE_DESIGN { 1 0 10303 214 3 1 1 }'));
ENDSEC;

DATA;
#10=MECHANICAL_DESIGN_GEOMETRIC_PRESENTATION_REPRESENTATION('',(#466,#467,
#468,#469,#470,#471,#472,#473,#474,#475,#476,#477,#478,#479,#480,#481,#482,
#483,#484,#485,#486,#487,#488,#489,#490,#491,#492,#493),#832);
#11=ITEM_DEFINED_TRANSFORMATION($,$,#536,#565);
#12=(
REPRESENTATION_RELATIONSHIP($,$,#843,#842)
REPRESENTATION_RELATIONSHIP_WITH_TRANSFORMATION(#11)
SHAPE_REPRESENTATION_RELATIONSHIP()
);
#13=CONTEXT_DEPENDENT_SHAPE_REPRESENTATION(#12,#841);
#14=NEXT_ASSEMBLY_USAGE_OCCURRENCE('Male_Header:1','Male_Header:1',
'Male_Header:1',#845,#846,'Male_Header:1');
#15=SHAPE_REPRESENTATION_RELATIONSHIP('SRR','None',#843,#16);
#16=ADVANCED_BREP_SHAPE_REPRESENTATION('',(#17),#831);
#17=MANIFOLD_SOLID_BREP('Male_Header',#522);
#18=FACE_BOUND('',#63,.T.);
#19=FACE_BOUND('',#76,.T.);
#20=FACE_OUTER_BOUND('',#48,.T.);
#21=FACE_OUTER_BOUND('',#49,.T.);
#22=FACE_OUTER_BOUND('',#50,.T.);
#23=FACE_OUTER_BOUND('',#51,.T.);
#24=FACE_OUTER_BOUND('',#52,.T.);
#25=FACE_OUTER_BOUND('',#53,.T.);
#26=FACE_OUTER_BOUND('',#54,.T.);
#27=FACE_OUTER_BOUND('',#55,.T.);
#28=FACE_OUTER_BOUND('',#56,.T.);
#29=FACE_OUTER_BOUND('',#57,.T.);
#30=FACE_OUTER_BOUND('',#58,.T.);
#31=FACE_OUTER_BOUND('',#59,.T.);
#32=FACE_OUTER_BOUND('',#60,.T.);
#33=FACE_OUTER_BOUND('',#61,.T.);
#34=FACE_OUTER_BOUND('',#62,.T.);
#35=FACE_OUTER_BOUND('',#64,.T.);
#36=FACE_OUTER_BOUND('',#65,.T.);
#37=FACE_OUTER_BOUND('',#66,.T.);
#38=FACE_OUTER_BOUND('',#67,.T.);
#39=FACE_OUTER_BOUND('',#68,.T.);
#40=FACE_OUTER_BOUND('',#69,.T.);
#41=FACE_OUTER_BOUND('',#70,.T.);
#42=FACE_OUTER_BOUND('',#71,.T.);
#43=FACE_OUTER_BOUND('',#72,.T.);
#44=FACE_OUTER_BOUND('',#73,.T.);
#45=FACE_OUTER_BOUND('',#74,.T.);
#46=FACE_OUTER_BOUND('',#75,.T.);
#47=FACE_OUTER_BOUND('',#77,.T.);
#48=EDGE_LOOP('',(#310,#311,#312,#313));
#49=EDGE_LOOP('',(#314,#315,#316,#317));
#50=EDGE_LOOP('',(#318,#319,#320,#321));
#51=EDGE_LOOP('',(#322,#323,#324,#325));
#52=EDGE_LOOP('',(#326,#327,#328,#329));
#53=EDGE_LOOP('',(#330,#331,#332,#333));
#54=EDGE_LOOP('',(#334,#335,#336,#337));
#55=EDGE_LOOP('',(#338,#339,#340,#341));
#56=EDGE_LOOP('',(#342,#343,#344,#345));
#57=EDGE_LOOP('',(#346,#347,#348,#349));
#58=EDGE_LOOP('',(#350,#351,#352,#353));
#59=EDGE_LOOP('',(#354,#355,#356,#357));
#60=EDGE_LOOP('',(#358,#359,#360,#361));
#61=EDGE_LOOP('',(#362,#363,#364,#365));
#62=EDGE_LOOP('',(#366,#367,#368,#369,#370,#371,#372,#373));
#63=EDGE_LOOP('',(#374,#375,#376,#377));
#64=EDGE_LOOP('',(#378,#379,#380,#381));
#65=EDGE_LOOP('',(#382,#383,#384,#385));
#66=EDGE_LOOP('',(#386,#387,#388,#389));
#67=EDGE_LOOP('',(#390,#391,#392,#393));
#68=EDGE_LOOP('',(#394,#395,#396,#397));
#69=EDGE_LOOP('',(#398,#399,#400,#401));
#70=EDGE_LOOP('',(#402,#403,#404,#405));
#71=EDGE_LOOP('',(#406,#407,#408,#409));
#72=EDGE_LOOP('',(#410,#411,#412,#413));
#73=EDGE_LOOP('',(#414,#415,#416,#417));
#74=EDGE_LOOP('',(#418,#419,#420,#421));
#75=EDGE_LOOP('',(#422,#423,#424,#425,#426,#427,#428,#429));
#76=EDGE_LOOP('',(#430,#431,#432,#433));
#77=EDGE_LOOP('',(#434,#435,#436,#437));
#78=LINE('',#697,#142);
#79=LINE('',#699,#143);
#80=LINE('',#701,#144);
#81=LINE('',#702,#145);
#82=LINE('',#705,#146);
#83=LINE('',#707,#147);
#84=LINE('',#708,#148);
#85=LINE('',#711,#149);
#86=LINE('',#712,#150);
#87=LINE('',#715,#151);
#88=LINE('',#716,#152);
#89=LINE('',#718,#153);
#90=LINE('',#722,#154);
#91=LINE('',#724,#155);
#92=LINE('',#726,#156);
#93=LINE('',#727,#157);
#94=LINE('',#730,#158);
#95=LINE('',#732,#159);
#96=LINE('',#733,#160);
#97=LINE('',#736,#161);
#98=LINE('',#737,#162);
#99=LINE('',#740,#163);
#100=LINE('',#741,#164);
#101=LINE('',#743,#165);
#102=LINE('',#746,#166);
#103=LINE('',#748,#167);
#104=LINE('',#749,#168);
#105=LINE('',#752,#169);
#106=LINE('',#753,#170);
#107=LINE('',#756,#171);
#108=LINE('',#757,#172);
#109=LINE('',#759,#173);
#110=LINE('',#763,#174);
#111=LINE('',#765,#175);
#112=LINE('',#767,#176);
#113=LINE('',#769,#177);
#114=LINE('',#771,#178);
#115=LINE('',#773,#179);
#116=LINE('',#775,#180);
#117=LINE('',#776,#181);
#118=LINE('',#779,#182);
#119=LINE('',#781,#183);
#120=LINE('',#782,#184);
#121=LINE('',#785,#185);
#122=LINE('',#786,#186);
#123=LINE('',#789,#187);
#124=LINE('',#790,#188);
#125=LINE('',#792,#189);
#126=LINE('',#795,#190);
#127=LINE('',#797,#191);
#128=LINE('',#798,#192);
#129=LINE('',#801,#193);
#130=LINE('',#802,#194);
#131=LINE('',#805,#195);
#132=LINE('',#806,#196);
#133=LINE('',#809,#197);
#134=LINE('',#810,#198);
#135=LINE('',#813,#199);
#136=LINE('',#814,#200);
#137=LINE('',#817,#201);
#138=LINE('',#818,#202);
#139=LINE('',#821,#203);
#140=LINE('',#822,#204);
#141=LINE('',#824,#205);
#142=VECTOR('',#572,1.);
#143=VECTOR('',#573,1.);
#144=VECTOR('',#574,1.);
#145=VECTOR('',#575,1.);
#146=VECTOR('',#578,1.00000000000065);
#147=VECTOR('',#579,1.00000000000065);
#148=VECTOR('',#580,1.);
#149=VECTOR('',#583,1.00000000000065);
#150=VECTOR('',#584,1.);
#151=VECTOR('',#587,1.00000000000065);
#152=VECTOR('',#588,1.);
#153=VECTOR('',#591,1.);
#154=VECTOR('',#594,1.);
#155=VECTOR('',#595,1.);
#156=VECTOR('',#596,1.);
#157=VECTOR('',#597,1.);
#158=VECTOR('',#600,1.);
#159=VECTOR('',#601,1.);
#160=VECTOR('',#602,1.);
#161=VECTOR('',#605,1.);
#162=VECTOR('',#606,1.);
#163=VECTOR('',#609,1.);
#164=VECTOR('',#610,1.);
#165=VECTOR('',#613,1.);
#166=VECTOR('',#616,1.00000000000065);
#167=VECTOR('',#617,1.);
#168=VECTOR('',#618,1.00000000000065);
#169=VECTOR('',#621,1.);
#170=VECTOR('',#622,1.00000000000065);
#171=VECTOR('',#625,1.);
#172=VECTOR('',#626,1.00000000000065);
#173=VECTOR('',#629,1.);
#174=VECTOR('',#632,10.);
#175=VECTOR('',#633,1.00000000000064);
#176=VECTOR('',#634,1.);
#177=VECTOR('',#635,1.00000000000064);
#178=VECTOR('',#636,1.);
#179=VECTOR('',#637,1.00000000000064);
#180=VECTOR('',#638,1.);
#181=VECTOR('',#639,1.00000000000064);
#182=VECTOR('',#642,1.);
#183=VECTOR('',#643,1.);
#184=VECTOR('',#644,1.);
#185=VECTOR('',#647,1.);
#186=VECTOR('',#648,1.);
#187=VECTOR('',#651,1.);
#188=VECTOR('',#652,1.);
#189=VECTOR('',#655,1.);
#190=VECTOR('',#658,1.);
#191=VECTOR('',#659,1.00000000000064);
#192=VECTOR('',#660,1.);
#193=VECTOR('',#663,1.);
#194=VECTOR('',#664,1.);
#195=VECTOR('',#667,1.);
#196=VECTOR('',#668,1.00000000000064);
#197=VECTOR('',#671,1.);
#198=VECTOR('',#672,1.);
#199=VECTOR('',#675,1.);
#200=VECTOR('',#676,1.00000000000064);
#201=VECTOR('',#679,1.);
#202=VECTOR('',#680,1.);
#203=VECTOR('',#683,1.);
#204=VECTOR('',#684,1.00000000000064);
#205=VECTOR('',#687,10.);
#206=VERTEX_POINT('',#695);
#207=VERTEX_POINT('',#696);
#208=VERTEX_POINT('',#698);
#209=VERTEX_POINT('',#700);
#210=VERTEX_POINT('',#704);
#211=VERTEX_POINT('',#706);
#212=VERTEX_POINT('',#710);
#213=VERTEX_POINT('',#714);
#214=VERTEX_POINT('',#720);
#215=VERTEX_POINT('',#721);
#216=VERTEX_POINT('',#723);
#217=VERTEX_POINT('',#725);
#218=VERTEX_POINT('',#729);
#219=VERTEX_POINT('',#731);
#220=VERTEX_POINT('',#735);
#221=VERTEX_POINT('',#739);
#222=VERTEX_POINT('',#745);
#223=VERTEX_POINT('',#747);
#224=VERTEX_POINT('',#751);
#225=VERTEX_POINT('',#755);
#226=VERTEX_POINT('',#761);
#227=VERTEX_POINT('',#762);
#228=VERTEX_POINT('',#764);
#229=VERTEX_POINT('',#766);
#230=VERTEX_POINT('',#768);
#231=VERTEX_POINT('',#770);
#232=VERTEX_POINT('',#772);
#233=VERTEX_POINT('',#774);
#234=VERTEX_POINT('',#778);
#235=VERTEX_POINT('',#780);
#236=VERTEX_POINT('',#784);
#237=VERTEX_POINT('',#788);
#238=VERTEX_POINT('',#794);
#239=VERTEX_POINT('',#796);
#240=VERTEX_POINT('',#800);
#241=VERTEX_POINT('',#804);
#242=VERTEX_POINT('',#808);
#243=VERTEX_POINT('',#812);
#244=VERTEX_POINT('',#816);
#245=VERTEX_POINT('',#820);
#246=EDGE_CURVE('',#206,#207,#78,.T.);
#247=EDGE_CURVE('',#208,#206,#79,.T.);
#248=EDGE_CURVE('',#209,#208,#80,.T.);
#249=EDGE_CURVE('',#207,#209,#81,.T.);
#250=EDGE_CURVE('',#210,#206,#82,.T.);
#251=EDGE_CURVE('',#211,#207,#83,.T.);
#252=EDGE_CURVE('',#210,#211,#84,.T.);
#253=EDGE_CURVE('',#212,#209,#85,.T.);
#254=EDGE_CURVE('',#211,#212,#86,.T.);
#255=EDGE_CURVE('',#213,#208,#87,.T.);
#256=EDGE_CURVE('',#212,#213,#88,.T.);
#257=EDGE_CURVE('',#213,#210,#89,.T.);
#258=EDGE_CURVE('',#214,#215,#90,.T.);
#259=EDGE_CURVE('',#215,#216,#91,.T.);
#260=EDGE_CURVE('',#216,#217,#92,.T.);
#261=EDGE_CURVE('',#217,#214,#93,.T.);
#262=EDGE_CURVE('',#218,#210,#94,.T.);
#263=EDGE_CURVE('',#219,#211,#95,.T.);
#264=EDGE_CURVE('',#218,#219,#96,.T.);
#265=EDGE_CURVE('',#220,#212,#97,.T.);
#266=EDGE_CURVE('',#219,#220,#98,.T.);
#267=EDGE_CURVE('',#221,#213,#99,.T.);
#268=EDGE_CURVE('',#220,#221,#100,.T.);
#269=EDGE_CURVE('',#221,#218,#101,.T.);
#270=EDGE_CURVE('',#222,#216,#102,.T.);
#271=EDGE_CURVE('',#222,#223,#103,.T.);
#272=EDGE_CURVE('',#223,#217,#104,.T.);
#273=EDGE_CURVE('',#223,#224,#105,.T.);
#274=EDGE_CURVE('',#224,#214,#106,.T.);
#275=EDGE_CURVE('',#224,#225,#107,.T.);
#276=EDGE_CURVE('',#225,#215,#108,.T.);
#277=EDGE_CURVE('',#225,#222,#109,.T.);
#278=EDGE_CURVE('',#226,#227,#110,.T.);
#279=EDGE_CURVE('',#226,#228,#111,.T.);
#280=EDGE_CURVE('',#228,#229,#112,.T.);
#281=EDGE_CURVE('',#229,#230,#113,.T.);
#282=EDGE_CURVE('',#230,#231,#114,.T.);
#283=EDGE_CURVE('',#231,#232,#115,.T.);
#284=EDGE_CURVE('',#232,#233,#116,.T.);
#285=EDGE_CURVE('',#233,#227,#117,.T.);
#286=EDGE_CURVE('',#234,#223,#118,.T.);
#287=EDGE_CURVE('',#235,#222,#119,.T.);
#288=EDGE_CURVE('',#235,#234,#120,.T.);
#289=EDGE_CURVE('',#236,#224,#121,.T.);
#290=EDGE_CURVE('',#234,#236,#122,.T.);
#291=EDGE_CURVE('',#237,#225,#123,.T.);
#292=EDGE_CURVE('',#236,#237,#124,.T.);
#293=EDGE_CURVE('',#237,#235,#125,.T.);
#294=EDGE_CURVE('',#238,#233,#126,.T.);
#295=EDGE_CURVE('',#238,#239,#127,.T.);
#296=EDGE_CURVE('',#239,#227,#128,.T.);
#297=EDGE_CURVE('',#240,#232,#129,.T.);
#298=EDGE_CURVE('',#240,#238,#130,.T.);
#299=EDGE_CURVE('',#241,#231,#131,.T.);
#300=EDGE_CURVE('',#241,#240,#132,.T.);
#301=EDGE_CURVE('',#242,#230,#133,.T.);
#302=EDGE_CURVE('',#242,#241,#134,.T.);
#303=EDGE_CURVE('',#243,#229,#135,.T.);
#304=EDGE_CURVE('',#243,#242,#136,.T.);
#305=EDGE_CURVE('',#244,#228,#137,.T.);
#306=EDGE_CURVE('',#244,#243,#138,.T.);
#307=EDGE_CURVE('',#245,#226,#139,.T.);
#308=EDGE_CURVE('',#245,#244,#140,.T.);
#309=EDGE_CURVE('',#239,#245,#141,.T.);
#310=ORIENTED_EDGE('',*,*,#246,.F.);
#311=ORIENTED_EDGE('',*,*,#247,.F.);
#312=ORIENTED_EDGE('',*,*,#248,.F.);
#313=ORIENTED_EDGE('',*,*,#249,.F.);
#314=ORIENTED_EDGE('',*,*,#250,.T.);
#315=ORIENTED_EDGE('',*,*,#246,.T.);
#316=ORIENTED_EDGE('',*,*,#251,.F.);
#317=ORIENTED_EDGE('',*,*,#252,.F.);
#318=ORIENTED_EDGE('',*,*,#251,.T.);
#319=ORIENTED_EDGE('',*,*,#249,.T.);
#320=ORIENTED_EDGE('',*,*,#253,.F.);
#321=ORIENTED_EDGE('',*,*,#254,.F.);
#322=ORIENTED_EDGE('',*,*,#253,.T.);
#323=ORIENTED_EDGE('',*,*,#248,.T.);
#324=ORIENTED_EDGE('',*,*,#255,.F.);
#325=ORIENTED_EDGE('',*,*,#256,.F.);
#326=ORIENTED_EDGE('',*,*,#255,.T.);
#327=ORIENTED_EDGE('',*,*,#247,.T.);
#328=ORIENTED_EDGE('',*,*,#250,.F.);
#329=ORIENTED_EDGE('',*,*,#257,.F.);
#330=ORIENTED_EDGE('',*,*,#258,.T.);
#331=ORIENTED_EDGE('',*,*,#259,.T.);
#332=ORIENTED_EDGE('',*,*,#260,.T.);
#333=ORIENTED_EDGE('',*,*,#261,.T.);
#334=ORIENTED_EDGE('',*,*,#262,.T.);
#335=ORIENTED_EDGE('',*,*,#252,.T.);
#336=ORIENTED_EDGE('',*,*,#263,.F.);
#337=ORIENTED_EDGE('',*,*,#264,.F.);
#338=ORIENTED_EDGE('',*,*,#263,.T.);
#339=ORIENTED_EDGE('',*,*,#254,.T.);
#340=ORIENTED_EDGE('',*,*,#265,.F.);
#341=ORIENTED_EDGE('',*,*,#266,.F.);
#342=ORIENTED_EDGE('',*,*,#265,.T.);
#343=ORIENTED_EDGE('',*,*,#256,.T.);
#344=ORIENTED_EDGE('',*,*,#267,.F.);
#345=ORIENTED_EDGE('',*,*,#268,.F.);
#346=ORIENTED_EDGE('',*,*,#267,.T.);
#347=ORIENTED_EDGE('',*,*,#257,.T.);
#348=ORIENTED_EDGE('',*,*,#262,.F.);
#349=ORIENTED_EDGE('',*,*,#269,.F.);
#350=ORIENTED_EDGE('',*,*,#270,.F.);
#351=ORIENTED_EDGE('',*,*,#271,.T.);
#352=ORIENTED_EDGE('',*,*,#272,.T.);
#353=ORIENTED_EDGE('',*,*,#260,.F.);
#354=ORIENTED_EDGE('',*,*,#272,.F.);
#355=ORIENTED_EDGE('',*,*,#273,.T.);
#356=ORIENTED_EDGE('',*,*,#274,.T.);
#357=ORIENTED_EDGE('',*,*,#261,.F.);
#358=ORIENTED_EDGE('',*,*,#274,.F.);
#359=ORIENTED_EDGE('',*,*,#275,.T.);
#360=ORIENTED_EDGE('',*,*,#276,.T.);
#361=ORIENTED_EDGE('',*,*,#258,.F.);
#362=ORIENTED_EDGE('',*,*,#276,.F.);
#363=ORIENTED_EDGE('',*,*,#277,.T.);
#364=ORIENTED_EDGE('',*,*,#270,.T.);
#365=ORIENTED_EDGE('',*,*,#259,.F.);
#366=ORIENTED_EDGE('',*,*,#278,.F.);
#367=ORIENTED_EDGE('',*,*,#279,.T.);
#368=ORIENTED_EDGE('',*,*,#280,.T.);
#369=ORIENTED_EDGE('',*,*,#281,.T.);
#370=ORIENTED_EDGE('',*,*,#282,.T.);
#371=ORIENTED_EDGE('',*,*,#283,.T.);
#372=ORIENTED_EDGE('',*,*,#284,.T.);
#373=ORIENTED_EDGE('',*,*,#285,.T.);
#374=ORIENTED_EDGE('',*,*,#269,.T.);
#375=ORIENTED_EDGE('',*,*,#264,.T.);
#376=ORIENTED_EDGE('',*,*,#266,.T.);
#377=ORIENTED_EDGE('',*,*,#268,.T.);
#378=ORIENTED_EDGE('',*,*,#286,.T.);
#379=ORIENTED_EDGE('',*,*,#271,.F.);
#380=ORIENTED_EDGE('',*,*,#287,.F.);
#381=ORIENTED_EDGE('',*,*,#288,.T.);
#382=ORIENTED_EDGE('',*,*,#289,.T.);
#383=ORIENTED_EDGE('',*,*,#273,.F.);
#384=ORIENTED_EDGE('',*,*,#286,.F.);
#385=ORIENTED_EDGE('',*,*,#290,.T.);
#386=ORIENTED_EDGE('',*,*,#291,.T.);
#387=ORIENTED_EDGE('',*,*,#275,.F.);
#388=ORIENTED_EDGE('',*,*,#289,.F.);
#389=ORIENTED_EDGE('',*,*,#292,.T.);
#390=ORIENTED_EDGE('',*,*,#287,.T.);
#391=ORIENTED_EDGE('',*,*,#277,.F.);
#392=ORIENTED_EDGE('',*,*,#291,.F.);
#393=ORIENTED_EDGE('',*,*,#293,.T.);
#394=ORIENTED_EDGE('',*,*,#294,.F.);
#395=ORIENTED_EDGE('',*,*,#295,.T.);
#396=ORIENTED_EDGE('',*,*,#296,.T.);
#397=ORIENTED_EDGE('',*,*,#285,.F.);
#398=ORIENTED_EDGE('',*,*,#297,.F.);
#399=ORIENTED_EDGE('',*,*,#298,.T.);
#400=ORIENTED_EDGE('',*,*,#294,.T.);
#401=ORIENTED_EDGE('',*,*,#284,.F.);
#402=ORIENTED_EDGE('',*,*,#299,.F.);
#403=ORIENTED_EDGE('',*,*,#300,.T.);
#404=ORIENTED_EDGE('',*,*,#297,.T.);
#405=ORIENTED_EDGE('',*,*,#283,.F.);
#406=ORIENTED_EDGE('',*,*,#301,.F.);
#407=ORIENTED_EDGE('',*,*,#302,.T.);
#408=ORIENTED_EDGE('',*,*,#299,.T.);
#409=ORIENTED_EDGE('',*,*,#282,.F.);
#410=ORIENTED_EDGE('',*,*,#303,.F.);
#411=ORIENTED_EDGE('',*,*,#304,.T.);
#412=ORIENTED_EDGE('',*,*,#301,.T.);
#413=ORIENTED_EDGE('',*,*,#281,.F.);
#414=ORIENTED_EDGE('',*,*,#305,.F.);
#415=ORIENTED_EDGE('',*,*,#306,.T.);
#416=ORIENTED_EDGE('',*,*,#303,.T.);
#417=ORIENTED_EDGE('',*,*,#280,.F.);
#418=ORIENTED_EDGE('',*,*,#307,.F.);
#419=ORIENTED_EDGE('',*,*,#308,.T.);
#420=ORIENTED_EDGE('',*,*,#305,.T.);
#421=ORIENTED_EDGE('',*,*,#279,.F.);
#422=ORIENTED_EDGE('',*,*,#309,.F.);
#423=ORIENTED_EDGE('',*,*,#295,.F.);
#424=ORIENTED_EDGE('',*,*,#298,.F.);
#425=ORIENTED_EDGE('',*,*,#300,.F.);
#426=ORIENTED_EDGE('',*,*,#302,.F.);
#427=ORIENTED_EDGE('',*,*,#304,.F.);
#428=ORIENTED_EDGE('',*,*,#306,.F.);
#429=ORIENTED_EDGE('',*,*,#308,.F.);
#430=ORIENTED_EDGE('',*,*,#293,.F.);
#431=ORIENTED_EDGE('',*,*,#292,.F.);
#432=ORIENTED_EDGE('',*,*,#290,.F.);
#433=ORIENTED_EDGE('',*,*,#288,.F.);
#434=ORIENTED_EDGE('',*,*,#309,.T.);
#435=ORIENTED_EDGE('',*,*,#307,.T.);
#436=ORIENTED_EDGE('',*,*,#278,.T.);
#437=ORIENTED_EDGE('',*,*,#296,.F.);
#438=PLANE('',#537);
#439=PLANE('',#538);
#440=PLANE('',#539);
#441=PLANE('',#540);
#442=PLANE('',#541);
#443=PLANE('',#542);
#444=PLANE('',#543);
#445=PLANE('',#544);
#446=PLANE('',#545);
#447=PLANE('',#546);
#448=PLANE('',#547);
#449=PLANE('',#548);
#450=PLANE('',#549);
#451=PLANE('',#550);
#452=PLANE('',#551);
#453=PLANE('',#552);
#454=PLANE('',#553);
#455=PLANE('',#554);
#456=PLANE('',#555);
#457=PLANE('',#556);
#458=PLANE('',#557);
#459=PLANE('',#558);
#460=PLANE('',#559);
#461=PLANE('',#560);
#462=PLANE('',#561);
#463=PLANE('',#562);
#464=PLANE('',#563);
#465=PLANE('',#564);
#466=STYLED_ITEM('',(#857),#494);
#467=STYLED_ITEM('',(#857),#495);
#468=STYLED_ITEM('',(#857),#496);
#469=STYLED_ITEM('',(#857),#497);
#470=STYLED_ITEM('',(#857),#498);
#471=STYLED_ITEM('',(#857),#499);
#472=STYLED_ITEM('',(#857),#500);
#473=STYLED_ITEM('',(#857),#501);
#474=STYLED_ITEM('',(#857),#502);
#475=STYLED_ITEM('',(#857),#503);
#476=STYLED_ITEM('',(#857),#504);
#477=STYLED_ITEM('',(#857),#505);
#478=STYLED_ITEM('',(#857),#506);
#479=STYLED_ITEM('',(#857),#507);
#480=STYLED_ITEM('',(#858),#508);
#481=STYLED_ITEM('',(#857),#509);
#482=STYLED_ITEM('',(#857),#510);
#483=STYLED_ITEM('',(#857),#511);
#484=STYLED_ITEM('',(#857),#512);
#485=STYLED_ITEM('',(#858),#513);
#486=STYLED_ITEM('',(#858),#514);
#487=STYLED_ITEM('',(#858),#515);
#488=STYLED_ITEM('',(#858),#516);
#489=STYLED_ITEM('',(#858),#517);
#490=STYLED_ITEM('',(#858),#518);
#491=STYLED_ITEM('',(#858),#519);
#492=STYLED_ITEM('',(#858),#520);
#493=STYLED_ITEM('',(#856),#17);
#494=ADVANCED_FACE('',(#20),#438,.F.);
#495=ADVANCED_FACE('',(#21),#439,.F.);
#496=ADVANCED_FACE('',(#22),#440,.F.);
#497=ADVANCED_FACE('',(#23),#441,.F.);
#498=ADVANCED_FACE('',(#24),#442,.F.);
#499=ADVANCED_FACE('',(#25),#443,.T.);
#500=ADVANCED_FACE('',(#26),#444,.T.);
#501=ADVANCED_FACE('',(#27),#445,.T.);
#502=ADVANCED_FACE('',(#28),#446,.T.);
#503=ADVANCED_FACE('',(#29),#447,.T.);
#504=ADVANCED_FACE('',(#30),#448,.F.);
#505=ADVANCED_FACE('',(#31),#449,.F.);
#506=ADVANCED_FACE('',(#32),#450,.F.);
#507=ADVANCED_FACE('',(#33),#451,.F.);
#508=ADVANCED_FACE('',(#34,#18),#452,.T.);
#509=ADVANCED_FACE('',(#35),#453,.F.);
#510=ADVANCED_FACE('',(#36),#454,.F.);
#511=ADVANCED_FACE('',(#37),#455,.F.);
#512=ADVANCED_FACE('',(#38),#456,.F.);
#513=ADVANCED_FACE('',(#39),#457,.F.);
#514=ADVANCED_FACE('',(#40),#458,.F.);
#515=ADVANCED_FACE('',(#41),#459,.F.);
#516=ADVANCED_FACE('',(#42),#460,.F.);
#517=ADVANCED_FACE('',(#43),#461,.F.);
#518=ADVANCED_FACE('',(#44),#462,.F.);
#519=ADVANCED_FACE('',(#45),#463,.F.);
#520=ADVANCED_FACE('',(#46,#19),#464,.F.);
#521=ADVANCED_FACE('',(#47),#465,.T.);
#522=CLOSED_SHELL('',(#494,#495,#496,#497,#498,#499,#500,#501,#502,#503,
#504,#505,#506,#507,#508,#509,#510,#511,#512,#513,#514,#515,#516,#517,#518,
#519,#520,#521));
#523=DERIVED_UNIT_ELEMENT(#525,1.);
#524=DERIVED_UNIT_ELEMENT(#834,-3.);
#525=(
MASS_UNIT()
NAMED_UNIT(*)
SI_UNIT(.KILO.,.GRAM.)
);
#526=DERIVED_UNIT((#523,#524));
#527=MEASURE_REPRESENTATION_ITEM('density measure',
POSITIVE_RATIO_MEASURE(7850.),#526);
#528=PROPERTY_DEFINITION_REPRESENTATION(#533,#530);
#529=PROPERTY_DEFINITION_REPRESENTATION(#534,#531);
#530=REPRESENTATION('material name',(#532),#831);
#531=REPRESENTATION('density',(#527),#831);
#532=DESCRIPTIVE_REPRESENTATION_ITEM('Acero','Acero');
#533=PROPERTY_DEFINITION('material property','material name',#846);
#534=PROPERTY_DEFINITION('material property','density of part',#846);
#535=AXIS2_PLACEMENT_3D('',#692,#566,#567);
#536=AXIS2_PLACEMENT_3D('',#693,#568,#569);
#537=AXIS2_PLACEMENT_3D('',#694,#570,#571);
#538=AXIS2_PLACEMENT_3D('',#703,#576,#577);
#539=AXIS2_PLACEMENT_3D('',#709,#581,#582);
#540=AXIS2_PLACEMENT_3D('',#713,#585,#586);
#541=AXIS2_PLACEMENT_3D('',#717,#589,#590);
#542=AXIS2_PLACEMENT_3D('',#719,#592,#593);
#543=AXIS2_PLACEMENT_3D('',#728,#598,#599);
#544=AXIS2_PLACEMENT_3D('',#734,#603,#604);
#545=AXIS2_PLACEMENT_3D('',#738,#607,#608);
#546=AXIS2_PLACEMENT_3D('',#742,#611,#612);
#547=AXIS2_PLACEMENT_3D('',#744,#614,#615);
#548=AXIS2_PLACEMENT_3D('',#750,#619,#620);
#549=AXIS2_PLACEMENT_3D('',#754,#623,#624);
#550=AXIS2_PLACEMENT_3D('',#758,#627,#628);
#551=AXIS2_PLACEMENT_3D('',#760,#630,#631);
#552=AXIS2_PLACEMENT_3D('',#777,#640,#641);
#553=AXIS2_PLACEMENT_3D('',#783,#645,#646);
#554=AXIS2_PLACEMENT_3D('',#787,#649,#650);
#555=AXIS2_PLACEMENT_3D('',#791,#653,#654);
#556=AXIS2_PLACEMENT_3D('',#793,#656,#657);
#557=AXIS2_PLACEMENT_3D('',#799,#661,#662);
#558=AXIS2_PLACEMENT_3D('',#803,#665,#666);
#559=AXIS2_PLACEMENT_3D('',#807,#669,#670);
#560=AXIS2_PLACEMENT_3D('',#811,#673,#674);
#561=AXIS2_PLACEMENT_3D('',#815,#677,#678);
#562=AXIS2_PLACEMENT_3D('',#819,#681,#682);
#563=AXIS2_PLACEMENT_3D('',#823,#685,#686);
#564=AXIS2_PLACEMENT_3D('',#825,#688,#689);
#565=AXIS2_PLACEMENT_3D('',#826,#690,#691);
#566=DIRECTION('axis',(0.,0.,1.));
#567=DIRECTION('refdir',(1.,0.,0.));
#568=DIRECTION('axis',(0.,0.,1.));
#569=DIRECTION('refdir',(1.,0.,0.));
#570=DIRECTION('center_axis',(0.,1.,-2.275957200482E-15));
#571=DIRECTION('ref_axis',(0.,2.275957200482E-15,1.));
#572=DIRECTION('',(1.,7.38172727419E-99,-1.224128058063E-113));
#573=DIRECTION('',(-5.176479132949E-116,1.665334536938E-15,1.));
#574=DIRECTION('',(-1.,-7.38172727419E-99,1.224128058063E-113));
#575=DIRECTION('',(5.176479132949E-116,-1.665334536938E-15,-1.));
#576=DIRECTION('center_axis',(-3.47161467909278E-18,0.707106781186548,-0.707106781186548));
#577=DIRECTION('ref_axis',(1.,2.45480228125326E-18,-2.45480228125326E-18));
#578=DIRECTION('',(0.577350269189626,-0.577350269189626,-0.577350269189626));
#579=DIRECTION('',(-0.577350269189626,-0.577350269189626,-0.577350269189626));
#580=DIRECTION('',(1.,7.38172727419E-99,-1.224128058063E-113));
#581=DIRECTION('center_axis',(-0.707106781186548,0.707106781186548,-1.66369001659494E-15));
#582=DIRECTION('ref_axis',(3.43739224057839E-16,-2.00907376099544E-15,-1.));
#583=DIRECTION('',(-0.577350269189626,-0.577350269189626,0.577350269189626));
#584=DIRECTION('',(5.176479132949E-116,-1.665334536938E-15,-1.));
#585=DIRECTION('center_axis',(0.,0.707106781186548,0.707106781186548));
#586=DIRECTION('ref_axis',(-1.,-3.690863637095E-99,3.690863637095E-99));
#587=DIRECTION('',(0.577350269189626,-0.577350269189626,0.577350269189626));
#588=DIRECTION('',(-1.,-7.38172727419E-99,1.224128058063E-113));
#589=DIRECTION('center_axis',(0.707106781186548,0.707106781186548,-1.66369001659494E-15));
#590=DIRECTION('ref_axis',(3.43739224057839E-16,2.00907376099544E-15,1.));
#591=DIRECTION('',(-5.176479132949E-116,1.665334536938E-15,1.));
#592=DIRECTION('center_axis',(0.,1.,-1.831867990632E-15));
#593=DIRECTION('ref_axis',(0.,1.831867990632E-15,1.));
#594=DIRECTION('',(-1.,-7.38172727419E-99,8.963135148111E-114));
#595=DIRECTION('',(-5.176479132949E-116,1.221245327088E-15,1.));
#596=DIRECTION('',(1.,7.38172727419E-99,-8.963135148111E-114));
#597=DIRECTION('',(5.176479132949E-116,-1.221245327088E-15,-1.));
#598=DIRECTION('center_axis',(3.58003387736E-115,1.609823385706E-15,1.));
#599=DIRECTION('ref_axis',(1.,7.38172727419E-99,-1.22412805806309E-113));
#600=DIRECTION('',(7.38172727419E-99,-1.,1.609823385706E-15));
#601=DIRECTION('',(7.38172727419E-99,-1.,1.609823385706E-15));
#602=DIRECTION('',(1.,7.38172727419E-99,-1.224128058063E-113));
#603=DIRECTION('center_axis',(1.,7.38172727419E-99,-1.224128058063E-113));
#604=DIRECTION('ref_axis',(5.176479133581E-116,-1.665334536938E-15,-1.));
#605=DIRECTION('',(7.38172727419E-99,-1.,1.609823385706E-15));
#606=DIRECTION('',(5.176479132949E-116,-1.665334536938E-15,-1.));
#607=DIRECTION('center_axis',(-3.58003387736E-115,-1.609823385706E-15,-1.));
#608=DIRECTION('ref_axis',(-1.,-7.38172727419E-99,1.22412805806309E-113));
#609=DIRECTION('',(7.38172727419E-99,-1.,1.609823385706E-15));
#610=DIRECTION('',(-1.,-7.38172727419E-99,1.224128058063E-113));
#611=DIRECTION('center_axis',(-1.,-7.38172727419E-99,1.224128058063E-113));
#612=DIRECTION('ref_axis',(-5.176479133581E-116,1.665334536938E-15,1.));
#613=DIRECTION('',(-5.176479132949E-116,1.665334536938E-15,1.));
#614=DIRECTION('center_axis',(0.,-0.707106781186548,-0.707106781186548));
#615=DIRECTION('ref_axis',(-1.,-3.690863637095E-99,3.690863637095E-99));
#616=DIRECTION('',(0.577350269189626,0.577350269189626,-0.577350269189626));
#617=DIRECTION('',(1.,7.38172727419E-99,-8.963135148111E-114));
#618=DIRECTION('',(-0.577350269189626,0.577350269189626,-0.577350269189626));
#619=DIRECTION('center_axis',(-0.707106781186548,-0.707106781186548,1.32000016336416E-15));
#620=DIRECTION('ref_axis',(3.22758403138195E-16,1.5440037302261E-15,1.));
#621=DIRECTION('',(5.176479132949E-116,-1.221245327088E-15,-1.));
#622=DIRECTION('',(-0.577350269189626,0.577350269189626,0.577350269189626));
#623=DIRECTION('center_axis',(0.,-0.707106781186548,0.707106781186548));
#624=DIRECTION('ref_axis',(1.,3.690863637095E-99,3.690863637095E-99));
#625=DIRECTION('',(-1.,-7.38172727419E-99,8.963135148111E-114));
#626=DIRECTION('',(0.577350269189626,0.577350269189626,0.577350269189626));
#627=DIRECTION('center_axis',(0.707106781186548,-0.707106781186548,1.32000016336416E-15));
#628=DIRECTION('ref_axis',(3.22758403138195E-16,-1.5440037302261E-15,-1.));
#629=DIRECTION('',(-5.176479132949E-116,1.221245327088E-15,1.));
#630=DIRECTION('center_axis',(7.38172727419E-99,-1.,1.554312234475E-15));
#631=DIRECTION('ref_axis',(0.,-1.554312234475E-15,-1.));
#632=DIRECTION('',(2.51037386572031E-114,-1.554312234475E-15,-1.));
#633=DIRECTION('',(-0.707106781186548,1.0990647210783E-15,0.707106781186548));
#634=DIRECTION('',(-1.,-2.040392475158E-31,-1.312730112973E-16));
#635=DIRECTION('',(-0.707106781186548,-1.0990647210783E-15,-0.707106781186548));
#636=DIRECTION('',(0.,-1.554312234475E-15,-1.));
#637=DIRECTION('',(0.707106781186548,-1.0990647210783E-15,-0.707106781186548));
#638=DIRECTION('',(1.,-2.040392475158E-31,-1.312730112973E-16));
#639=DIRECTION('',(0.707106781186548,1.0990647210783E-15,0.707106781186548));
#640=DIRECTION('center_axis',(-3.58003387736E-115,-1.165734175856E-15,-1.));
#641=DIRECTION('ref_axis',(1.,7.38172727419E-99,-8.96313514810764E-114));
#642=DIRECTION('',(-7.38172727419E-99,1.,-1.165734175856E-15));
#643=DIRECTION('',(-7.38172727419E-99,1.,-1.165734175856E-15));
#644=DIRECTION('',(1.,7.38172727419E-99,-8.963135148111E-114));
#645=DIRECTION('center_axis',(-1.,-7.38172727419E-99,8.963135148111E-114));
#646=DIRECTION('ref_axis',(5.17647913315772E-116,-1.221245327088E-15,-1.));
#647=DIRECTION('',(-7.38172727419E-99,1.,-1.165734175856E-15));
#648=DIRECTION('',(2.510373865722E-114,-1.554312234475E-15,-1.));
#649=DIRECTION('center_axis',(3.58003387736E-115,1.165734175856E-15,1.));
#650=DIRECTION('ref_axis',(-1.,-7.38172727419E-99,8.96313514810764E-114));
#651=DIRECTION('',(-7.38172727419E-99,1.,-1.165734175856E-15));
#652=DIRECTION('',(-1.,-7.38172727419E-99,8.963135148111E-114));
#653=DIRECTION('center_axis',(1.,7.38172727419E-99,-8.963135148111E-114));
#654=DIRECTION('ref_axis',(-5.17647913315772E-116,1.221245327088E-15,1.));
#655=DIRECTION('',(-2.510373865722E-114,1.554312234475E-15,1.));
#656=DIRECTION('center_axis',(-0.707106781186548,1.0990647210783E-15,0.707106781186548));
#657=DIRECTION('ref_axis',(0.707106781186548,1.0990647210783E-15,0.707106781186548));
#658=DIRECTION('',(0.,-1.,1.554312234475E-15));
#659=DIRECTION('',(0.707106781186548,1.0990647210783E-15,0.707106781186548));
#660=DIRECTION('',(0.,-1.,1.554312234475E-15));
#661=DIRECTION('center_axis',(1.312730112973E-16,1.554312234475E-15,1.));
#662=DIRECTION('ref_axis',(1.,-2.040392475158E-31,-1.312730112973E-16));
#663=DIRECTION('',(0.,-1.,1.554312234475E-15));
#664=DIRECTION('',(1.,-2.040392475158E-31,-1.312730112973E-16));
#665=DIRECTION('center_axis',(0.707106781186548,1.0990647210783E-15,0.707106781186548));
#666=DIRECTION('ref_axis',(0.707106781186548,-1.0990647210783E-15,-0.707106781186548));
#667=DIRECTION('',(0.,-1.,1.554312234475E-15));
#668=DIRECTION('',(0.707106781186548,-1.0990647210783E-15,-0.707106781186548));
#669=DIRECTION('center_axis',(1.,0.,0.));
#670=DIRECTION('ref_axis',(0.,-1.554312234475E-15,-1.));
#671=DIRECTION('',(0.,-1.,1.554312234475E-15));
#672=DIRECTION('',(0.,-1.554312234475E-15,-1.));
#673=DIRECTION('center_axis',(0.707106781186548,-1.0990647210783E-15,-0.707106781186548));
#674=DIRECTION('ref_axis',(-0.707106781186548,-1.0990647210783E-15,-0.707106781186548));
#675=DIRECTION('',(0.,-1.,1.554312234475E-15));
#676=DIRECTION('',(-0.707106781186548,-1.0990647210783E-15,-0.707106781186548));
#677=DIRECTION('center_axis',(1.312730112973E-16,-1.554312234475E-15,-1.));
#678=DIRECTION('ref_axis',(-1.,-2.040392475158E-31,-1.312730112973E-16));
#679=DIRECTION('',(0.,-1.,1.554312234475E-15));
#680=DIRECTION('',(-1.,-2.040392475158E-31,-1.312730112973E-16));
#681=DIRECTION('center_axis',(-0.707106781186548,-1.0990647210783E-15,-0.707106781186548));
#682=DIRECTION('ref_axis',(-0.707106781186548,1.0990647210783E-15,0.707106781186548));
#683=DIRECTION('',(0.,-1.,1.554312234475E-15));
#684=DIRECTION('',(-0.707106781186548,1.0990647210783E-15,0.707106781186548));
#685=DIRECTION('center_axis',(7.38172727419E-99,-1.,1.554312234475E-15));
#686=DIRECTION('ref_axis',(0.,-1.554312234475E-15,-1.));
#687=DIRECTION('',(-2.51037386572031E-114,1.554312234475E-15,1.));
#688=DIRECTION('center_axis',(1.,7.38172727419E-99,-8.963135148111E-114));
#689=DIRECTION('ref_axis',(-8.963135148111E-114,0.,-1.));
#690=DIRECTION('',(0.,0.,1.));
#691=DIRECTION('',(1.,0.,0.));
#692=CARTESIAN_POINT('',(0.,0.,0.));
#693=CARTESIAN_POINT('',(0.,0.,0.));
#694=CARTESIAN_POINT('Origin',(-20.32,-9.14,1.45326979617E-14));
#695=CARTESIAN_POINT('',(-20.39,-9.14,0.07000000000001));
#696=CARTESIAN_POINT('',(-20.25,-9.14,0.07000000000001));
#697=CARTESIAN_POINT('',(-20.64,-9.14,0.07000000000001));
#698=CARTESIAN_POINT('',(-20.39,-9.14,-0.06999999999999));
#699=CARTESIAN_POINT('',(-20.39,-9.14,-0.32));
#700=CARTESIAN_POINT('',(-20.25,-9.14,-0.06999999999999));
#701=CARTESIAN_POINT('',(-20.,-9.14,-0.06999999999999));
#702=CARTESIAN_POINT('',(-20.25,-9.14,0.32));
#703=CARTESIAN_POINT('Origin',(-20.64,-9.015,0.195));
#704=CARTESIAN_POINT('',(-20.64,-8.89,0.32));
#705=CARTESIAN_POINT('',(-20.45,-9.08,0.13));
#706=CARTESIAN_POINT('',(-20.,-8.89,0.32));
#707=CARTESIAN_POINT('',(-20.19,-9.08,0.13));
#708=CARTESIAN_POINT('',(-20.64,-8.89,0.32));
#709=CARTESIAN_POINT('Origin',(-20.125,-9.015,0.32));
#710=CARTESIAN_POINT('',(-20.,-8.89,-0.32));
#711=CARTESIAN_POINT('',(-20.19,-9.08,-0.13));
#712=CARTESIAN_POINT('',(-20.,-8.89,0.32));
#713=CARTESIAN_POINT('Origin',(-20.,-9.015,-0.195));
#714=CARTESIAN_POINT('',(-20.64,-8.89,-0.32));
#715=CARTESIAN_POINT('',(-20.45,-9.08,-0.13));
#716=CARTESIAN_POINT('',(-20.,-8.89,-0.32));
#717=CARTESIAN_POINT('Origin',(-20.515,-9.015,-0.32));
#718=CARTESIAN_POINT('',(-20.64,-8.89,-0.32));
#719=CARTESIAN_POINT('Origin',(-20.32,3.43,-4.179556006845E-15));
#720=CARTESIAN_POINT('',(-20.25,3.43,-0.07));
#721=CARTESIAN_POINT('',(-20.39,3.43,-0.07));
#722=CARTESIAN_POINT('',(-20.,3.43,-0.07));
#723=CARTESIAN_POINT('',(-20.39,3.43,0.07));
#724=CARTESIAN_POINT('',(-20.39,3.43,-0.32));
#725=CARTESIAN_POINT('',(-20.25,3.43,0.07));
#726=CARTESIAN_POINT('',(-20.64,3.43,0.07));
#727=CARTESIAN_POINT('',(-20.25,3.43,0.32));
#728=CARTESIAN_POINT('Origin',(-20.64,-2.79,0.32));
#729=CARTESIAN_POINT('',(-20.64,-2.79,0.32));
#730=CARTESIAN_POINT('',(-20.64,-2.79,0.32));
#731=CARTESIAN_POINT('',(-20.,-2.79,0.32));
#732=CARTESIAN_POINT('',(-20.,-2.79,0.32));
#733=CARTESIAN_POINT('',(-20.64,-2.79,0.32));
#734=CARTESIAN_POINT('Origin',(-20.,-2.79,0.32));
#735=CARTESIAN_POINT('',(-20.,-2.79,-0.32));
#736=CARTESIAN_POINT('',(-20.,-2.79,-0.32));
#737=CARTESIAN_POINT('',(-20.,-2.79,0.32));
#738=CARTESIAN_POINT('Origin',(-20.,-2.79,-0.32));
#739=CARTESIAN_POINT('',(-20.64,-2.79,-0.32));
#740=CARTESIAN_POINT('',(-20.64,-2.79,-0.32));
#741=CARTESIAN_POINT('',(-20.,-2.79,-0.32));
#742=CARTESIAN_POINT('Origin',(-20.64,-2.79,-0.32));
#743=CARTESIAN_POINT('',(-20.64,-2.79,-0.32));
#744=CARTESIAN_POINT('Origin',(-20.64,3.305,0.195));
#745=CARTESIAN_POINT('',(-20.64,3.18,0.32));
#746=CARTESIAN_POINT('',(-20.45,3.37,0.13));
#747=CARTESIAN_POINT('',(-20.,3.18,0.32));
#748=CARTESIAN_POINT('',(-20.64,3.18,0.32));
#749=CARTESIAN_POINT('',(-20.19,3.37,0.13));
#750=CARTESIAN_POINT('Origin',(-20.125,3.305,0.32));
#751=CARTESIAN_POINT('',(-20.,3.18,-0.32));
#752=CARTESIAN_POINT('',(-20.,3.18,0.32));
#753=CARTESIAN_POINT('',(-20.19,3.37,-0.13));
#754=CARTESIAN_POINT('Origin',(-20.,3.305,-0.195));
#755=CARTESIAN_POINT('',(-20.64,3.18,-0.32));
#756=CARTESIAN_POINT('',(-20.,3.18,-0.32));
#757=CARTESIAN_POINT('',(-20.45,3.37,-0.13));
#758=CARTESIAN_POINT('Origin',(-20.515,3.305,-0.32));
#759=CARTESIAN_POINT('',(-20.64,3.18,-0.32));
#760=CARTESIAN_POINT('Origin',(-1.625055001381E-15,-2.79,4.352361364297E-15));
#761=CARTESIAN_POINT('',(-19.05,-2.79,0.845735931288));
#762=CARTESIAN_POINT('',(-19.05,-2.79,-0.845735931288));
#763=CARTESIAN_POINT('',(-19.05,-2.79,-9.97213834506191E-13));
#764=CARTESIAN_POINT('',(-19.47426406871,-2.79,1.27));
#765=CARTESIAN_POINT('',(-19.05,-2.79,0.845735931288));
#766=CARTESIAN_POINT('',(-21.16573593128,-2.79,1.27));
#767=CARTESIAN_POINT('',(-19.47426406871,-2.79,1.27));
#768=CARTESIAN_POINT('',(-21.59,-2.79,0.845735931288));
#769=CARTESIAN_POINT('',(-21.16573593128,-2.79,1.27));
#770=CARTESIAN_POINT('',(-21.59,-2.79,-0.845735931288));
#771=CARTESIAN_POINT('',(-21.59,-2.79,0.845735931288));
#772=CARTESIAN_POINT('',(-21.16573593128,-2.79,-1.27));
#773=CARTESIAN_POINT('',(-21.59,-2.79,-0.845735931288));
#774=CARTESIAN_POINT('',(-19.47426406871,-2.79,-1.27));
#775=CARTESIAN_POINT('',(-21.16573593128,-2.79,-1.27));
#776=CARTESIAN_POINT('',(-19.47426406871,-2.79,-1.27));
#777=CARTESIAN_POINT('Origin',(-20.64,-2.79,0.32));
#778=CARTESIAN_POINT('',(-20.,5.151434834261E-16,0.32));
#779=CARTESIAN_POINT('',(-20.,-2.79,0.32));
#780=CARTESIAN_POINT('',(-20.64,5.151434834261E-16,0.32));
#781=CARTESIAN_POINT('',(-20.64,-2.79,0.32));
#782=CARTESIAN_POINT('',(-10.32,5.062616992291E-16,0.32));
#783=CARTESIAN_POINT('Origin',(-20.,-2.79,0.32));
#784=CARTESIAN_POINT('',(-20.,-5.151434834261E-16,-0.32));
#785=CARTESIAN_POINT('',(-20.,-2.79,-0.32));
#786=CARTESIAN_POINT('',(-20.,2.57571741713E-16,0.16));
#787=CARTESIAN_POINT('Origin',(-20.,-2.79,-0.32));
#788=CARTESIAN_POINT('',(-20.64,-5.151434834261E-16,-0.32));
#789=CARTESIAN_POINT('',(-20.64,-2.79,-0.32));
#790=CARTESIAN_POINT('',(-10.,-5.062616992291E-16,-0.32));
#791=CARTESIAN_POINT('Origin',(-20.64,-2.79,-0.32));
#792=CARTESIAN_POINT('',(-20.64,-2.57571741713E-16,-0.16));
#793=CARTESIAN_POINT('Origin',(-19.47426406871,-1.973976537784E-15,-1.27));
#794=CARTESIAN_POINT('',(-19.47426406871,-1.973976537784E-15,-1.27));
#795=CARTESIAN_POINT('',(-19.47426406871,-1.973976537784E-15,-1.27));
#796=CARTESIAN_POINT('',(-19.05,-1.314537705136E-15,-0.845735931288));
#797=CARTESIAN_POINT('',(-19.47426406871,-1.973976537784E-15,-1.27));
#798=CARTESIAN_POINT('',(-19.05,-1.314537705136E-15,-0.845735931288));
#799=CARTESIAN_POINT('Origin',(-21.16573593128,-1.973976537784E-15,-1.27));
#800=CARTESIAN_POINT('',(-21.16573593128,-1.973976537784E-15,-1.27));
#801=CARTESIAN_POINT('',(-21.16573593128,-1.973976537784E-15,-1.27));
#802=CARTESIAN_POINT('',(-21.16573593128,-1.973976537784E-15,-1.27));
#803=CARTESIAN_POINT('Origin',(-21.59,-1.314537705136E-15,-0.845735931288));
#804=CARTESIAN_POINT('',(-21.59,-1.314537705136E-15,-0.845735931288));
#805=CARTESIAN_POINT('',(-21.59,-1.314537705136E-15,-0.845735931288));
#806=CARTESIAN_POINT('',(-21.59,-1.314537705136E-15,-0.845735931288));
#807=CARTESIAN_POINT('Origin',(-21.59,1.314537705136E-15,0.845735931288));
#808=CARTESIAN_POINT('',(-21.59,1.314537705136E-15,0.845735931288));
#809=CARTESIAN_POINT('',(-21.59,1.314537705136E-15,0.845735931288));
#810=CARTESIAN_POINT('',(-21.59,1.314537705136E-15,0.845735931288));
#811=CARTESIAN_POINT('Origin',(-21.16573593128,1.973976537784E-15,1.27));
#812=CARTESIAN_POINT('',(-21.16573593128,1.973976537784E-15,1.27));
#813=CARTESIAN_POINT('',(-21.16573593128,1.973976537784E-15,1.27));
#814=CARTESIAN_POINT('',(-21.16573593128,1.973976537784E-15,1.27));
#815=CARTESIAN_POINT('Origin',(-19.47426406871,1.973976537784E-15,1.27));
#816=CARTESIAN_POINT('',(-19.47426406871,1.973976537784E-15,1.27));
#817=CARTESIAN_POINT('',(-19.47426406871,1.973976537784E-15,1.27));
#818=CARTESIAN_POINT('',(-19.47426406871,1.973976537784E-15,1.27));
#819=CARTESIAN_POINT('Origin',(-19.05,1.314537705136E-15,0.845735931288));
#820=CARTESIAN_POINT('',(-19.05,1.314537705136E-15,0.845735931288));
#821=CARTESIAN_POINT('',(-19.05,1.314537705136E-15,0.845735931288));
#822=CARTESIAN_POINT('',(-19.05,1.314537705136E-15,0.845735931288));
#823=CARTESIAN_POINT('Origin',(-1.625055001381E-15,2.460512033588E-32,1.583023011087E-17));
#824=CARTESIAN_POINT('',(-19.05,0.,-1.00155036564038E-12));
#825=CARTESIAN_POINT('Origin',(-19.05,-2.855,-1.99867900008144E-12));
#826=CARTESIAN_POINT('',(0.,0.,0.));
#827=UNCERTAINTY_MEASURE_WITH_UNIT(LENGTH_MEASURE(0.01),#833,
'DISTANCE_ACCURACY_VALUE',
'Maximum model space distance between geometric entities at asserted c
onnectivities');
#828=UNCERTAINTY_MEASURE_WITH_UNIT(LENGTH_MEASURE(0.01),#833,
'DISTANCE_ACCURACY_VALUE',
'Maximum model space distance between geometric entities at asserted c
onnectivities');
#829=UNCERTAINTY_MEASURE_WITH_UNIT(LENGTH_MEASURE(0.01),#833,
'DISTANCE_ACCURACY_VALUE',
'Maximum model space distance between geometric entities at asserted c
onnectivities');
#830=(
GEOMETRIC_REPRESENTATION_CONTEXT(3)
GLOBAL_UNCERTAINTY_ASSIGNED_CONTEXT((#827))
GLOBAL_UNIT_ASSIGNED_CONTEXT((#833,#835,#836))
REPRESENTATION_CONTEXT('','3D')
);
#831=(
GEOMETRIC_REPRESENTATION_CONTEXT(3)
GLOBAL_UNCERTAINTY_ASSIGNED_CONTEXT((#828))
GLOBAL_UNIT_ASSIGNED_CONTEXT((#833,#835,#836))
REPRESENTATION_CONTEXT('','3D')
);
#832=(
GEOMETRIC_REPRESENTATION_CONTEXT(3)
GLOBAL_UNCERTAINTY_ASSIGNED_CONTEXT((#829))
GLOBAL_UNIT_ASSIGNED_CONTEXT((#833,#835,#836))
REPRESENTATION_CONTEXT('','3D')
);
#833=(
LENGTH_UNIT()
NAMED_UNIT(*)
SI_UNIT(.MILLI.,.METRE.)
);
#834=(
LENGTH_UNIT()
NAMED_UNIT(*)
SI_UNIT($,.METRE.)
);
#835=(
NAMED_UNIT(*)
PLANE_ANGLE_UNIT()
SI_UNIT($,.RADIAN.)
);
#836=(
NAMED_UNIT(*)
SI_UNIT($,.STERADIAN.)
SOLID_ANGLE_UNIT()
);
#837=SHAPE_DEFINITION_REPRESENTATION(#839,#842);
#838=SHAPE_DEFINITION_REPRESENTATION(#840,#843);
#839=PRODUCT_DEFINITION_SHAPE('',$,#845);
#840=PRODUCT_DEFINITION_SHAPE('',$,#846);
#841=PRODUCT_DEFINITION_SHAPE($,$,#14);
#842=SHAPE_REPRESENTATION('',(#535,#565),#830);
#843=SHAPE_REPRESENTATION('',(#536),#831);
#844=PRODUCT_DEFINITION_CONTEXT('part definition',#852,'design');
#845=PRODUCT_DEFINITION('Chamfer','MaleHeader 2.54mm v1',#847,#844);
#846=PRODUCT_DEFINITION('Male_Header','Male_Header',#848,#844);
#847=PRODUCT_DEFINITION_FORMATION('',$,#854);
#848=PRODUCT_DEFINITION_FORMATION('',$,#855);
#849=PRODUCT_RELATED_PRODUCT_CATEGORY('MaleHeader 2.54mm v1',
'MaleHeader 2.54mm v1',(#854));
#850=PRODUCT_RELATED_PRODUCT_CATEGORY('Male_Header','Male_Header',(#855));
#851=APPLICATION_PROTOCOL_DEFINITION('international standard',
'automotive_design',2009,#852);
#852=APPLICATION_CONTEXT(
'Core Data for Automotive Mechanical Design Process');
#853=PRODUCT_CONTEXT('part definition',#852,'mechanical');
#854=PRODUCT('Chamfer','MaleHeader 2.54mm v1','FreeCAD Model',(#853));
#855=PRODUCT('Male_Header','Male_Header',$,(#853));
#856=PRESENTATION_STYLE_ASSIGNMENT((#859));
#857=PRESENTATION_STYLE_ASSIGNMENT((#860));
#858=PRESENTATION_STYLE_ASSIGNMENT((#861));
#859=SURFACE_STYLE_USAGE(.BOTH.,#862);
#860=SURFACE_STYLE_USAGE(.BOTH.,#863);
#861=SURFACE_STYLE_USAGE(.BOTH.,#864);
#862=SURFACE_SIDE_STYLE('',(#865));
#863=SURFACE_SIDE_STYLE('',(#866));
#864=SURFACE_SIDE_STYLE('',(#867));
#865=SURFACE_STYLE_FILL_AREA(#868);
#866=SURFACE_STYLE_FILL_AREA(#869);
#867=SURFACE_STYLE_FILL_AREA(#870);
#868=FILL_AREA_STYLE('Acero - Satinado',(#871));
#869=FILL_AREA_STYLE('Opaque(166,166,166)',(#872));
#870=FILL_AREA_STYLE('Opaque(25,25,25)',(#873));
#871=FILL_AREA_STYLE_COLOUR('Acero - Satinado',#874);
#872=FILL_AREA_STYLE_COLOUR('Opaque(166,166,166)',#875);
#873=FILL_AREA_STYLE_COLOUR('Opaque(25,25,25)',#876);
#874=COLOUR_RGB('Acero - Satinado',0.627450980392157,0.627450980392157,
0.627450980392157);
#875=COLOUR_RGB('Opaque(166,166,166)',0.650980392156863,0.650980392156863,
0.650980392156863);
#876=COLOUR_RGB('Opaque(25,25,25)',0.0980392156862745,0.0980392156862745,
0.0980392156862745);
ENDSEC;
END-ISO-10303-21;
