ISO-10303-21;
HEADER;
/* Generated by software containing ST-Developer
 * from STEP Tools, Inc. (www.steptools.com) 
 */

FILE_DESCRIPTION(
/* description */ (''),
/* implementation_level */ '2;1');

FILE_NAME(
/* name */ 'Link servomotor.step',
/* time_stamp */ '2026-06-26T19:03:10-04:00',
/* author */ (''),
/* organization */ (''),
/* preprocessor_version */ 'ST-DEVELOPER v20.1',
/* originating_system */ 'Autodesk Translation Framework v15.8.0.0',
/* authorisation */ '');

FILE_SCHEMA (('AUTOMOTIVE_DESIGN { 1 0 10303 214 3 1 1 }'));
ENDSEC;

DATA;
#10=MECHANICAL_DESIGN_GEOMETRIC_PRESENTATION_REPRESENTATION('',(#17),#551);
#11=ITEM_DEFINED_TRANSFORMATION($,$,#315,#356);
#12=(
REPRESENTATION_RELATIONSHIP($,$,#562,#561)
REPRESENTATION_RELATIONSHIP_WITH_TRANSFORMATION(#11)
SHAPE_REPRESENTATION_RELATIONSHIP()
);
#13=CONTEXT_DEPENDENT_SHAPE_REPRESENTATION(#12,#560);
#14=NEXT_ASSEMBLY_USAGE_OCCURRENCE('Link Servomotor:1',
'Link Servomotor:1','Link Servomotor:1',#564,#565,'Link Servomotor:1');
#15=SHAPE_REPRESENTATION_RELATIONSHIP('SRR','None',#562,#16);
#16=ADVANCED_BREP_SHAPE_REPRESENTATION('',(#18),#550);
#17=STYLED_ITEM('',(#576),#18);
#18=MANIFOLD_SOLID_BREP('Link Servomotor',#301);
#19=FACE_BOUND('',#57,.T.);
#20=FACE_BOUND('',#58,.T.);
#21=FACE_BOUND('',#65,.T.);
#22=FACE_BOUND('',#66,.T.);
#23=PLANE('',#330);
#24=PLANE('',#331);
#25=PLANE('',#346);
#26=PLANE('',#347);
#27=PLANE('',#353);
#28=TOROIDAL_SURFACE('',#319,4.,0.5);
#29=TOROIDAL_SURFACE('',#325,4.,0.5);
#30=TOROIDAL_SURFACE('',#338,4.,0.5);
#31=TOROIDAL_SURFACE('',#343,4.,0.5);
#32=FACE_OUTER_BOUND('',#50,.T.);
#33=FACE_OUTER_BOUND('',#51,.T.);
#34=FACE_OUTER_BOUND('',#52,.T.);
#35=FACE_OUTER_BOUND('',#53,.T.);
#36=FACE_OUTER_BOUND('',#54,.T.);
#37=FACE_OUTER_BOUND('',#55,.T.);
#38=FACE_OUTER_BOUND('',#56,.T.);
#39=FACE_OUTER_BOUND('',#59,.T.);
#40=FACE_OUTER_BOUND('',#60,.T.);
#41=FACE_OUTER_BOUND('',#61,.T.);
#42=FACE_OUTER_BOUND('',#62,.T.);
#43=FACE_OUTER_BOUND('',#63,.T.);
#44=FACE_OUTER_BOUND('',#64,.T.);
#45=FACE_OUTER_BOUND('',#67,.T.);
#46=FACE_OUTER_BOUND('',#68,.T.);
#47=FACE_OUTER_BOUND('',#69,.T.);
#48=FACE_OUTER_BOUND('',#70,.T.);
#49=FACE_OUTER_BOUND('',#71,.T.);
#50=EDGE_LOOP('',(#194,#195,#196,#197));
#51=EDGE_LOOP('',(#198,#199,#200,#201));
#52=EDGE_LOOP('',(#202,#203,#204,#205));
#53=EDGE_LOOP('',(#206,#207,#208,#209));
#54=EDGE_LOOP('',(#210,#211,#212,#213));
#55=EDGE_LOOP('',(#214,#215,#216,#217));
#56=EDGE_LOOP('',(#218,#219,#220,#221));
#57=EDGE_LOOP('',(#222));
#58=EDGE_LOOP('',(#223,#224,#225));
#59=EDGE_LOOP('',(#226,#227,#228,#229));
#60=EDGE_LOOP('',(#230,#231,#232,#233));
#61=EDGE_LOOP('',(#234,#235,#236,#237));
#62=EDGE_LOOP('',(#238,#239,#240,#241));
#63=EDGE_LOOP('',(#242,#243,#244,#245));
#64=EDGE_LOOP('',(#246,#247,#248,#249));
#65=EDGE_LOOP('',(#250));
#66=EDGE_LOOP('',(#251,#252,#253));
#67=EDGE_LOOP('',(#254,#255,#256,#257));
#68=EDGE_LOOP('',(#258,#259,#260,#261));
#69=EDGE_LOOP('',(#262,#263,#264,#265));
#70=EDGE_LOOP('',(#266,#267,#268,#269));
#71=EDGE_LOOP('',(#270,#271,#272,#273));
#72=LINE('',#468,#90);
#73=LINE('',#471,#91);
#74=LINE('',#482,#92);
#75=LINE('',#483,#93);
#76=LINE('',#489,#94);
#77=LINE('',#492,#95);
#78=LINE('',#495,#96);
#79=LINE('',#496,#97);
#80=LINE('',#505,#98);
#81=LINE('',#510,#99);
#82=LINE('',#513,#100);
#83=LINE('',#521,#101);
#84=LINE('',#526,#102);
#85=LINE('',#534,#103);
#86=LINE('',#537,#104);
#87=LINE('',#539,#105);
#88=LINE('',#540,#106);
#89=LINE('',#542,#107);
#90=VECTOR('',#365,10.);
#91=VECTOR('',#368,10.);
#92=VECTOR('',#381,10.);
#93=VECTOR('',#382,10.);
#94=VECTOR('',#391,10.);
#95=VECTOR('',#394,10.);
#96=VECTOR('',#397,10.);
#97=VECTOR('',#398,10.);
#98=VECTOR('',#407,10.);
#99=VECTOR('',#412,10.);
#100=VECTOR('',#415,10.);
#101=VECTOR('',#426,10.);
#102=VECTOR('',#435,10.);
#103=VECTOR('',#442,10.);
#104=VECTOR('',#447,2.5);
#105=VECTOR('',#450,10.);
#106=VECTOR('',#451,10.);
#107=VECTOR('',#454,10.);
#108=CIRCLE('',#317,0.499999999999997);
#109=CIRCLE('',#318,0.5);
#110=CIRCLE('',#320,0.5);
#111=CIRCLE('',#321,4.5);
#112=CIRCLE('',#322,4.);
#113=CIRCLE('',#324,0.5);
#114=CIRCLE('',#326,4.5);
#115=CIRCLE('',#327,4.);
#116=CIRCLE('',#329,4.5);
#117=CIRCLE('',#332,2.5);
#118=CIRCLE('',#333,2.5);
#119=CIRCLE('',#334,2.5);
#120=CIRCLE('',#336,0.5);
#121=CIRCLE('',#337,0.499999999999997);
#122=CIRCLE('',#339,0.500000000000006);
#123=CIRCLE('',#340,4.);
#124=CIRCLE('',#342,0.499999999999997);
#125=CIRCLE('',#344,4.);
#126=CIRCLE('',#345,4.5);
#127=CIRCLE('',#348,2.5);
#128=CIRCLE('',#349,2.5);
#129=CIRCLE('',#350,2.5);
#130=VERTEX_POINT('',#464);
#131=VERTEX_POINT('',#465);
#132=VERTEX_POINT('',#467);
#133=VERTEX_POINT('',#469);
#134=VERTEX_POINT('',#473);
#135=VERTEX_POINT('',#474);
#136=VERTEX_POINT('',#479);
#137=VERTEX_POINT('',#480);
#138=VERTEX_POINT('',#488);
#139=VERTEX_POINT('',#490);
#140=VERTEX_POINT('',#494);
#141=VERTEX_POINT('',#498);
#142=VERTEX_POINT('',#500);
#143=VERTEX_POINT('',#501);
#144=VERTEX_POINT('',#503);
#145=VERTEX_POINT('',#507);
#146=VERTEX_POINT('',#508);
#147=VERTEX_POINT('',#511);
#148=VERTEX_POINT('',#515);
#149=VERTEX_POINT('',#519);
#150=VERTEX_POINT('',#528);
#151=VERTEX_POINT('',#530);
#152=VERTEX_POINT('',#531);
#153=VERTEX_POINT('',#533);
#154=EDGE_CURVE('',#130,#131,#108,.T.);
#155=EDGE_CURVE('',#131,#132,#72,.T.);
#156=EDGE_CURVE('',#132,#133,#109,.T.);
#157=EDGE_CURVE('',#133,#130,#73,.T.);
#158=EDGE_CURVE('',#134,#135,#110,.T.);
#159=EDGE_CURVE('',#135,#133,#111,.T.);
#160=EDGE_CURVE('',#132,#134,#112,.T.);
#161=EDGE_CURVE('',#136,#137,#113,.T.);
#162=EDGE_CURVE('',#137,#135,#74,.T.);
#163=EDGE_CURVE('',#134,#136,#75,.T.);
#164=EDGE_CURVE('',#130,#137,#114,.T.);
#165=EDGE_CURVE('',#136,#131,#115,.T.);
#166=EDGE_CURVE('',#130,#138,#76,.T.);
#167=EDGE_CURVE('',#139,#138,#116,.T.);
#168=EDGE_CURVE('',#137,#139,#77,.T.);
#169=EDGE_CURVE('',#133,#140,#78,.T.);
#170=EDGE_CURVE('',#138,#140,#79,.T.);
#171=EDGE_CURVE('',#141,#141,#117,.T.);
#172=EDGE_CURVE('',#142,#143,#118,.T.);
#173=EDGE_CURVE('',#144,#142,#119,.T.);
#174=EDGE_CURVE('',#143,#144,#80,.T.);
#175=EDGE_CURVE('',#145,#146,#120,.T.);
#176=EDGE_CURVE('',#146,#139,#81,.T.);
#177=EDGE_CURVE('',#139,#147,#121,.T.);
#178=EDGE_CURVE('',#147,#145,#82,.T.);
#179=EDGE_CURVE('',#138,#148,#122,.T.);
#180=EDGE_CURVE('',#148,#147,#123,.T.);
#181=EDGE_CURVE('',#140,#149,#124,.T.);
#182=EDGE_CURVE('',#149,#148,#83,.T.);
#183=EDGE_CURVE('',#145,#149,#125,.T.);
#184=EDGE_CURVE('',#140,#146,#126,.T.);
#185=EDGE_CURVE('',#135,#146,#84,.T.);
#186=EDGE_CURVE('',#150,#150,#127,.T.);
#187=EDGE_CURVE('',#151,#152,#128,.T.);
#188=EDGE_CURVE('',#152,#153,#85,.T.);
#189=EDGE_CURVE('',#153,#151,#129,.T.);
#190=EDGE_CURVE('',#150,#141,#86,.T.);
#191=EDGE_CURVE('',#142,#151,#87,.T.);
#192=EDGE_CURVE('',#144,#153,#88,.T.);
#193=EDGE_CURVE('',#143,#152,#89,.T.);
#194=ORIENTED_EDGE('',*,*,#154,.T.);
#195=ORIENTED_EDGE('',*,*,#155,.T.);
#196=ORIENTED_EDGE('',*,*,#156,.T.);
#197=ORIENTED_EDGE('',*,*,#157,.T.);
#198=ORIENTED_EDGE('',*,*,#158,.T.);
#199=ORIENTED_EDGE('',*,*,#159,.T.);
#200=ORIENTED_EDGE('',*,*,#156,.F.);
#201=ORIENTED_EDGE('',*,*,#160,.T.);
#202=ORIENTED_EDGE('',*,*,#161,.T.);
#203=ORIENTED_EDGE('',*,*,#162,.T.);
#204=ORIENTED_EDGE('',*,*,#158,.F.);
#205=ORIENTED_EDGE('',*,*,#163,.T.);
#206=ORIENTED_EDGE('',*,*,#154,.F.);
#207=ORIENTED_EDGE('',*,*,#164,.T.);
#208=ORIENTED_EDGE('',*,*,#161,.F.);
#209=ORIENTED_EDGE('',*,*,#165,.T.);
#210=ORIENTED_EDGE('',*,*,#164,.F.);
#211=ORIENTED_EDGE('',*,*,#166,.T.);
#212=ORIENTED_EDGE('',*,*,#167,.F.);
#213=ORIENTED_EDGE('',*,*,#168,.F.);
#214=ORIENTED_EDGE('',*,*,#157,.F.);
#215=ORIENTED_EDGE('',*,*,#169,.T.);
#216=ORIENTED_EDGE('',*,*,#170,.F.);
#217=ORIENTED_EDGE('',*,*,#166,.F.);
#218=ORIENTED_EDGE('',*,*,#155,.F.);
#219=ORIENTED_EDGE('',*,*,#165,.F.);
#220=ORIENTED_EDGE('',*,*,#163,.F.);
#221=ORIENTED_EDGE('',*,*,#160,.F.);
#222=ORIENTED_EDGE('',*,*,#171,.F.);
#223=ORIENTED_EDGE('',*,*,#172,.F.);
#224=ORIENTED_EDGE('',*,*,#173,.F.);
#225=ORIENTED_EDGE('',*,*,#174,.F.);
#226=ORIENTED_EDGE('',*,*,#175,.T.);
#227=ORIENTED_EDGE('',*,*,#176,.T.);
#228=ORIENTED_EDGE('',*,*,#177,.T.);
#229=ORIENTED_EDGE('',*,*,#178,.T.);
#230=ORIENTED_EDGE('',*,*,#179,.T.);
#231=ORIENTED_EDGE('',*,*,#180,.T.);
#232=ORIENTED_EDGE('',*,*,#177,.F.);
#233=ORIENTED_EDGE('',*,*,#167,.T.);
#234=ORIENTED_EDGE('',*,*,#181,.T.);
#235=ORIENTED_EDGE('',*,*,#182,.T.);
#236=ORIENTED_EDGE('',*,*,#179,.F.);
#237=ORIENTED_EDGE('',*,*,#170,.T.);
#238=ORIENTED_EDGE('',*,*,#175,.F.);
#239=ORIENTED_EDGE('',*,*,#183,.T.);
#240=ORIENTED_EDGE('',*,*,#181,.F.);
#241=ORIENTED_EDGE('',*,*,#184,.T.);
#242=ORIENTED_EDGE('',*,*,#162,.F.);
#243=ORIENTED_EDGE('',*,*,#168,.T.);
#244=ORIENTED_EDGE('',*,*,#176,.F.);
#245=ORIENTED_EDGE('',*,*,#185,.F.);
#246=ORIENTED_EDGE('',*,*,#178,.F.);
#247=ORIENTED_EDGE('',*,*,#180,.F.);
#248=ORIENTED_EDGE('',*,*,#182,.F.);
#249=ORIENTED_EDGE('',*,*,#183,.F.);
#250=ORIENTED_EDGE('',*,*,#186,.T.);
#251=ORIENTED_EDGE('',*,*,#187,.T.);
#252=ORIENTED_EDGE('',*,*,#188,.T.);
#253=ORIENTED_EDGE('',*,*,#189,.T.);
#254=ORIENTED_EDGE('',*,*,#186,.F.);
#255=ORIENTED_EDGE('',*,*,#190,.T.);
#256=ORIENTED_EDGE('',*,*,#171,.T.);
#257=ORIENTED_EDGE('',*,*,#190,.F.);
#258=ORIENTED_EDGE('',*,*,#173,.T.);
#259=ORIENTED_EDGE('',*,*,#191,.T.);
#260=ORIENTED_EDGE('',*,*,#189,.F.);
#261=ORIENTED_EDGE('',*,*,#192,.F.);
#262=ORIENTED_EDGE('',*,*,#174,.T.);
#263=ORIENTED_EDGE('',*,*,#192,.T.);
#264=ORIENTED_EDGE('',*,*,#188,.F.);
#265=ORIENTED_EDGE('',*,*,#193,.F.);
#266=ORIENTED_EDGE('',*,*,#172,.T.);
#267=ORIENTED_EDGE('',*,*,#193,.T.);
#268=ORIENTED_EDGE('',*,*,#187,.F.);
#269=ORIENTED_EDGE('',*,*,#191,.F.);
#270=ORIENTED_EDGE('',*,*,#159,.F.);
#271=ORIENTED_EDGE('',*,*,#185,.T.);
#272=ORIENTED_EDGE('',*,*,#184,.F.);
#273=ORIENTED_EDGE('',*,*,#169,.F.);
#274=CYLINDRICAL_SURFACE('',#316,0.5);
#275=CYLINDRICAL_SURFACE('',#323,0.5);
#276=CYLINDRICAL_SURFACE('',#328,4.5);
#277=CYLINDRICAL_SURFACE('',#335,0.5);
#278=CYLINDRICAL_SURFACE('',#341,0.5);
#279=CYLINDRICAL_SURFACE('',#351,2.5);
#280=CYLINDRICAL_SURFACE('',#352,2.5);
#281=CYLINDRICAL_SURFACE('',#354,2.5);
#282=CYLINDRICAL_SURFACE('',#355,4.5);
#283=ADVANCED_FACE('',(#32),#274,.T.);
#284=ADVANCED_FACE('',(#33),#28,.T.);
#285=ADVANCED_FACE('',(#34),#275,.T.);
#286=ADVANCED_FACE('',(#35),#29,.T.);
#287=ADVANCED_FACE('',(#36),#276,.T.);
#288=ADVANCED_FACE('',(#37),#23,.T.);
#289=ADVANCED_FACE('',(#38,#19,#20),#24,.F.);
#290=ADVANCED_FACE('',(#39),#277,.T.);
#291=ADVANCED_FACE('',(#40),#30,.T.);
#292=ADVANCED_FACE('',(#41),#278,.T.);
#293=ADVANCED_FACE('',(#42),#31,.T.);
#294=ADVANCED_FACE('',(#43),#25,.T.);
#295=ADVANCED_FACE('',(#44,#21,#22),#26,.T.);
#296=ADVANCED_FACE('',(#45),#279,.F.);
#297=ADVANCED_FACE('',(#46),#280,.F.);
#298=ADVANCED_FACE('',(#47),#27,.T.);
#299=ADVANCED_FACE('',(#48),#281,.F.);
#300=ADVANCED_FACE('',(#49),#282,.T.);
#301=CLOSED_SHELL('',(#283,#284,#285,#286,#287,#288,#289,#290,#291,#292,
#293,#294,#295,#296,#297,#298,#299,#300));
#302=DERIVED_UNIT_ELEMENT(#304,1.);
#303=DERIVED_UNIT_ELEMENT(#553,-3.);
#304=(
MASS_UNIT()
NAMED_UNIT(*)
SI_UNIT(.KILO.,.GRAM.)
);
#305=DERIVED_UNIT((#302,#303));
#306=MEASURE_REPRESENTATION_ITEM('density measure',
POSITIVE_RATIO_MEASURE(7850.),#305);
#307=PROPERTY_DEFINITION_REPRESENTATION(#312,#309);
#308=PROPERTY_DEFINITION_REPRESENTATION(#313,#310);
#309=REPRESENTATION('material name',(#311),#550);
#310=REPRESENTATION('density',(#306),#550);
#311=DESCRIPTIVE_REPRESENTATION_ITEM('Acero','Acero');
#312=PROPERTY_DEFINITION('material property','material name',#565);
#313=PROPERTY_DEFINITION('material property','density of part',#565);
#314=AXIS2_PLACEMENT_3D('',#461,#357,#358);
#315=AXIS2_PLACEMENT_3D('',#462,#359,#360);
#316=AXIS2_PLACEMENT_3D('',#463,#361,#362);
#317=AXIS2_PLACEMENT_3D('',#466,#363,#364);
#318=AXIS2_PLACEMENT_3D('',#470,#366,#367);
#319=AXIS2_PLACEMENT_3D('',#472,#369,#370);
#320=AXIS2_PLACEMENT_3D('',#475,#371,#372);
#321=AXIS2_PLACEMENT_3D('',#476,#373,#374);
#322=AXIS2_PLACEMENT_3D('',#477,#375,#376);
#323=AXIS2_PLACEMENT_3D('',#478,#377,#378);
#324=AXIS2_PLACEMENT_3D('',#481,#379,#380);
#325=AXIS2_PLACEMENT_3D('',#484,#383,#384);
#326=AXIS2_PLACEMENT_3D('',#485,#385,#386);
#327=AXIS2_PLACEMENT_3D('',#486,#387,#388);
#328=AXIS2_PLACEMENT_3D('',#487,#389,#390);
#329=AXIS2_PLACEMENT_3D('',#491,#392,#393);
#330=AXIS2_PLACEMENT_3D('',#493,#395,#396);
#331=AXIS2_PLACEMENT_3D('',#497,#399,#400);
#332=AXIS2_PLACEMENT_3D('',#499,#401,#402);
#333=AXIS2_PLACEMENT_3D('',#502,#403,#404);
#334=AXIS2_PLACEMENT_3D('',#504,#405,#406);
#335=AXIS2_PLACEMENT_3D('',#506,#408,#409);
#336=AXIS2_PLACEMENT_3D('',#509,#410,#411);
#337=AXIS2_PLACEMENT_3D('',#512,#413,#414);
#338=AXIS2_PLACEMENT_3D('',#514,#416,#417);
#339=AXIS2_PLACEMENT_3D('',#516,#418,#419);
#340=AXIS2_PLACEMENT_3D('',#517,#420,#421);
#341=AXIS2_PLACEMENT_3D('',#518,#422,#423);
#342=AXIS2_PLACEMENT_3D('',#520,#424,#425);
#343=AXIS2_PLACEMENT_3D('',#522,#427,#428);
#344=AXIS2_PLACEMENT_3D('',#523,#429,#430);
#345=AXIS2_PLACEMENT_3D('',#524,#431,#432);
#346=AXIS2_PLACEMENT_3D('',#525,#433,#434);
#347=AXIS2_PLACEMENT_3D('',#527,#436,#437);
#348=AXIS2_PLACEMENT_3D('',#529,#438,#439);
#349=AXIS2_PLACEMENT_3D('',#532,#440,#441);
#350=AXIS2_PLACEMENT_3D('',#535,#443,#444);
#351=AXIS2_PLACEMENT_3D('',#536,#445,#446);
#352=AXIS2_PLACEMENT_3D('',#538,#448,#449);
#353=AXIS2_PLACEMENT_3D('',#541,#452,#453);
#354=AXIS2_PLACEMENT_3D('',#543,#455,#456);
#355=AXIS2_PLACEMENT_3D('',#544,#457,#458);
#356=AXIS2_PLACEMENT_3D('',#545,#459,#460);
#357=DIRECTION('axis',(0.,0.,1.));
#358=DIRECTION('refdir',(1.,0.,0.));
#359=DIRECTION('axis',(0.,0.,1.));
#360=DIRECTION('refdir',(1.,0.,0.));
#361=DIRECTION('center_axis',(-0.159311770055691,-1.56196100504503E-31,
-0.987228322082446));
#362=DIRECTION('ref_axis',(-0.698075841123907,0.707106781186555,0.112650432929215));
#363=DIRECTION('center_axis',(-0.159311770055695,0.,-0.987228322082446));
#364=DIRECTION('ref_axis',(-0.987228322082446,0.,0.159311770055695));
#365=DIRECTION('',(-0.159311770055691,-1.56196100504503E-31,-0.987228322082446));
#366=DIRECTION('center_axis',(0.159311770055695,0.,0.987228322082446));
#367=DIRECTION('ref_axis',(0.,1.,0.));
#368=DIRECTION('',(0.159311770055691,1.56196100504503E-31,0.987228322082446));
#369=DIRECTION('center_axis',(-3.94430452610506E-31,-1.,2.2186712959341E-31));
#370=DIRECTION('ref_axis',(0.,0.,-1.));
#371=DIRECTION('center_axis',(-0.159311770055695,0.,-0.987228322082446));
#372=DIRECTION('ref_axis',(0.,1.,0.));
#373=DIRECTION('center_axis',(3.94430452610506E-31,1.,-2.2186712959341E-31));
#374=DIRECTION('ref_axis',(-0.159311770055695,0.,-0.987228322082446));
#375=DIRECTION('center_axis',(-3.94430452610506E-31,-1.,2.2186712959341E-31));
#376=DIRECTION('ref_axis',(-0.159311770055695,-1.56196100504502E-31,-0.987228322082446));
#377=DIRECTION('center_axis',(0.159311770055691,1.56196100504503E-31,0.987228322082446));
#378=DIRECTION('ref_axis',(0.69807584112392,0.707106781186543,-0.112650432929213));
#379=DIRECTION('center_axis',(-0.159311770055695,0.,-0.987228322082446));
#380=DIRECTION('ref_axis',(0.,1.,0.));
#381=DIRECTION('',(-0.159311770055691,-1.56196100504503E-31,-0.987228322082446));
#382=DIRECTION('',(0.159311770055691,1.56196100504503E-31,0.987228322082446));
#383=DIRECTION('center_axis',(-3.94430452610506E-31,-1.,2.2186712959341E-31));
#384=DIRECTION('ref_axis',(0.159311770055695,0.,0.987228322082446));
#385=DIRECTION('center_axis',(3.94430452610506E-31,1.,-2.2186712959341E-31));
#386=DIRECTION('ref_axis',(0.159311770055695,0.,0.987228322082446));
#387=DIRECTION('center_axis',(-3.94430452610506E-31,-1.,2.2186712959341E-31));
#388=DIRECTION('ref_axis',(0.159311770055695,1.56196100504502E-31,0.987228322082446));
#389=DIRECTION('center_axis',(0.,-1.,0.));
#390=DIRECTION('ref_axis',(1.,0.,4.30773850391411E-123));
#391=DIRECTION('',(0.,-1.,0.));
#392=DIRECTION('center_axis',(-3.94430452610506E-31,-1.,2.2186712959341E-31));
#393=DIRECTION('ref_axis',(0.159311770055695,0.,0.987228322082446));
#394=DIRECTION('',(0.,-1.,0.));
#395=DIRECTION('center_axis',(-0.987228322082446,0.,0.159311770055691));
#396=DIRECTION('ref_axis',(-0.159311770055691,-1.71621486468089E-31,-0.987228322082446));
#397=DIRECTION('',(0.,-1.,0.));
#398=DIRECTION('',(-0.159311770055691,-1.56196100504503E-31,-0.987228322082446));
#399=DIRECTION('center_axis',(-3.94430452610506E-31,-1.,2.2186712959341E-31));
#400=DIRECTION('ref_axis',(1.,-3.94430452610506E-31,4.30773850391411E-123));
#401=DIRECTION('center_axis',(3.94430452610506E-31,1.,-2.2186712959341E-31));
#402=DIRECTION('ref_axis',(1.,-3.94430452610506E-31,4.30773850391411E-123));
#403=DIRECTION('center_axis',(0.,1.,-9.86076131526265E-32));
#404=DIRECTION('ref_axis',(1.,-8.75811540203011E-47,-8.75111523449223E-62));
#405=DIRECTION('center_axis',(3.94430452610506E-31,1.,-2.2186712959341E-31));
#406=DIRECTION('ref_axis',(1.,-3.94430452610506E-31,-5.22321887051709E-78));
#407=DIRECTION('',(0.159311770055691,1.40864396379426E-31,0.987228322082446));
#408=DIRECTION('center_axis',(0.159311770055691,1.56196100504503E-31,0.987228322082446));
#409=DIRECTION('ref_axis',(0.698075841123919,-0.707106781186544,-0.112650432929213));
#410=DIRECTION('center_axis',(0.159311770055695,0.,0.987228322082446));
#411=DIRECTION('ref_axis',(0.,-1.,0.));
#412=DIRECTION('',(0.159311770055691,1.56196100504503E-31,0.987228322082446));
#413=DIRECTION('center_axis',(-0.159311770055695,0.,-0.987228322082446));
#414=DIRECTION('ref_axis',(0.987228322082446,0.,-0.159311770055695));
#415=DIRECTION('',(-0.159311770055691,-1.56196100504503E-31,-0.987228322082446));
#416=DIRECTION('center_axis',(-3.94430452610506E-31,-1.,2.2186712959341E-31));
#417=DIRECTION('ref_axis',(0.159311770055695,0.,0.987228322082446));
#418=DIRECTION('center_axis',(0.159311770055693,0.,0.987228322082446));
#419=DIRECTION('ref_axis',(-0.987228322082446,0.,0.159311770055693));
#420=DIRECTION('center_axis',(3.94430452610506E-31,1.,-2.2186712959341E-31));
#421=DIRECTION('ref_axis',(0.159311770055695,1.56196100504502E-31,0.987228322082446));
#422=DIRECTION('center_axis',(-0.159311770055691,-1.56196100504503E-31,
-0.987228322082446));
#423=DIRECTION('ref_axis',(-0.698075841123906,-0.707106781186556,0.112650432929215));
#424=DIRECTION('center_axis',(0.159311770055695,0.,0.987228322082446));
#425=DIRECTION('ref_axis',(-0.987228322082446,0.,0.159311770055695));
#426=DIRECTION('',(0.159311770055691,1.56196100504503E-31,0.987228322082446));
#427=DIRECTION('center_axis',(-3.94430452610506E-31,-1.,2.2186712959341E-31));
#428=DIRECTION('ref_axis',(0.,0.,-1.));
#429=DIRECTION('center_axis',(3.94430452610506E-31,1.,-2.2186712959341E-31));
#430=DIRECTION('ref_axis',(-0.159311770055695,-1.56196100504502E-31,-0.987228322082446));
#431=DIRECTION('center_axis',(-3.94430452610506E-31,-1.,2.2186712959341E-31));
#432=DIRECTION('ref_axis',(-0.159311770055695,0.,-0.987228322082446));
#433=DIRECTION('center_axis',(0.987228322082446,0.,-0.159311770055691));
#434=DIRECTION('ref_axis',(0.159311770055691,1.40864396379426E-31,0.987228322082446));
#435=DIRECTION('',(0.,-1.,0.));
#436=DIRECTION('center_axis',(-3.94430452610506E-31,-1.,2.2186712959341E-31));
#437=DIRECTION('ref_axis',(1.,-3.94430452610506E-31,4.30773850391411E-123));
#438=DIRECTION('center_axis',(3.94430452610506E-31,1.,-2.2186712959341E-31));
#439=DIRECTION('ref_axis',(1.,-3.94430452610506E-31,4.30773850391411E-123));
#440=DIRECTION('center_axis',(0.,1.,-9.86076131526265E-32));
#441=DIRECTION('ref_axis',(1.,-8.75811540203011E-47,-8.75111523449223E-62));
#442=DIRECTION('',(0.159311770055691,1.40864396379426E-31,0.987228322082446));
#443=DIRECTION('center_axis',(3.94430452610506E-31,1.,-2.2186712959341E-31));
#444=DIRECTION('ref_axis',(1.,-3.94430452610506E-31,-5.22321887051709E-78));
#445=DIRECTION('center_axis',(0.,-1.,0.));
#446=DIRECTION('ref_axis',(1.,0.,4.30773850391411E-123));
#447=DIRECTION('',(0.,1.,0.));
#448=DIRECTION('center_axis',(0.,-1.,0.));
#449=DIRECTION('ref_axis',(-0.151636138636216,0.,-0.988436382100284));
#450=DIRECTION('',(0.,-1.,0.));
#451=DIRECTION('',(0.,-1.,0.));
#452=DIRECTION('center_axis',(0.987228322082446,0.,-0.159311770055691));
#453=DIRECTION('ref_axis',(0.159311770055691,1.40864396379426E-31,0.987228322082446));
#454=DIRECTION('',(0.,-1.,0.));
#455=DIRECTION('center_axis',(0.,-1.,0.));
#456=DIRECTION('ref_axis',(1.,0.,-8.75111523449223E-62));
#457=DIRECTION('center_axis',(0.,-1.,0.));
#458=DIRECTION('ref_axis',(-0.159311770055694,0.,-0.987228322082446));
#459=DIRECTION('',(0.,0.,1.));
#460=DIRECTION('',(1.,0.,0.));
#461=CARTESIAN_POINT('',(0.,0.,0.));
#462=CARTESIAN_POINT('',(0.,0.,0.));
#463=CARTESIAN_POINT('Origin',(58.4106768196295,-3.,229.075060086399));
#464=CARTESIAN_POINT('',(60.5574741152509,-3.,245.516902965251));
#465=CARTESIAN_POINT('',(61.0510882762921,-2.5,245.437247080223));
#466=CARTESIAN_POINT('Origin',(61.0510882762921,-3.,245.437247080223));
#467=CARTESIAN_POINT('',(50.4894424496416,-2.5,179.988499104926));
#468=CARTESIAN_POINT('',(58.4106768196295,-2.5,229.075060086399));
#469=CARTESIAN_POINT('',(49.9958282886004,-3.,180.068154989954));
#470=CARTESIAN_POINT('Origin',(50.4894424496416,-3.,179.988499104926));
#471=CARTESIAN_POINT('',(57.9170626585883,-3.,229.154715971426));
#472=CARTESIAN_POINT('Origin',(54.4383557379714,-3.,179.351252024704));
#473=CARTESIAN_POINT('',(58.3872690263012,-2.5,178.714004944481));
#474=CARTESIAN_POINT('',(58.8808831873424,-3.,178.634349059453));
#475=CARTESIAN_POINT('Origin',(58.3872690263012,-3.,178.714004944481));
#476=CARTESIAN_POINT('Origin',(54.4383557379714,-3.,179.351252024704));
#477=CARTESIAN_POINT('Origin',(54.4383557379714,-2.5,179.351252024704));
#478=CARTESIAN_POINT('Origin',(61.0276804829638,-3.,195.076191938305));
#479=CARTESIAN_POINT('',(68.9489148529517,-2.5,244.162752919777));
#480=CARTESIAN_POINT('',(69.4425290139929,-3.,244.083097034749));
#481=CARTESIAN_POINT('Origin',(68.9489148529517,-3.,244.162752919777));
#482=CARTESIAN_POINT('',(61.521294644005,-3.,194.996536053277));
#483=CARTESIAN_POINT('',(61.0276804829638,-2.5,195.076191938305));
#484=CARTESIAN_POINT('Origin',(65.0000015646219,-3.,244.8));
#485=CARTESIAN_POINT('Origin',(65.0000015646219,-3.,244.8));
#486=CARTESIAN_POINT('Origin',(65.0000015646219,-2.5,244.8));
#487=CARTESIAN_POINT('Origin',(65.0000015646219,-2.5,244.8));
#488=CARTESIAN_POINT('',(60.5574741152509,-6.,245.516902965251));
#489=CARTESIAN_POINT('',(60.5574741152509,-2.5,245.516902965251));
#490=CARTESIAN_POINT('',(69.4425290139929,-6.,244.083097034749));
#491=CARTESIAN_POINT('Origin',(65.0000015646219,-6.,244.8));
#492=CARTESIAN_POINT('',(69.4425290139929,-2.5,244.083097034749));
#493=CARTESIAN_POINT('Origin',(60.5574741152509,-2.5,245.516902965251));
#494=CARTESIAN_POINT('',(49.9958282886004,-6.,180.068154989954));
#495=CARTESIAN_POINT('',(49.9958282886004,-2.5,180.068154989954));
#496=CARTESIAN_POINT('',(57.9170626585883,-6.,229.154715971426));
#497=CARTESIAN_POINT('Origin',(59.7191786512967,-2.5,212.075626012352));
#498=CARTESIAN_POINT('',(62.5000015646219,-2.5,244.8));
#499=CARTESIAN_POINT('Origin',(65.0000015646219,-2.5,244.8));
#500=CARTESIAN_POINT('',(51.9654913458368,-2.5,179.718596138734));
#501=CARTESIAN_POINT('',(56.9064265431775,-2.5,178.952972599564));
#502=CARTESIAN_POINT('Origin',(54.4383557379714,-2.5,179.351252024704));
#503=CARTESIAN_POINT('',(56.9076287184493,-2.5,178.960422278116));
#504=CARTESIAN_POINT('Origin',(54.4381694256884,-2.5,179.35));
#505=CARTESIAN_POINT('',(56.9064265431775,-2.5,178.952972599564));
#506=CARTESIAN_POINT('Origin',(61.0276804829638,-6.,195.076191938305));
#507=CARTESIAN_POINT('',(58.3872690263012,-6.5,178.714004944481));
#508=CARTESIAN_POINT('',(58.8808831873424,-6.,178.634349059453));
#509=CARTESIAN_POINT('Origin',(58.3872690263012,-6.,178.714004944481));
#510=CARTESIAN_POINT('',(61.521294644005,-6.,194.996536053277));
#511=CARTESIAN_POINT('',(68.9489148529517,-6.5,244.162752919777));
#512=CARTESIAN_POINT('Origin',(68.9489148529517,-6.,244.162752919777));
#513=CARTESIAN_POINT('',(61.0276804829638,-6.5,195.076191938305));
#514=CARTESIAN_POINT('Origin',(65.0000015646219,-6.,244.8));
#515=CARTESIAN_POINT('',(61.0510882762921,-6.5,245.437247080223));
#516=CARTESIAN_POINT('Origin',(61.0510882762921,-6.,245.437247080223));
#517=CARTESIAN_POINT('Origin',(65.0000015646219,-6.5,244.8));
#518=CARTESIAN_POINT('Origin',(58.4106768196295,-6.,229.075060086399));
#519=CARTESIAN_POINT('',(50.4894424496416,-6.5,179.988499104926));
#520=CARTESIAN_POINT('Origin',(50.4894424496416,-6.,179.988499104926));
#521=CARTESIAN_POINT('',(58.4106768196295,-6.5,229.075060086399));
#522=CARTESIAN_POINT('Origin',(54.4383557379714,-6.,179.351252024704));
#523=CARTESIAN_POINT('Origin',(54.4383557379714,-6.5,179.351252024704));
#524=CARTESIAN_POINT('Origin',(54.4383557379714,-6.,179.351252024704));
#525=CARTESIAN_POINT('Origin',(58.8808831873424,-2.5,178.634349059453));
#526=CARTESIAN_POINT('',(58.8808831873424,-2.5,178.634349059453));
#527=CARTESIAN_POINT('Origin',(59.7191786512967,-6.5,212.075626012352));
#528=CARTESIAN_POINT('',(62.5000015646219,-6.5,244.8));
#529=CARTESIAN_POINT('Origin',(65.0000015646219,-6.5,244.8));
#530=CARTESIAN_POINT('',(51.9654913458368,-6.5,179.718596138734));
#531=CARTESIAN_POINT('',(56.9064265431775,-6.5,178.952972599564));
#532=CARTESIAN_POINT('Origin',(54.4383557379714,-6.5,179.351252024704));
#533=CARTESIAN_POINT('',(56.9076287184493,-6.5,178.960422278116));
#534=CARTESIAN_POINT('',(56.9064265431775,-6.5,178.952972599564));
#535=CARTESIAN_POINT('Origin',(54.4381694256884,-6.5,179.35));
#536=CARTESIAN_POINT('Origin',(65.0000015646219,-2.5,244.8));
#537=CARTESIAN_POINT('',(62.5000015646219,-2.5,244.8));
#538=CARTESIAN_POINT('Origin',(54.4381694256884,-2.5,179.35));
#539=CARTESIAN_POINT('',(51.9654913458368,-2.5,179.718596138734));
#540=CARTESIAN_POINT('',(56.9076287184493,-2.5,178.960422278116));
#541=CARTESIAN_POINT('Origin',(56.9064265431775,-2.5,178.952972599564));
#542=CARTESIAN_POINT('',(56.9064265431775,-2.5,178.952972599564));
#543=CARTESIAN_POINT('Origin',(54.4383557379714,-2.5,179.351252024704));
#544=CARTESIAN_POINT('Origin',(54.4383557379714,-2.5,179.351252024704));
#545=CARTESIAN_POINT('',(0.,0.,0.));
#546=UNCERTAINTY_MEASURE_WITH_UNIT(LENGTH_MEASURE(0.01),#552,
'DISTANCE_ACCURACY_VALUE',
'Maximum model space distance between geometric entities at asserted c
onnectivities');
#547=UNCERTAINTY_MEASURE_WITH_UNIT(LENGTH_MEASURE(0.01),#552,
'DISTANCE_ACCURACY_VALUE',
'Maximum model space distance between geometric entities at asserted c
onnectivities');
#548=UNCERTAINTY_MEASURE_WITH_UNIT(LENGTH_MEASURE(0.01),#552,
'DISTANCE_ACCURACY_VALUE',
'Maximum model space distance between geometric entities at asserted c
onnectivities');
#549=(
GEOMETRIC_REPRESENTATION_CONTEXT(3)
GLOBAL_UNCERTAINTY_ASSIGNED_CONTEXT((#546))
GLOBAL_UNIT_ASSIGNED_CONTEXT((#552,#554,#555))
REPRESENTATION_CONTEXT('','3D')
);
#550=(
GEOMETRIC_REPRESENTATION_CONTEXT(3)
GLOBAL_UNCERTAINTY_ASSIGNED_CONTEXT((#547))
GLOBAL_UNIT_ASSIGNED_CONTEXT((#552,#554,#555))
REPRESENTATION_CONTEXT('','3D')
);
#551=(
GEOMETRIC_REPRESENTATION_CONTEXT(3)
GLOBAL_UNCERTAINTY_ASSIGNED_CONTEXT((#548))
GLOBAL_UNIT_ASSIGNED_CONTEXT((#552,#554,#555))
REPRESENTATION_CONTEXT('','3D')
);
#552=(
LENGTH_UNIT()
NAMED_UNIT(*)
SI_UNIT(.MILLI.,.METRE.)
);
#553=(
LENGTH_UNIT()
NAMED_UNIT(*)
SI_UNIT($,.METRE.)
);
#554=(
NAMED_UNIT(*)
PLANE_ANGLE_UNIT()
SI_UNIT($,.RADIAN.)
);
#555=(
NAMED_UNIT(*)
SI_UNIT($,.STERADIAN.)
SOLID_ANGLE_UNIT()
);
#556=SHAPE_DEFINITION_REPRESENTATION(#558,#561);
#557=SHAPE_DEFINITION_REPRESENTATION(#559,#562);
#558=PRODUCT_DEFINITION_SHAPE('',$,#564);
#559=PRODUCT_DEFINITION_SHAPE('',$,#565);
#560=PRODUCT_DEFINITION_SHAPE($,$,#14);
#561=SHAPE_REPRESENTATION('',(#314,#356),#549);
#562=SHAPE_REPRESENTATION('',(#315),#550);
#563=PRODUCT_DEFINITION_CONTEXT('part definition',#571,'design');
#564=PRODUCT_DEFINITION('Link servomotor','Link servomotor v2',#566,#563);
#565=PRODUCT_DEFINITION('Link Servomotor_1','Link Servomotor',#567,#563);
#566=PRODUCT_DEFINITION_FORMATION('',$,#573);
#567=PRODUCT_DEFINITION_FORMATION('',$,#574);
#568=PRODUCT_RELATED_PRODUCT_CATEGORY('Link servomotor v2',
'Link servomotor v2',(#573));
#569=PRODUCT_RELATED_PRODUCT_CATEGORY('Link Servomotor',
'Link Servomotor',(#574));
#570=APPLICATION_PROTOCOL_DEFINITION('international standard',
'automotive_design',2009,#571);
#571=APPLICATION_CONTEXT(
'Core Data for Automotive Mechanical Design Process');
#572=PRODUCT_CONTEXT('part definition',#571,'mechanical');
#573=PRODUCT('Link servomotor','Link servomotor v2',$,(#572));
#574=PRODUCT('Link Servomotor_1','Link Servomotor',$,(#572));
#575=PRESENTATION_STYLE_ASSIGNMENT((#577));
#576=PRESENTATION_STYLE_ASSIGNMENT((#578));
#577=SURFACE_STYLE_USAGE(.BOTH.,#579);
#578=SURFACE_STYLE_USAGE(.BOTH.,#580);
#579=SURFACE_SIDE_STYLE('',(#581));
#580=SURFACE_SIDE_STYLE('',(#582));
#581=SURFACE_STYLE_FILL_AREA(#583);
#582=SURFACE_STYLE_FILL_AREA(#584);
#583=FILL_AREA_STYLE('Acero - Satinado',(#585));
#584=FILL_AREA_STYLE('Pl\X\E1stico - Mate (blanco)',(#586));
#585=FILL_AREA_STYLE_COLOUR('Acero - Satinado',#587);
#586=FILL_AREA_STYLE_COLOUR('Pl\X\E1stico - Mate (blanco)',#588);
#587=COLOUR_RGB('Acero - Satinado',0.627450980392157,0.627450980392157,
0.627450980392157);
#588=COLOUR_RGB('Pl\X\E1stico - Mate (blanco)',0.964705882352941,0.964705882352941,
0.952941176470588);
ENDSEC;
END-ISO-10303-21;
