ISO-10303-21;
HEADER;
/* Generated by software containing ST-Developer
 * from STEP Tools, Inc. (www.steptools.com) 
 */

FILE_DESCRIPTION(
/* description */ (''),
/* implementation_level */ '2;1');

FILE_NAME(
/* name */ 'Pivote Servomotor.step',
/* time_stamp */ '2026-06-26T19:03:30-04:00',
/* author */ (''),
/* organization */ (''),
/* preprocessor_version */ 'ST-DEVELOPER v20.1',
/* originating_system */ 'Autodesk Translation Framework v15.8.0.0',
/* authorisation */ '');

FILE_SCHEMA (('AUTOMOTIVE_DESIGN { 1 0 10303 214 3 1 1 }'));
ENDSEC;

DATA;
#10=MECHANICAL_DESIGN_GEOMETRIC_PRESENTATION_REPRESENTATION('',(#17),#726);
#11=ITEM_DEFINED_TRANSFORMATION($,$,#446,#481);
#12=(
REPRESENTATION_RELATIONSHIP($,$,#737,#736)
REPRESENTATION_RELATIONSHIP_WITH_TRANSFORMATION(#11)
SHAPE_REPRESENTATION_RELATIONSHIP()
);
#13=CONTEXT_DEPENDENT_SHAPE_REPRESENTATION(#12,#735);
#14=NEXT_ASSEMBLY_USAGE_OCCURRENCE('Pivote Servomotor:1',
'Pivote Servomotor:1','Pivote Servomotor:1',#739,#740,
'Pivote Servomotor:1');
#15=SHAPE_REPRESENTATION_RELATIONSHIP('SRR','None',#737,#16);
#16=ADVANCED_BREP_SHAPE_REPRESENTATION('',(#18),#725);
#17=STYLED_ITEM('',(#751),#18);
#18=MANIFOLD_SOLID_BREP('Pivote Servomotor',#432);
#19=FACE_BOUND('',#66,.T.);
#20=FACE_BOUND('',#71,.T.);
#21=FACE_BOUND('',#76,.T.);
#22=FACE_BOUND('',#77,.T.);
#23=FACE_BOUND('',#78,.T.);
#24=FACE_BOUND('',#85,.T.);
#25=FACE_BOUND('',#86,.T.);
#26=PLANE('',#450);
#27=PLANE('',#460);
#28=PLANE('',#467);
#29=PLANE('',#468);
#30=PLANE('',#469);
#31=PLANE('',#470);
#32=PLANE('',#471);
#33=PLANE('',#472);
#34=PLANE('',#473);
#35=PLANE('',#474);
#36=PLANE('',#475);
#37=PLANE('',#476);
#38=PLANE('',#477);
#39=PLANE('',#478);
#40=PLANE('',#479);
#41=PLANE('',#480);
#42=FACE_OUTER_BOUND('',#64,.T.);
#43=FACE_OUTER_BOUND('',#65,.T.);
#44=FACE_OUTER_BOUND('',#67,.T.);
#45=FACE_OUTER_BOUND('',#68,.T.);
#46=FACE_OUTER_BOUND('',#69,.T.);
#47=FACE_OUTER_BOUND('',#70,.T.);
#48=FACE_OUTER_BOUND('',#72,.T.);
#49=FACE_OUTER_BOUND('',#73,.T.);
#50=FACE_OUTER_BOUND('',#74,.T.);
#51=FACE_OUTER_BOUND('',#75,.T.);
#52=FACE_OUTER_BOUND('',#79,.T.);
#53=FACE_OUTER_BOUND('',#80,.T.);
#54=FACE_OUTER_BOUND('',#81,.T.);
#55=FACE_OUTER_BOUND('',#82,.T.);
#56=FACE_OUTER_BOUND('',#83,.T.);
#57=FACE_OUTER_BOUND('',#84,.T.);
#58=FACE_OUTER_BOUND('',#87,.T.);
#59=FACE_OUTER_BOUND('',#88,.T.);
#60=FACE_OUTER_BOUND('',#89,.T.);
#61=FACE_OUTER_BOUND('',#90,.T.);
#62=FACE_OUTER_BOUND('',#91,.T.);
#63=FACE_OUTER_BOUND('',#92,.T.);
#64=EDGE_LOOP('',(#290,#291,#292,#293));
#65=EDGE_LOOP('',(#294,#295,#296,#297));
#66=EDGE_LOOP('',(#298));
#67=EDGE_LOOP('',(#299,#300,#301,#302));
#68=EDGE_LOOP('',(#303,#304,#305,#306));
#69=EDGE_LOOP('',(#307,#308,#309,#310));
#70=EDGE_LOOP('',(#311,#312,#313,#314));
#71=EDGE_LOOP('',(#315));
#72=EDGE_LOOP('',(#316,#317,#318,#319));
#73=EDGE_LOOP('',(#320,#321,#322,#323));
#74=EDGE_LOOP('',(#324,#325,#326,#327));
#75=EDGE_LOOP('',(#328,#329,#330,#331));
#76=EDGE_LOOP('',(#332,#333,#334,#335));
#77=EDGE_LOOP('',(#336));
#78=EDGE_LOOP('',(#337));
#79=EDGE_LOOP('',(#338,#339,#340,#341));
#80=EDGE_LOOP('',(#342,#343,#344,#345));
#81=EDGE_LOOP('',(#346,#347,#348,#349));
#82=EDGE_LOOP('',(#350,#351,#352,#353));
#83=EDGE_LOOP('',(#354,#355,#356,#357));
#84=EDGE_LOOP('',(#358,#359,#360,#361));
#85=EDGE_LOOP('',(#362));
#86=EDGE_LOOP('',(#363));
#87=EDGE_LOOP('',(#364,#365,#366,#367));
#88=EDGE_LOOP('',(#368,#369,#370,#371));
#89=EDGE_LOOP('',(#372,#373,#374,#375));
#90=EDGE_LOOP('',(#376,#377,#378,#379));
#91=EDGE_LOOP('',(#380,#381,#382,#383,#384,#385,#386,#387,#388,#389,#390,
#391));
#92=EDGE_LOOP('',(#392,#393,#394,#395,#396,#397,#398,#399,#400,#401,#402,
#403));
#93=LINE('',#607,#138);
#94=LINE('',#616,#139);
#95=LINE('',#620,#140);
#96=LINE('',#623,#141);
#97=LINE('',#627,#142);
#98=LINE('',#631,#143);
#99=LINE('',#633,#144);
#100=LINE('',#638,#145);
#101=LINE('',#644,#146);
#102=LINE('',#649,#147);
#103=LINE('',#651,#148);
#104=LINE('',#653,#149);
#105=LINE('',#654,#150);
#106=LINE('',#657,#151);
#107=LINE('',#659,#152);
#108=LINE('',#660,#153);
#109=LINE('',#663,#154);
#110=LINE('',#665,#155);
#111=LINE('',#666,#156);
#112=LINE('',#669,#157);
#113=LINE('',#671,#158);
#114=LINE('',#672,#159);
#115=LINE('',#675,#160);
#116=LINE('',#677,#161);
#117=LINE('',#678,#162);
#118=LINE('',#681,#163);
#119=LINE('',#683,#164);
#120=LINE('',#684,#165);
#121=LINE('',#687,#166);
#122=LINE('',#689,#167);
#123=LINE('',#690,#168);
#124=LINE('',#693,#169);
#125=LINE('',#695,#170);
#126=LINE('',#696,#171);
#127=LINE('',#699,#172);
#128=LINE('',#701,#173);
#129=LINE('',#702,#174);
#130=LINE('',#705,#175);
#131=LINE('',#707,#176);
#132=LINE('',#708,#177);
#133=LINE('',#711,#178);
#134=LINE('',#713,#179);
#135=LINE('',#714,#180);
#136=LINE('',#716,#181);
#137=LINE('',#717,#182);
#138=VECTOR('',#490,2.5);
#139=VECTOR('',#499,10.);
#140=VECTOR('',#504,10.);
#141=VECTOR('',#507,10.);
#142=VECTOR('',#512,10.);
#143=VECTOR('',#517,10.);
#144=VECTOR('',#520,10.);
#145=VECTOR('',#525,1.666);
#146=VECTOR('',#532,1.666);
#147=VECTOR('',#537,10.);
#148=VECTOR('',#538,10.);
#149=VECTOR('',#539,10.);
#150=VECTOR('',#540,10.);
#151=VECTOR('',#543,10.);
#152=VECTOR('',#544,10.);
#153=VECTOR('',#545,10.);
#154=VECTOR('',#548,10.);
#155=VECTOR('',#549,10.);
#156=VECTOR('',#550,10.);
#157=VECTOR('',#553,10.);
#158=VECTOR('',#554,10.);
#159=VECTOR('',#555,10.);
#160=VECTOR('',#558,10.);
#161=VECTOR('',#559,10.);
#162=VECTOR('',#560,10.);
#163=VECTOR('',#563,10.);
#164=VECTOR('',#564,10.);
#165=VECTOR('',#565,10.);
#166=VECTOR('',#568,10.);
#167=VECTOR('',#569,10.);
#168=VECTOR('',#570,10.);
#169=VECTOR('',#573,10.);
#170=VECTOR('',#574,10.);
#171=VECTOR('',#575,10.);
#172=VECTOR('',#578,10.);
#173=VECTOR('',#579,10.);
#174=VECTOR('',#580,10.);
#175=VECTOR('',#583,10.);
#176=VECTOR('',#584,10.);
#177=VECTOR('',#585,10.);
#178=VECTOR('',#588,10.);
#179=VECTOR('',#589,10.);
#180=VECTOR('',#590,10.);
#181=VECTOR('',#593,10.);
#182=VECTOR('',#594,10.);
#183=CIRCLE('',#448,2.5);
#184=CIRCLE('',#449,2.5);
#185=CIRCLE('',#451,5.);
#186=CIRCLE('',#452,5.);
#187=CIRCLE('',#453,5.);
#188=CIRCLE('',#455,5.);
#189=CIRCLE('',#457,5.);
#190=CIRCLE('',#459,5.);
#191=CIRCLE('',#462,1.666);
#192=CIRCLE('',#463,1.666);
#193=CIRCLE('',#465,1.666);
#194=CIRCLE('',#466,1.666);
#195=VERTEX_POINT('',#604);
#196=VERTEX_POINT('',#606);
#197=VERTEX_POINT('',#610);
#198=VERTEX_POINT('',#611);
#199=VERTEX_POINT('',#613);
#200=VERTEX_POINT('',#615);
#201=VERTEX_POINT('',#619);
#202=VERTEX_POINT('',#621);
#203=VERTEX_POINT('',#625);
#204=VERTEX_POINT('',#629);
#205=VERTEX_POINT('',#635);
#206=VERTEX_POINT('',#637);
#207=VERTEX_POINT('',#641);
#208=VERTEX_POINT('',#643);
#209=VERTEX_POINT('',#647);
#210=VERTEX_POINT('',#648);
#211=VERTEX_POINT('',#650);
#212=VERTEX_POINT('',#652);
#213=VERTEX_POINT('',#656);
#214=VERTEX_POINT('',#658);
#215=VERTEX_POINT('',#662);
#216=VERTEX_POINT('',#664);
#217=VERTEX_POINT('',#668);
#218=VERTEX_POINT('',#670);
#219=VERTEX_POINT('',#674);
#220=VERTEX_POINT('',#676);
#221=VERTEX_POINT('',#680);
#222=VERTEX_POINT('',#682);
#223=VERTEX_POINT('',#686);
#224=VERTEX_POINT('',#688);
#225=VERTEX_POINT('',#692);
#226=VERTEX_POINT('',#694);
#227=VERTEX_POINT('',#698);
#228=VERTEX_POINT('',#700);
#229=VERTEX_POINT('',#704);
#230=VERTEX_POINT('',#706);
#231=VERTEX_POINT('',#710);
#232=VERTEX_POINT('',#712);
#233=EDGE_CURVE('',#195,#195,#183,.T.);
#234=EDGE_CURVE('',#195,#196,#93,.T.);
#235=EDGE_CURVE('',#196,#196,#184,.T.);
#236=EDGE_CURVE('',#197,#198,#185,.T.);
#237=EDGE_CURVE('',#199,#197,#186,.T.);
#238=EDGE_CURVE('',#200,#199,#94,.T.);
#239=EDGE_CURVE('',#198,#200,#187,.T.);
#240=EDGE_CURVE('',#201,#198,#95,.T.);
#241=EDGE_CURVE('',#201,#202,#188,.T.);
#242=EDGE_CURVE('',#197,#202,#96,.T.);
#243=EDGE_CURVE('',#202,#203,#189,.T.);
#244=EDGE_CURVE('',#203,#199,#97,.T.);
#245=EDGE_CURVE('',#204,#201,#190,.T.);
#246=EDGE_CURVE('',#200,#204,#98,.T.);
#247=EDGE_CURVE('',#203,#204,#99,.T.);
#248=EDGE_CURVE('',#205,#205,#191,.T.);
#249=EDGE_CURVE('',#205,#206,#100,.T.);
#250=EDGE_CURVE('',#206,#206,#192,.T.);
#251=EDGE_CURVE('',#207,#207,#193,.T.);
#252=EDGE_CURVE('',#207,#208,#101,.T.);
#253=EDGE_CURVE('',#208,#208,#194,.T.);
#254=EDGE_CURVE('',#209,#210,#102,.T.);
#255=EDGE_CURVE('',#210,#211,#103,.T.);
#256=EDGE_CURVE('',#212,#211,#104,.T.);
#257=EDGE_CURVE('',#209,#212,#105,.T.);
#258=EDGE_CURVE('',#209,#213,#106,.T.);
#259=EDGE_CURVE('',#214,#212,#107,.T.);
#260=EDGE_CURVE('',#213,#214,#108,.T.);
#261=EDGE_CURVE('',#215,#213,#109,.T.);
#262=EDGE_CURVE('',#216,#214,#110,.T.);
#263=EDGE_CURVE('',#215,#216,#111,.T.);
#264=EDGE_CURVE('',#217,#215,#112,.T.);
#265=EDGE_CURVE('',#218,#216,#113,.T.);
#266=EDGE_CURVE('',#217,#218,#114,.T.);
#267=EDGE_CURVE('',#219,#217,#115,.T.);
#268=EDGE_CURVE('',#220,#218,#116,.T.);
#269=EDGE_CURVE('',#219,#220,#117,.T.);
#270=EDGE_CURVE('',#221,#219,#118,.T.);
#271=EDGE_CURVE('',#222,#220,#119,.T.);
#272=EDGE_CURVE('',#221,#222,#120,.T.);
#273=EDGE_CURVE('',#223,#221,#121,.T.);
#274=EDGE_CURVE('',#224,#222,#122,.T.);
#275=EDGE_CURVE('',#223,#224,#123,.T.);
#276=EDGE_CURVE('',#225,#223,#124,.T.);
#277=EDGE_CURVE('',#226,#224,#125,.T.);
#278=EDGE_CURVE('',#225,#226,#126,.T.);
#279=EDGE_CURVE('',#227,#225,#127,.T.);
#280=EDGE_CURVE('',#228,#226,#128,.T.);
#281=EDGE_CURVE('',#227,#228,#129,.T.);
#282=EDGE_CURVE('',#229,#227,#130,.T.);
#283=EDGE_CURVE('',#230,#228,#131,.T.);
#284=EDGE_CURVE('',#229,#230,#132,.T.);
#285=EDGE_CURVE('',#231,#229,#133,.T.);
#286=EDGE_CURVE('',#232,#230,#134,.T.);
#287=EDGE_CURVE('',#231,#232,#135,.T.);
#288=EDGE_CURVE('',#210,#231,#136,.T.);
#289=EDGE_CURVE('',#211,#232,#137,.T.);
#290=ORIENTED_EDGE('',*,*,#233,.F.);
#291=ORIENTED_EDGE('',*,*,#234,.T.);
#292=ORIENTED_EDGE('',*,*,#235,.F.);
#293=ORIENTED_EDGE('',*,*,#234,.F.);
#294=ORIENTED_EDGE('',*,*,#236,.F.);
#295=ORIENTED_EDGE('',*,*,#237,.F.);
#296=ORIENTED_EDGE('',*,*,#238,.F.);
#297=ORIENTED_EDGE('',*,*,#239,.F.);
#298=ORIENTED_EDGE('',*,*,#235,.T.);
#299=ORIENTED_EDGE('',*,*,#236,.T.);
#300=ORIENTED_EDGE('',*,*,#240,.F.);
#301=ORIENTED_EDGE('',*,*,#241,.T.);
#302=ORIENTED_EDGE('',*,*,#242,.F.);
#303=ORIENTED_EDGE('',*,*,#237,.T.);
#304=ORIENTED_EDGE('',*,*,#242,.T.);
#305=ORIENTED_EDGE('',*,*,#243,.T.);
#306=ORIENTED_EDGE('',*,*,#244,.T.);
#307=ORIENTED_EDGE('',*,*,#245,.T.);
#308=ORIENTED_EDGE('',*,*,#240,.T.);
#309=ORIENTED_EDGE('',*,*,#239,.T.);
#310=ORIENTED_EDGE('',*,*,#246,.T.);
#311=ORIENTED_EDGE('',*,*,#241,.F.);
#312=ORIENTED_EDGE('',*,*,#245,.F.);
#313=ORIENTED_EDGE('',*,*,#247,.F.);
#314=ORIENTED_EDGE('',*,*,#243,.F.);
#315=ORIENTED_EDGE('',*,*,#233,.T.);
#316=ORIENTED_EDGE('',*,*,#248,.F.);
#317=ORIENTED_EDGE('',*,*,#249,.T.);
#318=ORIENTED_EDGE('',*,*,#250,.F.);
#319=ORIENTED_EDGE('',*,*,#249,.F.);
#320=ORIENTED_EDGE('',*,*,#251,.F.);
#321=ORIENTED_EDGE('',*,*,#252,.T.);
#322=ORIENTED_EDGE('',*,*,#253,.F.);
#323=ORIENTED_EDGE('',*,*,#252,.F.);
#324=ORIENTED_EDGE('',*,*,#254,.T.);
#325=ORIENTED_EDGE('',*,*,#255,.T.);
#326=ORIENTED_EDGE('',*,*,#256,.F.);
#327=ORIENTED_EDGE('',*,*,#257,.F.);
#328=ORIENTED_EDGE('',*,*,#258,.F.);
#329=ORIENTED_EDGE('',*,*,#257,.T.);
#330=ORIENTED_EDGE('',*,*,#259,.F.);
#331=ORIENTED_EDGE('',*,*,#260,.F.);
#332=ORIENTED_EDGE('',*,*,#247,.T.);
#333=ORIENTED_EDGE('',*,*,#246,.F.);
#334=ORIENTED_EDGE('',*,*,#238,.T.);
#335=ORIENTED_EDGE('',*,*,#244,.F.);
#336=ORIENTED_EDGE('',*,*,#248,.T.);
#337=ORIENTED_EDGE('',*,*,#251,.T.);
#338=ORIENTED_EDGE('',*,*,#261,.T.);
#339=ORIENTED_EDGE('',*,*,#260,.T.);
#340=ORIENTED_EDGE('',*,*,#262,.F.);
#341=ORIENTED_EDGE('',*,*,#263,.F.);
#342=ORIENTED_EDGE('',*,*,#264,.T.);
#343=ORIENTED_EDGE('',*,*,#263,.T.);
#344=ORIENTED_EDGE('',*,*,#265,.F.);
#345=ORIENTED_EDGE('',*,*,#266,.F.);
#346=ORIENTED_EDGE('',*,*,#267,.T.);
#347=ORIENTED_EDGE('',*,*,#266,.T.);
#348=ORIENTED_EDGE('',*,*,#268,.F.);
#349=ORIENTED_EDGE('',*,*,#269,.F.);
#350=ORIENTED_EDGE('',*,*,#270,.T.);
#351=ORIENTED_EDGE('',*,*,#269,.T.);
#352=ORIENTED_EDGE('',*,*,#271,.F.);
#353=ORIENTED_EDGE('',*,*,#272,.F.);
#354=ORIENTED_EDGE('',*,*,#273,.T.);
#355=ORIENTED_EDGE('',*,*,#272,.T.);
#356=ORIENTED_EDGE('',*,*,#274,.F.);
#357=ORIENTED_EDGE('',*,*,#275,.F.);
#358=ORIENTED_EDGE('',*,*,#276,.T.);
#359=ORIENTED_EDGE('',*,*,#275,.T.);
#360=ORIENTED_EDGE('',*,*,#277,.F.);
#361=ORIENTED_EDGE('',*,*,#278,.F.);
#362=ORIENTED_EDGE('',*,*,#250,.T.);
#363=ORIENTED_EDGE('',*,*,#253,.T.);
#364=ORIENTED_EDGE('',*,*,#279,.T.);
#365=ORIENTED_EDGE('',*,*,#278,.T.);
#366=ORIENTED_EDGE('',*,*,#280,.F.);
#367=ORIENTED_EDGE('',*,*,#281,.F.);
#368=ORIENTED_EDGE('',*,*,#282,.T.);
#369=ORIENTED_EDGE('',*,*,#281,.T.);
#370=ORIENTED_EDGE('',*,*,#283,.F.);
#371=ORIENTED_EDGE('',*,*,#284,.F.);
#372=ORIENTED_EDGE('',*,*,#285,.T.);
#373=ORIENTED_EDGE('',*,*,#284,.T.);
#374=ORIENTED_EDGE('',*,*,#286,.F.);
#375=ORIENTED_EDGE('',*,*,#287,.F.);
#376=ORIENTED_EDGE('',*,*,#288,.T.);
#377=ORIENTED_EDGE('',*,*,#287,.T.);
#378=ORIENTED_EDGE('',*,*,#289,.F.);
#379=ORIENTED_EDGE('',*,*,#255,.F.);
#380=ORIENTED_EDGE('',*,*,#289,.T.);
#381=ORIENTED_EDGE('',*,*,#286,.T.);
#382=ORIENTED_EDGE('',*,*,#283,.T.);
#383=ORIENTED_EDGE('',*,*,#280,.T.);
#384=ORIENTED_EDGE('',*,*,#277,.T.);
#385=ORIENTED_EDGE('',*,*,#274,.T.);
#386=ORIENTED_EDGE('',*,*,#271,.T.);
#387=ORIENTED_EDGE('',*,*,#268,.T.);
#388=ORIENTED_EDGE('',*,*,#265,.T.);
#389=ORIENTED_EDGE('',*,*,#262,.T.);
#390=ORIENTED_EDGE('',*,*,#259,.T.);
#391=ORIENTED_EDGE('',*,*,#256,.T.);
#392=ORIENTED_EDGE('',*,*,#288,.F.);
#393=ORIENTED_EDGE('',*,*,#254,.F.);
#394=ORIENTED_EDGE('',*,*,#258,.T.);
#395=ORIENTED_EDGE('',*,*,#261,.F.);
#396=ORIENTED_EDGE('',*,*,#264,.F.);
#397=ORIENTED_EDGE('',*,*,#267,.F.);
#398=ORIENTED_EDGE('',*,*,#270,.F.);
#399=ORIENTED_EDGE('',*,*,#273,.F.);
#400=ORIENTED_EDGE('',*,*,#276,.F.);
#401=ORIENTED_EDGE('',*,*,#279,.F.);
#402=ORIENTED_EDGE('',*,*,#282,.F.);
#403=ORIENTED_EDGE('',*,*,#285,.F.);
#404=CYLINDRICAL_SURFACE('',#447,2.5);
#405=CYLINDRICAL_SURFACE('',#454,5.);
#406=CYLINDRICAL_SURFACE('',#456,5.);
#407=CYLINDRICAL_SURFACE('',#458,5.);
#408=CYLINDRICAL_SURFACE('',#461,1.666);
#409=CYLINDRICAL_SURFACE('',#464,1.666);
#410=ADVANCED_FACE('',(#42),#404,.F.);
#411=ADVANCED_FACE('',(#43,#19),#26,.T.);
#412=ADVANCED_FACE('',(#44),#405,.T.);
#413=ADVANCED_FACE('',(#45),#406,.F.);
#414=ADVANCED_FACE('',(#46),#407,.F.);
#415=ADVANCED_FACE('',(#47,#20),#27,.T.);
#416=ADVANCED_FACE('',(#48),#408,.F.);
#417=ADVANCED_FACE('',(#49),#409,.F.);
#418=ADVANCED_FACE('',(#50),#28,.T.);
#419=ADVANCED_FACE('',(#51,#21,#22,#23),#29,.T.);
#420=ADVANCED_FACE('',(#52),#30,.T.);
#421=ADVANCED_FACE('',(#53),#31,.T.);
#422=ADVANCED_FACE('',(#54),#32,.T.);
#423=ADVANCED_FACE('',(#55),#33,.T.);
#424=ADVANCED_FACE('',(#56),#34,.T.);
#425=ADVANCED_FACE('',(#57,#24,#25),#35,.T.);
#426=ADVANCED_FACE('',(#58),#36,.T.);
#427=ADVANCED_FACE('',(#59),#37,.T.);
#428=ADVANCED_FACE('',(#60),#38,.T.);
#429=ADVANCED_FACE('',(#61),#39,.T.);
#430=ADVANCED_FACE('',(#62),#40,.T.);
#431=ADVANCED_FACE('',(#63),#41,.F.);
#432=CLOSED_SHELL('',(#410,#411,#412,#413,#414,#415,#416,#417,#418,#419,
#420,#421,#422,#423,#424,#425,#426,#427,#428,#429,#430,#431));
#433=DERIVED_UNIT_ELEMENT(#435,1.);
#434=DERIVED_UNIT_ELEMENT(#728,-3.);
#435=(
MASS_UNIT()
NAMED_UNIT(*)
SI_UNIT(.KILO.,.GRAM.)
);
#436=DERIVED_UNIT((#433,#434));
#437=MEASURE_REPRESENTATION_ITEM('density measure',
POSITIVE_RATIO_MEASURE(7850.),#436);
#438=PROPERTY_DEFINITION_REPRESENTATION(#443,#440);
#439=PROPERTY_DEFINITION_REPRESENTATION(#444,#441);
#440=REPRESENTATION('material name',(#442),#725);
#441=REPRESENTATION('density',(#437),#725);
#442=DESCRIPTIVE_REPRESENTATION_ITEM('Acero','Acero');
#443=PROPERTY_DEFINITION('material property','material name',#740);
#444=PROPERTY_DEFINITION('material property','density of part',#740);
#445=AXIS2_PLACEMENT_3D('',#601,#482,#483);
#446=AXIS2_PLACEMENT_3D('',#602,#484,#485);
#447=AXIS2_PLACEMENT_3D('',#603,#486,#487);
#448=AXIS2_PLACEMENT_3D('',#605,#488,#489);
#449=AXIS2_PLACEMENT_3D('',#608,#491,#492);
#450=AXIS2_PLACEMENT_3D('',#609,#493,#494);
#451=AXIS2_PLACEMENT_3D('',#612,#495,#496);
#452=AXIS2_PLACEMENT_3D('',#614,#497,#498);
#453=AXIS2_PLACEMENT_3D('',#617,#500,#501);
#454=AXIS2_PLACEMENT_3D('',#618,#502,#503);
#455=AXIS2_PLACEMENT_3D('',#622,#505,#506);
#456=AXIS2_PLACEMENT_3D('',#624,#508,#509);
#457=AXIS2_PLACEMENT_3D('',#626,#510,#511);
#458=AXIS2_PLACEMENT_3D('',#628,#513,#514);
#459=AXIS2_PLACEMENT_3D('',#630,#515,#516);
#460=AXIS2_PLACEMENT_3D('',#632,#518,#519);
#461=AXIS2_PLACEMENT_3D('',#634,#521,#522);
#462=AXIS2_PLACEMENT_3D('',#636,#523,#524);
#463=AXIS2_PLACEMENT_3D('',#639,#526,#527);
#464=AXIS2_PLACEMENT_3D('',#640,#528,#529);
#465=AXIS2_PLACEMENT_3D('',#642,#530,#531);
#466=AXIS2_PLACEMENT_3D('',#645,#533,#534);
#467=AXIS2_PLACEMENT_3D('',#646,#535,#536);
#468=AXIS2_PLACEMENT_3D('',#655,#541,#542);
#469=AXIS2_PLACEMENT_3D('',#661,#546,#547);
#470=AXIS2_PLACEMENT_3D('',#667,#551,#552);
#471=AXIS2_PLACEMENT_3D('',#673,#556,#557);
#472=AXIS2_PLACEMENT_3D('',#679,#561,#562);
#473=AXIS2_PLACEMENT_3D('',#685,#566,#567);
#474=AXIS2_PLACEMENT_3D('',#691,#571,#572);
#475=AXIS2_PLACEMENT_3D('',#697,#576,#577);
#476=AXIS2_PLACEMENT_3D('',#703,#581,#582);
#477=AXIS2_PLACEMENT_3D('',#709,#586,#587);
#478=AXIS2_PLACEMENT_3D('',#715,#591,#592);
#479=AXIS2_PLACEMENT_3D('',#718,#595,#596);
#480=AXIS2_PLACEMENT_3D('',#719,#597,#598);
#481=AXIS2_PLACEMENT_3D('',#720,#599,#600);
#482=DIRECTION('axis',(0.,0.,1.));
#483=DIRECTION('refdir',(1.,0.,0.));
#484=DIRECTION('axis',(0.,0.,1.));
#485=DIRECTION('refdir',(1.,0.,0.));
#486=DIRECTION('center_axis',(0.,-2.22044604925031E-16,-1.));
#487=DIRECTION('ref_axis',(1.,0.,0.));
#488=DIRECTION('center_axis',(0.,-2.22044604925031E-16,-1.));
#489=DIRECTION('ref_axis',(1.,0.,0.));
#490=DIRECTION('',(0.,-2.22044604925031E-16,-1.));
#491=DIRECTION('center_axis',(0.,2.22044604925031E-16,1.));
#492=DIRECTION('ref_axis',(1.,0.,0.));
#493=DIRECTION('center_axis',(0.,-2.22044604925031E-16,-1.));
#494=DIRECTION('ref_axis',(1.,0.,0.));
#495=DIRECTION('center_axis',(0.,2.22044604925031E-16,1.));
#496=DIRECTION('ref_axis',(0.707106781186547,-0.707106781186547,1.57009245868377E-16));
#497=DIRECTION('center_axis',(0.,-2.22044604925031E-16,-1.));
#498=DIRECTION('ref_axis',(0.707106781186547,0.707106781186547,-1.57009245868377E-16));
#499=DIRECTION('',(-1.,0.,0.));
#500=DIRECTION('center_axis',(0.,-2.22044604925031E-16,-1.));
#501=DIRECTION('ref_axis',(-0.707106781186547,0.707106781186547,-1.57009245868377E-16));
#502=DIRECTION('center_axis',(0.,-2.22044604925031E-16,-1.));
#503=DIRECTION('ref_axis',(-0.707106781186547,-0.707106781186547,1.57009245868377E-16));
#504=DIRECTION('',(0.,-2.22044604925031E-16,-1.));
#505=DIRECTION('center_axis',(0.,-2.22044604925031E-16,-1.));
#506=DIRECTION('ref_axis',(-0.707106781186547,-0.707106781186547,1.57009245868377E-16));
#507=DIRECTION('',(0.,2.22044604925031E-16,1.));
#508=DIRECTION('center_axis',(0.,2.22044604925031E-16,1.));
#509=DIRECTION('ref_axis',(0.707106781186547,0.707106781186547,-1.57009245868377E-16));
#510=DIRECTION('center_axis',(0.,2.22044604925031E-16,1.));
#511=DIRECTION('ref_axis',(0.707106781186547,0.707106781186547,-1.57009245868377E-16));
#512=DIRECTION('',(0.,-2.22044604925031E-16,-1.));
#513=DIRECTION('center_axis',(0.,-2.22044604925031E-16,-1.));
#514=DIRECTION('ref_axis',(-0.707106781186547,0.707106781186547,-1.57009245868377E-16));
#515=DIRECTION('center_axis',(0.,2.22044604925031E-16,1.));
#516=DIRECTION('ref_axis',(-0.707106781186547,0.707106781186547,-1.57009245868377E-16));
#517=DIRECTION('',(0.,2.22044604925031E-16,1.));
#518=DIRECTION('center_axis',(0.,2.22044604925031E-16,1.));
#519=DIRECTION('ref_axis',(-1.,0.,0.));
#520=DIRECTION('',(1.,0.,0.));
#521=DIRECTION('center_axis',(0.,1.,-2.22044604925031E-16));
#522=DIRECTION('ref_axis',(-1.,0.,0.));
#523=DIRECTION('center_axis',(0.,1.,-2.22044604925031E-16));
#524=DIRECTION('ref_axis',(-1.,0.,0.));
#525=DIRECTION('',(0.,1.,-2.22044604925031E-16));
#526=DIRECTION('center_axis',(0.,-1.,2.22044604925031E-16));
#527=DIRECTION('ref_axis',(-1.,0.,0.));
#528=DIRECTION('center_axis',(0.,1.,-2.22044604925031E-16));
#529=DIRECTION('ref_axis',(-1.,0.,0.));
#530=DIRECTION('center_axis',(0.,1.,-2.22044604925031E-16));
#531=DIRECTION('ref_axis',(-1.,0.,0.));
#532=DIRECTION('',(0.,1.,-2.22044604925031E-16));
#533=DIRECTION('center_axis',(0.,-1.,2.22044604925031E-16));
#534=DIRECTION('ref_axis',(-1.,0.,0.));
#535=DIRECTION('center_axis',(0.,0.707106781186549,-0.707106781186546));
#536=DIRECTION('ref_axis',(0.,0.707106781186546,0.707106781186549));
#537=DIRECTION('',(0.,0.707106781186546,0.707106781186549));
#538=DIRECTION('',(1.,0.,0.));
#539=DIRECTION('',(0.,0.707106781186546,0.707106781186549));
#540=DIRECTION('',(1.,0.,0.));
#541=DIRECTION('center_axis',(0.,-1.,2.22044604925031E-16));
#542=DIRECTION('ref_axis',(0.,-2.22044604925031E-16,-1.));
#543=DIRECTION('',(0.,2.22044604925031E-16,1.));
#544=DIRECTION('',(0.,-2.22044604925031E-16,-1.));
#545=DIRECTION('',(1.,0.,0.));
#546=DIRECTION('center_axis',(0.,0.707106781186552,0.707106781186543));
#547=DIRECTION('ref_axis',(0.,-0.707106781186543,0.707106781186552));
#548=DIRECTION('',(0.,-0.707106781186543,0.707106781186552));
#549=DIRECTION('',(0.,-0.707106781186543,0.707106781186552));
#550=DIRECTION('',(1.,0.,0.));
#551=DIRECTION('center_axis',(0.,2.22044604925031E-16,1.));
#552=DIRECTION('ref_axis',(0.,-1.,2.22044604925031E-16));
#553=DIRECTION('',(0.,-1.,2.22044604925031E-16));
#554=DIRECTION('',(0.,-1.,2.22044604925031E-16));
#555=DIRECTION('',(1.,0.,0.));
#556=DIRECTION('center_axis',(0.,-1.,2.22044604925031E-16));
#557=DIRECTION('ref_axis',(0.,-2.22044604925031E-16,-1.));
#558=DIRECTION('',(0.,-2.22044604925031E-16,-1.));
#559=DIRECTION('',(0.,-2.22044604925031E-16,-1.));
#560=DIRECTION('',(1.,0.,0.));
#561=DIRECTION('center_axis',(0.,6.76963257537143E-15,1.));
#562=DIRECTION('ref_axis',(0.,-1.,6.76963257537143E-15));
#563=DIRECTION('',(0.,-1.,6.76963257537143E-15));
#564=DIRECTION('',(0.,-1.,6.76963257537143E-15));
#565=DIRECTION('',(1.,0.,0.));
#566=DIRECTION('center_axis',(0.,0.707106781186553,0.707106781186542));
#567=DIRECTION('ref_axis',(0.,-0.707106781186542,0.707106781186553));
#568=DIRECTION('',(0.,-0.707106781186542,0.707106781186553));
#569=DIRECTION('',(0.,-0.707106781186542,0.707106781186553));
#570=DIRECTION('',(1.,0.,0.));
#571=DIRECTION('center_axis',(0.,1.,-2.22044604925031E-16));
#572=DIRECTION('ref_axis',(0.,2.22044604925031E-16,1.));
#573=DIRECTION('',(0.,2.22044604925031E-16,1.));
#574=DIRECTION('',(0.,2.22044604925031E-16,1.));
#575=DIRECTION('',(1.,0.,0.));
#576=DIRECTION('center_axis',(0.,0.70710678118655,-0.707106781186545));
#577=DIRECTION('ref_axis',(0.,0.707106781186545,0.70710678118655));
#578=DIRECTION('',(0.,0.707106781186545,0.70710678118655));
#579=DIRECTION('',(0.,0.707106781186545,0.70710678118655));
#580=DIRECTION('',(1.,0.,0.));
#581=DIRECTION('center_axis',(0.,-2.22044604925031E-16,-1.));
#582=DIRECTION('ref_axis',(0.,1.,-2.22044604925031E-16));
#583=DIRECTION('',(0.,1.,-2.22044604925031E-16));
#584=DIRECTION('',(0.,1.,-2.22044604925031E-16));
#585=DIRECTION('',(1.,0.,0.));
#586=DIRECTION('center_axis',(0.,-1.,2.22044604925031E-16));
#587=DIRECTION('ref_axis',(0.,-2.22044604925031E-16,-1.));
#588=DIRECTION('',(0.,-2.22044604925031E-16,-1.));
#589=DIRECTION('',(0.,-2.22044604925031E-16,-1.));
#590=DIRECTION('',(1.,0.,0.));
#591=DIRECTION('center_axis',(0.,-1.4368556176261E-14,-1.));
#592=DIRECTION('ref_axis',(0.,1.,-1.4368556176261E-14));
#593=DIRECTION('',(0.,1.,-1.4368556176261E-14));
#594=DIRECTION('',(0.,1.,-1.4368556176261E-14));
#595=DIRECTION('center_axis',(1.,0.,0.));
#596=DIRECTION('ref_axis',(0.,-1.,2.22044604925031E-16));
#597=DIRECTION('center_axis',(1.,0.,0.));
#598=DIRECTION('ref_axis',(0.,-2.22044604925031E-16,-1.));
#599=DIRECTION('',(0.,0.,1.));
#600=DIRECTION('',(1.,0.,0.));
#601=CARTESIAN_POINT('',(0.,0.,0.));
#602=CARTESIAN_POINT('',(0.,0.,0.));
#603=CARTESIAN_POINT('Origin',(105.000001564622,-0.300000000000047,237.));
#604=CARTESIAN_POINT('',(102.500001564622,-0.300000000000047,237.));
#605=CARTESIAN_POINT('Origin',(105.000001564622,-0.300000000000047,237.));
#606=CARTESIAN_POINT('',(102.500001564622,-0.300000000000047,232.));
#607=CARTESIAN_POINT('',(102.500001564622,-0.300000000000047,237.));
#608=CARTESIAN_POINT('Origin',(105.000001564622,-0.300000000000047,232.));
#609=CARTESIAN_POINT('Origin',(100.000001564622,4.69999999999995,232.));
#610=CARTESIAN_POINT('',(100.000001564622,-0.300000000000047,232.));
#611=CARTESIAN_POINT('',(110.000001564622,-0.300000000000047,232.));
#612=CARTESIAN_POINT('Origin',(105.000001564622,-0.300000000000047,232.));
#613=CARTESIAN_POINT('',(95.0000015646219,4.69999999999995,232.));
#614=CARTESIAN_POINT('Origin',(95.0000015646219,-0.300000000000047,232.));
#615=CARTESIAN_POINT('',(115.000001564622,4.69999999999995,232.));
#616=CARTESIAN_POINT('',(90.000000782311,4.69999999999995,232.));
#617=CARTESIAN_POINT('Origin',(115.000001564622,-0.300000000000047,232.));
#618=CARTESIAN_POINT('Origin',(105.000001564622,-0.300000000000047,235.75));
#619=CARTESIAN_POINT('',(110.000001564622,-0.300000000000047,237.));
#620=CARTESIAN_POINT('',(110.000001564622,-0.300000000000047,235.498578643763));
#621=CARTESIAN_POINT('',(100.000001564622,-0.300000000000047,237.));
#622=CARTESIAN_POINT('Origin',(105.000001564622,-0.300000000000047,237.));
#623=CARTESIAN_POINT('',(100.000001564622,-0.300000000000047,237.998578643763));
#624=CARTESIAN_POINT('Origin',(95.0000015646219,-0.300000000000047,237.998578643763));
#625=CARTESIAN_POINT('',(95.0000015646219,4.69999999999995,237.));
#626=CARTESIAN_POINT('Origin',(95.0000015646219,-0.300000000000047,237.));
#627=CARTESIAN_POINT('',(95.0000015646219,4.69999999999995,237.998578643763));
#628=CARTESIAN_POINT('Origin',(115.000001564622,-0.300000000000047,235.498578643763));
#629=CARTESIAN_POINT('',(115.000001564622,4.69999999999995,237.));
#630=CARTESIAN_POINT('Origin',(115.000001564622,-0.300000000000047,237.));
#631=CARTESIAN_POINT('',(115.000001564622,4.69999999999995,235.498578643763));
#632=CARTESIAN_POINT('Origin',(110.000001564622,4.69999999999995,237.));
#633=CARTESIAN_POINT('',(95.000000782311,4.69999999999995,237.));
#634=CARTESIAN_POINT('Origin',(90.,10.2,234.5));
#635=CARTESIAN_POINT('',(91.666,4.69999999999995,234.5));
#636=CARTESIAN_POINT('Origin',(90.,4.69999999999995,234.5));
#637=CARTESIAN_POINT('',(91.666,10.7999999999999,234.5));
#638=CARTESIAN_POINT('',(91.666,10.2,234.5));
#639=CARTESIAN_POINT('Origin',(90.,10.7999999999999,234.5));
#640=CARTESIAN_POINT('Origin',(120.,10.2,234.5));
#641=CARTESIAN_POINT('',(121.666,4.69999999999995,234.5));
#642=CARTESIAN_POINT('Origin',(120.,4.69999999999995,234.5));
#643=CARTESIAN_POINT('',(121.666,10.7999999999999,234.5));
#644=CARTESIAN_POINT('',(121.666,10.2,234.5));
#645=CARTESIAN_POINT('Origin',(120.,10.7999999999999,234.5));
#646=CARTESIAN_POINT('Origin',(80.,4.69999999999995,230.002842712475));
#647=CARTESIAN_POINT('',(80.,4.69999999999995,230.002842712475));
#648=CARTESIAN_POINT('',(80.,6.27215728752532,231.575));
#649=CARTESIAN_POINT('',(80.,4.69999999999995,230.002842712475));
#650=CARTESIAN_POINT('',(130.,6.27215728752532,231.575));
#651=CARTESIAN_POINT('',(80.,6.27215728752532,231.575));
#652=CARTESIAN_POINT('',(130.,4.69999999999995,230.002842712475));
#653=CARTESIAN_POINT('',(130.,4.69999999999995,230.002842712475));
#654=CARTESIAN_POINT('',(80.,4.69999999999995,230.002842712475));
#655=CARTESIAN_POINT('Origin',(80.,4.69999999999995,238.997157287525));
#656=CARTESIAN_POINT('',(80.,4.69999999999995,238.997157287525));
#657=CARTESIAN_POINT('',(80.,4.69999999999995,230.002842712475));
#658=CARTESIAN_POINT('',(130.,4.69999999999995,238.997157287525));
#659=CARTESIAN_POINT('',(130.,4.69999999999995,230.002842712475));
#660=CARTESIAN_POINT('',(80.,4.69999999999995,238.997157287525));
#661=CARTESIAN_POINT('Origin',(80.,6.27215728752532,237.425));
#662=CARTESIAN_POINT('',(80.,6.27215728752532,237.425));
#663=CARTESIAN_POINT('',(80.,6.27215728752532,237.425));
#664=CARTESIAN_POINT('',(130.,6.27215728752532,237.425));
#665=CARTESIAN_POINT('',(130.,6.27215728752532,237.425));
#666=CARTESIAN_POINT('',(80.,6.27215728752532,237.425));
#667=CARTESIAN_POINT('Origin',(80.,6.89999999999994,237.425));
#668=CARTESIAN_POINT('',(80.,6.89999999999994,237.425));
#669=CARTESIAN_POINT('',(80.,6.89999999999994,237.425));
#670=CARTESIAN_POINT('',(130.,6.89999999999994,237.425));
#671=CARTESIAN_POINT('',(130.,6.89999999999994,237.425));
#672=CARTESIAN_POINT('',(80.,6.89999999999994,237.425));
#673=CARTESIAN_POINT('Origin',(80.,6.89999999999994,239.8));
#674=CARTESIAN_POINT('',(80.,6.89999999999994,239.8));
#675=CARTESIAN_POINT('',(80.,6.89999999999994,239.8));
#676=CARTESIAN_POINT('',(130.,6.89999999999994,239.8));
#677=CARTESIAN_POINT('',(130.,6.89999999999994,239.8));
#678=CARTESIAN_POINT('',(80.,6.89999999999994,239.8));
#679=CARTESIAN_POINT('Origin',(80.,8.25649711574556,239.8));
#680=CARTESIAN_POINT('',(80.,8.25649711574556,239.8));
#681=CARTESIAN_POINT('',(80.,8.25649711574556,239.8));
#682=CARTESIAN_POINT('',(130.,8.25649711574556,239.8));
#683=CARTESIAN_POINT('',(130.,8.25649711574556,239.8));
#684=CARTESIAN_POINT('',(80.,8.25649711574556,239.8));
#685=CARTESIAN_POINT('Origin',(80.,10.7999999999999,237.256497115746));
#686=CARTESIAN_POINT('',(80.,10.7999999999999,237.256497115746));
#687=CARTESIAN_POINT('',(80.,10.7999999999999,237.256497115746));
#688=CARTESIAN_POINT('',(130.,10.7999999999999,237.256497115746));
#689=CARTESIAN_POINT('',(130.,10.7999999999999,237.256497115746));
#690=CARTESIAN_POINT('',(80.,10.7999999999999,237.256497115746));
#691=CARTESIAN_POINT('Origin',(80.,10.7999999999999,231.743502884254));
#692=CARTESIAN_POINT('',(80.,10.7999999999999,231.743502884254));
#693=CARTESIAN_POINT('',(80.,10.7999999999999,231.743502884254));
#694=CARTESIAN_POINT('',(130.,10.7999999999999,231.743502884254));
#695=CARTESIAN_POINT('',(130.,10.7999999999999,231.743502884254));
#696=CARTESIAN_POINT('',(80.,10.7999999999999,231.743502884254));
#697=CARTESIAN_POINT('Origin',(80.,8.25649711574556,229.2));
#698=CARTESIAN_POINT('',(80.,8.25649711574556,229.2));
#699=CARTESIAN_POINT('',(80.,8.25649711574556,229.2));
#700=CARTESIAN_POINT('',(130.,8.25649711574556,229.2));
#701=CARTESIAN_POINT('',(130.,8.25649711574556,229.2));
#702=CARTESIAN_POINT('',(80.,8.25649711574556,229.2));
#703=CARTESIAN_POINT('Origin',(80.,6.89999999999994,229.2));
#704=CARTESIAN_POINT('',(80.,6.89999999999994,229.2));
#705=CARTESIAN_POINT('',(80.,6.89999999999994,229.2));
#706=CARTESIAN_POINT('',(130.,6.89999999999994,229.2));
#707=CARTESIAN_POINT('',(130.,6.89999999999994,229.2));
#708=CARTESIAN_POINT('',(80.,6.89999999999994,229.2));
#709=CARTESIAN_POINT('Origin',(80.,6.89999999999994,231.575));
#710=CARTESIAN_POINT('',(80.,6.89999999999994,231.575));
#711=CARTESIAN_POINT('',(80.,6.89999999999994,231.575));
#712=CARTESIAN_POINT('',(130.,6.89999999999994,231.575));
#713=CARTESIAN_POINT('',(130.,6.89999999999994,231.575));
#714=CARTESIAN_POINT('',(80.,6.89999999999994,231.575));
#715=CARTESIAN_POINT('Origin',(80.,6.27215728752532,231.575));
#716=CARTESIAN_POINT('',(80.,6.27215728752532,231.575));
#717=CARTESIAN_POINT('',(130.,6.27215728752532,231.575));
#718=CARTESIAN_POINT('Origin',(130.,7.74999999999995,234.5));
#719=CARTESIAN_POINT('Origin',(80.,7.74999999999995,234.5));
#720=CARTESIAN_POINT('',(0.,0.,0.));
#721=UNCERTAINTY_MEASURE_WITH_UNIT(LENGTH_MEASURE(0.01),#727,
'DISTANCE_ACCURACY_VALUE',
'Maximum model space distance between geometric entities at asserted c
onnectivities');
#722=UNCERTAINTY_MEASURE_WITH_UNIT(LENGTH_MEASURE(0.01),#727,
'DISTANCE_ACCURACY_VALUE',
'Maximum model space distance between geometric entities at asserted c
onnectivities');
#723=UNCERTAINTY_MEASURE_WITH_UNIT(LENGTH_MEASURE(0.01),#727,
'DISTANCE_ACCURACY_VALUE',
'Maximum model space distance between geometric entities at asserted c
onnectivities');
#724=(
GEOMETRIC_REPRESENTATION_CONTEXT(3)
GLOBAL_UNCERTAINTY_ASSIGNED_CONTEXT((#721))
GLOBAL_UNIT_ASSIGNED_CONTEXT((#727,#729,#730))
REPRESENTATION_CONTEXT('','3D')
);
#725=(
GEOMETRIC_REPRESENTATION_CONTEXT(3)
GLOBAL_UNCERTAINTY_ASSIGNED_CONTEXT((#722))
GLOBAL_UNIT_ASSIGNED_CONTEXT((#727,#729,#730))
REPRESENTATION_CONTEXT('','3D')
);
#726=(
GEOMETRIC_REPRESENTATION_CONTEXT(3)
GLOBAL_UNCERTAINTY_ASSIGNED_CONTEXT((#723))
GLOBAL_UNIT_ASSIGNED_CONTEXT((#727,#729,#730))
REPRESENTATION_CONTEXT('','3D')
);
#727=(
LENGTH_UNIT()
NAMED_UNIT(*)
SI_UNIT(.MILLI.,.METRE.)
);
#728=(
LENGTH_UNIT()
NAMED_UNIT(*)
SI_UNIT($,.METRE.)
);
#729=(
NAMED_UNIT(*)
PLANE_ANGLE_UNIT()
SI_UNIT($,.RADIAN.)
);
#730=(
NAMED_UNIT(*)
SI_UNIT($,.STERADIAN.)
SOLID_ANGLE_UNIT()
);
#731=SHAPE_DEFINITION_REPRESENTATION(#733,#736);
#732=SHAPE_DEFINITION_REPRESENTATION(#734,#737);
#733=PRODUCT_DEFINITION_SHAPE('',$,#739);
#734=PRODUCT_DEFINITION_SHAPE('',$,#740);
#735=PRODUCT_DEFINITION_SHAPE($,$,#14);
#736=SHAPE_REPRESENTATION('',(#445,#481),#724);
#737=SHAPE_REPRESENTATION('',(#446),#725);
#738=PRODUCT_DEFINITION_CONTEXT('part definition',#746,'design');
#739=PRODUCT_DEFINITION('Pivote Servomotor','Pivote Servomotor v2',#741,
#738);
#740=PRODUCT_DEFINITION('Pivote Servomotor_1','Pivote Servomotor',#742,
#738);
#741=PRODUCT_DEFINITION_FORMATION('',$,#748);
#742=PRODUCT_DEFINITION_FORMATION('',$,#749);
#743=PRODUCT_RELATED_PRODUCT_CATEGORY('Pivote Servomotor v2',
'Pivote Servomotor v2',(#748));
#744=PRODUCT_RELATED_PRODUCT_CATEGORY('Pivote Servomotor',
'Pivote Servomotor',(#749));
#745=APPLICATION_PROTOCOL_DEFINITION('international standard',
'automotive_design',2009,#746);
#746=APPLICATION_CONTEXT(
'Core Data for Automotive Mechanical Design Process');
#747=PRODUCT_CONTEXT('part definition',#746,'mechanical');
#748=PRODUCT('Pivote Servomotor','Pivote Servomotor v2',$,(#747));
#749=PRODUCT('Pivote Servomotor_1','Pivote Servomotor',$,(#747));
#750=PRESENTATION_STYLE_ASSIGNMENT((#752));
#751=PRESENTATION_STYLE_ASSIGNMENT((#753));
#752=SURFACE_STYLE_USAGE(.BOTH.,#754);
#753=SURFACE_STYLE_USAGE(.BOTH.,#755);
#754=SURFACE_SIDE_STYLE('',(#756));
#755=SURFACE_SIDE_STYLE('',(#757));
#756=SURFACE_STYLE_FILL_AREA(#758);
#757=SURFACE_STYLE_FILL_AREA(#759);
#758=FILL_AREA_STYLE('Acero - Satinado',(#760));
#759=FILL_AREA_STYLE('Pl\X\E1stico - Mate (blanco)',(#761));
#760=FILL_AREA_STYLE_COLOUR('Acero - Satinado',#762);
#761=FILL_AREA_STYLE_COLOUR('Pl\X\E1stico - Mate (blanco)',#763);
#762=COLOUR_RGB('Acero - Satinado',0.627450980392157,0.627450980392157,
0.627450980392157);
#763=COLOUR_RGB('Pl\X\E1stico - Mate (blanco)',0.964705882352941,0.964705882352941,
0.952941176470588);
ENDSEC;
END-ISO-10303-21;
