ISO-10303-21;
HEADER;
/* Generated by software containing ST-Developer
 * from STEP Tools, Inc. (www.steptools.com) 
 */

FILE_DESCRIPTION(
/* description */ (''),
/* implementation_level */ '2;1');

FILE_NAME(
/* name */ 'Soporte perfil.step',
/* time_stamp */ '2026-06-26T19:07:21-04:00',
/* author */ (''),
/* organization */ (''),
/* preprocessor_version */ 'ST-DEVELOPER v20.1',
/* originating_system */ 'Autodesk Translation Framework v15.8.0.0',
/* authorisation */ '');

FILE_SCHEMA (('AUTOMOTIVE_DESIGN { 1 0 10303 214 3 1 1 }'));
ENDSEC;

DATA;
#10=MECHANICAL_DESIGN_GEOMETRIC_PRESENTATION_REPRESENTATION('',(#17),#1138);
#11=ITEM_DEFINED_TRANSFORMATION($,$,#690,#741);
#12=(
REPRESENTATION_RELATIONSHIP($,$,#1149,#1148)
REPRESENTATION_RELATIONSHIP_WITH_TRANSFORMATION(#11)
SHAPE_REPRESENTATION_RELATIONSHIP()
);
#13=CONTEXT_DEPENDENT_SHAPE_REPRESENTATION(#12,#1147);
#14=NEXT_ASSEMBLY_USAGE_OCCURRENCE('Soporte perfil:1',
'Soporte perfil:1','Soporte perfil:1',#1151,#1152,'Soporte perfil:1');
#15=SHAPE_REPRESENTATION_RELATIONSHIP('SRR','None',#1149,#16);
#16=ADVANCED_BREP_SHAPE_REPRESENTATION('',(#18),#1137);
#17=STYLED_ITEM('',(#1163),#18);
#18=MANIFOLD_SOLID_BREP('Soporte perfil',#676);
#19=FACE_BOUND('',#102,.T.);
#20=FACE_BOUND('',#103,.T.);
#21=FACE_BOUND('',#104,.T.);
#22=FACE_BOUND('',#107,.T.);
#23=FACE_BOUND('',#109,.T.);
#24=FACE_BOUND('',#132,.T.);
#25=FACE_BOUND('',#133,.T.);
#26=CIRCLE('',#693,1.666);
#27=CIRCLE('',#694,1.666);
#28=CIRCLE('',#697,10.);
#29=CIRCLE('',#698,10.);
#30=CIRCLE('',#699,10.);
#31=CIRCLE('',#700,2.75);
#32=CIRCLE('',#702,10.);
#33=CIRCLE('',#703,10.);
#34=CIRCLE('',#704,10.);
#35=CIRCLE('',#705,2.75);
#36=CIRCLE('',#712,0.699999999999932);
#37=CIRCLE('',#713,0.700000000000047);
#38=CIRCLE('',#716,1.666);
#39=CIRCLE('',#718,1.666);
#40=CIRCLE('',#723,0.700000000000047);
#41=CIRCLE('',#724,0.699999999999932);
#42=PLANE('',#692);
#43=PLANE('',#696);
#44=PLANE('',#701);
#45=PLANE('',#707);
#46=PLANE('',#708);
#47=PLANE('',#709);
#48=PLANE('',#710);
#49=PLANE('',#711);
#50=PLANE('',#714);
#51=PLANE('',#722);
#52=PLANE('',#725);
#53=PLANE('',#727);
#54=PLANE('',#728);
#55=PLANE('',#729);
#56=PLANE('',#730);
#57=PLANE('',#731);
#58=PLANE('',#732);
#59=PLANE('',#733);
#60=PLANE('',#734);
#61=PLANE('',#735);
#62=PLANE('',#736);
#63=PLANE('',#737);
#64=PLANE('',#738);
#65=PLANE('',#739);
#66=FACE_OUTER_BOUND('',#100,.T.);
#67=FACE_OUTER_BOUND('',#101,.T.);
#68=FACE_OUTER_BOUND('',#105,.T.);
#69=FACE_OUTER_BOUND('',#106,.T.);
#70=FACE_OUTER_BOUND('',#108,.T.);
#71=FACE_OUTER_BOUND('',#110,.T.);
#72=FACE_OUTER_BOUND('',#111,.T.);
#73=FACE_OUTER_BOUND('',#112,.T.);
#74=FACE_OUTER_BOUND('',#113,.T.);
#75=FACE_OUTER_BOUND('',#114,.T.);
#76=FACE_OUTER_BOUND('',#115,.T.);
#77=FACE_OUTER_BOUND('',#116,.T.);
#78=FACE_OUTER_BOUND('',#117,.T.);
#79=FACE_OUTER_BOUND('',#118,.T.);
#80=FACE_OUTER_BOUND('',#119,.T.);
#81=FACE_OUTER_BOUND('',#120,.T.);
#82=FACE_OUTER_BOUND('',#121,.T.);
#83=FACE_OUTER_BOUND('',#122,.T.);
#84=FACE_OUTER_BOUND('',#123,.T.);
#85=FACE_OUTER_BOUND('',#124,.T.);
#86=FACE_OUTER_BOUND('',#125,.T.);
#87=FACE_OUTER_BOUND('',#126,.T.);
#88=FACE_OUTER_BOUND('',#127,.T.);
#89=FACE_OUTER_BOUND('',#128,.T.);
#90=FACE_OUTER_BOUND('',#129,.T.);
#91=FACE_OUTER_BOUND('',#130,.T.);
#92=FACE_OUTER_BOUND('',#131,.T.);
#93=FACE_OUTER_BOUND('',#134,.T.);
#94=FACE_OUTER_BOUND('',#135,.T.);
#95=FACE_OUTER_BOUND('',#136,.T.);
#96=FACE_OUTER_BOUND('',#137,.T.);
#97=FACE_OUTER_BOUND('',#138,.T.);
#98=FACE_OUTER_BOUND('',#139,.T.);
#99=FACE_OUTER_BOUND('',#140,.T.);
#100=EDGE_LOOP('',(#446,#447,#448,#449));
#101=EDGE_LOOP('',(#450,#451,#452,#453));
#102=EDGE_LOOP('',(#454));
#103=EDGE_LOOP('',(#455));
#104=EDGE_LOOP('',(#456,#457,#458,#459));
#105=EDGE_LOOP('',(#460,#461,#462,#463));
#106=EDGE_LOOP('',(#464,#465,#466,#467));
#107=EDGE_LOOP('',(#468));
#108=EDGE_LOOP('',(#469,#470,#471,#472));
#109=EDGE_LOOP('',(#473));
#110=EDGE_LOOP('',(#474,#475,#476,#477,#478,#479));
#111=EDGE_LOOP('',(#480,#481,#482,#483));
#112=EDGE_LOOP('',(#484,#485,#486,#487));
#113=EDGE_LOOP('',(#488,#489,#490,#491));
#114=EDGE_LOOP('',(#492,#493,#494,#495));
#115=EDGE_LOOP('',(#496,#497,#498,#499,#500,#501,#502,#503,#504,#505,#506,
#507,#508,#509,#510,#511,#512,#513,#514,#515,#516,#517));
#116=EDGE_LOOP('',(#518,#519,#520,#521));
#117=EDGE_LOOP('',(#522,#523,#524,#525));
#118=EDGE_LOOP('',(#526,#527,#528,#529));
#119=EDGE_LOOP('',(#530,#531,#532,#533));
#120=EDGE_LOOP('',(#534,#535,#536,#537));
#121=EDGE_LOOP('',(#538,#539,#540,#541,#542,#543));
#122=EDGE_LOOP('',(#544,#545,#546,#547,#548,#549,#550,#551,#552,#553,#554,
#555,#556,#557,#558,#559,#560,#561,#562,#563,#564,#565));
#123=EDGE_LOOP('',(#566,#567,#568,#569));
#124=EDGE_LOOP('',(#570,#571,#572,#573));
#125=EDGE_LOOP('',(#574,#575,#576,#577));
#126=EDGE_LOOP('',(#578,#579,#580,#581));
#127=EDGE_LOOP('',(#582,#583,#584,#585));
#128=EDGE_LOOP('',(#586,#587,#588,#589));
#129=EDGE_LOOP('',(#590,#591,#592,#593));
#130=EDGE_LOOP('',(#594,#595,#596,#597));
#131=EDGE_LOOP('',(#598,#599,#600,#601));
#132=EDGE_LOOP('',(#602));
#133=EDGE_LOOP('',(#603));
#134=EDGE_LOOP('',(#604,#605,#606,#607));
#135=EDGE_LOOP('',(#608,#609,#610,#611));
#136=EDGE_LOOP('',(#612,#613,#614,#615));
#137=EDGE_LOOP('',(#616,#617,#618,#619));
#138=EDGE_LOOP('',(#620,#621,#622,#623));
#139=EDGE_LOOP('',(#624,#625,#626,#627));
#140=EDGE_LOOP('',(#628,#629,#630,#631));
#141=LINE('',#933,#214);
#142=LINE('',#941,#215);
#143=LINE('',#945,#216);
#144=LINE('',#947,#217);
#145=LINE('',#949,#218);
#146=LINE('',#950,#219);
#147=LINE('',#956,#220);
#148=LINE('',#958,#221);
#149=LINE('',#959,#222);
#150=LINE('',#969,#223);
#151=LINE('',#993,#224);
#152=LINE('',#996,#225);
#153=LINE('',#998,#226);
#154=LINE('',#999,#227);
#155=LINE('',#1002,#228);
#156=LINE('',#1004,#229);
#157=LINE('',#1005,#230);
#158=LINE('',#1008,#231);
#159=LINE('',#1010,#232);
#160=LINE('',#1011,#233);
#161=LINE('',#1015,#234);
#162=LINE('',#1016,#235);
#163=LINE('',#1017,#236);
#164=LINE('',#1020,#237);
#165=LINE('',#1024,#238);
#166=LINE('',#1026,#239);
#167=LINE('',#1028,#240);
#168=LINE('',#1030,#241);
#169=LINE('',#1032,#242);
#170=LINE('',#1034,#243);
#171=LINE('',#1036,#244);
#172=LINE('',#1038,#245);
#173=LINE('',#1040,#246);
#174=LINE('',#1042,#247);
#175=LINE('',#1044,#248);
#176=LINE('',#1046,#249);
#177=LINE('',#1048,#250);
#178=LINE('',#1051,#251);
#179=LINE('',#1054,#252);
#180=LINE('',#1055,#253);
#181=LINE('',#1058,#254);
#182=LINE('',#1062,#255);
#183=LINE('',#1065,#256);
#184=LINE('',#1067,#257);
#185=LINE('',#1071,#258);
#186=LINE('',#1075,#259);
#187=LINE('',#1077,#260);
#188=LINE('',#1079,#261);
#189=LINE('',#1081,#262);
#190=LINE('',#1083,#263);
#191=LINE('',#1085,#264);
#192=LINE('',#1087,#265);
#193=LINE('',#1089,#266);
#194=LINE('',#1091,#267);
#195=LINE('',#1093,#268);
#196=LINE('',#1095,#269);
#197=LINE('',#1097,#270);
#198=LINE('',#1099,#271);
#199=LINE('',#1102,#272);
#200=LINE('',#1104,#273);
#201=LINE('',#1106,#274);
#202=LINE('',#1108,#275);
#203=LINE('',#1110,#276);
#204=LINE('',#1112,#277);
#205=LINE('',#1114,#278);
#206=LINE('',#1116,#279);
#207=LINE('',#1118,#280);
#208=LINE('',#1120,#281);
#209=LINE('',#1122,#282);
#210=LINE('',#1124,#283);
#211=LINE('',#1126,#284);
#212=LINE('',#1128,#285);
#213=LINE('',#1130,#286);
#214=VECTOR('',#748,10.);
#215=VECTOR('',#749,10.);
#216=VECTOR('',#752,10.);
#217=VECTOR('',#753,10.);
#218=VECTOR('',#754,10.);
#219=VECTOR('',#755,10.);
#220=VECTOR('',#760,10.);
#221=VECTOR('',#761,10.);
#222=VECTOR('',#762,10.);
#223=VECTOR('',#765,10.);
#224=VECTOR('',#788,10.);
#225=VECTOR('',#791,10.);
#226=VECTOR('',#792,10.);
#227=VECTOR('',#793,10.);
#228=VECTOR('',#796,10.);
#229=VECTOR('',#797,10.);
#230=VECTOR('',#798,10.);
#231=VECTOR('',#801,10.);
#232=VECTOR('',#802,10.);
#233=VECTOR('',#803,10.);
#234=VECTOR('',#806,10.);
#235=VECTOR('',#807,10.);
#236=VECTOR('',#808,10.);
#237=VECTOR('',#811,10.);
#238=VECTOR('',#814,10.);
#239=VECTOR('',#815,10.);
#240=VECTOR('',#816,10.);
#241=VECTOR('',#817,10.);
#242=VECTOR('',#818,10.);
#243=VECTOR('',#819,10.);
#244=VECTOR('',#820,10.);
#245=VECTOR('',#821,10.);
#246=VECTOR('',#822,10.);
#247=VECTOR('',#823,10.);
#248=VECTOR('',#824,10.);
#249=VECTOR('',#825,10.);
#250=VECTOR('',#826,10.);
#251=VECTOR('',#829,10.);
#252=VECTOR('',#832,10.);
#253=VECTOR('',#833,10.);
#254=VECTOR('',#836,1.666);
#255=VECTOR('',#841,1.666);
#256=VECTOR('',#846,2.5);
#257=VECTOR('',#849,10.);
#258=VECTOR('',#854,10.);
#259=VECTOR('',#857,10.);
#260=VECTOR('',#858,10.);
#261=VECTOR('',#859,10.);
#262=VECTOR('',#860,10.);
#263=VECTOR('',#861,10.);
#264=VECTOR('',#862,10.);
#265=VECTOR('',#863,10.);
#266=VECTOR('',#864,10.);
#267=VECTOR('',#865,10.);
#268=VECTOR('',#866,10.);
#269=VECTOR('',#867,10.);
#270=VECTOR('',#868,10.);
#271=VECTOR('',#869,10.);
#272=VECTOR('',#874,10.);
#273=VECTOR('',#877,10.);
#274=VECTOR('',#880,10.);
#275=VECTOR('',#883,10.);
#276=VECTOR('',#886,10.);
#277=VECTOR('',#889,10.);
#278=VECTOR('',#892,10.);
#279=VECTOR('',#895,10.);
#280=VECTOR('',#898,10.);
#281=VECTOR('',#901,10.);
#282=VECTOR('',#904,10.);
#283=VECTOR('',#907,10.);
#284=VECTOR('',#910,10.);
#285=VECTOR('',#913,10.);
#286=VECTOR('',#916,10.);
#287=B_SPLINE_CURVE_WITH_KNOTS('',3,(#926,#927,#928,#929,#930,#931),
 .UNSPECIFIED.,.F.,.F.,(4,2,4),(1.39688673207628,1.7239061258289,2.05092551958151),
 .UNSPECIFIED.);
#288=B_SPLINE_CURVE_WITH_KNOTS('',3,(#935,#936,#937,#938,#939,#940),
 .UNSPECIFIED.,.F.,.F.,(4,2,4),(0.,0.327019393752613,0.654038787505225),
 .UNSPECIFIED.);
#289=B_SPLINE_CURVE_WITH_KNOTS('',3,(#962,#963,#964,#965,#966,#967),
 .UNSPECIFIED.,.F.,.F.,(4,2,4),(0.,0.327019393752612,0.654038787505225),
 .UNSPECIFIED.);
#290=B_SPLINE_CURVE_WITH_KNOTS('',3,(#970,#971,#972,#973,#974,#975),
 .UNSPECIFIED.,.F.,.F.,(4,2,4),(1.39678691550695,1.72380630925956,2.05082570301217),
 .UNSPECIFIED.);
#291=VERTEX_POINT('',#924);
#292=VERTEX_POINT('',#925);
#293=VERTEX_POINT('',#932);
#294=VERTEX_POINT('',#934);
#295=VERTEX_POINT('',#943);
#296=VERTEX_POINT('',#944);
#297=VERTEX_POINT('',#946);
#298=VERTEX_POINT('',#948);
#299=VERTEX_POINT('',#951);
#300=VERTEX_POINT('',#953);
#301=VERTEX_POINT('',#955);
#302=VERTEX_POINT('',#957);
#303=VERTEX_POINT('',#961);
#304=VERTEX_POINT('',#968);
#305=VERTEX_POINT('',#977);
#306=VERTEX_POINT('',#979);
#307=VERTEX_POINT('',#982);
#308=VERTEX_POINT('',#985);
#309=VERTEX_POINT('',#987);
#310=VERTEX_POINT('',#990);
#311=VERTEX_POINT('',#995);
#312=VERTEX_POINT('',#997);
#313=VERTEX_POINT('',#1001);
#314=VERTEX_POINT('',#1003);
#315=VERTEX_POINT('',#1007);
#316=VERTEX_POINT('',#1009);
#317=VERTEX_POINT('',#1013);
#318=VERTEX_POINT('',#1014);
#319=VERTEX_POINT('',#1019);
#320=VERTEX_POINT('',#1021);
#321=VERTEX_POINT('',#1023);
#322=VERTEX_POINT('',#1025);
#323=VERTEX_POINT('',#1027);
#324=VERTEX_POINT('',#1029);
#325=VERTEX_POINT('',#1031);
#326=VERTEX_POINT('',#1033);
#327=VERTEX_POINT('',#1035);
#328=VERTEX_POINT('',#1037);
#329=VERTEX_POINT('',#1039);
#330=VERTEX_POINT('',#1041);
#331=VERTEX_POINT('',#1043);
#332=VERTEX_POINT('',#1045);
#333=VERTEX_POINT('',#1047);
#334=VERTEX_POINT('',#1049);
#335=VERTEX_POINT('',#1053);
#336=VERTEX_POINT('',#1057);
#337=VERTEX_POINT('',#1061);
#338=VERTEX_POINT('',#1070);
#339=VERTEX_POINT('',#1072);
#340=VERTEX_POINT('',#1074);
#341=VERTEX_POINT('',#1076);
#342=VERTEX_POINT('',#1078);
#343=VERTEX_POINT('',#1080);
#344=VERTEX_POINT('',#1082);
#345=VERTEX_POINT('',#1084);
#346=VERTEX_POINT('',#1086);
#347=VERTEX_POINT('',#1088);
#348=VERTEX_POINT('',#1090);
#349=VERTEX_POINT('',#1092);
#350=VERTEX_POINT('',#1094);
#351=VERTEX_POINT('',#1096);
#352=VERTEX_POINT('',#1098);
#353=EDGE_CURVE('',#291,#292,#287,.T.);
#354=EDGE_CURVE('',#292,#293,#141,.T.);
#355=EDGE_CURVE('',#293,#294,#288,.T.);
#356=EDGE_CURVE('',#294,#291,#142,.T.);
#357=EDGE_CURVE('',#295,#296,#143,.T.);
#358=EDGE_CURVE('',#297,#296,#144,.T.);
#359=EDGE_CURVE('',#298,#297,#145,.T.);
#360=EDGE_CURVE('',#295,#298,#146,.T.);
#361=EDGE_CURVE('',#299,#299,#26,.T.);
#362=EDGE_CURVE('',#300,#300,#27,.T.);
#363=EDGE_CURVE('',#301,#293,#147,.T.);
#364=EDGE_CURVE('',#302,#292,#148,.T.);
#365=EDGE_CURVE('',#301,#302,#149,.T.);
#366=EDGE_CURVE('',#302,#303,#289,.T.);
#367=EDGE_CURVE('',#303,#304,#150,.T.);
#368=EDGE_CURVE('',#304,#301,#290,.T.);
#369=EDGE_CURVE('',#305,#303,#28,.F.);
#370=EDGE_CURVE('',#306,#305,#29,.F.);
#371=EDGE_CURVE('',#304,#306,#30,.F.);
#372=EDGE_CURVE('',#307,#307,#31,.T.);
#373=EDGE_CURVE('',#308,#294,#32,.F.);
#374=EDGE_CURVE('',#309,#308,#33,.F.);
#375=EDGE_CURVE('',#291,#309,#34,.F.);
#376=EDGE_CURVE('',#310,#310,#35,.T.);
#377=EDGE_CURVE('',#306,#308,#151,.T.);
#378=EDGE_CURVE('',#311,#295,#152,.T.);
#379=EDGE_CURVE('',#311,#312,#153,.T.);
#380=EDGE_CURVE('',#296,#312,#154,.T.);
#381=EDGE_CURVE('',#313,#297,#155,.T.);
#382=EDGE_CURVE('',#313,#314,#156,.T.);
#383=EDGE_CURVE('',#298,#314,#157,.T.);
#384=EDGE_CURVE('',#315,#313,#158,.T.);
#385=EDGE_CURVE('',#316,#315,#159,.T.);
#386=EDGE_CURVE('',#314,#316,#160,.T.);
#387=EDGE_CURVE('',#317,#318,#161,.T.);
#388=EDGE_CURVE('',#312,#317,#162,.T.);
#389=EDGE_CURVE('',#318,#311,#163,.T.);
#390=EDGE_CURVE('',#317,#319,#164,.T.);
#391=EDGE_CURVE('',#319,#320,#36,.T.);
#392=EDGE_CURVE('',#320,#321,#165,.T.);
#393=EDGE_CURVE('',#321,#322,#166,.T.);
#394=EDGE_CURVE('',#322,#323,#167,.T.);
#395=EDGE_CURVE('',#323,#324,#168,.T.);
#396=EDGE_CURVE('',#324,#325,#169,.T.);
#397=EDGE_CURVE('',#325,#326,#170,.T.);
#398=EDGE_CURVE('',#326,#327,#171,.T.);
#399=EDGE_CURVE('',#327,#328,#172,.T.);
#400=EDGE_CURVE('',#328,#329,#173,.T.);
#401=EDGE_CURVE('',#329,#330,#174,.T.);
#402=EDGE_CURVE('',#330,#331,#175,.T.);
#403=EDGE_CURVE('',#331,#332,#176,.T.);
#404=EDGE_CURVE('',#332,#333,#177,.T.);
#405=EDGE_CURVE('',#333,#334,#37,.T.);
#406=EDGE_CURVE('',#334,#315,#178,.T.);
#407=EDGE_CURVE('',#335,#318,#179,.T.);
#408=EDGE_CURVE('',#335,#319,#180,.T.);
#409=EDGE_CURVE('',#299,#336,#181,.T.);
#410=EDGE_CURVE('',#336,#336,#38,.T.);
#411=EDGE_CURVE('',#300,#337,#182,.T.);
#412=EDGE_CURVE('',#337,#337,#39,.T.);
#413=EDGE_CURVE('',#310,#307,#183,.T.);
#414=EDGE_CURVE('',#309,#305,#184,.T.);
#415=EDGE_CURVE('',#316,#338,#185,.T.);
#416=EDGE_CURVE('',#338,#339,#40,.T.);
#417=EDGE_CURVE('',#339,#340,#186,.T.);
#418=EDGE_CURVE('',#340,#341,#187,.T.);
#419=EDGE_CURVE('',#341,#342,#188,.T.);
#420=EDGE_CURVE('',#342,#343,#189,.T.);
#421=EDGE_CURVE('',#343,#344,#190,.T.);
#422=EDGE_CURVE('',#344,#345,#191,.T.);
#423=EDGE_CURVE('',#345,#346,#192,.T.);
#424=EDGE_CURVE('',#346,#347,#193,.T.);
#425=EDGE_CURVE('',#347,#348,#194,.T.);
#426=EDGE_CURVE('',#348,#349,#195,.T.);
#427=EDGE_CURVE('',#349,#350,#196,.T.);
#428=EDGE_CURVE('',#350,#351,#197,.T.);
#429=EDGE_CURVE('',#351,#352,#198,.T.);
#430=EDGE_CURVE('',#352,#335,#41,.T.);
#431=EDGE_CURVE('',#338,#334,#199,.T.);
#432=EDGE_CURVE('',#339,#333,#200,.T.);
#433=EDGE_CURVE('',#340,#332,#201,.T.);
#434=EDGE_CURVE('',#341,#331,#202,.T.);
#435=EDGE_CURVE('',#342,#330,#203,.T.);
#436=EDGE_CURVE('',#343,#329,#204,.T.);
#437=EDGE_CURVE('',#344,#328,#205,.T.);
#438=EDGE_CURVE('',#345,#327,#206,.T.);
#439=EDGE_CURVE('',#346,#326,#207,.T.);
#440=EDGE_CURVE('',#347,#325,#208,.T.);
#441=EDGE_CURVE('',#348,#324,#209,.T.);
#442=EDGE_CURVE('',#349,#323,#210,.T.);
#443=EDGE_CURVE('',#350,#322,#211,.T.);
#444=EDGE_CURVE('',#351,#321,#212,.T.);
#445=EDGE_CURVE('',#352,#320,#213,.T.);
#446=ORIENTED_EDGE('',*,*,#353,.T.);
#447=ORIENTED_EDGE('',*,*,#354,.T.);
#448=ORIENTED_EDGE('',*,*,#355,.T.);
#449=ORIENTED_EDGE('',*,*,#356,.T.);
#450=ORIENTED_EDGE('',*,*,#357,.T.);
#451=ORIENTED_EDGE('',*,*,#358,.F.);
#452=ORIENTED_EDGE('',*,*,#359,.F.);
#453=ORIENTED_EDGE('',*,*,#360,.F.);
#454=ORIENTED_EDGE('',*,*,#361,.T.);
#455=ORIENTED_EDGE('',*,*,#362,.T.);
#456=ORIENTED_EDGE('',*,*,#363,.T.);
#457=ORIENTED_EDGE('',*,*,#354,.F.);
#458=ORIENTED_EDGE('',*,*,#364,.F.);
#459=ORIENTED_EDGE('',*,*,#365,.F.);
#460=ORIENTED_EDGE('',*,*,#366,.T.);
#461=ORIENTED_EDGE('',*,*,#367,.T.);
#462=ORIENTED_EDGE('',*,*,#368,.T.);
#463=ORIENTED_EDGE('',*,*,#365,.T.);
#464=ORIENTED_EDGE('',*,*,#367,.F.);
#465=ORIENTED_EDGE('',*,*,#369,.F.);
#466=ORIENTED_EDGE('',*,*,#370,.F.);
#467=ORIENTED_EDGE('',*,*,#371,.F.);
#468=ORIENTED_EDGE('',*,*,#372,.F.);
#469=ORIENTED_EDGE('',*,*,#356,.F.);
#470=ORIENTED_EDGE('',*,*,#373,.F.);
#471=ORIENTED_EDGE('',*,*,#374,.F.);
#472=ORIENTED_EDGE('',*,*,#375,.F.);
#473=ORIENTED_EDGE('',*,*,#376,.F.);
#474=ORIENTED_EDGE('',*,*,#373,.T.);
#475=ORIENTED_EDGE('',*,*,#355,.F.);
#476=ORIENTED_EDGE('',*,*,#363,.F.);
#477=ORIENTED_EDGE('',*,*,#368,.F.);
#478=ORIENTED_EDGE('',*,*,#371,.T.);
#479=ORIENTED_EDGE('',*,*,#377,.T.);
#480=ORIENTED_EDGE('',*,*,#357,.F.);
#481=ORIENTED_EDGE('',*,*,#378,.F.);
#482=ORIENTED_EDGE('',*,*,#379,.T.);
#483=ORIENTED_EDGE('',*,*,#380,.F.);
#484=ORIENTED_EDGE('',*,*,#359,.T.);
#485=ORIENTED_EDGE('',*,*,#381,.F.);
#486=ORIENTED_EDGE('',*,*,#382,.T.);
#487=ORIENTED_EDGE('',*,*,#383,.F.);
#488=ORIENTED_EDGE('',*,*,#382,.F.);
#489=ORIENTED_EDGE('',*,*,#384,.F.);
#490=ORIENTED_EDGE('',*,*,#385,.F.);
#491=ORIENTED_EDGE('',*,*,#386,.F.);
#492=ORIENTED_EDGE('',*,*,#387,.F.);
#493=ORIENTED_EDGE('',*,*,#388,.F.);
#494=ORIENTED_EDGE('',*,*,#379,.F.);
#495=ORIENTED_EDGE('',*,*,#389,.F.);
#496=ORIENTED_EDGE('',*,*,#384,.T.);
#497=ORIENTED_EDGE('',*,*,#381,.T.);
#498=ORIENTED_EDGE('',*,*,#358,.T.);
#499=ORIENTED_EDGE('',*,*,#380,.T.);
#500=ORIENTED_EDGE('',*,*,#388,.T.);
#501=ORIENTED_EDGE('',*,*,#390,.T.);
#502=ORIENTED_EDGE('',*,*,#391,.T.);
#503=ORIENTED_EDGE('',*,*,#392,.T.);
#504=ORIENTED_EDGE('',*,*,#393,.T.);
#505=ORIENTED_EDGE('',*,*,#394,.T.);
#506=ORIENTED_EDGE('',*,*,#395,.T.);
#507=ORIENTED_EDGE('',*,*,#396,.T.);
#508=ORIENTED_EDGE('',*,*,#397,.T.);
#509=ORIENTED_EDGE('',*,*,#398,.T.);
#510=ORIENTED_EDGE('',*,*,#399,.T.);
#511=ORIENTED_EDGE('',*,*,#400,.T.);
#512=ORIENTED_EDGE('',*,*,#401,.T.);
#513=ORIENTED_EDGE('',*,*,#402,.T.);
#514=ORIENTED_EDGE('',*,*,#403,.T.);
#515=ORIENTED_EDGE('',*,*,#404,.T.);
#516=ORIENTED_EDGE('',*,*,#405,.T.);
#517=ORIENTED_EDGE('',*,*,#406,.T.);
#518=ORIENTED_EDGE('',*,*,#387,.T.);
#519=ORIENTED_EDGE('',*,*,#407,.F.);
#520=ORIENTED_EDGE('',*,*,#408,.T.);
#521=ORIENTED_EDGE('',*,*,#390,.F.);
#522=ORIENTED_EDGE('',*,*,#361,.F.);
#523=ORIENTED_EDGE('',*,*,#409,.T.);
#524=ORIENTED_EDGE('',*,*,#410,.F.);
#525=ORIENTED_EDGE('',*,*,#409,.F.);
#526=ORIENTED_EDGE('',*,*,#362,.F.);
#527=ORIENTED_EDGE('',*,*,#411,.T.);
#528=ORIENTED_EDGE('',*,*,#412,.F.);
#529=ORIENTED_EDGE('',*,*,#411,.F.);
#530=ORIENTED_EDGE('',*,*,#376,.T.);
#531=ORIENTED_EDGE('',*,*,#413,.T.);
#532=ORIENTED_EDGE('',*,*,#372,.T.);
#533=ORIENTED_EDGE('',*,*,#413,.F.);
#534=ORIENTED_EDGE('',*,*,#374,.T.);
#535=ORIENTED_EDGE('',*,*,#377,.F.);
#536=ORIENTED_EDGE('',*,*,#370,.T.);
#537=ORIENTED_EDGE('',*,*,#414,.F.);
#538=ORIENTED_EDGE('',*,*,#375,.T.);
#539=ORIENTED_EDGE('',*,*,#414,.T.);
#540=ORIENTED_EDGE('',*,*,#369,.T.);
#541=ORIENTED_EDGE('',*,*,#366,.F.);
#542=ORIENTED_EDGE('',*,*,#364,.T.);
#543=ORIENTED_EDGE('',*,*,#353,.F.);
#544=ORIENTED_EDGE('',*,*,#386,.T.);
#545=ORIENTED_EDGE('',*,*,#415,.T.);
#546=ORIENTED_EDGE('',*,*,#416,.T.);
#547=ORIENTED_EDGE('',*,*,#417,.T.);
#548=ORIENTED_EDGE('',*,*,#418,.T.);
#549=ORIENTED_EDGE('',*,*,#419,.T.);
#550=ORIENTED_EDGE('',*,*,#420,.T.);
#551=ORIENTED_EDGE('',*,*,#421,.T.);
#552=ORIENTED_EDGE('',*,*,#422,.T.);
#553=ORIENTED_EDGE('',*,*,#423,.T.);
#554=ORIENTED_EDGE('',*,*,#424,.T.);
#555=ORIENTED_EDGE('',*,*,#425,.T.);
#556=ORIENTED_EDGE('',*,*,#426,.T.);
#557=ORIENTED_EDGE('',*,*,#427,.T.);
#558=ORIENTED_EDGE('',*,*,#428,.T.);
#559=ORIENTED_EDGE('',*,*,#429,.T.);
#560=ORIENTED_EDGE('',*,*,#430,.T.);
#561=ORIENTED_EDGE('',*,*,#407,.T.);
#562=ORIENTED_EDGE('',*,*,#389,.T.);
#563=ORIENTED_EDGE('',*,*,#378,.T.);
#564=ORIENTED_EDGE('',*,*,#360,.T.);
#565=ORIENTED_EDGE('',*,*,#383,.T.);
#566=ORIENTED_EDGE('',*,*,#385,.T.);
#567=ORIENTED_EDGE('',*,*,#406,.F.);
#568=ORIENTED_EDGE('',*,*,#431,.F.);
#569=ORIENTED_EDGE('',*,*,#415,.F.);
#570=ORIENTED_EDGE('',*,*,#431,.T.);
#571=ORIENTED_EDGE('',*,*,#405,.F.);
#572=ORIENTED_EDGE('',*,*,#432,.F.);
#573=ORIENTED_EDGE('',*,*,#416,.F.);
#574=ORIENTED_EDGE('',*,*,#432,.T.);
#575=ORIENTED_EDGE('',*,*,#404,.F.);
#576=ORIENTED_EDGE('',*,*,#433,.F.);
#577=ORIENTED_EDGE('',*,*,#417,.F.);
#578=ORIENTED_EDGE('',*,*,#433,.T.);
#579=ORIENTED_EDGE('',*,*,#403,.F.);
#580=ORIENTED_EDGE('',*,*,#434,.F.);
#581=ORIENTED_EDGE('',*,*,#418,.F.);
#582=ORIENTED_EDGE('',*,*,#434,.T.);
#583=ORIENTED_EDGE('',*,*,#402,.F.);
#584=ORIENTED_EDGE('',*,*,#435,.F.);
#585=ORIENTED_EDGE('',*,*,#419,.F.);
#586=ORIENTED_EDGE('',*,*,#435,.T.);
#587=ORIENTED_EDGE('',*,*,#401,.F.);
#588=ORIENTED_EDGE('',*,*,#436,.F.);
#589=ORIENTED_EDGE('',*,*,#420,.F.);
#590=ORIENTED_EDGE('',*,*,#436,.T.);
#591=ORIENTED_EDGE('',*,*,#400,.F.);
#592=ORIENTED_EDGE('',*,*,#437,.F.);
#593=ORIENTED_EDGE('',*,*,#421,.F.);
#594=ORIENTED_EDGE('',*,*,#437,.T.);
#595=ORIENTED_EDGE('',*,*,#399,.F.);
#596=ORIENTED_EDGE('',*,*,#438,.F.);
#597=ORIENTED_EDGE('',*,*,#422,.F.);
#598=ORIENTED_EDGE('',*,*,#438,.T.);
#599=ORIENTED_EDGE('',*,*,#398,.F.);
#600=ORIENTED_EDGE('',*,*,#439,.F.);
#601=ORIENTED_EDGE('',*,*,#423,.F.);
#602=ORIENTED_EDGE('',*,*,#410,.T.);
#603=ORIENTED_EDGE('',*,*,#412,.T.);
#604=ORIENTED_EDGE('',*,*,#439,.T.);
#605=ORIENTED_EDGE('',*,*,#397,.F.);
#606=ORIENTED_EDGE('',*,*,#440,.F.);
#607=ORIENTED_EDGE('',*,*,#424,.F.);
#608=ORIENTED_EDGE('',*,*,#440,.T.);
#609=ORIENTED_EDGE('',*,*,#396,.F.);
#610=ORIENTED_EDGE('',*,*,#441,.F.);
#611=ORIENTED_EDGE('',*,*,#425,.F.);
#612=ORIENTED_EDGE('',*,*,#441,.T.);
#613=ORIENTED_EDGE('',*,*,#395,.F.);
#614=ORIENTED_EDGE('',*,*,#442,.F.);
#615=ORIENTED_EDGE('',*,*,#426,.F.);
#616=ORIENTED_EDGE('',*,*,#442,.T.);
#617=ORIENTED_EDGE('',*,*,#394,.F.);
#618=ORIENTED_EDGE('',*,*,#443,.F.);
#619=ORIENTED_EDGE('',*,*,#427,.F.);
#620=ORIENTED_EDGE('',*,*,#443,.T.);
#621=ORIENTED_EDGE('',*,*,#393,.F.);
#622=ORIENTED_EDGE('',*,*,#444,.F.);
#623=ORIENTED_EDGE('',*,*,#428,.F.);
#624=ORIENTED_EDGE('',*,*,#444,.T.);
#625=ORIENTED_EDGE('',*,*,#392,.F.);
#626=ORIENTED_EDGE('',*,*,#445,.F.);
#627=ORIENTED_EDGE('',*,*,#429,.F.);
#628=ORIENTED_EDGE('',*,*,#445,.T.);
#629=ORIENTED_EDGE('',*,*,#391,.F.);
#630=ORIENTED_EDGE('',*,*,#408,.F.);
#631=ORIENTED_EDGE('',*,*,#430,.F.);
#632=CYLINDRICAL_SURFACE('',#691,2.);
#633=CYLINDRICAL_SURFACE('',#695,2.);
#634=CYLINDRICAL_SURFACE('',#706,10.);
#635=CYLINDRICAL_SURFACE('',#715,1.666);
#636=CYLINDRICAL_SURFACE('',#717,1.666);
#637=CYLINDRICAL_SURFACE('',#719,2.75);
#638=CYLINDRICAL_SURFACE('',#720,10.);
#639=CYLINDRICAL_SURFACE('',#721,10.);
#640=CYLINDRICAL_SURFACE('',#726,0.700000000000047);
#641=CYLINDRICAL_SURFACE('',#740,0.699999999999932);
#642=ADVANCED_FACE('',(#66),#632,.F.);
#643=ADVANCED_FACE('',(#67,#19,#20,#21),#42,.T.);
#644=ADVANCED_FACE('',(#68),#633,.F.);
#645=ADVANCED_FACE('',(#69,#22),#43,.T.);
#646=ADVANCED_FACE('',(#70,#23),#44,.T.);
#647=ADVANCED_FACE('',(#71),#634,.F.);
#648=ADVANCED_FACE('',(#72),#45,.T.);
#649=ADVANCED_FACE('',(#73),#46,.T.);
#650=ADVANCED_FACE('',(#74),#47,.F.);
#651=ADVANCED_FACE('',(#75),#48,.F.);
#652=ADVANCED_FACE('',(#76),#49,.T.);
#653=ADVANCED_FACE('',(#77),#50,.T.);
#654=ADVANCED_FACE('',(#78),#635,.F.);
#655=ADVANCED_FACE('',(#79),#636,.F.);
#656=ADVANCED_FACE('',(#80),#637,.F.);
#657=ADVANCED_FACE('',(#81),#638,.T.);
#658=ADVANCED_FACE('',(#82),#639,.F.);
#659=ADVANCED_FACE('',(#83),#51,.F.);
#660=ADVANCED_FACE('',(#84),#52,.T.);
#661=ADVANCED_FACE('',(#85),#640,.F.);
#662=ADVANCED_FACE('',(#86),#53,.T.);
#663=ADVANCED_FACE('',(#87),#54,.T.);
#664=ADVANCED_FACE('',(#88),#55,.T.);
#665=ADVANCED_FACE('',(#89),#56,.T.);
#666=ADVANCED_FACE('',(#90),#57,.T.);
#667=ADVANCED_FACE('',(#91),#58,.T.);
#668=ADVANCED_FACE('',(#92,#24,#25),#59,.T.);
#669=ADVANCED_FACE('',(#93),#60,.T.);
#670=ADVANCED_FACE('',(#94),#61,.T.);
#671=ADVANCED_FACE('',(#95),#62,.T.);
#672=ADVANCED_FACE('',(#96),#63,.T.);
#673=ADVANCED_FACE('',(#97),#64,.T.);
#674=ADVANCED_FACE('',(#98),#65,.T.);
#675=ADVANCED_FACE('',(#99),#641,.F.);
#676=CLOSED_SHELL('',(#642,#643,#644,#645,#646,#647,#648,#649,#650,#651,
#652,#653,#654,#655,#656,#657,#658,#659,#660,#661,#662,#663,#664,#665,#666,
#667,#668,#669,#670,#671,#672,#673,#674,#675));
#677=DERIVED_UNIT_ELEMENT(#679,1.);
#678=DERIVED_UNIT_ELEMENT(#1140,-3.);
#679=(
MASS_UNIT()
NAMED_UNIT(*)
SI_UNIT(.KILO.,.GRAM.)
);
#680=DERIVED_UNIT((#677,#678));
#681=MEASURE_REPRESENTATION_ITEM('density measure',
POSITIVE_RATIO_MEASURE(7850.),#680);
#682=PROPERTY_DEFINITION_REPRESENTATION(#687,#684);
#683=PROPERTY_DEFINITION_REPRESENTATION(#688,#685);
#684=REPRESENTATION('material name',(#686),#1137);
#685=REPRESENTATION('density',(#681),#1137);
#686=DESCRIPTIVE_REPRESENTATION_ITEM('Acero','Acero');
#687=PROPERTY_DEFINITION('material property','material name',#1152);
#688=PROPERTY_DEFINITION('material property','density of part',#1152);
#689=AXIS2_PLACEMENT_3D('',#921,#742,#743);
#690=AXIS2_PLACEMENT_3D('',#922,#744,#745);
#691=AXIS2_PLACEMENT_3D('',#923,#746,#747);
#692=AXIS2_PLACEMENT_3D('',#942,#750,#751);
#693=AXIS2_PLACEMENT_3D('',#952,#756,#757);
#694=AXIS2_PLACEMENT_3D('',#954,#758,#759);
#695=AXIS2_PLACEMENT_3D('',#960,#763,#764);
#696=AXIS2_PLACEMENT_3D('',#976,#766,#767);
#697=AXIS2_PLACEMENT_3D('',#978,#768,#769);
#698=AXIS2_PLACEMENT_3D('',#980,#770,#771);
#699=AXIS2_PLACEMENT_3D('',#981,#772,#773);
#700=AXIS2_PLACEMENT_3D('',#983,#774,#775);
#701=AXIS2_PLACEMENT_3D('',#984,#776,#777);
#702=AXIS2_PLACEMENT_3D('',#986,#778,#779);
#703=AXIS2_PLACEMENT_3D('',#988,#780,#781);
#704=AXIS2_PLACEMENT_3D('',#989,#782,#783);
#705=AXIS2_PLACEMENT_3D('',#991,#784,#785);
#706=AXIS2_PLACEMENT_3D('',#992,#786,#787);
#707=AXIS2_PLACEMENT_3D('',#994,#789,#790);
#708=AXIS2_PLACEMENT_3D('',#1000,#794,#795);
#709=AXIS2_PLACEMENT_3D('',#1006,#799,#800);
#710=AXIS2_PLACEMENT_3D('',#1012,#804,#805);
#711=AXIS2_PLACEMENT_3D('',#1018,#809,#810);
#712=AXIS2_PLACEMENT_3D('',#1022,#812,#813);
#713=AXIS2_PLACEMENT_3D('',#1050,#827,#828);
#714=AXIS2_PLACEMENT_3D('',#1052,#830,#831);
#715=AXIS2_PLACEMENT_3D('',#1056,#834,#835);
#716=AXIS2_PLACEMENT_3D('',#1059,#837,#838);
#717=AXIS2_PLACEMENT_3D('',#1060,#839,#840);
#718=AXIS2_PLACEMENT_3D('',#1063,#842,#843);
#719=AXIS2_PLACEMENT_3D('',#1064,#844,#845);
#720=AXIS2_PLACEMENT_3D('',#1066,#847,#848);
#721=AXIS2_PLACEMENT_3D('',#1068,#850,#851);
#722=AXIS2_PLACEMENT_3D('',#1069,#852,#853);
#723=AXIS2_PLACEMENT_3D('',#1073,#855,#856);
#724=AXIS2_PLACEMENT_3D('',#1100,#870,#871);
#725=AXIS2_PLACEMENT_3D('',#1101,#872,#873);
#726=AXIS2_PLACEMENT_3D('',#1103,#875,#876);
#727=AXIS2_PLACEMENT_3D('',#1105,#878,#879);
#728=AXIS2_PLACEMENT_3D('',#1107,#881,#882);
#729=AXIS2_PLACEMENT_3D('',#1109,#884,#885);
#730=AXIS2_PLACEMENT_3D('',#1111,#887,#888);
#731=AXIS2_PLACEMENT_3D('',#1113,#890,#891);
#732=AXIS2_PLACEMENT_3D('',#1115,#893,#894);
#733=AXIS2_PLACEMENT_3D('',#1117,#896,#897);
#734=AXIS2_PLACEMENT_3D('',#1119,#899,#900);
#735=AXIS2_PLACEMENT_3D('',#1121,#902,#903);
#736=AXIS2_PLACEMENT_3D('',#1123,#905,#906);
#737=AXIS2_PLACEMENT_3D('',#1125,#908,#909);
#738=AXIS2_PLACEMENT_3D('',#1127,#911,#912);
#739=AXIS2_PLACEMENT_3D('',#1129,#914,#915);
#740=AXIS2_PLACEMENT_3D('',#1131,#917,#918);
#741=AXIS2_PLACEMENT_3D('',#1132,#919,#920);
#742=DIRECTION('axis',(0.,0.,1.));
#743=DIRECTION('refdir',(1.,0.,0.));
#744=DIRECTION('axis',(0.,0.,1.));
#745=DIRECTION('refdir',(1.,0.,0.));
#746=DIRECTION('center_axis',(1.,0.,0.));
#747=DIRECTION('ref_axis',(0.,0.707106781186543,0.707106781186553));
#748=DIRECTION('',(1.,0.,0.));
#749=DIRECTION('',(-1.,0.,0.));
#750=DIRECTION('center_axis',(0.,-1.,2.22044604925031E-16));
#751=DIRECTION('ref_axis',(0.,-2.22044604925031E-16,-1.));
#752=DIRECTION('',(1.,0.,0.));
#753=DIRECTION('',(0.,-2.22044604925031E-16,-1.));
#754=DIRECTION('',(1.,0.,0.));
#755=DIRECTION('',(0.,2.22044604925031E-16,1.));
#756=DIRECTION('center_axis',(0.,1.,-2.22044604925031E-16));
#757=DIRECTION('ref_axis',(-1.,0.,0.));
#758=DIRECTION('center_axis',(0.,1.,-2.22044604925031E-16));
#759=DIRECTION('ref_axis',(-1.,0.,0.));
#760=DIRECTION('',(-1.8503717077086E-16,-2.31296463463574E-16,-1.));
#761=DIRECTION('',(-1.8503717077086E-16,-2.31296463463574E-16,-1.));
#762=DIRECTION('',(-1.,0.,0.));
#763=DIRECTION('center_axis',(1.,0.,0.));
#764=DIRECTION('ref_axis',(0.,0.707106781186555,-0.70710678118654));
#765=DIRECTION('',(1.,0.,0.));
#766=DIRECTION('center_axis',(0.,0.,1.));
#767=DIRECTION('ref_axis',(1.,0.,0.));
#768=DIRECTION('center_axis',(0.,0.,-1.));
#769=DIRECTION('ref_axis',(0.707106781186547,0.707106781186547,-1.57009245868377E-16));
#770=DIRECTION('center_axis',(0.,0.,1.));
#771=DIRECTION('ref_axis',(-0.707106781186547,-0.707106781186547,1.57009245868377E-16));
#772=DIRECTION('center_axis',(0.,0.,-1.));
#773=DIRECTION('ref_axis',(-0.707106781186547,0.707106781186548,-1.57009245868377E-16));
#774=DIRECTION('center_axis',(0.,0.,1.));
#775=DIRECTION('ref_axis',(1.,0.,0.));
#776=DIRECTION('center_axis',(0.,0.,-1.));
#777=DIRECTION('ref_axis',(-1.,0.,0.));
#778=DIRECTION('center_axis',(0.,0.,1.));
#779=DIRECTION('ref_axis',(-0.707106781186547,0.707106781186548,-1.57009245868377E-16));
#780=DIRECTION('center_axis',(0.,0.,-1.));
#781=DIRECTION('ref_axis',(-0.707106781186547,-0.707106781186547,1.57009245868377E-16));
#782=DIRECTION('center_axis',(0.,0.,1.));
#783=DIRECTION('ref_axis',(0.707106781186547,0.707106781186547,-1.57009245868377E-16));
#784=DIRECTION('center_axis',(0.,0.,-1.));
#785=DIRECTION('ref_axis',(1.,0.,0.));
#786=DIRECTION('center_axis',(0.,-2.22044604925031E-16,-1.));
#787=DIRECTION('ref_axis',(-0.707106781186547,0.707106781186548,-1.57009245868377E-16));
#788=DIRECTION('',(0.,-2.22044604925031E-16,-1.));
#789=DIRECTION('center_axis',(0.,-2.22044604925031E-16,-1.));
#790=DIRECTION('ref_axis',(0.,1.,-2.22044604925031E-16));
#791=DIRECTION('',(0.,-1.,2.22044604925031E-16));
#792=DIRECTION('',(1.,0.,0.));
#793=DIRECTION('',(0.,1.,-2.22044604925031E-16));
#794=DIRECTION('center_axis',(0.,2.22044604925031E-16,1.));
#795=DIRECTION('ref_axis',(0.,-1.,2.22044604925031E-16));
#796=DIRECTION('',(0.,-1.,2.22044604925031E-16));
#797=DIRECTION('',(-1.,0.,0.));
#798=DIRECTION('',(0.,1.,-2.22044604925031E-16));
#799=DIRECTION('center_axis',(0.,-1.,2.22044604925031E-16));
#800=DIRECTION('ref_axis',(-1.,0.,0.));
#801=DIRECTION('',(0.,2.22044604925031E-16,1.));
#802=DIRECTION('',(1.,0.,0.));
#803=DIRECTION('',(0.,-2.22044604925031E-16,-1.));
#804=DIRECTION('center_axis',(0.,-1.,2.22044604925031E-16));
#805=DIRECTION('ref_axis',(-1.,0.,0.));
#806=DIRECTION('',(-1.,0.,0.));
#807=DIRECTION('',(0.,2.22044604925031E-16,1.));
#808=DIRECTION('',(0.,-2.22044604925031E-16,-1.));
#809=DIRECTION('center_axis',(1.,0.,0.));
#810=DIRECTION('ref_axis',(0.,-2.22044604925031E-16,-1.));
#811=DIRECTION('',(0.,-1.,1.30933138270604E-14));
#812=DIRECTION('center_axis',(-1.,0.,0.));
#813=DIRECTION('ref_axis',(0.,-1.,2.71846037743957E-14));
#814=DIRECTION('',(0.,2.22044604925031E-16,1.));
#815=DIRECTION('',(0.,0.707106781186546,0.707106781186549));
#816=DIRECTION('',(0.,1.,-1.4368556176261E-14));
#817=DIRECTION('',(0.,-2.22044604925031E-16,-1.));
#818=DIRECTION('',(0.,1.,5.96403891380769E-16));
#819=DIRECTION('',(0.,0.707106781186545,0.70710678118655));
#820=DIRECTION('',(0.,2.22044604925031E-16,1.));
#821=DIRECTION('',(0.,-0.707106781186542,0.707106781186553));
#822=DIRECTION('',(0.,-1.,6.76963257537143E-15));
#823=DIRECTION('',(0.,-2.22044604925031E-16,-1.));
#824=DIRECTION('',(0.,-1.,2.22044604925031E-16));
#825=DIRECTION('',(0.,-0.707106781186542,0.707106781186552));
#826=DIRECTION('',(0.,-6.87934531073592E-15,1.));
#827=DIRECTION('center_axis',(-1.,0.,0.));
#828=DIRECTION('ref_axis',(0.,-5.05310079493644E-14,1.));
#829=DIRECTION('',(0.,1.,-2.22044604925031E-16));
#830=DIRECTION('center_axis',(0.,1.30933138270604E-14,1.));
#831=DIRECTION('ref_axis',(0.,-1.,1.30933138270604E-14));
#832=DIRECTION('',(0.,1.,-1.30933138270604E-14));
#833=DIRECTION('',(1.,0.,0.));
#834=DIRECTION('center_axis',(0.,1.,-2.22044604925031E-16));
#835=DIRECTION('ref_axis',(-1.,0.,0.));
#836=DIRECTION('',(0.,1.,-2.22044604925031E-16));
#837=DIRECTION('center_axis',(0.,-1.,2.22044604925031E-16));
#838=DIRECTION('ref_axis',(-1.,0.,0.));
#839=DIRECTION('center_axis',(0.,1.,-2.22044604925031E-16));
#840=DIRECTION('ref_axis',(-1.,0.,0.));
#841=DIRECTION('',(0.,1.,-2.22044604925031E-16));
#842=DIRECTION('center_axis',(0.,-1.,2.22044604925031E-16));
#843=DIRECTION('ref_axis',(-1.,0.,0.));
#844=DIRECTION('center_axis',(0.,2.22044604925031E-16,1.));
#845=DIRECTION('ref_axis',(1.,0.,0.));
#846=DIRECTION('',(0.,2.22044604925031E-16,1.));
#847=DIRECTION('center_axis',(0.,-2.22044604925031E-16,-1.));
#848=DIRECTION('ref_axis',(-0.707106781186547,-0.707106781186547,1.57009245868377E-16));
#849=DIRECTION('',(0.,2.22044604925031E-16,1.));
#850=DIRECTION('center_axis',(0.,2.22044604925031E-16,1.));
#851=DIRECTION('ref_axis',(0.707106781186547,0.707106781186547,-1.57009245868377E-16));
#852=DIRECTION('center_axis',(1.,0.,0.));
#853=DIRECTION('ref_axis',(0.,-2.22044604925031E-16,-1.));
#854=DIRECTION('',(0.,-1.,2.22044604925031E-16));
#855=DIRECTION('center_axis',(1.,0.,0.));
#856=DIRECTION('ref_axis',(0.,-5.05310079493644E-14,1.));
#857=DIRECTION('',(0.,6.87934531073592E-15,-1.));
#858=DIRECTION('',(0.,0.707106781186542,-0.707106781186552));
#859=DIRECTION('',(0.,1.,-2.22044604925031E-16));
#860=DIRECTION('',(0.,2.22044604925031E-16,1.));
#861=DIRECTION('',(0.,1.,-6.76963257537143E-15));
#862=DIRECTION('',(0.,0.707106781186542,-0.707106781186553));
#863=DIRECTION('',(0.,-2.22044604925031E-16,-1.));
#864=DIRECTION('',(0.,-0.707106781186545,-0.70710678118655));
#865=DIRECTION('',(0.,-1.,-5.96403891380769E-16));
#866=DIRECTION('',(0.,2.22044604925031E-16,1.));
#867=DIRECTION('',(0.,-1.,1.4368556176261E-14));
#868=DIRECTION('',(0.,-0.707106781186546,-0.707106781186549));
#869=DIRECTION('',(0.,-2.22044604925031E-16,-1.));
#870=DIRECTION('center_axis',(1.,0.,0.));
#871=DIRECTION('ref_axis',(0.,-1.,2.71846037743957E-14));
#872=DIRECTION('center_axis',(0.,-2.22044604925031E-16,-1.));
#873=DIRECTION('ref_axis',(0.,1.,-2.22044604925031E-16));
#874=DIRECTION('',(1.,0.,0.));
#875=DIRECTION('center_axis',(1.,0.,0.));
#876=DIRECTION('ref_axis',(0.,-5.05310079493644E-14,1.));
#877=DIRECTION('',(1.,0.,0.));
#878=DIRECTION('center_axis',(0.,1.,6.87934531073592E-15));
#879=DIRECTION('ref_axis',(0.,-6.87934531073592E-15,1.));
#880=DIRECTION('',(1.,0.,0.));
#881=DIRECTION('center_axis',(0.,0.707106781186553,0.707106781186543));
#882=DIRECTION('ref_axis',(0.,-0.707106781186543,0.707106781186553));
#883=DIRECTION('',(1.,0.,0.));
#884=DIRECTION('center_axis',(0.,2.22044604925031E-16,1.));
#885=DIRECTION('ref_axis',(0.,-1.,2.22044604925031E-16));
#886=DIRECTION('',(1.,0.,0.));
#887=DIRECTION('center_axis',(0.,-1.,2.22044604925031E-16));
#888=DIRECTION('ref_axis',(0.,-2.22044604925031E-16,-1.));
#889=DIRECTION('',(1.,0.,0.));
#890=DIRECTION('center_axis',(0.,6.76963257537143E-15,1.));
#891=DIRECTION('ref_axis',(0.,-1.,6.76963257537143E-15));
#892=DIRECTION('',(1.,0.,0.));
#893=DIRECTION('center_axis',(0.,0.707106781186553,0.707106781186542));
#894=DIRECTION('ref_axis',(0.,-0.707106781186542,0.707106781186553));
#895=DIRECTION('',(1.,0.,0.));
#896=DIRECTION('center_axis',(0.,1.,-2.22044604925031E-16));
#897=DIRECTION('ref_axis',(0.,2.22044604925031E-16,1.));
#898=DIRECTION('',(1.,0.,0.));
#899=DIRECTION('center_axis',(0.,0.70710678118655,-0.707106781186545));
#900=DIRECTION('ref_axis',(0.,0.707106781186545,0.70710678118655));
#901=DIRECTION('',(1.,0.,0.));
#902=DIRECTION('center_axis',(0.,5.96403891380769E-16,-1.));
#903=DIRECTION('ref_axis',(0.,1.,5.96403891380769E-16));
#904=DIRECTION('',(1.,0.,0.));
#905=DIRECTION('center_axis',(0.,-1.,2.22044604925031E-16));
#906=DIRECTION('ref_axis',(0.,-2.22044604925031E-16,-1.));
#907=DIRECTION('',(1.,0.,0.));
#908=DIRECTION('center_axis',(0.,-1.4368556176261E-14,-1.));
#909=DIRECTION('ref_axis',(0.,1.,-1.4368556176261E-14));
#910=DIRECTION('',(1.,0.,0.));
#911=DIRECTION('center_axis',(0.,0.707106781186549,-0.707106781186546));
#912=DIRECTION('ref_axis',(0.,0.707106781186546,0.707106781186549));
#913=DIRECTION('',(1.,0.,0.));
#914=DIRECTION('center_axis',(0.,1.,-2.22044604925031E-16));
#915=DIRECTION('ref_axis',(0.,2.22044604925031E-16,1.));
#916=DIRECTION('',(1.,0.,0.));
#917=DIRECTION('center_axis',(1.,0.,0.));
#918=DIRECTION('ref_axis',(0.,-1.,2.71846037743957E-14));
#919=DIRECTION('',(0.,0.,1.));
#920=DIRECTION('',(1.,0.,0.));
#921=CARTESIAN_POINT('',(0.,0.,0.));
#922=CARTESIAN_POINT('',(0.,0.,0.));
#923=CARTESIAN_POINT('Origin',(-10.,3.79999999999994,203.8));
#924=CARTESIAN_POINT('',(-24.,3.79999999999994,205.8));
#925=CARTESIAN_POINT('',(-30.,5.79999999999994,203.8));
#926=CARTESIAN_POINT('Ctrl Pts',(-24.,3.79999999999994,205.8));
#927=CARTESIAN_POINT('Ctrl Pts',(-24.8720517166736,4.45403878750517,205.8));
#928=CARTESIAN_POINT('Ctrl Pts',(-25.8623477673692,4.96856861447526,205.502193052391));
#929=CARTESIAN_POINT('Ctrl Pts',(-27.9299455007131,5.6436479093251,204.729641227406));
#930=CARTESIAN_POINT('Ctrl Pts',(-29.0049116738891,5.79999999999994,204.24501702816));
#931=CARTESIAN_POINT('Ctrl Pts',(-30.,5.79999999999994,203.8));
#932=CARTESIAN_POINT('',(10.,5.79999999999994,203.8));
#933=CARTESIAN_POINT('',(-10.,5.79999999999994,203.8));
#934=CARTESIAN_POINT('',(3.99999999999999,3.79999999999994,205.8));
#935=CARTESIAN_POINT('Ctrl Pts',(10.,5.79999999999994,203.8));
#936=CARTESIAN_POINT('Ctrl Pts',(9.00491167388905,5.79999999999994,204.24501702816));
#937=CARTESIAN_POINT('Ctrl Pts',(7.92994550071314,5.64364790932511,204.729641227406));
#938=CARTESIAN_POINT('Ctrl Pts',(5.86234776736917,4.96856861447527,205.502193052391));
#939=CARTESIAN_POINT('Ctrl Pts',(4.87205171667363,4.45403878750517,205.8));
#940=CARTESIAN_POINT('Ctrl Pts',(3.99999999999999,3.79999999999994,205.8));
#941=CARTESIAN_POINT('',(-10.,3.79999999999994,205.8));
#942=CARTESIAN_POINT('Origin',(-10.,5.79999999999995,225.8));
#943=CARTESIAN_POINT('',(-50.,5.79999999999995,197.4));
#944=CARTESIAN_POINT('',(30.,5.79999999999995,197.4));
#945=CARTESIAN_POINT('',(-10.,5.79999999999995,197.4));
#946=CARTESIAN_POINT('',(30.,5.79999999999995,225.8));
#947=CARTESIAN_POINT('',(30.,5.79999999999995,225.8));
#948=CARTESIAN_POINT('',(-50.,5.79999999999995,225.8));
#949=CARTESIAN_POINT('',(-10.,5.79999999999995,225.8));
#950=CARTESIAN_POINT('',(-50.,5.79999999999995,225.8));
#951=CARTESIAN_POINT('',(-38.3340005960465,5.79999999999995,211.6));
#952=CARTESIAN_POINT('Origin',(-40.0000005960464,5.79999999999995,211.6));
#953=CARTESIAN_POINT('',(21.6660002980232,5.79999999999995,211.6));
#954=CARTESIAN_POINT('Origin',(20.0000002980232,5.79999999999995,211.6));
#955=CARTESIAN_POINT('',(10.,5.79999999999995,219.4));
#956=CARTESIAN_POINT('',(10.,5.79999999999994,205.866666666667));
#957=CARTESIAN_POINT('',(-30.,5.79999999999995,219.4));
#958=CARTESIAN_POINT('',(-30.,5.79999999999994,205.866666666667));
#959=CARTESIAN_POINT('',(-10.,5.79999999999995,219.4));
#960=CARTESIAN_POINT('Origin',(-10.,3.79999999999995,219.4));
#961=CARTESIAN_POINT('',(-24.,3.79999999999995,217.4));
#962=CARTESIAN_POINT('Ctrl Pts',(-30.,5.79999999999995,219.4));
#963=CARTESIAN_POINT('Ctrl Pts',(-29.0049116738891,5.79999999999995,218.95498297184));
#964=CARTESIAN_POINT('Ctrl Pts',(-27.9299455007131,5.64364790932511,218.470358772594));
#965=CARTESIAN_POINT('Ctrl Pts',(-25.8623477673692,4.96856861447527,217.697806947609));
#966=CARTESIAN_POINT('Ctrl Pts',(-24.8720517166736,4.45403878750517,217.4));
#967=CARTESIAN_POINT('Ctrl Pts',(-24.,3.79999999999995,217.4));
#968=CARTESIAN_POINT('',(4.,3.79999999999995,217.4));
#969=CARTESIAN_POINT('',(-10.,3.79999999999995,217.4));
#970=CARTESIAN_POINT('Ctrl Pts',(4.,3.79999999999995,217.4));
#971=CARTESIAN_POINT('Ctrl Pts',(4.87205171667363,4.45403878750517,217.4));
#972=CARTESIAN_POINT('Ctrl Pts',(5.86234776736918,4.96856861447527,217.697806947609));
#973=CARTESIAN_POINT('Ctrl Pts',(7.92994550071316,5.64364790932511,218.470358772594));
#974=CARTESIAN_POINT('Ctrl Pts',(9.00491167388905,5.79999999999995,218.95498297184));
#975=CARTESIAN_POINT('Ctrl Pts',(10.,5.79999999999995,219.4));
#976=CARTESIAN_POINT('Origin',(-10.,-4.2000000000001,217.4));
#977=CARTESIAN_POINT('',(-20.,-4.20000000000005,217.4));
#978=CARTESIAN_POINT('Origin',(-30.,-4.20000000000005,217.4));
#979=CARTESIAN_POINT('',(0.,-4.20000000000005,217.4));
#980=CARTESIAN_POINT('Origin',(-10.,-4.20000000000005,217.4));
#981=CARTESIAN_POINT('Origin',(10.,-4.20000000000005,217.4));
#982=CARTESIAN_POINT('',(-12.75,-4.20000000000005,217.4));
#983=CARTESIAN_POINT('Origin',(-10.,-4.20000000000005,217.4));
#984=CARTESIAN_POINT('Origin',(-10.,-4.2000000000001,205.8));
#985=CARTESIAN_POINT('',(0.,-4.20000000000006,205.8));
#986=CARTESIAN_POINT('Origin',(10.,-4.20000000000005,205.8));
#987=CARTESIAN_POINT('',(-20.,-4.20000000000005,205.8));
#988=CARTESIAN_POINT('Origin',(-10.,-4.20000000000005,205.8));
#989=CARTESIAN_POINT('Origin',(-30.,-4.20000000000005,205.8));
#990=CARTESIAN_POINT('',(-12.75,-4.20000000000005,205.8));
#991=CARTESIAN_POINT('Origin',(-10.,-4.20000000000005,205.8));
#992=CARTESIAN_POINT('Origin',(10.,-4.20000000000005,211.6));
#993=CARTESIAN_POINT('',(0.,-4.20000000000005,221.566666666667));
#994=CARTESIAN_POINT('Origin',(-10.,5.79999999999995,197.4));
#995=CARTESIAN_POINT('',(-50.,14.4199999999999,197.4));
#996=CARTESIAN_POINT('',(-50.,15.4199999999999,197.4));
#997=CARTESIAN_POINT('',(30.,14.4199999999999,197.4));
#998=CARTESIAN_POINT('',(-10.,14.4199999999999,197.4));
#999=CARTESIAN_POINT('',(30.,15.4199999999999,197.4));
#1000=CARTESIAN_POINT('Origin',(-10.,15.42,225.8));
#1001=CARTESIAN_POINT('',(30.,14.42,225.8));
#1002=CARTESIAN_POINT('',(30.,15.42,225.8));
#1003=CARTESIAN_POINT('',(-50.,14.42,225.8));
#1004=CARTESIAN_POINT('',(-10.,14.42,225.8));
#1005=CARTESIAN_POINT('',(-50.,15.42,225.8));
#1006=CARTESIAN_POINT('Origin',(-10.,14.42,221.8));
#1007=CARTESIAN_POINT('',(30.,14.42,221.8));
#1008=CARTESIAN_POINT('',(30.,14.42,216.7));
#1009=CARTESIAN_POINT('',(-50.,14.42,221.8));
#1010=CARTESIAN_POINT('',(-10.,14.42,221.8));
#1011=CARTESIAN_POINT('',(-50.,14.42,216.7));
#1012=CARTESIAN_POINT('Origin',(-10.,14.4199999999999,197.4));
#1013=CARTESIAN_POINT('',(30.,14.4199999999999,201.4));
#1014=CARTESIAN_POINT('',(-50.,14.4199999999999,201.4));
#1015=CARTESIAN_POINT('',(-10.,14.4199999999999,201.4));
#1016=CARTESIAN_POINT('',(30.,14.4199999999999,204.5));
#1017=CARTESIAN_POINT('',(-50.,14.4199999999999,204.5));
#1018=CARTESIAN_POINT('Origin',(30.,10.8499999999999,211.6));
#1019=CARTESIAN_POINT('',(30.,10.4999999999999,201.4));
#1020=CARTESIAN_POINT('',(30.,10.4999999999999,201.4));
#1021=CARTESIAN_POINT('',(30.,9.79999999999993,202.1));
#1022=CARTESIAN_POINT('Origin',(30.,10.4999999999999,202.1));
#1023=CARTESIAN_POINT('',(30.,9.79999999999993,207.102842712475));
#1024=CARTESIAN_POINT('',(30.,9.79999999999993,207.102842712475));
#1025=CARTESIAN_POINT('',(30.,11.3721572875253,208.675));
#1026=CARTESIAN_POINT('',(30.,11.3721572875253,208.675));
#1027=CARTESIAN_POINT('',(30.,11.9999999999999,208.675));
#1028=CARTESIAN_POINT('',(30.,11.9999999999999,208.675));
#1029=CARTESIAN_POINT('',(30.,11.9999999999999,206.3));
#1030=CARTESIAN_POINT('',(30.,11.9999999999999,206.3));
#1031=CARTESIAN_POINT('',(30.,13.3564971157455,206.3));
#1032=CARTESIAN_POINT('',(30.,13.3564971157455,206.3));
#1033=CARTESIAN_POINT('',(30.,15.8999999999999,208.843502884254));
#1034=CARTESIAN_POINT('',(30.,15.8999999999999,208.843502884254));
#1035=CARTESIAN_POINT('',(30.,15.8999999999999,214.356497115746));
#1036=CARTESIAN_POINT('',(30.,15.8999999999999,211.472842712475));
#1037=CARTESIAN_POINT('',(30.,13.3564971157455,216.9));
#1038=CARTESIAN_POINT('',(30.,13.3564971157455,216.9));
#1039=CARTESIAN_POINT('',(30.,11.9999999999999,216.9));
#1040=CARTESIAN_POINT('',(30.,11.9999999999999,216.9));
#1041=CARTESIAN_POINT('',(30.,11.9999999999999,214.525));
#1042=CARTESIAN_POINT('',(30.,11.9999999999999,214.525));
#1043=CARTESIAN_POINT('',(30.,11.3721572875253,214.525));
#1044=CARTESIAN_POINT('',(30.,11.3721572875253,214.525));
#1045=CARTESIAN_POINT('',(30.,9.79999999999993,216.097157287525));
#1046=CARTESIAN_POINT('',(30.,9.79999999999993,216.097157287525));
#1047=CARTESIAN_POINT('',(30.,9.7999999999999,221.1));
#1048=CARTESIAN_POINT('',(30.,9.7999999999999,221.1));
#1049=CARTESIAN_POINT('',(30.,10.4999999999999,221.8));
#1050=CARTESIAN_POINT('Origin',(30.,10.4999999999999,221.1));
#1051=CARTESIAN_POINT('',(30.,15.5028427124747,221.8));
#1052=CARTESIAN_POINT('Origin',(-10.,15.4199999999999,201.4));
#1053=CARTESIAN_POINT('',(-50.,10.4999999999999,201.4));
#1054=CARTESIAN_POINT('',(-50.,10.4999999999999,201.4));
#1055=CARTESIAN_POINT('',(-10.,10.4999999999999,201.4));
#1056=CARTESIAN_POINT('Origin',(-40.0000005960464,13.2999999999999,211.6));
#1057=CARTESIAN_POINT('',(-38.3340005960465,15.8999999999999,211.6));
#1058=CARTESIAN_POINT('',(-38.3340005960465,13.2999999999999,211.6));
#1059=CARTESIAN_POINT('Origin',(-40.0000005960464,15.8999999999999,211.6));
#1060=CARTESIAN_POINT('Origin',(20.0000002980232,13.2999999999999,211.6));
#1061=CARTESIAN_POINT('',(21.6660002980232,15.8999999999999,211.6));
#1062=CARTESIAN_POINT('',(21.6660002980232,13.2999999999999,211.6));
#1063=CARTESIAN_POINT('Origin',(20.0000002980232,15.8999999999999,211.6));
#1064=CARTESIAN_POINT('Origin',(-10.,-4.20000000000005,205.866666666667));
#1065=CARTESIAN_POINT('',(-12.75,-4.20000000000005,205.866666666667));
#1066=CARTESIAN_POINT('Origin',(-10.,-4.20000000000005,203.75));
#1067=CARTESIAN_POINT('',(-20.,-4.20000000000005,215.833333333333));
#1068=CARTESIAN_POINT('Origin',(-30.,-4.20000000000005,215.833333333333));
#1069=CARTESIAN_POINT('Origin',(-50.,10.8499999999999,211.6));
#1070=CARTESIAN_POINT('',(-50.,10.4999999999999,221.8));
#1071=CARTESIAN_POINT('',(-50.,15.5028427124747,221.8));
#1072=CARTESIAN_POINT('',(-50.,9.7999999999999,221.1));
#1073=CARTESIAN_POINT('Origin',(-50.,10.4999999999999,221.1));
#1074=CARTESIAN_POINT('',(-50.,9.79999999999993,216.097157287525));
#1075=CARTESIAN_POINT('',(-50.,9.7999999999999,221.1));
#1076=CARTESIAN_POINT('',(-50.,11.3721572875253,214.525));
#1077=CARTESIAN_POINT('',(-50.,9.79999999999993,216.097157287525));
#1078=CARTESIAN_POINT('',(-50.,11.9999999999999,214.525));
#1079=CARTESIAN_POINT('',(-50.,11.3721572875253,214.525));
#1080=CARTESIAN_POINT('',(-50.,11.9999999999999,216.9));
#1081=CARTESIAN_POINT('',(-50.,11.9999999999999,214.525));
#1082=CARTESIAN_POINT('',(-50.,13.3564971157455,216.9));
#1083=CARTESIAN_POINT('',(-50.,11.9999999999999,216.9));
#1084=CARTESIAN_POINT('',(-50.,15.8999999999999,214.356497115746));
#1085=CARTESIAN_POINT('',(-50.,13.3564971157455,216.9));
#1086=CARTESIAN_POINT('',(-50.,15.8999999999999,208.843502884254));
#1087=CARTESIAN_POINT('',(-50.,15.8999999999999,211.472842712475));
#1088=CARTESIAN_POINT('',(-50.,13.3564971157455,206.3));
#1089=CARTESIAN_POINT('',(-50.,15.8999999999999,208.843502884254));
#1090=CARTESIAN_POINT('',(-50.,11.9999999999999,206.3));
#1091=CARTESIAN_POINT('',(-50.,13.3564971157455,206.3));
#1092=CARTESIAN_POINT('',(-50.,11.9999999999999,208.675));
#1093=CARTESIAN_POINT('',(-50.,11.9999999999999,206.3));
#1094=CARTESIAN_POINT('',(-50.,11.3721572875253,208.675));
#1095=CARTESIAN_POINT('',(-50.,11.9999999999999,208.675));
#1096=CARTESIAN_POINT('',(-50.,9.79999999999993,207.102842712475));
#1097=CARTESIAN_POINT('',(-50.,11.3721572875253,208.675));
#1098=CARTESIAN_POINT('',(-50.,9.79999999999993,202.1));
#1099=CARTESIAN_POINT('',(-50.,9.79999999999993,207.102842712475));
#1100=CARTESIAN_POINT('Origin',(-50.,10.4999999999999,202.1));
#1101=CARTESIAN_POINT('Origin',(-10.,10.4999999999999,221.8));
#1102=CARTESIAN_POINT('',(-10.,10.4999999999999,221.8));
#1103=CARTESIAN_POINT('Origin',(-10.,10.4999999999999,221.1));
#1104=CARTESIAN_POINT('',(-10.,9.7999999999999,221.1));
#1105=CARTESIAN_POINT('Origin',(-10.,9.79999999999993,216.097157287525));
#1106=CARTESIAN_POINT('',(-10.,9.79999999999993,216.097157287525));
#1107=CARTESIAN_POINT('Origin',(-10.,11.3721572875253,214.525));
#1108=CARTESIAN_POINT('',(-10.,11.3721572875253,214.525));
#1109=CARTESIAN_POINT('Origin',(-10.,11.9999999999999,214.525));
#1110=CARTESIAN_POINT('',(-10.,11.9999999999999,214.525));
#1111=CARTESIAN_POINT('Origin',(-10.,11.9999999999999,216.9));
#1112=CARTESIAN_POINT('',(-10.,11.9999999999999,216.9));
#1113=CARTESIAN_POINT('Origin',(-10.,13.3564971157455,216.9));
#1114=CARTESIAN_POINT('',(-10.,13.3564971157455,216.9));
#1115=CARTESIAN_POINT('Origin',(-10.,15.8999999999999,214.356497115746));
#1116=CARTESIAN_POINT('',(-10.,15.8999999999999,214.356497115746));
#1117=CARTESIAN_POINT('Origin',(-10.,15.8999999999999,208.843502884254));
#1118=CARTESIAN_POINT('',(-10.,15.8999999999999,208.843502884254));
#1119=CARTESIAN_POINT('Origin',(-10.,13.3564971157455,206.3));
#1120=CARTESIAN_POINT('',(-10.,13.3564971157455,206.3));
#1121=CARTESIAN_POINT('Origin',(-10.,11.9999999999999,206.3));
#1122=CARTESIAN_POINT('',(-10.,11.9999999999999,206.3));
#1123=CARTESIAN_POINT('Origin',(-10.,11.9999999999999,208.675));
#1124=CARTESIAN_POINT('',(-10.,11.9999999999999,208.675));
#1125=CARTESIAN_POINT('Origin',(-10.,11.3721572875253,208.675));
#1126=CARTESIAN_POINT('',(-10.,11.3721572875253,208.675));
#1127=CARTESIAN_POINT('Origin',(-10.,9.79999999999993,207.102842712475));
#1128=CARTESIAN_POINT('',(-10.,9.79999999999993,207.102842712475));
#1129=CARTESIAN_POINT('Origin',(-10.,9.79999999999993,202.1));
#1130=CARTESIAN_POINT('',(-10.,9.79999999999993,202.1));
#1131=CARTESIAN_POINT('Origin',(-10.,10.4999999999999,202.1));
#1132=CARTESIAN_POINT('',(0.,0.,0.));
#1133=UNCERTAINTY_MEASURE_WITH_UNIT(LENGTH_MEASURE(0.01),#1139,
'DISTANCE_ACCURACY_VALUE',
'Maximum model space distance between geometric entities at asserted c
onnectivities');
#1134=UNCERTAINTY_MEASURE_WITH_UNIT(LENGTH_MEASURE(0.01),#1139,
'DISTANCE_ACCURACY_VALUE',
'Maximum model space distance between geometric entities at asserted c
onnectivities');
#1135=UNCERTAINTY_MEASURE_WITH_UNIT(LENGTH_MEASURE(0.01),#1139,
'DISTANCE_ACCURACY_VALUE',
'Maximum model space distance between geometric entities at asserted c
onnectivities');
#1136=(
GEOMETRIC_REPRESENTATION_CONTEXT(3)
GLOBAL_UNCERTAINTY_ASSIGNED_CONTEXT((#1133))
GLOBAL_UNIT_ASSIGNED_CONTEXT((#1139,#1141,#1142))
REPRESENTATION_CONTEXT('','3D')
);
#1137=(
GEOMETRIC_REPRESENTATION_CONTEXT(3)
GLOBAL_UNCERTAINTY_ASSIGNED_CONTEXT((#1134))
GLOBAL_UNIT_ASSIGNED_CONTEXT((#1139,#1141,#1142))
REPRESENTATION_CONTEXT('','3D')
);
#1138=(
GEOMETRIC_REPRESENTATION_CONTEXT(3)
GLOBAL_UNCERTAINTY_ASSIGNED_CONTEXT((#1135))
GLOBAL_UNIT_ASSIGNED_CONTEXT((#1139,#1141,#1142))
REPRESENTATION_CONTEXT('','3D')
);
#1139=(
LENGTH_UNIT()
NAMED_UNIT(*)
SI_UNIT(.MILLI.,.METRE.)
);
#1140=(
LENGTH_UNIT()
NAMED_UNIT(*)
SI_UNIT($,.METRE.)
);
#1141=(
NAMED_UNIT(*)
PLANE_ANGLE_UNIT()
SI_UNIT($,.RADIAN.)
);
#1142=(
NAMED_UNIT(*)
SI_UNIT($,.STERADIAN.)
SOLID_ANGLE_UNIT()
);
#1143=SHAPE_DEFINITION_REPRESENTATION(#1145,#1148);
#1144=SHAPE_DEFINITION_REPRESENTATION(#1146,#1149);
#1145=PRODUCT_DEFINITION_SHAPE('',$,#1151);
#1146=PRODUCT_DEFINITION_SHAPE('',$,#1152);
#1147=PRODUCT_DEFINITION_SHAPE($,$,#14);
#1148=SHAPE_REPRESENTATION('',(#689,#741),#1136);
#1149=SHAPE_REPRESENTATION('',(#690),#1137);
#1150=PRODUCT_DEFINITION_CONTEXT('part definition',#1158,'design');
#1151=PRODUCT_DEFINITION('Soporte perfil','Soporte perfil v5',#1153,#1150);
#1152=PRODUCT_DEFINITION('Soporte perfil_1','Soporte perfil',#1154,#1150);
#1153=PRODUCT_DEFINITION_FORMATION('',$,#1160);
#1154=PRODUCT_DEFINITION_FORMATION('',$,#1161);
#1155=PRODUCT_RELATED_PRODUCT_CATEGORY('Soporte perfil v5',
'Soporte perfil v5',(#1160));
#1156=PRODUCT_RELATED_PRODUCT_CATEGORY('Soporte perfil',
'Soporte perfil',(#1161));
#1157=APPLICATION_PROTOCOL_DEFINITION('international standard',
'automotive_design',2009,#1158);
#1158=APPLICATION_CONTEXT(
'Core Data for Automotive Mechanical Design Process');
#1159=PRODUCT_CONTEXT('part definition',#1158,'mechanical');
#1160=PRODUCT('Soporte perfil','Soporte perfil v5',$,(#1159));
#1161=PRODUCT('Soporte perfil_1','Soporte perfil',$,(#1159));
#1162=PRESENTATION_STYLE_ASSIGNMENT((#1164));
#1163=PRESENTATION_STYLE_ASSIGNMENT((#1165));
#1164=SURFACE_STYLE_USAGE(.BOTH.,#1166);
#1165=SURFACE_STYLE_USAGE(.BOTH.,#1167);
#1166=SURFACE_SIDE_STYLE('',(#1168));
#1167=SURFACE_SIDE_STYLE('',(#1169));
#1168=SURFACE_STYLE_FILL_AREA(#1170);
#1169=SURFACE_STYLE_FILL_AREA(#1171);
#1170=FILL_AREA_STYLE('Acero - Satinado',(#1172));
#1171=FILL_AREA_STYLE('Pl\X\E1stico - Mate (amarillo)',(#1173));
#1172=FILL_AREA_STYLE_COLOUR('Acero - Satinado',#1174);
#1173=FILL_AREA_STYLE_COLOUR('Pl\X\E1stico - Mate (amarillo)',#1175);
#1174=COLOUR_RGB('Acero - Satinado',0.627450980392157,0.627450980392157,
0.627450980392157);
#1175=COLOUR_RGB('Pl\X\E1stico - Mate (amarillo)',0.909803921568627,0.67843137254902,
0.137254901960784);
ENDSEC;
END-ISO-10303-21;
