ISO-10303-21;
HEADER;
/* Generated by software containing ST-Developer
 * from STEP Tools, Inc. (www.steptools.com) 
 */

FILE_DESCRIPTION(
/* description */ (''),
/* implementation_level */ '2;1');

FILE_NAME(
/* name */ 'Caja Receptora Simple.step',
/* time_stamp */ '2026-06-11T13:02:05-04:00',
/* author */ (''),
/* organization */ (''),
/* preprocessor_version */ 'ST-DEVELOPER v20.1',
/* originating_system */ 'Autodesk Translation Framework v15.8.0.0',
/* authorisation */ '');

FILE_SCHEMA (('AUTOMOTIVE_DESIGN { 1 0 10303 214 3 1 1 }'));
ENDSEC;

DATA;
#10=MECHANICAL_DESIGN_GEOMETRIC_PRESENTATION_REPRESENTATION('',(#13),#903);
#11=SHAPE_REPRESENTATION_RELATIONSHIP('SRR','None',#910,#12);
#12=ADVANCED_BREP_SHAPE_REPRESENTATION('',(#14),#902);
#13=STYLED_ITEM('',(#920),#14);
#14=MANIFOLD_SOLID_BREP('Caja Receptora',#545);
#15=PLANE('',#562);
#16=PLANE('',#563);
#17=PLANE('',#571);
#18=PLANE('',#574);
#19=PLANE('',#575);
#20=PLANE('',#576);
#21=PLANE('',#577);
#22=PLANE('',#578);
#23=PLANE('',#579);
#24=PLANE('',#580);
#25=PLANE('',#581);
#26=PLANE('',#582);
#27=PLANE('',#586);
#28=PLANE('',#590);
#29=PLANE('',#591);
#30=PLANE('',#592);
#31=PLANE('',#593);
#32=PLANE('',#594);
#33=PLANE('',#595);
#34=PLANE('',#596);
#35=PLANE('',#597);
#36=PLANE('',#598);
#37=FACE_OUTER_BOUND('',#65,.T.);
#38=FACE_OUTER_BOUND('',#66,.T.);
#39=FACE_OUTER_BOUND('',#67,.T.);
#40=FACE_OUTER_BOUND('',#68,.T.);
#41=FACE_OUTER_BOUND('',#69,.T.);
#42=FACE_OUTER_BOUND('',#70,.T.);
#43=FACE_OUTER_BOUND('',#71,.T.);
#44=FACE_OUTER_BOUND('',#72,.T.);
#45=FACE_OUTER_BOUND('',#73,.T.);
#46=FACE_OUTER_BOUND('',#74,.T.);
#47=FACE_OUTER_BOUND('',#75,.T.);
#48=FACE_OUTER_BOUND('',#76,.T.);
#49=FACE_OUTER_BOUND('',#77,.T.);
#50=FACE_OUTER_BOUND('',#78,.T.);
#51=FACE_OUTER_BOUND('',#79,.T.);
#52=FACE_OUTER_BOUND('',#80,.T.);
#53=FACE_OUTER_BOUND('',#81,.T.);
#54=FACE_OUTER_BOUND('',#82,.T.);
#55=FACE_OUTER_BOUND('',#83,.T.);
#56=FACE_OUTER_BOUND('',#84,.T.);
#57=FACE_OUTER_BOUND('',#85,.T.);
#58=FACE_OUTER_BOUND('',#86,.T.);
#59=FACE_OUTER_BOUND('',#87,.T.);
#60=FACE_OUTER_BOUND('',#88,.T.);
#61=FACE_OUTER_BOUND('',#89,.T.);
#62=FACE_OUTER_BOUND('',#90,.T.);
#63=FACE_OUTER_BOUND('',#91,.T.);
#64=FACE_OUTER_BOUND('',#92,.T.);
#65=EDGE_LOOP('',(#359,#360,#361,#362));
#66=EDGE_LOOP('',(#363,#364,#365,#366));
#67=EDGE_LOOP('',(#367,#368,#369,#370,#371,#372,#373,#374,#375,#376,#377,
#378,#379,#380,#381,#382,#383,#384,#385,#386));
#68=EDGE_LOOP('',(#387,#388,#389,#390));
#69=EDGE_LOOP('',(#391,#392,#393,#394));
#70=EDGE_LOOP('',(#395,#396,#397,#398));
#71=EDGE_LOOP('',(#399,#400,#401,#402));
#72=EDGE_LOOP('',(#403,#404,#405,#406));
#73=EDGE_LOOP('',(#407,#408,#409,#410));
#74=EDGE_LOOP('',(#411,#412,#413,#414));
#75=EDGE_LOOP('',(#415,#416,#417,#418));
#76=EDGE_LOOP('',(#419,#420,#421,#422));
#77=EDGE_LOOP('',(#423,#424,#425,#426));
#78=EDGE_LOOP('',(#427,#428,#429,#430));
#79=EDGE_LOOP('',(#431,#432,#433,#434));
#80=EDGE_LOOP('',(#435,#436,#437,#438));
#81=EDGE_LOOP('',(#439,#440,#441,#442));
#82=EDGE_LOOP('',(#443,#444,#445,#446));
#83=EDGE_LOOP('',(#447,#448,#449,#450));
#84=EDGE_LOOP('',(#451,#452,#453,#454,#455,#456,#457,#458));
#85=EDGE_LOOP('',(#459,#460,#461,#462));
#86=EDGE_LOOP('',(#463,#464,#465,#466));
#87=EDGE_LOOP('',(#467,#468,#469,#470,#471));
#88=EDGE_LOOP('',(#472,#473,#474,#475,#476));
#89=EDGE_LOOP('',(#477,#478,#479,#480,#481,#482));
#90=EDGE_LOOP('',(#483,#484,#485,#486,#487,#488));
#91=EDGE_LOOP('',(#489,#490,#491,#492));
#92=EDGE_LOOP('',(#493,#494,#495,#496,#497,#498,#499,#500,#501,#502,#503,
#504,#505,#506,#507,#508,#509,#510));
#93=LINE('',#751,#157);
#94=LINE('',#754,#158);
#95=LINE('',#757,#159);
#96=LINE('',#759,#160);
#97=LINE('',#760,#161);
#98=LINE('',#763,#162);
#99=LINE('',#765,#163);
#100=LINE('',#767,#164);
#101=LINE('',#769,#165);
#102=LINE('',#771,#166);
#103=LINE('',#775,#167);
#104=LINE('',#777,#168);
#105=LINE('',#779,#169);
#106=LINE('',#781,#170);
#107=LINE('',#783,#171);
#108=LINE('',#787,#172);
#109=LINE('',#791,#173);
#110=LINE('',#793,#174);
#111=LINE('',#795,#175);
#112=LINE('',#796,#176);
#113=LINE('',#801,#177);
#114=LINE('',#802,#178);
#115=LINE('',#805,#179);
#116=LINE('',#808,#180);
#117=LINE('',#811,#181);
#118=LINE('',#812,#182);
#119=LINE('',#817,#183);
#120=LINE('',#818,#184);
#121=LINE('',#821,#185);
#122=LINE('',#822,#186);
#123=LINE('',#825,#187);
#124=LINE('',#826,#188);
#125=LINE('',#829,#189);
#126=LINE('',#830,#190);
#127=LINE('',#833,#191);
#128=LINE('',#834,#192);
#129=LINE('',#837,#193);
#130=LINE('',#838,#194);
#131=LINE('',#840,#195);
#132=LINE('',#842,#196);
#133=LINE('',#845,#197);
#134=LINE('',#846,#198);
#135=LINE('',#848,#199);
#136=LINE('',#853,#200);
#137=LINE('',#857,#201);
#138=LINE('',#859,#202);
#139=LINE('',#860,#203);
#140=LINE('',#865,#204);
#141=LINE('',#869,#205);
#142=LINE('',#871,#206);
#143=LINE('',#872,#207);
#144=LINE('',#874,#208);
#145=LINE('',#876,#209);
#146=LINE('',#877,#210);
#147=LINE('',#880,#211);
#148=LINE('',#882,#212);
#149=LINE('',#883,#213);
#150=LINE('',#885,#214);
#151=LINE('',#886,#215);
#152=LINE('',#891,#216);
#153=LINE('',#892,#217);
#154=LINE('',#895,#218);
#155=LINE('',#896,#219);
#156=LINE('',#898,#220);
#157=VECTOR('',#605,10.);
#158=VECTOR('',#608,10.);
#159=VECTOR('',#611,10.);
#160=VECTOR('',#612,10.);
#161=VECTOR('',#613,10.);
#162=VECTOR('',#616,10.);
#163=VECTOR('',#617,10.);
#164=VECTOR('',#618,10.);
#165=VECTOR('',#619,10.);
#166=VECTOR('',#620,10.);
#167=VECTOR('',#623,10.);
#168=VECTOR('',#624,10.);
#169=VECTOR('',#625,10.);
#170=VECTOR('',#626,10.);
#171=VECTOR('',#627,10.);
#172=VECTOR('',#630,10.);
#173=VECTOR('',#633,10.);
#174=VECTOR('',#634,10.);
#175=VECTOR('',#635,10.);
#176=VECTOR('',#636,10.);
#177=VECTOR('',#641,10.);
#178=VECTOR('',#642,10.);
#179=VECTOR('',#645,10.);
#180=VECTOR('',#648,10.);
#181=VECTOR('',#651,10.);
#182=VECTOR('',#652,10.);
#183=VECTOR('',#657,10.);
#184=VECTOR('',#658,10.);
#185=VECTOR('',#661,10.);
#186=VECTOR('',#662,10.);
#187=VECTOR('',#665,10.);
#188=VECTOR('',#666,10.);
#189=VECTOR('',#669,10.);
#190=VECTOR('',#670,10.);
#191=VECTOR('',#673,10.);
#192=VECTOR('',#674,10.);
#193=VECTOR('',#677,10.);
#194=VECTOR('',#678,10.);
#195=VECTOR('',#681,10.);
#196=VECTOR('',#684,10.);
#197=VECTOR('',#687,10.);
#198=VECTOR('',#688,10.);
#199=VECTOR('',#691,10.);
#200=VECTOR('',#696,35.);
#201=VECTOR('',#701,10.);
#202=VECTOR('',#702,10.);
#203=VECTOR('',#703,10.);
#204=VECTOR('',#708,35.);
#205=VECTOR('',#713,10.);
#206=VECTOR('',#714,10.);
#207=VECTOR('',#715,10.);
#208=VECTOR('',#716,10.);
#209=VECTOR('',#717,10.);
#210=VECTOR('',#718,10.);
#211=VECTOR('',#721,10.);
#212=VECTOR('',#722,10.);
#213=VECTOR('',#723,10.);
#214=VECTOR('',#726,10.);
#215=VECTOR('',#727,10.);
#216=VECTOR('',#734,10.);
#217=VECTOR('',#735,10.);
#218=VECTOR('',#738,10.);
#219=VECTOR('',#739,10.);
#220=VECTOR('',#742,10.);
#221=CIRCLE('',#560,3.);
#222=CIRCLE('',#561,3.);
#223=CIRCLE('',#564,3.);
#224=CIRCLE('',#565,3.);
#225=CIRCLE('',#566,3.);
#226=CIRCLE('',#568,3.);
#227=CIRCLE('',#570,3.);
#228=CIRCLE('',#573,3.);
#229=CIRCLE('',#584,35.);
#230=CIRCLE('',#585,35.);
#231=CIRCLE('',#588,35.);
#232=CIRCLE('',#589,35.);
#233=VERTEX_POINT('',#747);
#234=VERTEX_POINT('',#748);
#235=VERTEX_POINT('',#750);
#236=VERTEX_POINT('',#752);
#237=VERTEX_POINT('',#756);
#238=VERTEX_POINT('',#758);
#239=VERTEX_POINT('',#762);
#240=VERTEX_POINT('',#764);
#241=VERTEX_POINT('',#766);
#242=VERTEX_POINT('',#768);
#243=VERTEX_POINT('',#770);
#244=VERTEX_POINT('',#772);
#245=VERTEX_POINT('',#774);
#246=VERTEX_POINT('',#776);
#247=VERTEX_POINT('',#778);
#248=VERTEX_POINT('',#780);
#249=VERTEX_POINT('',#782);
#250=VERTEX_POINT('',#784);
#251=VERTEX_POINT('',#786);
#252=VERTEX_POINT('',#788);
#253=VERTEX_POINT('',#790);
#254=VERTEX_POINT('',#792);
#255=VERTEX_POINT('',#794);
#256=VERTEX_POINT('',#798);
#257=VERTEX_POINT('',#799);
#258=VERTEX_POINT('',#804);
#259=VERTEX_POINT('',#806);
#260=VERTEX_POINT('',#810);
#261=VERTEX_POINT('',#814);
#262=VERTEX_POINT('',#815);
#263=VERTEX_POINT('',#820);
#264=VERTEX_POINT('',#824);
#265=VERTEX_POINT('',#828);
#266=VERTEX_POINT('',#832);
#267=VERTEX_POINT('',#836);
#268=VERTEX_POINT('',#844);
#269=VERTEX_POINT('',#850);
#270=VERTEX_POINT('',#852);
#271=VERTEX_POINT('',#856);
#272=VERTEX_POINT('',#858);
#273=VERTEX_POINT('',#862);
#274=VERTEX_POINT('',#864);
#275=VERTEX_POINT('',#868);
#276=VERTEX_POINT('',#870);
#277=VERTEX_POINT('',#873);
#278=VERTEX_POINT('',#875);
#279=VERTEX_POINT('',#879);
#280=VERTEX_POINT('',#881);
#281=VERTEX_POINT('',#890);
#282=VERTEX_POINT('',#894);
#283=EDGE_CURVE('',#233,#234,#221,.T.);
#284=EDGE_CURVE('',#234,#235,#93,.T.);
#285=EDGE_CURVE('',#235,#236,#222,.T.);
#286=EDGE_CURVE('',#236,#233,#94,.T.);
#287=EDGE_CURVE('',#234,#237,#95,.T.);
#288=EDGE_CURVE('',#237,#238,#96,.T.);
#289=EDGE_CURVE('',#238,#235,#97,.T.);
#290=EDGE_CURVE('',#239,#233,#98,.T.);
#291=EDGE_CURVE('',#239,#240,#99,.T.);
#292=EDGE_CURVE('',#240,#241,#100,.T.);
#293=EDGE_CURVE('',#241,#242,#101,.T.);
#294=EDGE_CURVE('',#242,#243,#102,.T.);
#295=EDGE_CURVE('',#244,#243,#223,.T.);
#296=EDGE_CURVE('',#245,#244,#103,.T.);
#297=EDGE_CURVE('',#246,#245,#104,.T.);
#298=EDGE_CURVE('',#246,#247,#105,.T.);
#299=EDGE_CURVE('',#247,#248,#106,.T.);
#300=EDGE_CURVE('',#249,#248,#107,.T.);
#301=EDGE_CURVE('',#250,#249,#224,.T.);
#302=EDGE_CURVE('',#250,#251,#108,.T.);
#303=EDGE_CURVE('',#252,#251,#225,.T.);
#304=EDGE_CURVE('',#253,#252,#109,.T.);
#305=EDGE_CURVE('',#254,#253,#110,.T.);
#306=EDGE_CURVE('',#254,#255,#111,.T.);
#307=EDGE_CURVE('',#255,#237,#112,.T.);
#308=EDGE_CURVE('',#256,#257,#226,.T.);
#309=EDGE_CURVE('',#257,#252,#113,.T.);
#310=EDGE_CURVE('',#256,#251,#114,.T.);
#311=EDGE_CURVE('',#249,#258,#115,.T.);
#312=EDGE_CURVE('',#258,#259,#227,.T.);
#313=EDGE_CURVE('',#250,#259,#116,.T.);
#314=EDGE_CURVE('',#248,#260,#117,.T.);
#315=EDGE_CURVE('',#260,#258,#118,.T.);
#316=EDGE_CURVE('',#261,#262,#228,.T.);
#317=EDGE_CURVE('',#262,#244,#119,.T.);
#318=EDGE_CURVE('',#243,#261,#120,.T.);
#319=EDGE_CURVE('',#262,#263,#121,.T.);
#320=EDGE_CURVE('',#263,#245,#122,.T.);
#321=EDGE_CURVE('',#264,#255,#123,.T.);
#322=EDGE_CURVE('',#264,#238,#124,.T.);
#323=EDGE_CURVE('',#254,#265,#125,.T.);
#324=EDGE_CURVE('',#264,#265,#126,.T.);
#325=EDGE_CURVE('',#246,#266,#127,.T.);
#326=EDGE_CURVE('',#266,#263,#128,.T.);
#327=EDGE_CURVE('',#267,#253,#129,.T.);
#328=EDGE_CURVE('',#265,#267,#130,.T.);
#329=EDGE_CURVE('',#257,#267,#131,.T.);
#330=EDGE_CURVE('',#256,#259,#132,.T.);
#331=EDGE_CURVE('',#268,#247,#133,.T.);
#332=EDGE_CURVE('',#268,#260,#134,.T.);
#333=EDGE_CURVE('',#268,#266,#135,.T.);
#334=EDGE_CURVE('',#241,#269,#229,.T.);
#335=EDGE_CURVE('',#269,#270,#136,.T.);
#336=EDGE_CURVE('',#242,#270,#230,.F.);
#337=EDGE_CURVE('',#271,#241,#137,.T.);
#338=EDGE_CURVE('',#272,#240,#138,.T.);
#339=EDGE_CURVE('',#272,#271,#139,.T.);
#340=EDGE_CURVE('',#239,#273,#231,.T.);
#341=EDGE_CURVE('',#273,#274,#140,.T.);
#342=EDGE_CURVE('',#240,#274,#232,.F.);
#343=EDGE_CURVE('',#269,#275,#141,.T.);
#344=EDGE_CURVE('',#275,#276,#142,.T.);
#345=EDGE_CURVE('',#276,#274,#143,.T.);
#346=EDGE_CURVE('',#273,#277,#144,.T.);
#347=EDGE_CURVE('',#277,#278,#145,.T.);
#348=EDGE_CURVE('',#278,#270,#146,.T.);
#349=EDGE_CURVE('',#279,#272,#147,.T.);
#350=EDGE_CURVE('',#280,#279,#148,.T.);
#351=EDGE_CURVE('',#271,#280,#149,.T.);
#352=EDGE_CURVE('',#279,#276,#150,.T.);
#353=EDGE_CURVE('',#280,#275,#151,.T.);
#354=EDGE_CURVE('',#281,#236,#152,.T.);
#355=EDGE_CURVE('',#281,#277,#153,.T.);
#356=EDGE_CURVE('',#282,#278,#154,.T.);
#357=EDGE_CURVE('',#261,#282,#155,.T.);
#358=EDGE_CURVE('',#282,#281,#156,.T.);
#359=ORIENTED_EDGE('',*,*,#283,.T.);
#360=ORIENTED_EDGE('',*,*,#284,.T.);
#361=ORIENTED_EDGE('',*,*,#285,.T.);
#362=ORIENTED_EDGE('',*,*,#286,.T.);
#363=ORIENTED_EDGE('',*,*,#284,.F.);
#364=ORIENTED_EDGE('',*,*,#287,.T.);
#365=ORIENTED_EDGE('',*,*,#288,.T.);
#366=ORIENTED_EDGE('',*,*,#289,.T.);
#367=ORIENTED_EDGE('',*,*,#283,.F.);
#368=ORIENTED_EDGE('',*,*,#290,.F.);
#369=ORIENTED_EDGE('',*,*,#291,.T.);
#370=ORIENTED_EDGE('',*,*,#292,.T.);
#371=ORIENTED_EDGE('',*,*,#293,.T.);
#372=ORIENTED_EDGE('',*,*,#294,.T.);
#373=ORIENTED_EDGE('',*,*,#295,.F.);
#374=ORIENTED_EDGE('',*,*,#296,.F.);
#375=ORIENTED_EDGE('',*,*,#297,.F.);
#376=ORIENTED_EDGE('',*,*,#298,.T.);
#377=ORIENTED_EDGE('',*,*,#299,.T.);
#378=ORIENTED_EDGE('',*,*,#300,.F.);
#379=ORIENTED_EDGE('',*,*,#301,.F.);
#380=ORIENTED_EDGE('',*,*,#302,.T.);
#381=ORIENTED_EDGE('',*,*,#303,.F.);
#382=ORIENTED_EDGE('',*,*,#304,.F.);
#383=ORIENTED_EDGE('',*,*,#305,.F.);
#384=ORIENTED_EDGE('',*,*,#306,.T.);
#385=ORIENTED_EDGE('',*,*,#307,.T.);
#386=ORIENTED_EDGE('',*,*,#287,.F.);
#387=ORIENTED_EDGE('',*,*,#308,.T.);
#388=ORIENTED_EDGE('',*,*,#309,.T.);
#389=ORIENTED_EDGE('',*,*,#303,.T.);
#390=ORIENTED_EDGE('',*,*,#310,.F.);
#391=ORIENTED_EDGE('',*,*,#301,.T.);
#392=ORIENTED_EDGE('',*,*,#311,.T.);
#393=ORIENTED_EDGE('',*,*,#312,.T.);
#394=ORIENTED_EDGE('',*,*,#313,.F.);
#395=ORIENTED_EDGE('',*,*,#311,.F.);
#396=ORIENTED_EDGE('',*,*,#300,.T.);
#397=ORIENTED_EDGE('',*,*,#314,.T.);
#398=ORIENTED_EDGE('',*,*,#315,.T.);
#399=ORIENTED_EDGE('',*,*,#316,.T.);
#400=ORIENTED_EDGE('',*,*,#317,.T.);
#401=ORIENTED_EDGE('',*,*,#295,.T.);
#402=ORIENTED_EDGE('',*,*,#318,.T.);
#403=ORIENTED_EDGE('',*,*,#317,.F.);
#404=ORIENTED_EDGE('',*,*,#319,.T.);
#405=ORIENTED_EDGE('',*,*,#320,.T.);
#406=ORIENTED_EDGE('',*,*,#296,.T.);
#407=ORIENTED_EDGE('',*,*,#321,.F.);
#408=ORIENTED_EDGE('',*,*,#322,.T.);
#409=ORIENTED_EDGE('',*,*,#288,.F.);
#410=ORIENTED_EDGE('',*,*,#307,.F.);
#411=ORIENTED_EDGE('',*,*,#321,.T.);
#412=ORIENTED_EDGE('',*,*,#306,.F.);
#413=ORIENTED_EDGE('',*,*,#323,.T.);
#414=ORIENTED_EDGE('',*,*,#324,.F.);
#415=ORIENTED_EDGE('',*,*,#325,.F.);
#416=ORIENTED_EDGE('',*,*,#297,.T.);
#417=ORIENTED_EDGE('',*,*,#320,.F.);
#418=ORIENTED_EDGE('',*,*,#326,.F.);
#419=ORIENTED_EDGE('',*,*,#323,.F.);
#420=ORIENTED_EDGE('',*,*,#305,.T.);
#421=ORIENTED_EDGE('',*,*,#327,.F.);
#422=ORIENTED_EDGE('',*,*,#328,.F.);
#423=ORIENTED_EDGE('',*,*,#309,.F.);
#424=ORIENTED_EDGE('',*,*,#329,.T.);
#425=ORIENTED_EDGE('',*,*,#327,.T.);
#426=ORIENTED_EDGE('',*,*,#304,.T.);
#427=ORIENTED_EDGE('',*,*,#310,.T.);
#428=ORIENTED_EDGE('',*,*,#302,.F.);
#429=ORIENTED_EDGE('',*,*,#313,.T.);
#430=ORIENTED_EDGE('',*,*,#330,.F.);
#431=ORIENTED_EDGE('',*,*,#331,.F.);
#432=ORIENTED_EDGE('',*,*,#332,.T.);
#433=ORIENTED_EDGE('',*,*,#314,.F.);
#434=ORIENTED_EDGE('',*,*,#299,.F.);
#435=ORIENTED_EDGE('',*,*,#325,.T.);
#436=ORIENTED_EDGE('',*,*,#333,.F.);
#437=ORIENTED_EDGE('',*,*,#331,.T.);
#438=ORIENTED_EDGE('',*,*,#298,.F.);
#439=ORIENTED_EDGE('',*,*,#334,.T.);
#440=ORIENTED_EDGE('',*,*,#335,.T.);
#441=ORIENTED_EDGE('',*,*,#336,.F.);
#442=ORIENTED_EDGE('',*,*,#293,.F.);
#443=ORIENTED_EDGE('',*,*,#337,.T.);
#444=ORIENTED_EDGE('',*,*,#292,.F.);
#445=ORIENTED_EDGE('',*,*,#338,.F.);
#446=ORIENTED_EDGE('',*,*,#339,.T.);
#447=ORIENTED_EDGE('',*,*,#340,.T.);
#448=ORIENTED_EDGE('',*,*,#341,.T.);
#449=ORIENTED_EDGE('',*,*,#342,.F.);
#450=ORIENTED_EDGE('',*,*,#291,.F.);
#451=ORIENTED_EDGE('',*,*,#335,.F.);
#452=ORIENTED_EDGE('',*,*,#343,.T.);
#453=ORIENTED_EDGE('',*,*,#344,.T.);
#454=ORIENTED_EDGE('',*,*,#345,.T.);
#455=ORIENTED_EDGE('',*,*,#341,.F.);
#456=ORIENTED_EDGE('',*,*,#346,.T.);
#457=ORIENTED_EDGE('',*,*,#347,.T.);
#458=ORIENTED_EDGE('',*,*,#348,.T.);
#459=ORIENTED_EDGE('',*,*,#339,.F.);
#460=ORIENTED_EDGE('',*,*,#349,.F.);
#461=ORIENTED_EDGE('',*,*,#350,.F.);
#462=ORIENTED_EDGE('',*,*,#351,.F.);
#463=ORIENTED_EDGE('',*,*,#350,.T.);
#464=ORIENTED_EDGE('',*,*,#352,.T.);
#465=ORIENTED_EDGE('',*,*,#344,.F.);
#466=ORIENTED_EDGE('',*,*,#353,.F.);
#467=ORIENTED_EDGE('',*,*,#349,.T.);
#468=ORIENTED_EDGE('',*,*,#338,.T.);
#469=ORIENTED_EDGE('',*,*,#342,.T.);
#470=ORIENTED_EDGE('',*,*,#345,.F.);
#471=ORIENTED_EDGE('',*,*,#352,.F.);
#472=ORIENTED_EDGE('',*,*,#351,.T.);
#473=ORIENTED_EDGE('',*,*,#353,.T.);
#474=ORIENTED_EDGE('',*,*,#343,.F.);
#475=ORIENTED_EDGE('',*,*,#334,.F.);
#476=ORIENTED_EDGE('',*,*,#337,.F.);
#477=ORIENTED_EDGE('',*,*,#286,.F.);
#478=ORIENTED_EDGE('',*,*,#354,.F.);
#479=ORIENTED_EDGE('',*,*,#355,.T.);
#480=ORIENTED_EDGE('',*,*,#346,.F.);
#481=ORIENTED_EDGE('',*,*,#340,.F.);
#482=ORIENTED_EDGE('',*,*,#290,.T.);
#483=ORIENTED_EDGE('',*,*,#318,.F.);
#484=ORIENTED_EDGE('',*,*,#294,.F.);
#485=ORIENTED_EDGE('',*,*,#336,.T.);
#486=ORIENTED_EDGE('',*,*,#348,.F.);
#487=ORIENTED_EDGE('',*,*,#356,.F.);
#488=ORIENTED_EDGE('',*,*,#357,.F.);
#489=ORIENTED_EDGE('',*,*,#358,.F.);
#490=ORIENTED_EDGE('',*,*,#356,.T.);
#491=ORIENTED_EDGE('',*,*,#347,.F.);
#492=ORIENTED_EDGE('',*,*,#355,.F.);
#493=ORIENTED_EDGE('',*,*,#285,.F.);
#494=ORIENTED_EDGE('',*,*,#289,.F.);
#495=ORIENTED_EDGE('',*,*,#322,.F.);
#496=ORIENTED_EDGE('',*,*,#324,.T.);
#497=ORIENTED_EDGE('',*,*,#328,.T.);
#498=ORIENTED_EDGE('',*,*,#329,.F.);
#499=ORIENTED_EDGE('',*,*,#308,.F.);
#500=ORIENTED_EDGE('',*,*,#330,.T.);
#501=ORIENTED_EDGE('',*,*,#312,.F.);
#502=ORIENTED_EDGE('',*,*,#315,.F.);
#503=ORIENTED_EDGE('',*,*,#332,.F.);
#504=ORIENTED_EDGE('',*,*,#333,.T.);
#505=ORIENTED_EDGE('',*,*,#326,.T.);
#506=ORIENTED_EDGE('',*,*,#319,.F.);
#507=ORIENTED_EDGE('',*,*,#316,.F.);
#508=ORIENTED_EDGE('',*,*,#357,.T.);
#509=ORIENTED_EDGE('',*,*,#358,.T.);
#510=ORIENTED_EDGE('',*,*,#354,.T.);
#511=CYLINDRICAL_SURFACE('',#559,3.);
#512=CYLINDRICAL_SURFACE('',#567,3.);
#513=CYLINDRICAL_SURFACE('',#569,3.);
#514=CYLINDRICAL_SURFACE('',#572,3.);
#515=CYLINDRICAL_SURFACE('',#583,35.);
#516=CYLINDRICAL_SURFACE('',#587,35.);
#517=ADVANCED_FACE('',(#37),#511,.T.);
#518=ADVANCED_FACE('',(#38),#15,.T.);
#519=ADVANCED_FACE('',(#39),#16,.T.);
#520=ADVANCED_FACE('',(#40),#512,.T.);
#521=ADVANCED_FACE('',(#41),#513,.T.);
#522=ADVANCED_FACE('',(#42),#17,.T.);
#523=ADVANCED_FACE('',(#43),#514,.T.);
#524=ADVANCED_FACE('',(#44),#18,.T.);
#525=ADVANCED_FACE('',(#45),#19,.T.);
#526=ADVANCED_FACE('',(#46),#20,.T.);
#527=ADVANCED_FACE('',(#47),#21,.T.);
#528=ADVANCED_FACE('',(#48),#22,.T.);
#529=ADVANCED_FACE('',(#49),#23,.T.);
#530=ADVANCED_FACE('',(#50),#24,.T.);
#531=ADVANCED_FACE('',(#51),#25,.T.);
#532=ADVANCED_FACE('',(#52),#26,.T.);
#533=ADVANCED_FACE('',(#53),#515,.F.);
#534=ADVANCED_FACE('',(#54),#27,.T.);
#535=ADVANCED_FACE('',(#55),#516,.F.);
#536=ADVANCED_FACE('',(#56),#28,.T.);
#537=ADVANCED_FACE('',(#57),#29,.T.);
#538=ADVANCED_FACE('',(#58),#30,.T.);
#539=ADVANCED_FACE('',(#59),#31,.T.);
#540=ADVANCED_FACE('',(#60),#32,.T.);
#541=ADVANCED_FACE('',(#61),#33,.T.);
#542=ADVANCED_FACE('',(#62),#34,.T.);
#543=ADVANCED_FACE('',(#63),#35,.T.);
#544=ADVANCED_FACE('',(#64),#36,.F.);
#545=CLOSED_SHELL('',(#517,#518,#519,#520,#521,#522,#523,#524,#525,#526,
#527,#528,#529,#530,#531,#532,#533,#534,#535,#536,#537,#538,#539,#540,#541,
#542,#543,#544));
#546=DERIVED_UNIT_ELEMENT(#548,1.);
#547=DERIVED_UNIT_ELEMENT(#905,-3.);
#548=(
MASS_UNIT()
NAMED_UNIT(*)
SI_UNIT(.KILO.,.GRAM.)
);
#549=DERIVED_UNIT((#546,#547));
#550=MEASURE_REPRESENTATION_ITEM('density measure',
POSITIVE_RATIO_MEASURE(7850.),#549);
#551=PROPERTY_DEFINITION_REPRESENTATION(#556,#553);
#552=PROPERTY_DEFINITION_REPRESENTATION(#557,#554);
#553=REPRESENTATION('material name',(#555),#902);
#554=REPRESENTATION('density',(#550),#902);
#555=DESCRIPTIVE_REPRESENTATION_ITEM('Acero','Acero');
#556=PROPERTY_DEFINITION('material property','material name',#912);
#557=PROPERTY_DEFINITION('material property','density of part',#912);
#558=AXIS2_PLACEMENT_3D('',#745,#599,#600);
#559=AXIS2_PLACEMENT_3D('',#746,#601,#602);
#560=AXIS2_PLACEMENT_3D('',#749,#603,#604);
#561=AXIS2_PLACEMENT_3D('',#753,#606,#607);
#562=AXIS2_PLACEMENT_3D('',#755,#609,#610);
#563=AXIS2_PLACEMENT_3D('',#761,#614,#615);
#564=AXIS2_PLACEMENT_3D('',#773,#621,#622);
#565=AXIS2_PLACEMENT_3D('',#785,#628,#629);
#566=AXIS2_PLACEMENT_3D('',#789,#631,#632);
#567=AXIS2_PLACEMENT_3D('',#797,#637,#638);
#568=AXIS2_PLACEMENT_3D('',#800,#639,#640);
#569=AXIS2_PLACEMENT_3D('',#803,#643,#644);
#570=AXIS2_PLACEMENT_3D('',#807,#646,#647);
#571=AXIS2_PLACEMENT_3D('',#809,#649,#650);
#572=AXIS2_PLACEMENT_3D('',#813,#653,#654);
#573=AXIS2_PLACEMENT_3D('',#816,#655,#656);
#574=AXIS2_PLACEMENT_3D('',#819,#659,#660);
#575=AXIS2_PLACEMENT_3D('',#823,#663,#664);
#576=AXIS2_PLACEMENT_3D('',#827,#667,#668);
#577=AXIS2_PLACEMENT_3D('',#831,#671,#672);
#578=AXIS2_PLACEMENT_3D('',#835,#675,#676);
#579=AXIS2_PLACEMENT_3D('',#839,#679,#680);
#580=AXIS2_PLACEMENT_3D('',#841,#682,#683);
#581=AXIS2_PLACEMENT_3D('',#843,#685,#686);
#582=AXIS2_PLACEMENT_3D('',#847,#689,#690);
#583=AXIS2_PLACEMENT_3D('',#849,#692,#693);
#584=AXIS2_PLACEMENT_3D('',#851,#694,#695);
#585=AXIS2_PLACEMENT_3D('',#854,#697,#698);
#586=AXIS2_PLACEMENT_3D('',#855,#699,#700);
#587=AXIS2_PLACEMENT_3D('',#861,#704,#705);
#588=AXIS2_PLACEMENT_3D('',#863,#706,#707);
#589=AXIS2_PLACEMENT_3D('',#866,#709,#710);
#590=AXIS2_PLACEMENT_3D('',#867,#711,#712);
#591=AXIS2_PLACEMENT_3D('',#878,#719,#720);
#592=AXIS2_PLACEMENT_3D('',#884,#724,#725);
#593=AXIS2_PLACEMENT_3D('',#887,#728,#729);
#594=AXIS2_PLACEMENT_3D('',#888,#730,#731);
#595=AXIS2_PLACEMENT_3D('',#889,#732,#733);
#596=AXIS2_PLACEMENT_3D('',#893,#736,#737);
#597=AXIS2_PLACEMENT_3D('',#897,#740,#741);
#598=AXIS2_PLACEMENT_3D('',#899,#743,#744);
#599=DIRECTION('axis',(0.,0.,1.));
#600=DIRECTION('refdir',(1.,0.,0.));
#601=DIRECTION('center_axis',(0.,1.,0.));
#602=DIRECTION('ref_axis',(-0.707106781186548,0.,-0.707106781186548));
#603=DIRECTION('center_axis',(0.,-1.,0.));
#604=DIRECTION('ref_axis',(-0.707106781186548,0.,-0.707106781186548));
#605=DIRECTION('',(0.,-1.,0.));
#606=DIRECTION('center_axis',(0.,1.,0.));
#607=DIRECTION('ref_axis',(-0.707106781186548,0.,-0.707106781186548));
#608=DIRECTION('',(0.,1.,0.));
#609=DIRECTION('center_axis',(0.,0.,-1.));
#610=DIRECTION('ref_axis',(-1.,0.,0.));
#611=DIRECTION('',(1.,0.,0.));
#612=DIRECTION('',(0.,-1.,0.));
#613=DIRECTION('',(-1.,0.,0.));
#614=DIRECTION('center_axis',(0.,1.,0.));
#615=DIRECTION('ref_axis',(0.,0.,1.));
#616=DIRECTION('',(0.,0.,-1.));
#617=DIRECTION('',(1.,0.,-5.4780741346636E-17));
#618=DIRECTION('',(1.,0.,-5.4780741346636E-17));
#619=DIRECTION('',(1.,0.,-5.4780741346636E-17));
#620=DIRECTION('',(-3.5527136788005E-16,0.,-1.));
#621=DIRECTION('center_axis',(0.,-1.,0.));
#622=DIRECTION('ref_axis',(0.707106781186546,0.,-0.707106781186549));
#623=DIRECTION('',(1.,0.,0.));
#624=DIRECTION('',(0.,0.,-1.));
#625=DIRECTION('',(-1.,0.,0.));
#626=DIRECTION('',(0.,0.,-1.));
#627=DIRECTION('',(1.,0.,0.));
#628=DIRECTION('center_axis',(0.,-1.,0.));
#629=DIRECTION('ref_axis',(-0.707106781186548,0.,-0.707106781186547));
#630=DIRECTION('',(-1.,0.,0.));
#631=DIRECTION('center_axis',(0.,-1.,0.));
#632=DIRECTION('ref_axis',(0.707106781186548,0.,-0.707106781186548));
#633=DIRECTION('',(1.,0.,0.));
#634=DIRECTION('',(0.,0.,-1.));
#635=DIRECTION('',(-1.,0.,0.));
#636=DIRECTION('',(0.,0.,-1.));
#637=DIRECTION('center_axis',(0.,-1.,0.));
#638=DIRECTION('ref_axis',(0.707106781186548,0.,-0.707106781186548));
#639=DIRECTION('center_axis',(0.,1.,0.));
#640=DIRECTION('ref_axis',(0.707106781186548,0.,-0.707106781186548));
#641=DIRECTION('',(0.,1.,0.));
#642=DIRECTION('',(0.,1.,0.));
#643=DIRECTION('center_axis',(0.,1.,0.));
#644=DIRECTION('ref_axis',(-0.707106781186548,0.,-0.707106781186547));
#645=DIRECTION('',(0.,-1.,0.));
#646=DIRECTION('center_axis',(0.,1.,0.));
#647=DIRECTION('ref_axis',(-0.707106781186548,0.,-0.707106781186547));
#648=DIRECTION('',(0.,-1.,0.));
#649=DIRECTION('center_axis',(0.,0.,-1.));
#650=DIRECTION('ref_axis',(-1.,0.,0.));
#651=DIRECTION('',(0.,-1.,0.));
#652=DIRECTION('',(-1.,0.,0.));
#653=DIRECTION('center_axis',(0.,-1.,0.));
#654=DIRECTION('ref_axis',(0.707106781186546,0.,-0.707106781186549));
#655=DIRECTION('center_axis',(0.,1.,0.));
#656=DIRECTION('ref_axis',(0.707106781186546,0.,-0.707106781186549));
#657=DIRECTION('',(0.,1.,0.));
#658=DIRECTION('',(0.,-1.,0.));
#659=DIRECTION('center_axis',(0.,0.,-1.));
#660=DIRECTION('ref_axis',(-1.,0.,0.));
#661=DIRECTION('',(-1.,0.,0.));
#662=DIRECTION('',(0.,1.,0.));
#663=DIRECTION('center_axis',(1.,0.,0.));
#664=DIRECTION('ref_axis',(0.,-1.,0.));
#665=DIRECTION('',(0.,1.,0.));
#666=DIRECTION('',(0.,0.,-1.));
#667=DIRECTION('center_axis',(-3.08148791101958E-33,0.,-1.));
#668=DIRECTION('ref_axis',(-1.,0.,3.08148791101958E-33));
#669=DIRECTION('',(0.,-1.,0.));
#670=DIRECTION('',(1.,0.,-3.08148791101958E-33));
#671=DIRECTION('center_axis',(-1.,0.,0.));
#672=DIRECTION('ref_axis',(0.,1.,0.));
#673=DIRECTION('',(0.,-1.,0.));
#674=DIRECTION('',(0.,0.,-1.));
#675=DIRECTION('center_axis',(-1.,0.,0.));
#676=DIRECTION('ref_axis',(0.,1.,0.));
#677=DIRECTION('',(0.,1.,0.));
#678=DIRECTION('',(0.,0.,-1.));
#679=DIRECTION('center_axis',(0.,0.,-1.));
#680=DIRECTION('ref_axis',(-1.,0.,0.));
#681=DIRECTION('',(-1.,0.,0.));
#682=DIRECTION('center_axis',(-3.08148791101958E-33,0.,-1.));
#683=DIRECTION('ref_axis',(-1.,0.,3.08148791101958E-33));
#684=DIRECTION('',(1.,0.,-3.08148791101958E-33));
#685=DIRECTION('center_axis',(1.,0.,0.));
#686=DIRECTION('ref_axis',(0.,-1.,0.));
#687=DIRECTION('',(0.,1.,0.));
#688=DIRECTION('',(0.,0.,-1.));
#689=DIRECTION('center_axis',(-3.08148791101958E-33,0.,-1.));
#690=DIRECTION('ref_axis',(-1.,0.,3.08148791101958E-33));
#691=DIRECTION('',(1.,0.,-3.08148791101958E-33));
#692=DIRECTION('center_axis',(-1.,0.,5.4780741346636E-17));
#693=DIRECTION('ref_axis',(-5.55111512312578E-17,-0.142857142857143,-0.989743318610787));
#694=DIRECTION('center_axis',(-1.,0.,-1.93082265152201E-16));
#695=DIRECTION('ref_axis',(-5.55111512312578E-17,-0.142857142857143,-0.989743318610787));
#696=DIRECTION('',(1.,0.,-5.4780741346636E-17));
#697=DIRECTION('center_axis',(1.,0.,-3.5527136788005E-16));
#698=DIRECTION('ref_axis',(-5.55111512312578E-17,-0.142857142857143,-0.989743318610787));
#699=DIRECTION('center_axis',(5.4780741346636E-17,0.,1.));
#700=DIRECTION('ref_axis',(1.,0.,-5.4780741346636E-17));
#701=DIRECTION('',(0.,1.,0.));
#702=DIRECTION('',(0.,1.,0.));
#703=DIRECTION('',(1.,0.,-5.4780741346636E-17));
#704=DIRECTION('center_axis',(-1.,0.,5.4780741346636E-17));
#705=DIRECTION('ref_axis',(-5.55111512312578E-17,-0.142857142857143,-0.989743318610787));
#706=DIRECTION('center_axis',(-1.,0.,0.));
#707=DIRECTION('ref_axis',(-5.55111512312578E-17,-0.142857142857143,-0.989743318610787));
#708=DIRECTION('',(1.,0.,-5.4780741346636E-17));
#709=DIRECTION('center_axis',(1.,0.,-1.20676415720126E-17));
#710=DIRECTION('ref_axis',(-5.55111512312578E-17,-0.142857142857143,-0.989743318610787));
#711=DIRECTION('center_axis',(0.,1.,0.));
#712=DIRECTION('ref_axis',(0.,0.,1.));
#713=DIRECTION('',(-1.93082265152201E-16,0.,1.));
#714=DIRECTION('',(-1.,0.,0.));
#715=DIRECTION('',(-1.20676415720126E-17,0.,-1.));
#716=DIRECTION('',(0.,0.,1.));
#717=DIRECTION('',(1.,0.,0.));
#718=DIRECTION('',(-3.5527136788005E-16,0.,-1.));
#719=DIRECTION('center_axis',(0.,1.,0.));
#720=DIRECTION('ref_axis',(0.,0.,1.));
#721=DIRECTION('',(-1.20676415720126E-17,0.,-1.));
#722=DIRECTION('',(-1.,0.,0.));
#723=DIRECTION('',(-1.93082265152201E-16,0.,1.));
#724=DIRECTION('center_axis',(0.,0.,-1.));
#725=DIRECTION('ref_axis',(-1.,0.,0.));
#726=DIRECTION('',(0.,1.,0.));
#727=DIRECTION('',(0.,1.,0.));
#728=DIRECTION('center_axis',(1.,0.,-1.20676415720126E-17));
#729=DIRECTION('ref_axis',(-1.20676415720126E-17,0.,-1.));
#730=DIRECTION('center_axis',(-1.,0.,-1.93082265152201E-16));
#731=DIRECTION('ref_axis',(-1.93082265152201E-16,0.,1.));
#732=DIRECTION('center_axis',(-1.,0.,0.));
#733=DIRECTION('ref_axis',(0.,0.,1.));
#734=DIRECTION('',(0.,0.,-1.));
#735=DIRECTION('',(0.,1.,0.));
#736=DIRECTION('center_axis',(1.,0.,-3.5527136788005E-16));
#737=DIRECTION('ref_axis',(-3.5527136788005E-16,0.,-1.));
#738=DIRECTION('',(0.,1.,0.));
#739=DIRECTION('',(3.5527136788005E-16,0.,1.));
#740=DIRECTION('center_axis',(0.,0.,1.));
#741=DIRECTION('ref_axis',(1.,0.,0.));
#742=DIRECTION('',(-1.,0.,0.));
#743=DIRECTION('center_axis',(0.,1.,0.));
#744=DIRECTION('ref_axis',(1.,0.,0.));
#745=CARTESIAN_POINT('',(0.,0.,0.));
#746=CARTESIAN_POINT('Origin',(3.,17.5,0.));
#747=CARTESIAN_POINT('',(0.,70.,0.));
#748=CARTESIAN_POINT('',(3.,70.,-3.));
#749=CARTESIAN_POINT('Origin',(3.,70.,0.));
#750=CARTESIAN_POINT('',(3.,0.,-3.));
#751=CARTESIAN_POINT('',(3.,17.5,-3.));
#752=CARTESIAN_POINT('',(0.,0.,0.));
#753=CARTESIAN_POINT('Origin',(3.,0.,0.));
#754=CARTESIAN_POINT('',(0.,17.5,0.));
#755=CARTESIAN_POINT('Origin',(1.85,35.,-3.));
#756=CARTESIAN_POINT('',(3.7,70.,-3.));
#757=CARTESIAN_POINT('',(0.,70.,-3.));
#758=CARTESIAN_POINT('',(3.7,0.,-3.));
#759=CARTESIAN_POINT('',(3.7,70.,-3.));
#760=CARTESIAN_POINT('',(80.,0.,-3.));
#761=CARTESIAN_POINT('Origin',(40.,70.,1.));
#762=CARTESIAN_POINT('',(0.,70.,2.));
#763=CARTESIAN_POINT('',(0.,70.,-1.23259516440783E-31));
#764=CARTESIAN_POINT('',(2.,70.,2.));
#765=CARTESIAN_POINT('',(2.,70.,2.));
#766=CARTESIAN_POINT('',(78.,70.,2.));
#767=CARTESIAN_POINT('',(2.,70.,2.));
#768=CARTESIAN_POINT('',(80.,70.,2.));
#769=CARTESIAN_POINT('',(2.,70.,2.));
#770=CARTESIAN_POINT('',(80.,70.,0.));
#771=CARTESIAN_POINT('',(80.,70.,50.));
#772=CARTESIAN_POINT('',(77.,70.,-3.));
#773=CARTESIAN_POINT('Origin',(77.,70.,0.));
#774=CARTESIAN_POINT('',(76.3,70.,-3.));
#775=CARTESIAN_POINT('',(0.,70.,-3.));
#776=CARTESIAN_POINT('',(76.3,70.,-1.23259516440783E-31));
#777=CARTESIAN_POINT('',(76.3,70.,-1.23259516440783E-31));
#778=CARTESIAN_POINT('',(72.,70.,-1.23259516440783E-31));
#779=CARTESIAN_POINT('',(80.,70.,0.));
#780=CARTESIAN_POINT('',(72.,70.,-3.));
#781=CARTESIAN_POINT('',(72.,70.,-1.23259516440783E-31));
#782=CARTESIAN_POINT('',(71.5,70.,-3.));
#783=CARTESIAN_POINT('',(72.,70.,-3.));
#784=CARTESIAN_POINT('',(68.5,70.,-1.23259516440783E-31));
#785=CARTESIAN_POINT('Origin',(71.5,70.,0.));
#786=CARTESIAN_POINT('',(11.5,70.,-1.23259516440783E-31));
#787=CARTESIAN_POINT('',(80.,70.,0.));
#788=CARTESIAN_POINT('',(8.5,70.,-3.));
#789=CARTESIAN_POINT('Origin',(8.5,70.,0.));
#790=CARTESIAN_POINT('',(8.,70.,-3.));
#791=CARTESIAN_POINT('',(8.,70.,-3.));
#792=CARTESIAN_POINT('',(8.,70.,-1.23259516440783E-31));
#793=CARTESIAN_POINT('',(8.,70.,-1.23259516440783E-31));
#794=CARTESIAN_POINT('',(3.7,70.,-1.23259516440783E-31));
#795=CARTESIAN_POINT('',(80.,70.,0.));
#796=CARTESIAN_POINT('',(3.7,70.,-1.23259516440783E-31));
#797=CARTESIAN_POINT('Origin',(8.5,52.5,0.));
#798=CARTESIAN_POINT('',(11.5,0.,-1.23259516440783E-31));
#799=CARTESIAN_POINT('',(8.5,0.,-3.));
#800=CARTESIAN_POINT('Origin',(8.5,0.,0.));
#801=CARTESIAN_POINT('',(8.5,52.5,-3.));
#802=CARTESIAN_POINT('',(11.5,35.,-3.54371109767252E-32));
#803=CARTESIAN_POINT('Origin',(71.5,17.5,0.));
#804=CARTESIAN_POINT('',(71.5,0.,-3.));
#805=CARTESIAN_POINT('',(71.5,17.5,-3.));
#806=CARTESIAN_POINT('',(68.5,0.,-1.23259516440783E-31));
#807=CARTESIAN_POINT('Origin',(71.5,0.,0.));
#808=CARTESIAN_POINT('',(68.5,0.,-2.11081921904841E-31));
#809=CARTESIAN_POINT('Origin',(70.25,35.,-3.));
#810=CARTESIAN_POINT('',(72.,0.,-3.));
#811=CARTESIAN_POINT('',(72.,0.,-3.));
#812=CARTESIAN_POINT('',(68.5,0.,-3.));
#813=CARTESIAN_POINT('Origin',(77.,17.5,0.));
#814=CARTESIAN_POINT('',(80.,0.,-1.06581410364015E-15));
#815=CARTESIAN_POINT('',(77.,0.,-3.));
#816=CARTESIAN_POINT('Origin',(77.,0.,0.));
#817=CARTESIAN_POINT('',(77.,17.5,-3.));
#818=CARTESIAN_POINT('',(80.,17.5,-1.06581410364015E-15));
#819=CARTESIAN_POINT('Origin',(78.15,35.,-3.));
#820=CARTESIAN_POINT('',(76.3,0.,-3.));
#821=CARTESIAN_POINT('',(80.,0.,-3.));
#822=CARTESIAN_POINT('',(76.3,70.,-3.));
#823=CARTESIAN_POINT('Origin',(3.7,70.,-1.23259516440783E-31));
#824=CARTESIAN_POINT('',(3.7,0.,-1.23259516440783E-31));
#825=CARTESIAN_POINT('',(3.7,35.,-1.14015052707724E-32));
#826=CARTESIAN_POINT('',(3.7,0.,-1.23259516440783E-31));
#827=CARTESIAN_POINT('Origin',(80.,0.,-2.46519032881566E-31));
#828=CARTESIAN_POINT('',(8.,0.,-1.23259516440783E-31));
#829=CARTESIAN_POINT('',(8.,0.,-2.46519032881566E-32));
#830=CARTESIAN_POINT('',(0.,0.,0.));
#831=CARTESIAN_POINT('Origin',(76.3,0.,-1.23259516440783E-31));
#832=CARTESIAN_POINT('',(76.3,0.,-1.23259516440783E-31));
#833=CARTESIAN_POINT('',(76.3,0.,-2.35117527610794E-31));
#834=CARTESIAN_POINT('',(76.3,0.,-1.23259516440783E-31));
#835=CARTESIAN_POINT('Origin',(8.,0.,-1.23259516440783E-31));
#836=CARTESIAN_POINT('',(8.,0.,-3.));
#837=CARTESIAN_POINT('',(8.,0.,-3.));
#838=CARTESIAN_POINT('',(8.,0.,-1.23259516440783E-31));
#839=CARTESIAN_POINT('Origin',(9.75,35.,-3.));
#840=CARTESIAN_POINT('',(11.5,0.,-3.));
#841=CARTESIAN_POINT('Origin',(80.,0.,-2.46519032881566E-31));
#842=CARTESIAN_POINT('',(0.,0.,0.));
#843=CARTESIAN_POINT('Origin',(72.,70.,-1.23259516440783E-31));
#844=CARTESIAN_POINT('',(72.,0.,-1.23259516440783E-31));
#845=CARTESIAN_POINT('',(72.,35.,-2.2186712959341E-31));
#846=CARTESIAN_POINT('',(72.,0.,-1.23259516440783E-31));
#847=CARTESIAN_POINT('Origin',(80.,0.,-2.46519032881566E-31));
#848=CARTESIAN_POINT('',(0.,0.,0.));
#849=CARTESIAN_POINT('Origin',(2.,75.,36.6410161513775));
#850=CARTESIAN_POINT('',(78.,40.,36.6410161513775));
#851=CARTESIAN_POINT('Origin',(78.,75.,36.6410161513775));
#852=CARTESIAN_POINT('',(80.,40.,36.6410161513775));
#853=CARTESIAN_POINT('',(2.,40.,36.6410161513775));
#854=CARTESIAN_POINT('Origin',(80.,75.,36.6410161513775));
#855=CARTESIAN_POINT('Origin',(2.,0.,2.));
#856=CARTESIAN_POINT('',(78.,2.,2.));
#857=CARTESIAN_POINT('',(78.,0.,2.));
#858=CARTESIAN_POINT('',(2.,2.,2.));
#859=CARTESIAN_POINT('',(2.,0.,2.));
#860=CARTESIAN_POINT('',(21.,2.,2.));
#861=CARTESIAN_POINT('Origin',(2.,75.,36.6410161513775));
#862=CARTESIAN_POINT('',(0.,40.,36.6410161513775));
#863=CARTESIAN_POINT('Origin',(1.94289029309402E-15,75.,36.6410161513775));
#864=CARTESIAN_POINT('',(2.,40.,36.6410161513775));
#865=CARTESIAN_POINT('',(2.,40.,36.6410161513775));
#866=CARTESIAN_POINT('Origin',(2.,75.,36.6410161513775));
#867=CARTESIAN_POINT('Origin',(40.,40.,25.));
#868=CARTESIAN_POINT('',(78.,40.,48.));
#869=CARTESIAN_POINT('',(78.,40.,2.));
#870=CARTESIAN_POINT('',(2.,40.,48.));
#871=CARTESIAN_POINT('',(78.,40.,48.));
#872=CARTESIAN_POINT('',(2.,40.,48.));
#873=CARTESIAN_POINT('',(0.,40.,50.));
#874=CARTESIAN_POINT('',(0.,40.,50.));
#875=CARTESIAN_POINT('',(80.,40.,50.));
#876=CARTESIAN_POINT('',(80.,40.,50.));
#877=CARTESIAN_POINT('',(80.,40.,-2.46519032881566E-31));
#878=CARTESIAN_POINT('Origin',(40.,2.,25.));
#879=CARTESIAN_POINT('',(2.,2.,48.));
#880=CARTESIAN_POINT('',(2.,2.,36.5));
#881=CARTESIAN_POINT('',(78.,2.,48.));
#882=CARTESIAN_POINT('',(59.,2.,48.));
#883=CARTESIAN_POINT('',(78.,2.,13.5));
#884=CARTESIAN_POINT('Origin',(78.,0.,48.));
#885=CARTESIAN_POINT('',(2.,0.,48.));
#886=CARTESIAN_POINT('',(78.,0.,48.));
#887=CARTESIAN_POINT('Origin',(2.,0.,48.));
#888=CARTESIAN_POINT('Origin',(78.,0.,2.));
#889=CARTESIAN_POINT('Origin',(0.,0.,0.));
#890=CARTESIAN_POINT('',(0.,0.,50.));
#891=CARTESIAN_POINT('',(0.,0.,-1.23259516440783E-31));
#892=CARTESIAN_POINT('',(0.,0.,50.));
#893=CARTESIAN_POINT('Origin',(80.,0.,50.));
#894=CARTESIAN_POINT('',(80.,0.,50.));
#895=CARTESIAN_POINT('',(80.,0.,50.));
#896=CARTESIAN_POINT('',(80.,0.,-2.46519032881566E-31));
#897=CARTESIAN_POINT('Origin',(0.,0.,50.));
#898=CARTESIAN_POINT('',(80.,0.,50.));
#899=CARTESIAN_POINT('Origin',(40.,0.,25.));
#900=UNCERTAINTY_MEASURE_WITH_UNIT(LENGTH_MEASURE(0.01),#904,
'DISTANCE_ACCURACY_VALUE',
'Maximum model space distance between geometric entities at asserted c
onnectivities');
#901=UNCERTAINTY_MEASURE_WITH_UNIT(LENGTH_MEASURE(0.01),#904,
'DISTANCE_ACCURACY_VALUE',
'Maximum model space distance between geometric entities at asserted c
onnectivities');
#902=(
GEOMETRIC_REPRESENTATION_CONTEXT(3)
GLOBAL_UNCERTAINTY_ASSIGNED_CONTEXT((#900))
GLOBAL_UNIT_ASSIGNED_CONTEXT((#904,#906,#907))
REPRESENTATION_CONTEXT('','3D')
);
#903=(
GEOMETRIC_REPRESENTATION_CONTEXT(3)
GLOBAL_UNCERTAINTY_ASSIGNED_CONTEXT((#901))
GLOBAL_UNIT_ASSIGNED_CONTEXT((#904,#906,#907))
REPRESENTATION_CONTEXT('','3D')
);
#904=(
LENGTH_UNIT()
NAMED_UNIT(*)
SI_UNIT(.MILLI.,.METRE.)
);
#905=(
LENGTH_UNIT()
NAMED_UNIT(*)
SI_UNIT($,.METRE.)
);
#906=(
NAMED_UNIT(*)
PLANE_ANGLE_UNIT()
SI_UNIT($,.RADIAN.)
);
#907=(
NAMED_UNIT(*)
SI_UNIT($,.STERADIAN.)
SOLID_ANGLE_UNIT()
);
#908=SHAPE_DEFINITION_REPRESENTATION(#909,#910);
#909=PRODUCT_DEFINITION_SHAPE('',$,#912);
#910=SHAPE_REPRESENTATION('',(#558),#902);
#911=PRODUCT_DEFINITION_CONTEXT('part definition',#916,'design');
#912=PRODUCT_DEFINITION('Caja Receptora Simple',
'Caja Receptora Simple v3',#913,#911);
#913=PRODUCT_DEFINITION_FORMATION('',$,#918);
#914=PRODUCT_RELATED_PRODUCT_CATEGORY('Caja Receptora Simple v3',
'Caja Receptora Simple v3',(#918));
#915=APPLICATION_PROTOCOL_DEFINITION('international standard',
'automotive_design',2009,#916);
#916=APPLICATION_CONTEXT(
'Core Data for Automotive Mechanical Design Process');
#917=PRODUCT_CONTEXT('part definition',#916,'mechanical');
#918=PRODUCT('Caja Receptora Simple','Caja Receptora Simple v3',$,(#917));
#919=PRESENTATION_STYLE_ASSIGNMENT((#921));
#920=PRESENTATION_STYLE_ASSIGNMENT((#922));
#921=SURFACE_STYLE_USAGE(.BOTH.,#923);
#922=SURFACE_STYLE_USAGE(.BOTH.,#924);
#923=SURFACE_SIDE_STYLE('',(#925));
#924=SURFACE_SIDE_STYLE('',(#926));
#925=SURFACE_STYLE_FILL_AREA(#927);
#926=SURFACE_STYLE_FILL_AREA(#928);
#927=FILL_AREA_STYLE('Acero - Satinado',(#929));
#928=FILL_AREA_STYLE('Pl\X\E1stico - Mate (negro)',(#930));
#929=FILL_AREA_STYLE_COLOUR('Acero - Satinado',#931);
#930=FILL_AREA_STYLE_COLOUR('Pl\X\E1stico - Mate (negro)',#932);
#931=COLOUR_RGB('Acero - Satinado',0.627450980392157,0.627450980392157,
0.627450980392157);
#932=COLOUR_RGB('Pl\X\E1stico - Mate (negro)',0.0980392156862745,0.0980392156862745,
0.0980392156862745);
ENDSEC;
END-ISO-10303-21;
