ISO-10303-21;
HEADER;
/* Generated by software containing ST-Developer
 * from STEP Tools, Inc. (www.steptools.com) 
 */

FILE_DESCRIPTION(
/* description */ (''),
/* implementation_level */ '2;1');

FILE_NAME(
/* name */ 'Pared_acrlico.step',
/* time_stamp */ '2026-06-11T13:02:23-04:00',
/* author */ (''),
/* organization */ (''),
/* preprocessor_version */ 'ST-DEVELOPER v20.1',
/* originating_system */ 'Autodesk Translation Framework v15.8.0.0',
/* authorisation */ '');

FILE_SCHEMA (('AUTOMOTIVE_DESIGN { 1 0 10303 214 3 1 1 }'));
ENDSEC;

DATA;
#10=MECHANICAL_DESIGN_GEOMETRIC_PRESENTATION_REPRESENTATION('',(#17),#1432);
#11=ITEM_DEFINED_TRANSFORMATION($,$,#848,#946);
#12=(
REPRESENTATION_RELATIONSHIP($,$,#1443,#1442)
REPRESENTATION_RELATIONSHIP_WITH_TRANSFORMATION(#11)
SHAPE_REPRESENTATION_RELATIONSHIP()
);
#13=CONTEXT_DEPENDENT_SHAPE_REPRESENTATION(#12,#1441);
#14=NEXT_ASSEMBLY_USAGE_OCCURRENCE('Soporte acr\X\EDlico:1',
'Soporte acr\X\EDlico:1','Soporte acr\X\EDlico:1',#1445,#1446,
'Soporte acr\X\EDlico:1');
#15=SHAPE_REPRESENTATION_RELATIONSHIP('SRR','None',#1443,#16);
#16=ADVANCED_BREP_SHAPE_REPRESENTATION('',(#18),#1431);
#17=STYLED_ITEM('',(#1456),#18);
#18=MANIFOLD_SOLID_BREP('Soporte acr\X\EDlico',#834);
#19=FACE_BOUND('',#115,.T.);
#20=FACE_BOUND('',#116,.T.);
#21=FACE_BOUND('',#117,.T.);
#22=FACE_BOUND('',#118,.T.);
#23=FACE_BOUND('',#119,.T.);
#24=FACE_BOUND('',#120,.T.);
#25=FACE_BOUND('',#121,.T.);
#26=FACE_BOUND('',#122,.T.);
#27=FACE_BOUND('',#123,.T.);
#28=FACE_BOUND('',#124,.T.);
#29=FACE_BOUND('',#125,.T.);
#30=FACE_BOUND('',#126,.T.);
#31=FACE_BOUND('',#127,.T.);
#32=FACE_BOUND('',#128,.T.);
#33=FACE_BOUND('',#129,.T.);
#34=FACE_BOUND('',#130,.T.);
#35=FACE_BOUND('',#131,.T.);
#36=FACE_BOUND('',#132,.T.);
#37=FACE_BOUND('',#133,.T.);
#38=FACE_BOUND('',#134,.T.);
#39=FACE_BOUND('',#135,.T.);
#40=FACE_BOUND('',#136,.T.);
#41=FACE_BOUND('',#173,.T.);
#42=FACE_BOUND('',#174,.T.);
#43=FACE_BOUND('',#175,.T.);
#44=FACE_BOUND('',#176,.T.);
#45=FACE_BOUND('',#177,.T.);
#46=FACE_BOUND('',#178,.T.);
#47=FACE_BOUND('',#179,.T.);
#48=FACE_BOUND('',#180,.T.);
#49=FACE_BOUND('',#181,.T.);
#50=FACE_BOUND('',#182,.T.);
#51=FACE_BOUND('',#183,.T.);
#52=FACE_BOUND('',#184,.T.);
#53=FACE_BOUND('',#185,.T.);
#54=FACE_BOUND('',#186,.T.);
#55=FACE_BOUND('',#187,.T.);
#56=FACE_BOUND('',#188,.T.);
#57=FACE_BOUND('',#189,.T.);
#58=FACE_BOUND('',#190,.T.);
#59=FACE_BOUND('',#191,.T.);
#60=FACE_BOUND('',#192,.T.);
#61=FACE_BOUND('',#193,.T.);
#62=FACE_BOUND('',#194,.T.);
#63=PLANE('',#852);
#64=PLANE('',#853);
#65=PLANE('',#884);
#66=PLANE('',#887);
#67=PLANE('',#890);
#68=PLANE('',#933);
#69=PLANE('',#936);
#70=PLANE('',#939);
#71=PLANE('',#942);
#72=PLANE('',#945);
#73=FACE_OUTER_BOUND('',#112,.T.);
#74=FACE_OUTER_BOUND('',#113,.T.);
#75=FACE_OUTER_BOUND('',#114,.T.);
#76=FACE_OUTER_BOUND('',#137,.T.);
#77=FACE_OUTER_BOUND('',#138,.T.);
#78=FACE_OUTER_BOUND('',#139,.T.);
#79=FACE_OUTER_BOUND('',#140,.T.);
#80=FACE_OUTER_BOUND('',#141,.T.);
#81=FACE_OUTER_BOUND('',#142,.T.);
#82=FACE_OUTER_BOUND('',#143,.T.);
#83=FACE_OUTER_BOUND('',#144,.T.);
#84=FACE_OUTER_BOUND('',#145,.T.);
#85=FACE_OUTER_BOUND('',#146,.T.);
#86=FACE_OUTER_BOUND('',#147,.T.);
#87=FACE_OUTER_BOUND('',#148,.T.);
#88=FACE_OUTER_BOUND('',#149,.T.);
#89=FACE_OUTER_BOUND('',#150,.T.);
#90=FACE_OUTER_BOUND('',#151,.T.);
#91=FACE_OUTER_BOUND('',#152,.T.);
#92=FACE_OUTER_BOUND('',#153,.T.);
#93=FACE_OUTER_BOUND('',#154,.T.);
#94=FACE_OUTER_BOUND('',#155,.T.);
#95=FACE_OUTER_BOUND('',#156,.T.);
#96=FACE_OUTER_BOUND('',#157,.T.);
#97=FACE_OUTER_BOUND('',#158,.T.);
#98=FACE_OUTER_BOUND('',#159,.T.);
#99=FACE_OUTER_BOUND('',#160,.T.);
#100=FACE_OUTER_BOUND('',#161,.T.);
#101=FACE_OUTER_BOUND('',#162,.T.);
#102=FACE_OUTER_BOUND('',#163,.T.);
#103=FACE_OUTER_BOUND('',#164,.T.);
#104=FACE_OUTER_BOUND('',#165,.T.);
#105=FACE_OUTER_BOUND('',#166,.T.);
#106=FACE_OUTER_BOUND('',#167,.T.);
#107=FACE_OUTER_BOUND('',#168,.T.);
#108=FACE_OUTER_BOUND('',#169,.T.);
#109=FACE_OUTER_BOUND('',#170,.T.);
#110=FACE_OUTER_BOUND('',#171,.T.);
#111=FACE_OUTER_BOUND('',#172,.T.);
#112=EDGE_LOOP('',(#544,#545,#546,#547));
#113=EDGE_LOOP('',(#548,#549,#550,#551));
#114=EDGE_LOOP('',(#552,#553,#554,#555,#556,#557,#558,#559));
#115=EDGE_LOOP('',(#560));
#116=EDGE_LOOP('',(#561));
#117=EDGE_LOOP('',(#562));
#118=EDGE_LOOP('',(#563));
#119=EDGE_LOOP('',(#564));
#120=EDGE_LOOP('',(#565));
#121=EDGE_LOOP('',(#566));
#122=EDGE_LOOP('',(#567));
#123=EDGE_LOOP('',(#568));
#124=EDGE_LOOP('',(#569));
#125=EDGE_LOOP('',(#570));
#126=EDGE_LOOP('',(#571));
#127=EDGE_LOOP('',(#572));
#128=EDGE_LOOP('',(#573));
#129=EDGE_LOOP('',(#574));
#130=EDGE_LOOP('',(#575));
#131=EDGE_LOOP('',(#576));
#132=EDGE_LOOP('',(#577));
#133=EDGE_LOOP('',(#578));
#134=EDGE_LOOP('',(#579,#580,#581,#582,#583,#584,#585,#586));
#135=EDGE_LOOP('',(#587));
#136=EDGE_LOOP('',(#588));
#137=EDGE_LOOP('',(#589,#590,#591,#592));
#138=EDGE_LOOP('',(#593,#594,#595,#596));
#139=EDGE_LOOP('',(#597,#598,#599,#600));
#140=EDGE_LOOP('',(#601,#602,#603,#604));
#141=EDGE_LOOP('',(#605,#606,#607,#608));
#142=EDGE_LOOP('',(#609,#610,#611,#612));
#143=EDGE_LOOP('',(#613,#614,#615,#616));
#144=EDGE_LOOP('',(#617,#618,#619,#620));
#145=EDGE_LOOP('',(#621,#622,#623,#624));
#146=EDGE_LOOP('',(#625,#626,#627,#628));
#147=EDGE_LOOP('',(#629,#630,#631,#632));
#148=EDGE_LOOP('',(#633,#634,#635,#636));
#149=EDGE_LOOP('',(#637,#638,#639,#640));
#150=EDGE_LOOP('',(#641,#642,#643,#644));
#151=EDGE_LOOP('',(#645,#646,#647,#648));
#152=EDGE_LOOP('',(#649,#650,#651,#652));
#153=EDGE_LOOP('',(#653,#654,#655,#656));
#154=EDGE_LOOP('',(#657,#658,#659,#660));
#155=EDGE_LOOP('',(#661,#662,#663,#664));
#156=EDGE_LOOP('',(#665,#666,#667,#668));
#157=EDGE_LOOP('',(#669,#670,#671,#672));
#158=EDGE_LOOP('',(#673,#674,#675,#676));
#159=EDGE_LOOP('',(#677,#678,#679,#680));
#160=EDGE_LOOP('',(#681,#682,#683,#684));
#161=EDGE_LOOP('',(#685,#686,#687,#688));
#162=EDGE_LOOP('',(#689,#690,#691,#692));
#163=EDGE_LOOP('',(#693,#694,#695,#696));
#164=EDGE_LOOP('',(#697,#698,#699,#700));
#165=EDGE_LOOP('',(#701,#702,#703,#704));
#166=EDGE_LOOP('',(#705,#706,#707,#708));
#167=EDGE_LOOP('',(#709,#710,#711,#712));
#168=EDGE_LOOP('',(#713,#714,#715,#716));
#169=EDGE_LOOP('',(#717,#718,#719,#720));
#170=EDGE_LOOP('',(#721,#722,#723,#724));
#171=EDGE_LOOP('',(#725,#726,#727,#728));
#172=EDGE_LOOP('',(#729,#730,#731,#732,#733,#734,#735,#736));
#173=EDGE_LOOP('',(#737));
#174=EDGE_LOOP('',(#738));
#175=EDGE_LOOP('',(#739));
#176=EDGE_LOOP('',(#740));
#177=EDGE_LOOP('',(#741));
#178=EDGE_LOOP('',(#742));
#179=EDGE_LOOP('',(#743));
#180=EDGE_LOOP('',(#744));
#181=EDGE_LOOP('',(#745));
#182=EDGE_LOOP('',(#746));
#183=EDGE_LOOP('',(#747));
#184=EDGE_LOOP('',(#748));
#185=EDGE_LOOP('',(#749));
#186=EDGE_LOOP('',(#750));
#187=EDGE_LOOP('',(#751));
#188=EDGE_LOOP('',(#752));
#189=EDGE_LOOP('',(#753));
#190=EDGE_LOOP('',(#754));
#191=EDGE_LOOP('',(#755));
#192=EDGE_LOOP('',(#756,#757,#758,#759,#760,#761,#762,#763));
#193=EDGE_LOOP('',(#764));
#194=EDGE_LOOP('',(#765));
#195=LINE('',#1207,#248);
#196=LINE('',#1210,#249);
#197=LINE('',#1213,#250);
#198=LINE('',#1215,#251);
#199=LINE('',#1216,#252);
#200=LINE('',#1219,#253);
#201=LINE('',#1223,#254);
#202=LINE('',#1227,#255);
#203=LINE('',#1271,#256);
#204=LINE('',#1275,#257);
#205=LINE('',#1279,#258);
#206=LINE('',#1282,#259);
#207=LINE('',#1289,#260);
#208=LINE('',#1293,#261);
#209=LINE('',#1294,#262);
#210=LINE('',#1297,#263);
#211=LINE('',#1301,#264);
#212=LINE('',#1302,#265);
#213=LINE('',#1306,#266);
#214=LINE('',#1308,#267);
#215=LINE('',#1312,#268);
#216=LINE('',#1316,#269);
#217=LINE('',#1320,#270);
#218=LINE('',#1324,#271);
#219=LINE('',#1328,#272);
#220=LINE('',#1332,#273);
#221=LINE('',#1336,#274);
#222=LINE('',#1340,#275);
#223=LINE('',#1344,#276);
#224=LINE('',#1347,#277);
#225=LINE('',#1351,#278);
#226=LINE('',#1355,#279);
#227=LINE('',#1359,#280);
#228=LINE('',#1363,#281);
#229=LINE('',#1367,#282);
#230=LINE('',#1372,#283);
#231=LINE('',#1376,#284);
#232=LINE('',#1380,#285);
#233=LINE('',#1384,#286);
#234=LINE('',#1388,#287);
#235=LINE('',#1392,#288);
#236=LINE('',#1395,#289);
#237=LINE('',#1397,#290);
#238=LINE('',#1398,#291);
#239=LINE('',#1402,#292);
#240=LINE('',#1405,#293);
#241=LINE('',#1406,#294);
#242=LINE('',#1410,#295);
#243=LINE('',#1413,#296);
#244=LINE('',#1414,#297);
#245=LINE('',#1418,#298);
#246=LINE('',#1421,#299);
#247=LINE('',#1422,#300);
#248=VECTOR('',#955,10.);
#249=VECTOR('',#958,10.);
#250=VECTOR('',#961,10.);
#251=VECTOR('',#962,10.);
#252=VECTOR('',#963,10.);
#253=VECTOR('',#966,10.);
#254=VECTOR('',#969,10.);
#255=VECTOR('',#972,10.);
#256=VECTOR('',#1015,10.);
#257=VECTOR('',#1018,10.);
#258=VECTOR('',#1021,10.);
#259=VECTOR('',#1024,10.);
#260=VECTOR('',#1031,10.);
#261=VECTOR('',#1036,10.);
#262=VECTOR('',#1037,10.);
#263=VECTOR('',#1040,10.);
#264=VECTOR('',#1045,10.);
#265=VECTOR('',#1046,10.);
#266=VECTOR('',#1051,10.);
#267=VECTOR('',#1054,10.);
#268=VECTOR('',#1059,9.75);
#269=VECTOR('',#1064,1.49999999999999);
#270=VECTOR('',#1069,1.5);
#271=VECTOR('',#1074,1.49999999999999);
#272=VECTOR('',#1079,1.49999999999999);
#273=VECTOR('',#1084,1.49999999999999);
#274=VECTOR('',#1089,1.5);
#275=VECTOR('',#1094,1.5);
#276=VECTOR('',#1099,1.49999999999999);
#277=VECTOR('',#1102,1.50000081211331);
#278=VECTOR('',#1107,1.49999999999999);
#279=VECTOR('',#1112,1.50000000000002);
#280=VECTOR('',#1117,1.49999999999999);
#281=VECTOR('',#1122,1.5);
#282=VECTOR('',#1127,1.5);
#283=VECTOR('',#1134,2.00000000000001);
#284=VECTOR('',#1139,2.00000000000003);
#285=VECTOR('',#1144,2.);
#286=VECTOR('',#1149,2.00000000000003);
#287=VECTOR('',#1154,11.);
#288=VECTOR('',#1159,11.);
#289=VECTOR('',#1162,10.);
#290=VECTOR('',#1163,10.);
#291=VECTOR('',#1164,10.);
#292=VECTOR('',#1169,10.);
#293=VECTOR('',#1172,10.);
#294=VECTOR('',#1173,10.);
#295=VECTOR('',#1178,10.);
#296=VECTOR('',#1181,10.);
#297=VECTOR('',#1182,10.);
#298=VECTOR('',#1187,10.);
#299=VECTOR('',#1190,10.);
#300=VECTOR('',#1191,10.);
#301=CIRCLE('',#850,10.);
#302=CIRCLE('',#851,10.);
#303=CIRCLE('',#854,10.);
#304=CIRCLE('',#855,10.);
#305=CIRCLE('',#856,10.);
#306=CIRCLE('',#857,10.);
#307=CIRCLE('',#858,1.49999999999999);
#308=CIRCLE('',#859,1.5);
#309=CIRCLE('',#860,1.49999999999999);
#310=CIRCLE('',#861,1.49999999999999);
#311=CIRCLE('',#862,1.49999999999999);
#312=CIRCLE('',#863,1.5);
#313=CIRCLE('',#864,1.5);
#314=CIRCLE('',#865,1.49999999999999);
#315=CIRCLE('',#866,1.50000081211331);
#316=CIRCLE('',#867,1.50000000000002);
#317=CIRCLE('',#868,1.49999999999999);
#318=CIRCLE('',#869,1.49999999999999);
#319=CIRCLE('',#870,1.5);
#320=CIRCLE('',#871,2.00000000000001);
#321=CIRCLE('',#872,2.00000000000003);
#322=CIRCLE('',#873,2.);
#323=CIRCLE('',#874,1.5);
#324=CIRCLE('',#875,2.00000000000003);
#325=CIRCLE('',#876,10.);
#326=CIRCLE('',#877,10.);
#327=CIRCLE('',#878,10.);
#328=CIRCLE('',#879,10.);
#329=CIRCLE('',#880,11.);
#330=CIRCLE('',#881,11.);
#331=CIRCLE('',#883,10.);
#332=CIRCLE('',#886,10.);
#333=CIRCLE('',#889,10.);
#334=CIRCLE('',#892,10.);
#335=CIRCLE('',#894,1.49999999999999);
#336=CIRCLE('',#896,1.5);
#337=CIRCLE('',#898,1.49999999999999);
#338=CIRCLE('',#900,1.49999999999999);
#339=CIRCLE('',#902,1.49999999999999);
#340=CIRCLE('',#904,1.5);
#341=CIRCLE('',#906,1.5);
#342=CIRCLE('',#908,1.49999999999999);
#343=CIRCLE('',#910,1.50000081211331);
#344=CIRCLE('',#912,1.49999999999999);
#345=CIRCLE('',#914,1.50000000000002);
#346=CIRCLE('',#916,1.49999999999999);
#347=CIRCLE('',#918,1.5);
#348=CIRCLE('',#920,1.5);
#349=CIRCLE('',#922,2.00000000000001);
#350=CIRCLE('',#924,2.00000000000003);
#351=CIRCLE('',#926,2.);
#352=CIRCLE('',#928,2.00000000000003);
#353=CIRCLE('',#930,11.);
#354=CIRCLE('',#932,11.);
#355=CIRCLE('',#935,10.);
#356=CIRCLE('',#938,10.);
#357=CIRCLE('',#941,10.);
#358=CIRCLE('',#944,10.);
#359=VERTEX_POINT('',#1203);
#360=VERTEX_POINT('',#1204);
#361=VERTEX_POINT('',#1206);
#362=VERTEX_POINT('',#1208);
#363=VERTEX_POINT('',#1212);
#364=VERTEX_POINT('',#1214);
#365=VERTEX_POINT('',#1218);
#366=VERTEX_POINT('',#1220);
#367=VERTEX_POINT('',#1222);
#368=VERTEX_POINT('',#1224);
#369=VERTEX_POINT('',#1226);
#370=VERTEX_POINT('',#1229);
#371=VERTEX_POINT('',#1231);
#372=VERTEX_POINT('',#1233);
#373=VERTEX_POINT('',#1235);
#374=VERTEX_POINT('',#1237);
#375=VERTEX_POINT('',#1239);
#376=VERTEX_POINT('',#1241);
#377=VERTEX_POINT('',#1243);
#378=VERTEX_POINT('',#1245);
#379=VERTEX_POINT('',#1247);
#380=VERTEX_POINT('',#1249);
#381=VERTEX_POINT('',#1251);
#382=VERTEX_POINT('',#1253);
#383=VERTEX_POINT('',#1255);
#384=VERTEX_POINT('',#1257);
#385=VERTEX_POINT('',#1259);
#386=VERTEX_POINT('',#1261);
#387=VERTEX_POINT('',#1263);
#388=VERTEX_POINT('',#1265);
#389=VERTEX_POINT('',#1267);
#390=VERTEX_POINT('',#1268);
#391=VERTEX_POINT('',#1270);
#392=VERTEX_POINT('',#1272);
#393=VERTEX_POINT('',#1274);
#394=VERTEX_POINT('',#1276);
#395=VERTEX_POINT('',#1278);
#396=VERTEX_POINT('',#1280);
#397=VERTEX_POINT('',#1283);
#398=VERTEX_POINT('',#1285);
#399=VERTEX_POINT('',#1288);
#400=VERTEX_POINT('',#1292);
#401=VERTEX_POINT('',#1296);
#402=VERTEX_POINT('',#1300);
#403=VERTEX_POINT('',#1304);
#404=VERTEX_POINT('',#1310);
#405=VERTEX_POINT('',#1314);
#406=VERTEX_POINT('',#1318);
#407=VERTEX_POINT('',#1322);
#408=VERTEX_POINT('',#1326);
#409=VERTEX_POINT('',#1330);
#410=VERTEX_POINT('',#1334);
#411=VERTEX_POINT('',#1338);
#412=VERTEX_POINT('',#1342);
#413=VERTEX_POINT('',#1346);
#414=VERTEX_POINT('',#1350);
#415=VERTEX_POINT('',#1354);
#416=VERTEX_POINT('',#1358);
#417=VERTEX_POINT('',#1362);
#418=VERTEX_POINT('',#1366);
#419=VERTEX_POINT('',#1370);
#420=VERTEX_POINT('',#1374);
#421=VERTEX_POINT('',#1378);
#422=VERTEX_POINT('',#1382);
#423=VERTEX_POINT('',#1386);
#424=VERTEX_POINT('',#1390);
#425=VERTEX_POINT('',#1394);
#426=VERTEX_POINT('',#1396);
#427=VERTEX_POINT('',#1400);
#428=VERTEX_POINT('',#1404);
#429=VERTEX_POINT('',#1408);
#430=VERTEX_POINT('',#1412);
#431=VERTEX_POINT('',#1416);
#432=VERTEX_POINT('',#1420);
#433=EDGE_CURVE('',#359,#360,#301,.T.);
#434=EDGE_CURVE('',#360,#361,#195,.T.);
#435=EDGE_CURVE('',#361,#362,#302,.T.);
#436=EDGE_CURVE('',#362,#359,#196,.T.);
#437=EDGE_CURVE('',#363,#362,#197,.T.);
#438=EDGE_CURVE('',#364,#363,#198,.T.);
#439=EDGE_CURVE('',#359,#364,#199,.F.);
#440=EDGE_CURVE('',#361,#365,#200,.T.);
#441=EDGE_CURVE('',#366,#365,#303,.T.);
#442=EDGE_CURVE('',#366,#367,#201,.T.);
#443=EDGE_CURVE('',#368,#367,#304,.T.);
#444=EDGE_CURVE('',#368,#369,#202,.T.);
#445=EDGE_CURVE('',#363,#369,#305,.T.);
#446=EDGE_CURVE('',#370,#370,#306,.F.);
#447=EDGE_CURVE('',#371,#371,#307,.T.);
#448=EDGE_CURVE('',#372,#372,#308,.T.);
#449=EDGE_CURVE('',#373,#373,#309,.T.);
#450=EDGE_CURVE('',#374,#374,#310,.T.);
#451=EDGE_CURVE('',#375,#375,#311,.T.);
#452=EDGE_CURVE('',#376,#376,#312,.T.);
#453=EDGE_CURVE('',#377,#377,#313,.T.);
#454=EDGE_CURVE('',#378,#378,#314,.T.);
#455=EDGE_CURVE('',#379,#379,#315,.T.);
#456=EDGE_CURVE('',#380,#380,#316,.T.);
#457=EDGE_CURVE('',#381,#381,#317,.T.);
#458=EDGE_CURVE('',#382,#382,#318,.T.);
#459=EDGE_CURVE('',#383,#383,#319,.T.);
#460=EDGE_CURVE('',#384,#384,#320,.T.);
#461=EDGE_CURVE('',#385,#385,#321,.T.);
#462=EDGE_CURVE('',#386,#386,#322,.T.);
#463=EDGE_CURVE('',#387,#387,#323,.T.);
#464=EDGE_CURVE('',#388,#388,#324,.T.);
#465=EDGE_CURVE('',#389,#390,#325,.T.);
#466=EDGE_CURVE('',#391,#389,#203,.T.);
#467=EDGE_CURVE('',#392,#391,#326,.T.);
#468=EDGE_CURVE('',#393,#392,#204,.T.);
#469=EDGE_CURVE('',#394,#393,#327,.T.);
#470=EDGE_CURVE('',#395,#394,#205,.T.);
#471=EDGE_CURVE('',#396,#395,#328,.T.);
#472=EDGE_CURVE('',#390,#396,#206,.T.);
#473=EDGE_CURVE('',#397,#397,#329,.T.);
#474=EDGE_CURVE('',#398,#398,#330,.T.);
#475=EDGE_CURVE('',#369,#399,#207,.T.);
#476=EDGE_CURVE('',#399,#364,#331,.T.);
#477=EDGE_CURVE('',#400,#368,#208,.T.);
#478=EDGE_CURVE('',#399,#400,#209,.T.);
#479=EDGE_CURVE('',#367,#401,#210,.T.);
#480=EDGE_CURVE('',#401,#400,#332,.T.);
#481=EDGE_CURVE('',#402,#366,#211,.T.);
#482=EDGE_CURVE('',#401,#402,#212,.F.);
#483=EDGE_CURVE('',#403,#402,#333,.T.);
#484=EDGE_CURVE('',#365,#403,#213,.T.);
#485=EDGE_CURVE('',#403,#360,#214,.T.);
#486=EDGE_CURVE('',#404,#404,#334,.T.);
#487=EDGE_CURVE('',#404,#370,#215,.T.);
#488=EDGE_CURVE('',#405,#405,#335,.T.);
#489=EDGE_CURVE('',#405,#371,#216,.T.);
#490=EDGE_CURVE('',#406,#406,#336,.T.);
#491=EDGE_CURVE('',#406,#372,#217,.T.);
#492=EDGE_CURVE('',#407,#407,#337,.T.);
#493=EDGE_CURVE('',#407,#373,#218,.T.);
#494=EDGE_CURVE('',#408,#408,#338,.T.);
#495=EDGE_CURVE('',#408,#374,#219,.T.);
#496=EDGE_CURVE('',#409,#409,#339,.T.);
#497=EDGE_CURVE('',#409,#375,#220,.T.);
#498=EDGE_CURVE('',#410,#410,#340,.T.);
#499=EDGE_CURVE('',#410,#376,#221,.T.);
#500=EDGE_CURVE('',#411,#411,#341,.T.);
#501=EDGE_CURVE('',#411,#377,#222,.T.);
#502=EDGE_CURVE('',#412,#412,#342,.T.);
#503=EDGE_CURVE('',#412,#378,#223,.T.);
#504=EDGE_CURVE('',#379,#413,#224,.T.);
#505=EDGE_CURVE('',#413,#413,#343,.T.);
#506=EDGE_CURVE('',#382,#414,#225,.T.);
#507=EDGE_CURVE('',#414,#414,#344,.T.);
#508=EDGE_CURVE('',#380,#415,#226,.T.);
#509=EDGE_CURVE('',#415,#415,#345,.T.);
#510=EDGE_CURVE('',#381,#416,#227,.T.);
#511=EDGE_CURVE('',#416,#416,#346,.T.);
#512=EDGE_CURVE('',#383,#417,#228,.T.);
#513=EDGE_CURVE('',#417,#417,#347,.T.);
#514=EDGE_CURVE('',#387,#418,#229,.T.);
#515=EDGE_CURVE('',#418,#418,#348,.T.);
#516=EDGE_CURVE('',#419,#419,#349,.T.);
#517=EDGE_CURVE('',#419,#384,#230,.T.);
#518=EDGE_CURVE('',#420,#420,#350,.T.);
#519=EDGE_CURVE('',#420,#385,#231,.T.);
#520=EDGE_CURVE('',#421,#421,#351,.T.);
#521=EDGE_CURVE('',#421,#386,#232,.T.);
#522=EDGE_CURVE('',#422,#422,#352,.T.);
#523=EDGE_CURVE('',#422,#388,#233,.T.);
#524=EDGE_CURVE('',#423,#423,#353,.T.);
#525=EDGE_CURVE('',#423,#398,#234,.T.);
#526=EDGE_CURVE('',#424,#424,#354,.T.);
#527=EDGE_CURVE('',#424,#397,#235,.T.);
#528=EDGE_CURVE('',#389,#425,#236,.T.);
#529=EDGE_CURVE('',#426,#425,#237,.T.);
#530=EDGE_CURVE('',#391,#426,#238,.T.);
#531=EDGE_CURVE('',#427,#426,#355,.T.);
#532=EDGE_CURVE('',#392,#427,#239,.T.);
#533=EDGE_CURVE('',#428,#427,#240,.T.);
#534=EDGE_CURVE('',#393,#428,#241,.T.);
#535=EDGE_CURVE('',#429,#428,#356,.T.);
#536=EDGE_CURVE('',#394,#429,#242,.T.);
#537=EDGE_CURVE('',#430,#429,#243,.T.);
#538=EDGE_CURVE('',#395,#430,#244,.T.);
#539=EDGE_CURVE('',#431,#430,#357,.T.);
#540=EDGE_CURVE('',#396,#431,#245,.T.);
#541=EDGE_CURVE('',#432,#431,#246,.T.);
#542=EDGE_CURVE('',#390,#432,#247,.T.);
#543=EDGE_CURVE('',#425,#432,#358,.T.);
#544=ORIENTED_EDGE('',*,*,#433,.T.);
#545=ORIENTED_EDGE('',*,*,#434,.T.);
#546=ORIENTED_EDGE('',*,*,#435,.T.);
#547=ORIENTED_EDGE('',*,*,#436,.T.);
#548=ORIENTED_EDGE('',*,*,#436,.F.);
#549=ORIENTED_EDGE('',*,*,#437,.F.);
#550=ORIENTED_EDGE('',*,*,#438,.F.);
#551=ORIENTED_EDGE('',*,*,#439,.F.);
#552=ORIENTED_EDGE('',*,*,#435,.F.);
#553=ORIENTED_EDGE('',*,*,#440,.T.);
#554=ORIENTED_EDGE('',*,*,#441,.F.);
#555=ORIENTED_EDGE('',*,*,#442,.T.);
#556=ORIENTED_EDGE('',*,*,#443,.F.);
#557=ORIENTED_EDGE('',*,*,#444,.T.);
#558=ORIENTED_EDGE('',*,*,#445,.F.);
#559=ORIENTED_EDGE('',*,*,#437,.T.);
#560=ORIENTED_EDGE('',*,*,#446,.T.);
#561=ORIENTED_EDGE('',*,*,#447,.T.);
#562=ORIENTED_EDGE('',*,*,#448,.T.);
#563=ORIENTED_EDGE('',*,*,#449,.T.);
#564=ORIENTED_EDGE('',*,*,#450,.T.);
#565=ORIENTED_EDGE('',*,*,#451,.T.);
#566=ORIENTED_EDGE('',*,*,#452,.T.);
#567=ORIENTED_EDGE('',*,*,#453,.T.);
#568=ORIENTED_EDGE('',*,*,#454,.T.);
#569=ORIENTED_EDGE('',*,*,#455,.T.);
#570=ORIENTED_EDGE('',*,*,#456,.T.);
#571=ORIENTED_EDGE('',*,*,#457,.T.);
#572=ORIENTED_EDGE('',*,*,#458,.T.);
#573=ORIENTED_EDGE('',*,*,#459,.T.);
#574=ORIENTED_EDGE('',*,*,#460,.T.);
#575=ORIENTED_EDGE('',*,*,#461,.T.);
#576=ORIENTED_EDGE('',*,*,#462,.T.);
#577=ORIENTED_EDGE('',*,*,#463,.T.);
#578=ORIENTED_EDGE('',*,*,#464,.T.);
#579=ORIENTED_EDGE('',*,*,#465,.F.);
#580=ORIENTED_EDGE('',*,*,#466,.F.);
#581=ORIENTED_EDGE('',*,*,#467,.F.);
#582=ORIENTED_EDGE('',*,*,#468,.F.);
#583=ORIENTED_EDGE('',*,*,#469,.F.);
#584=ORIENTED_EDGE('',*,*,#470,.F.);
#585=ORIENTED_EDGE('',*,*,#471,.F.);
#586=ORIENTED_EDGE('',*,*,#472,.F.);
#587=ORIENTED_EDGE('',*,*,#473,.F.);
#588=ORIENTED_EDGE('',*,*,#474,.F.);
#589=ORIENTED_EDGE('',*,*,#445,.T.);
#590=ORIENTED_EDGE('',*,*,#475,.T.);
#591=ORIENTED_EDGE('',*,*,#476,.T.);
#592=ORIENTED_EDGE('',*,*,#438,.T.);
#593=ORIENTED_EDGE('',*,*,#475,.F.);
#594=ORIENTED_EDGE('',*,*,#444,.F.);
#595=ORIENTED_EDGE('',*,*,#477,.F.);
#596=ORIENTED_EDGE('',*,*,#478,.F.);
#597=ORIENTED_EDGE('',*,*,#443,.T.);
#598=ORIENTED_EDGE('',*,*,#479,.T.);
#599=ORIENTED_EDGE('',*,*,#480,.T.);
#600=ORIENTED_EDGE('',*,*,#477,.T.);
#601=ORIENTED_EDGE('',*,*,#479,.F.);
#602=ORIENTED_EDGE('',*,*,#442,.F.);
#603=ORIENTED_EDGE('',*,*,#481,.F.);
#604=ORIENTED_EDGE('',*,*,#482,.F.);
#605=ORIENTED_EDGE('',*,*,#483,.T.);
#606=ORIENTED_EDGE('',*,*,#481,.T.);
#607=ORIENTED_EDGE('',*,*,#441,.T.);
#608=ORIENTED_EDGE('',*,*,#484,.T.);
#609=ORIENTED_EDGE('',*,*,#434,.F.);
#610=ORIENTED_EDGE('',*,*,#485,.F.);
#611=ORIENTED_EDGE('',*,*,#484,.F.);
#612=ORIENTED_EDGE('',*,*,#440,.F.);
#613=ORIENTED_EDGE('',*,*,#486,.F.);
#614=ORIENTED_EDGE('',*,*,#487,.T.);
#615=ORIENTED_EDGE('',*,*,#446,.F.);
#616=ORIENTED_EDGE('',*,*,#487,.F.);
#617=ORIENTED_EDGE('',*,*,#488,.F.);
#618=ORIENTED_EDGE('',*,*,#489,.T.);
#619=ORIENTED_EDGE('',*,*,#447,.F.);
#620=ORIENTED_EDGE('',*,*,#489,.F.);
#621=ORIENTED_EDGE('',*,*,#490,.F.);
#622=ORIENTED_EDGE('',*,*,#491,.T.);
#623=ORIENTED_EDGE('',*,*,#448,.F.);
#624=ORIENTED_EDGE('',*,*,#491,.F.);
#625=ORIENTED_EDGE('',*,*,#492,.F.);
#626=ORIENTED_EDGE('',*,*,#493,.T.);
#627=ORIENTED_EDGE('',*,*,#449,.F.);
#628=ORIENTED_EDGE('',*,*,#493,.F.);
#629=ORIENTED_EDGE('',*,*,#494,.F.);
#630=ORIENTED_EDGE('',*,*,#495,.T.);
#631=ORIENTED_EDGE('',*,*,#450,.F.);
#632=ORIENTED_EDGE('',*,*,#495,.F.);
#633=ORIENTED_EDGE('',*,*,#496,.F.);
#634=ORIENTED_EDGE('',*,*,#497,.T.);
#635=ORIENTED_EDGE('',*,*,#451,.F.);
#636=ORIENTED_EDGE('',*,*,#497,.F.);
#637=ORIENTED_EDGE('',*,*,#498,.F.);
#638=ORIENTED_EDGE('',*,*,#499,.T.);
#639=ORIENTED_EDGE('',*,*,#452,.F.);
#640=ORIENTED_EDGE('',*,*,#499,.F.);
#641=ORIENTED_EDGE('',*,*,#500,.F.);
#642=ORIENTED_EDGE('',*,*,#501,.T.);
#643=ORIENTED_EDGE('',*,*,#453,.F.);
#644=ORIENTED_EDGE('',*,*,#501,.F.);
#645=ORIENTED_EDGE('',*,*,#502,.F.);
#646=ORIENTED_EDGE('',*,*,#503,.T.);
#647=ORIENTED_EDGE('',*,*,#454,.F.);
#648=ORIENTED_EDGE('',*,*,#503,.F.);
#649=ORIENTED_EDGE('',*,*,#455,.F.);
#650=ORIENTED_EDGE('',*,*,#504,.T.);
#651=ORIENTED_EDGE('',*,*,#505,.T.);
#652=ORIENTED_EDGE('',*,*,#504,.F.);
#653=ORIENTED_EDGE('',*,*,#458,.F.);
#654=ORIENTED_EDGE('',*,*,#506,.T.);
#655=ORIENTED_EDGE('',*,*,#507,.T.);
#656=ORIENTED_EDGE('',*,*,#506,.F.);
#657=ORIENTED_EDGE('',*,*,#456,.F.);
#658=ORIENTED_EDGE('',*,*,#508,.T.);
#659=ORIENTED_EDGE('',*,*,#509,.T.);
#660=ORIENTED_EDGE('',*,*,#508,.F.);
#661=ORIENTED_EDGE('',*,*,#457,.F.);
#662=ORIENTED_EDGE('',*,*,#510,.T.);
#663=ORIENTED_EDGE('',*,*,#511,.T.);
#664=ORIENTED_EDGE('',*,*,#510,.F.);
#665=ORIENTED_EDGE('',*,*,#459,.F.);
#666=ORIENTED_EDGE('',*,*,#512,.T.);
#667=ORIENTED_EDGE('',*,*,#513,.T.);
#668=ORIENTED_EDGE('',*,*,#512,.F.);
#669=ORIENTED_EDGE('',*,*,#463,.F.);
#670=ORIENTED_EDGE('',*,*,#514,.T.);
#671=ORIENTED_EDGE('',*,*,#515,.T.);
#672=ORIENTED_EDGE('',*,*,#514,.F.);
#673=ORIENTED_EDGE('',*,*,#516,.F.);
#674=ORIENTED_EDGE('',*,*,#517,.T.);
#675=ORIENTED_EDGE('',*,*,#460,.F.);
#676=ORIENTED_EDGE('',*,*,#517,.F.);
#677=ORIENTED_EDGE('',*,*,#518,.F.);
#678=ORIENTED_EDGE('',*,*,#519,.T.);
#679=ORIENTED_EDGE('',*,*,#461,.F.);
#680=ORIENTED_EDGE('',*,*,#519,.F.);
#681=ORIENTED_EDGE('',*,*,#520,.F.);
#682=ORIENTED_EDGE('',*,*,#521,.T.);
#683=ORIENTED_EDGE('',*,*,#462,.F.);
#684=ORIENTED_EDGE('',*,*,#521,.F.);
#685=ORIENTED_EDGE('',*,*,#522,.F.);
#686=ORIENTED_EDGE('',*,*,#523,.T.);
#687=ORIENTED_EDGE('',*,*,#464,.F.);
#688=ORIENTED_EDGE('',*,*,#523,.F.);
#689=ORIENTED_EDGE('',*,*,#524,.F.);
#690=ORIENTED_EDGE('',*,*,#525,.T.);
#691=ORIENTED_EDGE('',*,*,#474,.T.);
#692=ORIENTED_EDGE('',*,*,#525,.F.);
#693=ORIENTED_EDGE('',*,*,#526,.F.);
#694=ORIENTED_EDGE('',*,*,#527,.T.);
#695=ORIENTED_EDGE('',*,*,#473,.T.);
#696=ORIENTED_EDGE('',*,*,#527,.F.);
#697=ORIENTED_EDGE('',*,*,#466,.T.);
#698=ORIENTED_EDGE('',*,*,#528,.T.);
#699=ORIENTED_EDGE('',*,*,#529,.F.);
#700=ORIENTED_EDGE('',*,*,#530,.F.);
#701=ORIENTED_EDGE('',*,*,#467,.T.);
#702=ORIENTED_EDGE('',*,*,#530,.T.);
#703=ORIENTED_EDGE('',*,*,#531,.F.);
#704=ORIENTED_EDGE('',*,*,#532,.F.);
#705=ORIENTED_EDGE('',*,*,#468,.T.);
#706=ORIENTED_EDGE('',*,*,#532,.T.);
#707=ORIENTED_EDGE('',*,*,#533,.F.);
#708=ORIENTED_EDGE('',*,*,#534,.F.);
#709=ORIENTED_EDGE('',*,*,#469,.T.);
#710=ORIENTED_EDGE('',*,*,#534,.T.);
#711=ORIENTED_EDGE('',*,*,#535,.F.);
#712=ORIENTED_EDGE('',*,*,#536,.F.);
#713=ORIENTED_EDGE('',*,*,#470,.T.);
#714=ORIENTED_EDGE('',*,*,#536,.T.);
#715=ORIENTED_EDGE('',*,*,#537,.F.);
#716=ORIENTED_EDGE('',*,*,#538,.F.);
#717=ORIENTED_EDGE('',*,*,#471,.T.);
#718=ORIENTED_EDGE('',*,*,#538,.T.);
#719=ORIENTED_EDGE('',*,*,#539,.F.);
#720=ORIENTED_EDGE('',*,*,#540,.F.);
#721=ORIENTED_EDGE('',*,*,#472,.T.);
#722=ORIENTED_EDGE('',*,*,#540,.T.);
#723=ORIENTED_EDGE('',*,*,#541,.F.);
#724=ORIENTED_EDGE('',*,*,#542,.F.);
#725=ORIENTED_EDGE('',*,*,#465,.T.);
#726=ORIENTED_EDGE('',*,*,#542,.T.);
#727=ORIENTED_EDGE('',*,*,#543,.F.);
#728=ORIENTED_EDGE('',*,*,#528,.F.);
#729=ORIENTED_EDGE('',*,*,#433,.F.);
#730=ORIENTED_EDGE('',*,*,#439,.T.);
#731=ORIENTED_EDGE('',*,*,#476,.F.);
#732=ORIENTED_EDGE('',*,*,#478,.T.);
#733=ORIENTED_EDGE('',*,*,#480,.F.);
#734=ORIENTED_EDGE('',*,*,#482,.T.);
#735=ORIENTED_EDGE('',*,*,#483,.F.);
#736=ORIENTED_EDGE('',*,*,#485,.T.);
#737=ORIENTED_EDGE('',*,*,#486,.T.);
#738=ORIENTED_EDGE('',*,*,#488,.T.);
#739=ORIENTED_EDGE('',*,*,#490,.T.);
#740=ORIENTED_EDGE('',*,*,#492,.T.);
#741=ORIENTED_EDGE('',*,*,#494,.T.);
#742=ORIENTED_EDGE('',*,*,#496,.T.);
#743=ORIENTED_EDGE('',*,*,#498,.T.);
#744=ORIENTED_EDGE('',*,*,#500,.T.);
#745=ORIENTED_EDGE('',*,*,#502,.T.);
#746=ORIENTED_EDGE('',*,*,#509,.F.);
#747=ORIENTED_EDGE('',*,*,#511,.F.);
#748=ORIENTED_EDGE('',*,*,#507,.F.);
#749=ORIENTED_EDGE('',*,*,#513,.F.);
#750=ORIENTED_EDGE('',*,*,#515,.F.);
#751=ORIENTED_EDGE('',*,*,#516,.T.);
#752=ORIENTED_EDGE('',*,*,#518,.T.);
#753=ORIENTED_EDGE('',*,*,#520,.T.);
#754=ORIENTED_EDGE('',*,*,#505,.F.);
#755=ORIENTED_EDGE('',*,*,#522,.T.);
#756=ORIENTED_EDGE('',*,*,#543,.T.);
#757=ORIENTED_EDGE('',*,*,#541,.T.);
#758=ORIENTED_EDGE('',*,*,#539,.T.);
#759=ORIENTED_EDGE('',*,*,#537,.T.);
#760=ORIENTED_EDGE('',*,*,#535,.T.);
#761=ORIENTED_EDGE('',*,*,#533,.T.);
#762=ORIENTED_EDGE('',*,*,#531,.T.);
#763=ORIENTED_EDGE('',*,*,#529,.T.);
#764=ORIENTED_EDGE('',*,*,#526,.T.);
#765=ORIENTED_EDGE('',*,*,#524,.T.);
#766=CYLINDRICAL_SURFACE('',#849,10.);
#767=CYLINDRICAL_SURFACE('',#882,10.);
#768=CYLINDRICAL_SURFACE('',#885,10.);
#769=CYLINDRICAL_SURFACE('',#888,10.);
#770=CYLINDRICAL_SURFACE('',#891,10.);
#771=CYLINDRICAL_SURFACE('',#893,1.49999999999999);
#772=CYLINDRICAL_SURFACE('',#895,1.5);
#773=CYLINDRICAL_SURFACE('',#897,1.49999999999999);
#774=CYLINDRICAL_SURFACE('',#899,1.49999999999999);
#775=CYLINDRICAL_SURFACE('',#901,1.49999999999999);
#776=CYLINDRICAL_SURFACE('',#903,1.5);
#777=CYLINDRICAL_SURFACE('',#905,1.5);
#778=CYLINDRICAL_SURFACE('',#907,1.49999999999999);
#779=CYLINDRICAL_SURFACE('',#909,1.50000081211331);
#780=CYLINDRICAL_SURFACE('',#911,1.49999999999999);
#781=CYLINDRICAL_SURFACE('',#913,1.50000000000002);
#782=CYLINDRICAL_SURFACE('',#915,1.49999999999999);
#783=CYLINDRICAL_SURFACE('',#917,1.5);
#784=CYLINDRICAL_SURFACE('',#919,1.5);
#785=CYLINDRICAL_SURFACE('',#921,2.00000000000001);
#786=CYLINDRICAL_SURFACE('',#923,2.00000000000003);
#787=CYLINDRICAL_SURFACE('',#925,2.);
#788=CYLINDRICAL_SURFACE('',#927,2.00000000000003);
#789=CYLINDRICAL_SURFACE('',#929,11.);
#790=CYLINDRICAL_SURFACE('',#931,11.);
#791=CYLINDRICAL_SURFACE('',#934,10.);
#792=CYLINDRICAL_SURFACE('',#937,10.);
#793=CYLINDRICAL_SURFACE('',#940,10.);
#794=CYLINDRICAL_SURFACE('',#943,10.);
#795=ADVANCED_FACE('',(#73),#766,.T.);
#796=ADVANCED_FACE('',(#74),#63,.T.);
#797=ADVANCED_FACE('',(#75,#19,#20,#21,#22,#23,#24,#25,#26,#27,#28,#29,
#30,#31,#32,#33,#34,#35,#36,#37,#38,#39,#40),#64,.F.);
#798=ADVANCED_FACE('',(#76),#767,.T.);
#799=ADVANCED_FACE('',(#77),#65,.T.);
#800=ADVANCED_FACE('',(#78),#768,.T.);
#801=ADVANCED_FACE('',(#79),#66,.T.);
#802=ADVANCED_FACE('',(#80),#769,.T.);
#803=ADVANCED_FACE('',(#81),#67,.T.);
#804=ADVANCED_FACE('',(#82),#770,.F.);
#805=ADVANCED_FACE('',(#83),#771,.F.);
#806=ADVANCED_FACE('',(#84),#772,.F.);
#807=ADVANCED_FACE('',(#85),#773,.F.);
#808=ADVANCED_FACE('',(#86),#774,.F.);
#809=ADVANCED_FACE('',(#87),#775,.F.);
#810=ADVANCED_FACE('',(#88),#776,.F.);
#811=ADVANCED_FACE('',(#89),#777,.F.);
#812=ADVANCED_FACE('',(#90),#778,.F.);
#813=ADVANCED_FACE('',(#91),#779,.F.);
#814=ADVANCED_FACE('',(#92),#780,.F.);
#815=ADVANCED_FACE('',(#93),#781,.F.);
#816=ADVANCED_FACE('',(#94),#782,.F.);
#817=ADVANCED_FACE('',(#95),#783,.F.);
#818=ADVANCED_FACE('',(#96),#784,.F.);
#819=ADVANCED_FACE('',(#97),#785,.F.);
#820=ADVANCED_FACE('',(#98),#786,.F.);
#821=ADVANCED_FACE('',(#99),#787,.F.);
#822=ADVANCED_FACE('',(#100),#788,.F.);
#823=ADVANCED_FACE('',(#101),#789,.F.);
#824=ADVANCED_FACE('',(#102),#790,.F.);
#825=ADVANCED_FACE('',(#103),#68,.T.);
#826=ADVANCED_FACE('',(#104),#791,.F.);
#827=ADVANCED_FACE('',(#105),#69,.T.);
#828=ADVANCED_FACE('',(#106),#792,.F.);
#829=ADVANCED_FACE('',(#107),#70,.T.);
#830=ADVANCED_FACE('',(#108),#793,.F.);
#831=ADVANCED_FACE('',(#109),#71,.T.);
#832=ADVANCED_FACE('',(#110),#794,.F.);
#833=ADVANCED_FACE('',(#111,#41,#42,#43,#44,#45,#46,#47,#48,#49,#50,#51,
#52,#53,#54,#55,#56,#57,#58,#59,#60,#61,#62),#72,.T.);
#834=CLOSED_SHELL('',(#795,#796,#797,#798,#799,#800,#801,#802,#803,#804,
#805,#806,#807,#808,#809,#810,#811,#812,#813,#814,#815,#816,#817,#818,#819,
#820,#821,#822,#823,#824,#825,#826,#827,#828,#829,#830,#831,#832,#833));
#835=DERIVED_UNIT_ELEMENT(#837,1.);
#836=DERIVED_UNIT_ELEMENT(#1434,-3.);
#837=(
MASS_UNIT()
NAMED_UNIT(*)
SI_UNIT(.KILO.,.GRAM.)
);
#838=DERIVED_UNIT((#835,#836));
#839=MEASURE_REPRESENTATION_ITEM('density measure',
POSITIVE_RATIO_MEASURE(7850.),#838);
#840=PROPERTY_DEFINITION_REPRESENTATION(#845,#842);
#841=PROPERTY_DEFINITION_REPRESENTATION(#846,#843);
#842=REPRESENTATION('material name',(#844),#1431);
#843=REPRESENTATION('density',(#839),#1431);
#844=DESCRIPTIVE_REPRESENTATION_ITEM('Acero','Acero');
#845=PROPERTY_DEFINITION('material property','material name',#1446);
#846=PROPERTY_DEFINITION('material property','density of part',#1446);
#847=AXIS2_PLACEMENT_3D('',#1200,#947,#948);
#848=AXIS2_PLACEMENT_3D('',#1201,#949,#950);
#849=AXIS2_PLACEMENT_3D('',#1202,#951,#952);
#850=AXIS2_PLACEMENT_3D('',#1205,#953,#954);
#851=AXIS2_PLACEMENT_3D('',#1209,#956,#957);
#852=AXIS2_PLACEMENT_3D('',#1211,#959,#960);
#853=AXIS2_PLACEMENT_3D('',#1217,#964,#965);
#854=AXIS2_PLACEMENT_3D('',#1221,#967,#968);
#855=AXIS2_PLACEMENT_3D('',#1225,#970,#971);
#856=AXIS2_PLACEMENT_3D('',#1228,#973,#974);
#857=AXIS2_PLACEMENT_3D('',#1230,#975,#976);
#858=AXIS2_PLACEMENT_3D('',#1232,#977,#978);
#859=AXIS2_PLACEMENT_3D('',#1234,#979,#980);
#860=AXIS2_PLACEMENT_3D('',#1236,#981,#982);
#861=AXIS2_PLACEMENT_3D('',#1238,#983,#984);
#862=AXIS2_PLACEMENT_3D('',#1240,#985,#986);
#863=AXIS2_PLACEMENT_3D('',#1242,#987,#988);
#864=AXIS2_PLACEMENT_3D('',#1244,#989,#990);
#865=AXIS2_PLACEMENT_3D('',#1246,#991,#992);
#866=AXIS2_PLACEMENT_3D('',#1248,#993,#994);
#867=AXIS2_PLACEMENT_3D('',#1250,#995,#996);
#868=AXIS2_PLACEMENT_3D('',#1252,#997,#998);
#869=AXIS2_PLACEMENT_3D('',#1254,#999,#1000);
#870=AXIS2_PLACEMENT_3D('',#1256,#1001,#1002);
#871=AXIS2_PLACEMENT_3D('',#1258,#1003,#1004);
#872=AXIS2_PLACEMENT_3D('',#1260,#1005,#1006);
#873=AXIS2_PLACEMENT_3D('',#1262,#1007,#1008);
#874=AXIS2_PLACEMENT_3D('',#1264,#1009,#1010);
#875=AXIS2_PLACEMENT_3D('',#1266,#1011,#1012);
#876=AXIS2_PLACEMENT_3D('',#1269,#1013,#1014);
#877=AXIS2_PLACEMENT_3D('',#1273,#1016,#1017);
#878=AXIS2_PLACEMENT_3D('',#1277,#1019,#1020);
#879=AXIS2_PLACEMENT_3D('',#1281,#1022,#1023);
#880=AXIS2_PLACEMENT_3D('',#1284,#1025,#1026);
#881=AXIS2_PLACEMENT_3D('',#1286,#1027,#1028);
#882=AXIS2_PLACEMENT_3D('',#1287,#1029,#1030);
#883=AXIS2_PLACEMENT_3D('',#1290,#1032,#1033);
#884=AXIS2_PLACEMENT_3D('',#1291,#1034,#1035);
#885=AXIS2_PLACEMENT_3D('',#1295,#1038,#1039);
#886=AXIS2_PLACEMENT_3D('',#1298,#1041,#1042);
#887=AXIS2_PLACEMENT_3D('',#1299,#1043,#1044);
#888=AXIS2_PLACEMENT_3D('',#1303,#1047,#1048);
#889=AXIS2_PLACEMENT_3D('',#1305,#1049,#1050);
#890=AXIS2_PLACEMENT_3D('',#1307,#1052,#1053);
#891=AXIS2_PLACEMENT_3D('',#1309,#1055,#1056);
#892=AXIS2_PLACEMENT_3D('',#1311,#1057,#1058);
#893=AXIS2_PLACEMENT_3D('',#1313,#1060,#1061);
#894=AXIS2_PLACEMENT_3D('',#1315,#1062,#1063);
#895=AXIS2_PLACEMENT_3D('',#1317,#1065,#1066);
#896=AXIS2_PLACEMENT_3D('',#1319,#1067,#1068);
#897=AXIS2_PLACEMENT_3D('',#1321,#1070,#1071);
#898=AXIS2_PLACEMENT_3D('',#1323,#1072,#1073);
#899=AXIS2_PLACEMENT_3D('',#1325,#1075,#1076);
#900=AXIS2_PLACEMENT_3D('',#1327,#1077,#1078);
#901=AXIS2_PLACEMENT_3D('',#1329,#1080,#1081);
#902=AXIS2_PLACEMENT_3D('',#1331,#1082,#1083);
#903=AXIS2_PLACEMENT_3D('',#1333,#1085,#1086);
#904=AXIS2_PLACEMENT_3D('',#1335,#1087,#1088);
#905=AXIS2_PLACEMENT_3D('',#1337,#1090,#1091);
#906=AXIS2_PLACEMENT_3D('',#1339,#1092,#1093);
#907=AXIS2_PLACEMENT_3D('',#1341,#1095,#1096);
#908=AXIS2_PLACEMENT_3D('',#1343,#1097,#1098);
#909=AXIS2_PLACEMENT_3D('',#1345,#1100,#1101);
#910=AXIS2_PLACEMENT_3D('',#1348,#1103,#1104);
#911=AXIS2_PLACEMENT_3D('',#1349,#1105,#1106);
#912=AXIS2_PLACEMENT_3D('',#1352,#1108,#1109);
#913=AXIS2_PLACEMENT_3D('',#1353,#1110,#1111);
#914=AXIS2_PLACEMENT_3D('',#1356,#1113,#1114);
#915=AXIS2_PLACEMENT_3D('',#1357,#1115,#1116);
#916=AXIS2_PLACEMENT_3D('',#1360,#1118,#1119);
#917=AXIS2_PLACEMENT_3D('',#1361,#1120,#1121);
#918=AXIS2_PLACEMENT_3D('',#1364,#1123,#1124);
#919=AXIS2_PLACEMENT_3D('',#1365,#1125,#1126);
#920=AXIS2_PLACEMENT_3D('',#1368,#1128,#1129);
#921=AXIS2_PLACEMENT_3D('',#1369,#1130,#1131);
#922=AXIS2_PLACEMENT_3D('',#1371,#1132,#1133);
#923=AXIS2_PLACEMENT_3D('',#1373,#1135,#1136);
#924=AXIS2_PLACEMENT_3D('',#1375,#1137,#1138);
#925=AXIS2_PLACEMENT_3D('',#1377,#1140,#1141);
#926=AXIS2_PLACEMENT_3D('',#1379,#1142,#1143);
#927=AXIS2_PLACEMENT_3D('',#1381,#1145,#1146);
#928=AXIS2_PLACEMENT_3D('',#1383,#1147,#1148);
#929=AXIS2_PLACEMENT_3D('',#1385,#1150,#1151);
#930=AXIS2_PLACEMENT_3D('',#1387,#1152,#1153);
#931=AXIS2_PLACEMENT_3D('',#1389,#1155,#1156);
#932=AXIS2_PLACEMENT_3D('',#1391,#1157,#1158);
#933=AXIS2_PLACEMENT_3D('',#1393,#1160,#1161);
#934=AXIS2_PLACEMENT_3D('',#1399,#1165,#1166);
#935=AXIS2_PLACEMENT_3D('',#1401,#1167,#1168);
#936=AXIS2_PLACEMENT_3D('',#1403,#1170,#1171);
#937=AXIS2_PLACEMENT_3D('',#1407,#1174,#1175);
#938=AXIS2_PLACEMENT_3D('',#1409,#1176,#1177);
#939=AXIS2_PLACEMENT_3D('',#1411,#1179,#1180);
#940=AXIS2_PLACEMENT_3D('',#1415,#1183,#1184);
#941=AXIS2_PLACEMENT_3D('',#1417,#1185,#1186);
#942=AXIS2_PLACEMENT_3D('',#1419,#1188,#1189);
#943=AXIS2_PLACEMENT_3D('',#1423,#1192,#1193);
#944=AXIS2_PLACEMENT_3D('',#1424,#1194,#1195);
#945=AXIS2_PLACEMENT_3D('',#1425,#1196,#1197);
#946=AXIS2_PLACEMENT_3D('',#1426,#1198,#1199);
#947=DIRECTION('axis',(0.,0.,1.));
#948=DIRECTION('refdir',(1.,0.,0.));
#949=DIRECTION('axis',(0.,0.,1.));
#950=DIRECTION('refdir',(1.,0.,0.));
#951=DIRECTION('center_axis',(0.,-1.,0.));
#952=DIRECTION('ref_axis',(-0.707106781186548,0.,0.707106781186547));
#953=DIRECTION('center_axis',(-3.30872245021211E-24,1.,0.));
#954=DIRECTION('ref_axis',(-0.707106781186548,0.,0.707106781186547));
#955=DIRECTION('',(0.,1.,0.));
#956=DIRECTION('center_axis',(3.30872245021211E-24,-1.,0.));
#957=DIRECTION('ref_axis',(-0.707106781186548,0.,0.707106781186547));
#958=DIRECTION('',(0.,-1.,0.));
#959=DIRECTION('center_axis',(-1.,0.,0.));
#960=DIRECTION('ref_axis',(0.,0.,-1.));
#961=DIRECTION('',(0.,0.,1.));
#962=DIRECTION('',(0.,1.,0.));
#963=DIRECTION('',(0.,0.,1.));
#964=DIRECTION('center_axis',(3.30872245021211E-24,-1.,0.));
#965=DIRECTION('ref_axis',(-1.,-3.30872245021211E-24,0.));
#966=DIRECTION('',(1.,3.30872245021211E-24,0.));
#967=DIRECTION('center_axis',(3.30872245021211E-24,-1.,0.));
#968=DIRECTION('ref_axis',(0.707106781186547,0.,0.707106781186547));
#969=DIRECTION('',(0.,0.,-1.));
#970=DIRECTION('center_axis',(3.30872245021211E-24,-1.,0.));
#971=DIRECTION('ref_axis',(0.707106781186546,0.,-0.707106781186549));
#972=DIRECTION('',(-1.,-3.30872245021211E-24,9.10952225333461E-17));
#973=DIRECTION('center_axis',(3.30872245021211E-24,-1.,0.));
#974=DIRECTION('ref_axis',(-0.707106781186548,0.,-0.707106781186547));
#975=DIRECTION('center_axis',(-3.30872245021211E-24,1.,0.));
#976=DIRECTION('ref_axis',(1.,0.,-1.11022302462516E-16));
#977=DIRECTION('center_axis',(3.30872245021211E-24,-1.,0.));
#978=DIRECTION('ref_axis',(1.,0.,-1.11022302462516E-16));
#979=DIRECTION('center_axis',(3.30872245021211E-24,-1.,0.));
#980=DIRECTION('ref_axis',(1.,0.,-1.11022302462516E-16));
#981=DIRECTION('center_axis',(3.30872245021211E-24,-1.,0.));
#982=DIRECTION('ref_axis',(1.,0.,-1.11022302462516E-16));
#983=DIRECTION('center_axis',(3.30872245021211E-24,-1.,0.));
#984=DIRECTION('ref_axis',(1.,0.,-1.11022302462516E-16));
#985=DIRECTION('center_axis',(3.30872245021211E-24,-1.,0.));
#986=DIRECTION('ref_axis',(1.,0.,-1.11022302462516E-16));
#987=DIRECTION('center_axis',(3.30872245021211E-24,-1.,0.));
#988=DIRECTION('ref_axis',(1.,0.,-1.11022302462516E-16));
#989=DIRECTION('center_axis',(3.30872245021211E-24,-1.,0.));
#990=DIRECTION('ref_axis',(1.,0.,-1.11022302462516E-16));
#991=DIRECTION('center_axis',(3.30872245021211E-24,-1.,0.));
#992=DIRECTION('ref_axis',(1.,0.,-1.11022302462516E-16));
#993=DIRECTION('center_axis',(-2.39604423443933E-32,-1.,2.57762195362871E-48));
#994=DIRECTION('ref_axis',(1.,-2.39604423443933E-32,-1.11022302462516E-16));
#995=DIRECTION('center_axis',(-2.39604423443933E-32,-1.,2.57762195362871E-48));
#996=DIRECTION('ref_axis',(1.,-2.39604423443933E-32,-1.11022302462516E-16));
#997=DIRECTION('center_axis',(-2.39604423443933E-32,-1.,2.57762195362871E-48));
#998=DIRECTION('ref_axis',(1.,-2.39604423443933E-32,-1.11022302462516E-16));
#999=DIRECTION('center_axis',(-2.39604423443933E-32,-1.,2.57762195362871E-48));
#1000=DIRECTION('ref_axis',(1.,-2.39604423443933E-32,-1.11022302462516E-16));
#1001=DIRECTION('center_axis',(-2.39604423443933E-32,-1.,2.57762195362871E-48));
#1002=DIRECTION('ref_axis',(1.,-2.39604423443933E-32,-1.11022302462516E-16));
#1003=DIRECTION('center_axis',(3.30872245021211E-24,-1.,0.));
#1004=DIRECTION('ref_axis',(1.,0.,0.));
#1005=DIRECTION('center_axis',(3.30872245021211E-24,-1.,0.));
#1006=DIRECTION('ref_axis',(1.,0.,0.));
#1007=DIRECTION('center_axis',(3.30872245021211E-24,-1.,0.));
#1008=DIRECTION('ref_axis',(1.,0.,0.));
#1009=DIRECTION('center_axis',(-2.39604423443933E-32,-1.,2.57762195362871E-48));
#1010=DIRECTION('ref_axis',(1.,-2.39604423443933E-32,-1.11022302462516E-16));
#1011=DIRECTION('center_axis',(3.30872245021211E-24,-1.,0.));
#1012=DIRECTION('ref_axis',(1.,0.,0.));
#1013=DIRECTION('center_axis',(-3.30872245021211E-24,1.,0.));
#1014=DIRECTION('ref_axis',(-1.,-3.30872245021211E-24,0.));
#1015=DIRECTION('',(-1.,-3.30872245021211E-24,0.));
#1016=DIRECTION('center_axis',(-3.30872245021211E-24,1.,0.));
#1017=DIRECTION('ref_axis',(0.,0.,-1.));
#1018=DIRECTION('',(0.,0.,-1.));
#1019=DIRECTION('center_axis',(-3.30872245021211E-24,1.,0.));
#1020=DIRECTION('ref_axis',(1.,3.30872245021211E-24,0.));
#1021=DIRECTION('',(1.,3.30872245021211E-24,0.));
#1022=DIRECTION('center_axis',(-3.30872245021211E-24,1.,0.));
#1023=DIRECTION('ref_axis',(0.,0.,1.));
#1024=DIRECTION('',(0.,0.,1.));
#1025=DIRECTION('center_axis',(-3.30872245021211E-24,1.,0.));
#1026=DIRECTION('ref_axis',(-1.,-3.30872245021211E-24,0.));
#1027=DIRECTION('center_axis',(-3.30872245021211E-24,1.,0.));
#1028=DIRECTION('ref_axis',(-1.,-3.30872245021211E-24,0.));
#1029=DIRECTION('center_axis',(0.,1.,0.));
#1030=DIRECTION('ref_axis',(-0.707106781186548,0.,-0.707106781186547));
#1031=DIRECTION('',(0.,-1.,0.));
#1032=DIRECTION('center_axis',(-3.30872245021211E-24,1.,0.));
#1033=DIRECTION('ref_axis',(-0.707106781186548,0.,-0.707106781186547));
#1034=DIRECTION('center_axis',(-9.10952225333461E-17,0.,-1.));
#1035=DIRECTION('ref_axis',(1.,3.30872245021211E-24,-9.10952225333461E-17));
#1036=DIRECTION('',(0.,1.,0.));
#1037=DIRECTION('',(1.,3.30872245021211E-24,-9.10952225333461E-17));
#1038=DIRECTION('center_axis',(0.,1.,0.));
#1039=DIRECTION('ref_axis',(0.707106781186546,0.,-0.707106781186549));
#1040=DIRECTION('',(0.,-1.,0.));
#1041=DIRECTION('center_axis',(-3.30872245021211E-24,1.,0.));
#1042=DIRECTION('ref_axis',(0.707106781186546,0.,-0.707106781186549));
#1043=DIRECTION('center_axis',(1.,0.,0.));
#1044=DIRECTION('ref_axis',(0.,0.,1.));
#1045=DIRECTION('',(0.,1.,0.));
#1046=DIRECTION('',(0.,0.,-1.));
#1047=DIRECTION('center_axis',(0.,-1.,0.));
#1048=DIRECTION('ref_axis',(0.707106781186547,0.,0.707106781186547));
#1049=DIRECTION('center_axis',(-3.30872245021211E-24,1.,0.));
#1050=DIRECTION('ref_axis',(0.707106781186547,0.,0.707106781186547));
#1051=DIRECTION('',(0.,-1.,0.));
#1052=DIRECTION('center_axis',(0.,0.,1.));
#1053=DIRECTION('ref_axis',(-1.,-3.30872245021211E-24,0.));
#1054=DIRECTION('',(-1.,-3.30872245021211E-24,0.));
#1055=DIRECTION('center_axis',(0.,1.,0.));
#1056=DIRECTION('ref_axis',(1.,0.,-1.11022302462516E-16));
#1057=DIRECTION('center_axis',(-3.30872245021211E-24,1.,0.));
#1058=DIRECTION('ref_axis',(1.,0.,-1.11022302462516E-16));
#1059=DIRECTION('',(0.,1.,0.));
#1060=DIRECTION('center_axis',(0.,1.,0.));
#1061=DIRECTION('ref_axis',(1.,0.,-1.11022302462516E-16));
#1062=DIRECTION('center_axis',(-3.30872245021211E-24,1.,0.));
#1063=DIRECTION('ref_axis',(1.,0.,-1.11022302462516E-16));
#1064=DIRECTION('',(0.,1.,0.));
#1065=DIRECTION('center_axis',(0.,1.,0.));
#1066=DIRECTION('ref_axis',(1.,0.,-1.11022302462516E-16));
#1067=DIRECTION('center_axis',(-3.30872245021211E-24,1.,0.));
#1068=DIRECTION('ref_axis',(1.,0.,-1.11022302462516E-16));
#1069=DIRECTION('',(0.,1.,0.));
#1070=DIRECTION('center_axis',(0.,1.,0.));
#1071=DIRECTION('ref_axis',(1.,0.,-1.11022302462516E-16));
#1072=DIRECTION('center_axis',(-3.30872245021211E-24,1.,0.));
#1073=DIRECTION('ref_axis',(1.,0.,-1.11022302462516E-16));
#1074=DIRECTION('',(0.,1.,0.));
#1075=DIRECTION('center_axis',(0.,1.,0.));
#1076=DIRECTION('ref_axis',(1.,0.,-1.11022302462516E-16));
#1077=DIRECTION('center_axis',(-3.30872245021211E-24,1.,0.));
#1078=DIRECTION('ref_axis',(1.,0.,-1.11022302462516E-16));
#1079=DIRECTION('',(0.,1.,0.));
#1080=DIRECTION('center_axis',(0.,1.,0.));
#1081=DIRECTION('ref_axis',(1.,0.,-1.11022302462516E-16));
#1082=DIRECTION('center_axis',(-3.30872245021211E-24,1.,0.));
#1083=DIRECTION('ref_axis',(1.,0.,-1.11022302462516E-16));
#1084=DIRECTION('',(0.,1.,0.));
#1085=DIRECTION('center_axis',(0.,1.,0.));
#1086=DIRECTION('ref_axis',(1.,0.,-1.11022302462516E-16));
#1087=DIRECTION('center_axis',(-3.30872245021211E-24,1.,0.));
#1088=DIRECTION('ref_axis',(1.,0.,-1.11022302462516E-16));
#1089=DIRECTION('',(0.,1.,0.));
#1090=DIRECTION('center_axis',(0.,1.,0.));
#1091=DIRECTION('ref_axis',(1.,0.,-1.11022302462516E-16));
#1092=DIRECTION('center_axis',(-3.30872245021211E-24,1.,0.));
#1093=DIRECTION('ref_axis',(1.,0.,-1.11022302462516E-16));
#1094=DIRECTION('',(0.,1.,0.));
#1095=DIRECTION('center_axis',(0.,1.,0.));
#1096=DIRECTION('ref_axis',(1.,0.,-1.11022302462516E-16));
#1097=DIRECTION('center_axis',(-3.30872245021211E-24,1.,0.));
#1098=DIRECTION('ref_axis',(1.,0.,-1.11022302462516E-16));
#1099=DIRECTION('',(0.,1.,0.));
#1100=DIRECTION('center_axis',(0.,1.,0.));
#1101=DIRECTION('ref_axis',(1.,0.,-1.11022302462516E-16));
#1102=DIRECTION('',(0.,-1.,0.));
#1103=DIRECTION('center_axis',(-2.39604423443933E-32,-1.,2.57762195362871E-48));
#1104=DIRECTION('ref_axis',(1.,-2.39604423443933E-32,-1.11022302462516E-16));
#1105=DIRECTION('center_axis',(0.,1.,0.));
#1106=DIRECTION('ref_axis',(1.,0.,-1.11022302462516E-16));
#1107=DIRECTION('',(0.,-1.,0.));
#1108=DIRECTION('center_axis',(-2.39604423443933E-32,-1.,2.57762195362871E-48));
#1109=DIRECTION('ref_axis',(1.,-2.39604423443933E-32,-1.11022302462516E-16));
#1110=DIRECTION('center_axis',(0.,1.,0.));
#1111=DIRECTION('ref_axis',(1.,0.,-1.11022302462516E-16));
#1112=DIRECTION('',(0.,-1.,0.));
#1113=DIRECTION('center_axis',(-2.39604423443933E-32,-1.,2.57762195362871E-48));
#1114=DIRECTION('ref_axis',(1.,-2.39604423443933E-32,-1.11022302462516E-16));
#1115=DIRECTION('center_axis',(0.,1.,0.));
#1116=DIRECTION('ref_axis',(1.,0.,-1.11022302462516E-16));
#1117=DIRECTION('',(0.,-1.,0.));
#1118=DIRECTION('center_axis',(-2.39604423443933E-32,-1.,2.57762195362871E-48));
#1119=DIRECTION('ref_axis',(1.,-2.39604423443933E-32,-1.11022302462516E-16));
#1120=DIRECTION('center_axis',(0.,1.,0.));
#1121=DIRECTION('ref_axis',(1.,0.,-1.11022302462516E-16));
#1122=DIRECTION('',(0.,-1.,0.));
#1123=DIRECTION('center_axis',(-2.39604423443933E-32,-1.,2.57762195362871E-48));
#1124=DIRECTION('ref_axis',(1.,-2.39604423443933E-32,-1.11022302462516E-16));
#1125=DIRECTION('center_axis',(0.,1.,0.));
#1126=DIRECTION('ref_axis',(1.,0.,-1.11022302462516E-16));
#1127=DIRECTION('',(0.,-1.,0.));
#1128=DIRECTION('center_axis',(-2.39604423443933E-32,-1.,2.57762195362871E-48));
#1129=DIRECTION('ref_axis',(1.,-2.39604423443933E-32,-1.11022302462516E-16));
#1130=DIRECTION('center_axis',(0.,1.,0.));
#1131=DIRECTION('ref_axis',(1.,0.,0.));
#1132=DIRECTION('center_axis',(-3.30872245021211E-24,1.,0.));
#1133=DIRECTION('ref_axis',(1.,0.,0.));
#1134=DIRECTION('',(0.,1.,0.));
#1135=DIRECTION('center_axis',(0.,1.,0.));
#1136=DIRECTION('ref_axis',(1.,0.,0.));
#1137=DIRECTION('center_axis',(-3.30872245021211E-24,1.,0.));
#1138=DIRECTION('ref_axis',(1.,0.,0.));
#1139=DIRECTION('',(0.,1.,0.));
#1140=DIRECTION('center_axis',(0.,1.,0.));
#1141=DIRECTION('ref_axis',(1.,0.,0.));
#1142=DIRECTION('center_axis',(-3.30872245021211E-24,1.,0.));
#1143=DIRECTION('ref_axis',(1.,0.,0.));
#1144=DIRECTION('',(0.,1.,0.));
#1145=DIRECTION('center_axis',(0.,1.,0.));
#1146=DIRECTION('ref_axis',(1.,0.,0.));
#1147=DIRECTION('center_axis',(-3.30872245021211E-24,1.,0.));
#1148=DIRECTION('ref_axis',(1.,0.,0.));
#1149=DIRECTION('',(0.,1.,0.));
#1150=DIRECTION('center_axis',(0.,-1.,0.));
#1151=DIRECTION('ref_axis',(-1.,0.,0.));
#1152=DIRECTION('center_axis',(-3.30872245021211E-24,1.,0.));
#1153=DIRECTION('ref_axis',(-1.,-3.30872245021211E-24,0.));
#1154=DIRECTION('',(0.,1.,0.));
#1155=DIRECTION('center_axis',(0.,-1.,0.));
#1156=DIRECTION('ref_axis',(-1.,0.,0.));
#1157=DIRECTION('center_axis',(-3.30872245021211E-24,1.,0.));
#1158=DIRECTION('ref_axis',(-1.,-3.30872245021211E-24,0.));
#1159=DIRECTION('',(0.,1.,0.));
#1160=DIRECTION('center_axis',(0.,0.,1.));
#1161=DIRECTION('ref_axis',(-1.,-3.30872245021211E-24,0.));
#1162=DIRECTION('',(0.,-1.,0.));
#1163=DIRECTION('',(-1.,-3.30872245021211E-24,0.));
#1164=DIRECTION('',(0.,-1.,0.));
#1165=DIRECTION('center_axis',(0.,-1.,0.));
#1166=DIRECTION('ref_axis',(0.,0.,-1.));
#1167=DIRECTION('center_axis',(-3.30872245021211E-24,1.,0.));
#1168=DIRECTION('ref_axis',(0.,0.,-1.));
#1169=DIRECTION('',(0.,-1.,0.));
#1170=DIRECTION('center_axis',(-1.,0.,0.));
#1171=DIRECTION('ref_axis',(0.,0.,-1.));
#1172=DIRECTION('',(0.,0.,-1.));
#1173=DIRECTION('',(0.,-1.,0.));
#1174=DIRECTION('center_axis',(0.,-1.,0.));
#1175=DIRECTION('ref_axis',(1.,0.,0.));
#1176=DIRECTION('center_axis',(-3.30872245021211E-24,1.,0.));
#1177=DIRECTION('ref_axis',(1.,3.30872245021211E-24,0.));
#1178=DIRECTION('',(0.,-1.,0.));
#1179=DIRECTION('center_axis',(0.,0.,-1.));
#1180=DIRECTION('ref_axis',(1.,3.30872245021211E-24,0.));
#1181=DIRECTION('',(1.,3.30872245021211E-24,0.));
#1182=DIRECTION('',(0.,-1.,0.));
#1183=DIRECTION('center_axis',(0.,-1.,0.));
#1184=DIRECTION('ref_axis',(0.,0.,1.));
#1185=DIRECTION('center_axis',(-3.30872245021211E-24,1.,0.));
#1186=DIRECTION('ref_axis',(0.,0.,1.));
#1187=DIRECTION('',(0.,-1.,0.));
#1188=DIRECTION('center_axis',(1.,0.,0.));
#1189=DIRECTION('ref_axis',(0.,0.,1.));
#1190=DIRECTION('',(0.,0.,1.));
#1191=DIRECTION('',(0.,-1.,0.));
#1192=DIRECTION('center_axis',(0.,-1.,0.));
#1193=DIRECTION('ref_axis',(-1.,0.,0.));
#1194=DIRECTION('center_axis',(-3.30872245021211E-24,1.,0.));
#1195=DIRECTION('ref_axis',(-1.,-3.30872245021211E-24,0.));
#1196=DIRECTION('center_axis',(3.30872245021211E-24,-1.,0.));
#1197=DIRECTION('ref_axis',(-1.,-3.30872245021211E-24,0.));
#1198=DIRECTION('',(0.,0.,1.));
#1199=DIRECTION('',(1.,0.,0.));
#1200=CARTESIAN_POINT('',(0.,0.,0.));
#1201=CARTESIAN_POINT('',(0.,0.,0.));
#1202=CARTESIAN_POINT('Origin',(0.500002689659595,-9.49999977648258,-9.99999999999999));
#1203=CARTESIAN_POINT('',(-9.4999973103404,-13.4999997764826,-9.99999999999999));
#1204=CARTESIAN_POINT('',(0.500002689659595,-13.4999997764826,1.33226762955019E-14));
#1205=CARTESIAN_POINT('Origin',(0.500002689659595,-13.4999997764826,-9.99999999999999));
#1206=CARTESIAN_POINT('',(0.500002689659595,-9.49999977648258,1.33226762955019E-14));
#1207=CARTESIAN_POINT('',(0.500002689659595,-9.49999977648258,1.33226762955019E-14));
#1208=CARTESIAN_POINT('',(-9.4999973103404,-9.49999977648258,-9.99999999999999));
#1209=CARTESIAN_POINT('Origin',(0.500002689659595,-9.49999977648258,-9.99999999999999));
#1210=CARTESIAN_POINT('',(-9.49999731034041,-9.49999977648258,-9.99999999999999));
#1211=CARTESIAN_POINT('Origin',(-9.49999731034041,-9.49999977648258,-10.));
#1212=CARTESIAN_POINT('',(-9.4999973103404,-9.49999977648258,-90.));
#1213=CARTESIAN_POINT('',(-9.4999973103404,-9.49999977648258,-30.));
#1214=CARTESIAN_POINT('',(-9.4999973103404,-13.4999997764826,-90.));
#1215=CARTESIAN_POINT('',(-9.49999731034041,-9.49999977648258,-90.));
#1216=CARTESIAN_POINT('',(-9.4999973103404,-13.4999997764826,-30.));
#1217=CARTESIAN_POINT('Origin',(180.50000268966,-9.49999977648258,-50.));
#1218=CARTESIAN_POINT('',(360.50000268966,-9.49999977648258,1.33226762955019E-14));
#1219=CARTESIAN_POINT('',(-14.4999973103404,-9.49999977648258,1.33226762955019E-14));
#1220=CARTESIAN_POINT('',(370.50000268966,-9.49999977648258,-9.99999999999999));
#1221=CARTESIAN_POINT('Origin',(360.50000268966,-9.49999977648258,-9.99999999999999));
#1222=CARTESIAN_POINT('',(370.50000268966,-9.49999977648258,-90.));
#1223=CARTESIAN_POINT('',(370.50000268966,-9.49999977648258,-70.));
#1224=CARTESIAN_POINT('',(360.50000268966,-9.49999977648258,-100.));
#1225=CARTESIAN_POINT('Origin',(360.50000268966,-9.49999977648258,-90.));
#1226=CARTESIAN_POINT('',(0.500002689659595,-9.49999977648258,-100.));
#1227=CARTESIAN_POINT('',(375.50000268966,-9.49999977648258,-100.));
#1228=CARTESIAN_POINT('Origin',(0.500002689659595,-9.49999977648258,-90.));
#1229=CARTESIAN_POINT('',(65.,-9.49999977648258,-35.));
#1230=CARTESIAN_POINT('Origin',(75.,-9.49999977648258,-35.));
#1231=CARTESIAN_POINT('',(221.099995024502,-9.49999977648258,-8.49999977648257));
#1232=CARTESIAN_POINT('Origin',(222.599995024502,-9.49999977648258,-8.49999977648257));
#1233=CARTESIAN_POINT('',(72.9999983347952,-9.49999977648258,-8.49999977648255));
#1234=CARTESIAN_POINT('Origin',(74.4999983347952,-9.49999977648258,-8.49999977648255));
#1235=CARTESIAN_POINT('',(101.099997706711,-9.49999977648258,-8.49999977648256));
#1236=CARTESIAN_POINT('Origin',(102.599997706711,-9.49999977648258,-8.49999977648256));
#1237=CARTESIAN_POINT('',(241.099994577467,-9.49999977648258,-8.49999977648257));
#1238=CARTESIAN_POINT('Origin',(242.599994577467,-9.49999977648258,-8.49999977648257));
#1239=CARTESIAN_POINT('',(165.299996271729,-9.49999977648258,-8.49999977648256));
#1240=CARTESIAN_POINT('Origin',(166.799996271729,-9.49999977648258,-8.49999977648256));
#1241=CARTESIAN_POINT('',(55.0000008419156,-9.49999977648258,-8.50000014901158));
#1242=CARTESIAN_POINT('Origin',(56.5000008419156,-9.49999977648258,-8.50000014901158));
#1243=CARTESIAN_POINT('',(121.099997259676,-9.49999977648258,-8.49999977648256));
#1244=CARTESIAN_POINT('Origin',(122.599997259676,-9.49999977648258,-8.49999977648256));
#1245=CARTESIAN_POINT('',(285.29999358952,-9.49999977648258,-8.49999977648258));
#1246=CARTESIAN_POINT('Origin',(286.79999358952,-9.49999977648258,-8.49999977648258));
#1247=CARTESIAN_POINT('',(257.000003039837,-9.49999977648258,-92.5000013783574));
#1248=CARTESIAN_POINT('Origin',(258.50000385195,-9.49999977648258,-92.5000013783574));
#1249=CARTESIAN_POINT('',(222.299995221198,-9.49999977648258,-92.4999978989362));
#1250=CARTESIAN_POINT('Origin',(223.799995221198,-9.49999977648258,-92.4999978989362));
#1251=CARTESIAN_POINT('',(212.299995221198,-9.49999977648258,-92.4999978989362));
#1252=CARTESIAN_POINT('Origin',(213.799995221198,-9.49999977648258,-92.4999978989362));
#1253=CARTESIAN_POINT('',(162.00000243634,-9.49999977648258,-92.5000013783574));
#1254=CARTESIAN_POINT('Origin',(163.50000243634,-9.49999977648258,-92.5000013783574));
#1255=CARTESIAN_POINT('',(87.2722806574872,-9.49999977648258,-92.5000005662441));
#1256=CARTESIAN_POINT('Origin',(88.7722806574872,-9.49999977648258,-92.5000005662441));
#1257=CARTESIAN_POINT('',(7.00000028312206,-9.49999977648258,-93.0000005662441));
#1258=CARTESIAN_POINT('Origin',(9.00000028312206,-9.49999977648258,-93.0000005662441));
#1259=CARTESIAN_POINT('',(350.000005096197,-9.49999977648258,-93.0000005662441));
#1260=CARTESIAN_POINT('Origin',(352.000005096197,-9.49999977648258,-93.0000005662441));
#1261=CARTESIAN_POINT('',(27.0000002831221,-9.49999977648258,-93.0000005662441));
#1262=CARTESIAN_POINT('Origin',(29.0000002831221,-9.49999977648258,-93.0000005662441));
#1263=CARTESIAN_POINT('',(77.2722806574872,-9.49999977648258,-92.5000005662441));
#1264=CARTESIAN_POINT('Origin',(78.7722806574872,-9.49999977648258,-92.5000005662441));
#1265=CARTESIAN_POINT('',(330.000005096197,-9.49999977648258,-93.0000005662441));
#1266=CARTESIAN_POINT('Origin',(332.000005096197,-9.49999977648258,-93.0000005662441));
#1267=CARTESIAN_POINT('',(100.50000268966,-9.49999977648258,-88.0000005662441));
#1268=CARTESIAN_POINT('',(90.5000026896596,-9.49999977648258,-78.0000005662441));
#1269=CARTESIAN_POINT('Origin',(100.50000268966,-9.49999977648258,-78.0000005662441));
#1270=CARTESIAN_POINT('',(260.50000268966,-9.49999977648258,-88.0000005662441));
#1271=CARTESIAN_POINT('',(260.50000268966,-9.49999977648258,-88.0000005662441));
#1272=CARTESIAN_POINT('',(270.50000268966,-9.49999977648258,-78.0000005662441));
#1273=CARTESIAN_POINT('Origin',(260.50000268966,-9.49999977648258,-78.0000005662441));
#1274=CARTESIAN_POINT('',(270.50000268966,-9.49999977648258,-28.0000005662442));
#1275=CARTESIAN_POINT('',(270.50000268966,-9.49999977648258,-28.0000005662442));
#1276=CARTESIAN_POINT('',(260.50000268966,-9.49999977648258,-18.0000005662441));
#1277=CARTESIAN_POINT('Origin',(260.50000268966,-9.49999977648258,-28.0000005662442));
#1278=CARTESIAN_POINT('',(100.50000268966,-9.49999977648258,-18.0000005662441));
#1279=CARTESIAN_POINT('',(90.5000026896596,-9.49999977648258,-18.0000005662441));
#1280=CARTESIAN_POINT('',(90.5000026896596,-9.49999977648258,-28.0000005662441));
#1281=CARTESIAN_POINT('Origin',(100.50000268966,-9.49999977648258,-28.0000005662441));
#1282=CARTESIAN_POINT('',(90.5000026896596,-9.49999977648258,-78.0000005662441));
#1283=CARTESIAN_POINT('',(30.0000002831221,-9.49999977648258,-38.0000005662441));
#1284=CARTESIAN_POINT('Origin',(19.0000002831221,-9.49999977648258,-38.0000005662441));
#1285=CARTESIAN_POINT('',(353.000005096197,-9.49999977648258,-38.0000005662441));
#1286=CARTESIAN_POINT('Origin',(342.000005096197,-9.49999977648258,-38.0000005662441));
#1287=CARTESIAN_POINT('Origin',(0.500002689659595,-9.49999977648258,-90.));
#1288=CARTESIAN_POINT('',(0.500002689659595,-13.4999997764826,-100.));
#1289=CARTESIAN_POINT('',(0.500002689659595,-9.49999977648258,-100.));
#1290=CARTESIAN_POINT('Origin',(0.500002689659595,-13.4999997764826,-90.));
#1291=CARTESIAN_POINT('Origin',(-14.4999973103404,-9.49999977648258,-100.));
#1292=CARTESIAN_POINT('',(360.50000268966,-13.4999997764826,-100.));
#1293=CARTESIAN_POINT('',(360.50000268966,-9.49999977648258,-100.));
#1294=CARTESIAN_POINT('',(375.50000268966,-13.4999997764826,-100.));
#1295=CARTESIAN_POINT('Origin',(360.50000268966,-9.49999977648258,-90.));
#1296=CARTESIAN_POINT('',(370.50000268966,-13.4999997764826,-90.));
#1297=CARTESIAN_POINT('',(370.50000268966,-9.49999977648258,-90.));
#1298=CARTESIAN_POINT('Origin',(360.50000268966,-13.4999997764826,-90.));
#1299=CARTESIAN_POINT('Origin',(370.50000268966,-9.49999977648258,-90.));
#1300=CARTESIAN_POINT('',(370.50000268966,-13.4999997764826,-9.99999999999999));
#1301=CARTESIAN_POINT('',(370.50000268966,-9.49999977648258,-9.99999999999999));
#1302=CARTESIAN_POINT('',(370.50000268966,-13.4999997764826,-70.));
#1303=CARTESIAN_POINT('Origin',(360.50000268966,-9.49999977648258,-9.99999999999999));
#1304=CARTESIAN_POINT('',(360.50000268966,-13.4999997764826,1.33226762955019E-14));
#1305=CARTESIAN_POINT('Origin',(360.50000268966,-13.4999997764826,-9.99999999999999));
#1306=CARTESIAN_POINT('',(360.50000268966,-9.49999977648258,1.33226762955019E-14));
#1307=CARTESIAN_POINT('Origin',(375.50000268966,-9.49999977648258,1.33226762955019E-14));
#1308=CARTESIAN_POINT('',(-14.4999973103404,-13.4999997764826,1.33226762955019E-14));
#1309=CARTESIAN_POINT('Origin',(75.,-13.4999997764826,-35.));
#1310=CARTESIAN_POINT('',(65.,-13.4999997764826,-35.));
#1311=CARTESIAN_POINT('Origin',(75.,-13.4999997764826,-35.));
#1312=CARTESIAN_POINT('',(65.,-13.4999997764826,-35.));
#1313=CARTESIAN_POINT('Origin',(222.599995024502,-13.4999997764826,-8.49999977648257));
#1314=CARTESIAN_POINT('',(221.099995024502,-13.4999997764826,-8.49999977648257));
#1315=CARTESIAN_POINT('Origin',(222.599995024502,-13.4999997764826,-8.49999977648257));
#1316=CARTESIAN_POINT('',(221.099995024502,-13.4999997764826,-8.49999977648257));
#1317=CARTESIAN_POINT('Origin',(74.4999983347952,-13.4999997764826,-8.49999977648255));
#1318=CARTESIAN_POINT('',(72.9999983347952,-13.4999997764826,-8.49999977648255));
#1319=CARTESIAN_POINT('Origin',(74.4999983347952,-13.4999997764826,-8.49999977648255));
#1320=CARTESIAN_POINT('',(72.9999983347952,-13.4999997764826,-8.49999977648255));
#1321=CARTESIAN_POINT('Origin',(102.599997706711,-13.4999997764826,-8.49999977648256));
#1322=CARTESIAN_POINT('',(101.099997706711,-13.4999997764826,-8.49999977648256));
#1323=CARTESIAN_POINT('Origin',(102.599997706711,-13.4999997764826,-8.49999977648256));
#1324=CARTESIAN_POINT('',(101.099997706711,-13.4999997764826,-8.49999977648256));
#1325=CARTESIAN_POINT('Origin',(242.599994577467,-13.4999997764826,-8.49999977648257));
#1326=CARTESIAN_POINT('',(241.099994577467,-13.4999997764826,-8.49999977648257));
#1327=CARTESIAN_POINT('Origin',(242.599994577467,-13.4999997764826,-8.49999977648257));
#1328=CARTESIAN_POINT('',(241.099994577467,-13.4999997764826,-8.49999977648257));
#1329=CARTESIAN_POINT('Origin',(166.799996271729,-13.4999997764826,-8.49999977648256));
#1330=CARTESIAN_POINT('',(165.299996271729,-13.4999997764826,-8.49999977648256));
#1331=CARTESIAN_POINT('Origin',(166.799996271729,-13.4999997764826,-8.49999977648256));
#1332=CARTESIAN_POINT('',(165.299996271729,-13.4999997764826,-8.49999977648256));
#1333=CARTESIAN_POINT('Origin',(56.5000008419156,-13.4999997764826,-8.50000014901158));
#1334=CARTESIAN_POINT('',(55.0000008419156,-13.4999997764826,-8.50000014901158));
#1335=CARTESIAN_POINT('Origin',(56.5000008419156,-13.4999997764826,-8.50000014901158));
#1336=CARTESIAN_POINT('',(55.0000008419156,-13.4999997764826,-8.50000014901158));
#1337=CARTESIAN_POINT('Origin',(122.599997259676,-13.4999997764826,-8.49999977648256));
#1338=CARTESIAN_POINT('',(121.099997259676,-13.4999997764826,-8.49999977648256));
#1339=CARTESIAN_POINT('Origin',(122.599997259676,-13.4999997764826,-8.49999977648256));
#1340=CARTESIAN_POINT('',(121.099997259676,-13.4999997764826,-8.49999977648256));
#1341=CARTESIAN_POINT('Origin',(286.79999358952,-13.4999997764826,-8.49999977648258));
#1342=CARTESIAN_POINT('',(285.29999358952,-13.4999997764826,-8.49999977648258));
#1343=CARTESIAN_POINT('Origin',(286.79999358952,-13.4999997764826,-8.49999977648258));
#1344=CARTESIAN_POINT('',(285.29999358952,-13.4999997764826,-8.49999977648258));
#1345=CARTESIAN_POINT('Origin',(258.50000385195,-13.4999997764826,-92.5000013783574));
#1346=CARTESIAN_POINT('',(257.000003039837,-13.4999997764826,-92.5000013783574));
#1347=CARTESIAN_POINT('',(257.000003039837,-13.4999997764826,-92.5000013783574));
#1348=CARTESIAN_POINT('Origin',(258.50000385195,-13.4999997764826,-92.5000013783574));
#1349=CARTESIAN_POINT('Origin',(163.50000243634,-13.4999997764826,-92.5000013783574));
#1350=CARTESIAN_POINT('',(162.00000243634,-13.4999997764826,-92.5000013783574));
#1351=CARTESIAN_POINT('',(162.00000243634,-13.4999997764826,-92.5000013783574));
#1352=CARTESIAN_POINT('Origin',(163.50000243634,-13.4999997764826,-92.5000013783574));
#1353=CARTESIAN_POINT('Origin',(223.799995221198,-13.4999997764826,-92.4999978989362));
#1354=CARTESIAN_POINT('',(222.299995221198,-13.4999997764826,-92.4999978989362));
#1355=CARTESIAN_POINT('',(222.299995221198,-13.4999997764826,-92.4999978989362));
#1356=CARTESIAN_POINT('Origin',(223.799995221198,-13.4999997764826,-92.4999978989362));
#1357=CARTESIAN_POINT('Origin',(213.799995221198,-13.4999997764826,-92.4999978989362));
#1358=CARTESIAN_POINT('',(212.299995221198,-13.4999997764826,-92.4999978989362));
#1359=CARTESIAN_POINT('',(212.299995221198,-13.4999997764826,-92.4999978989362));
#1360=CARTESIAN_POINT('Origin',(213.799995221198,-13.4999997764826,-92.4999978989362));
#1361=CARTESIAN_POINT('Origin',(88.7722806574872,-13.4999997764826,-92.5000005662441));
#1362=CARTESIAN_POINT('',(87.2722806574872,-13.4999997764826,-92.5000005662441));
#1363=CARTESIAN_POINT('',(87.2722806574872,-13.4999997764826,-92.5000005662441));
#1364=CARTESIAN_POINT('Origin',(88.7722806574872,-13.4999997764826,-92.5000005662441));
#1365=CARTESIAN_POINT('Origin',(78.7722806574872,-13.4999997764826,-92.5000005662441));
#1366=CARTESIAN_POINT('',(77.2722806574872,-13.4999997764826,-92.5000005662441));
#1367=CARTESIAN_POINT('',(77.2722806574872,-13.4999997764826,-92.5000005662441));
#1368=CARTESIAN_POINT('Origin',(78.7722806574872,-13.4999997764826,-92.5000005662441));
#1369=CARTESIAN_POINT('Origin',(9.00000028312206,-13.4999997764826,-93.0000005662441));
#1370=CARTESIAN_POINT('',(7.00000028312206,-13.4999997764826,-93.0000005662441));
#1371=CARTESIAN_POINT('Origin',(9.00000028312206,-13.4999997764826,-93.0000005662441));
#1372=CARTESIAN_POINT('',(7.00000028312206,-13.4999997764826,-93.0000005662441));
#1373=CARTESIAN_POINT('Origin',(352.000005096197,-13.4999997764826,-93.0000005662441));
#1374=CARTESIAN_POINT('',(350.000005096197,-13.4999997764826,-93.0000005662441));
#1375=CARTESIAN_POINT('Origin',(352.000005096197,-13.4999997764826,-93.0000005662441));
#1376=CARTESIAN_POINT('',(350.000005096197,-13.4999997764826,-93.0000005662441));
#1377=CARTESIAN_POINT('Origin',(29.0000002831221,-13.4999997764826,-93.0000005662441));
#1378=CARTESIAN_POINT('',(27.0000002831221,-13.4999997764826,-93.0000005662441));
#1379=CARTESIAN_POINT('Origin',(29.0000002831221,-13.4999997764826,-93.0000005662441));
#1380=CARTESIAN_POINT('',(27.0000002831221,-13.4999997764826,-93.0000005662441));
#1381=CARTESIAN_POINT('Origin',(332.000005096197,-13.4999997764826,-93.0000005662441));
#1382=CARTESIAN_POINT('',(330.000005096197,-13.4999997764826,-93.0000005662441));
#1383=CARTESIAN_POINT('Origin',(332.000005096197,-13.4999997764826,-93.0000005662441));
#1384=CARTESIAN_POINT('',(330.000005096197,-13.4999997764826,-93.0000005662441));
#1385=CARTESIAN_POINT('Origin',(342.000005096197,-9.49999977648258,-38.0000005662441));
#1386=CARTESIAN_POINT('',(353.000005096197,-13.4999997764826,-38.0000005662441));
#1387=CARTESIAN_POINT('Origin',(342.000005096197,-13.4999997764826,-38.0000005662441));
#1388=CARTESIAN_POINT('',(353.000005096197,-9.49999977648258,-38.0000005662441));
#1389=CARTESIAN_POINT('Origin',(19.0000002831221,-9.49999977648258,-38.0000005662441));
#1390=CARTESIAN_POINT('',(30.0000002831221,-13.4999997764826,-38.0000005662441));
#1391=CARTESIAN_POINT('Origin',(19.0000002831221,-13.4999997764826,-38.0000005662441));
#1392=CARTESIAN_POINT('',(30.0000002831221,-9.49999977648258,-38.0000005662441));
#1393=CARTESIAN_POINT('Origin',(260.50000268966,-9.49999977648258,-88.0000005662441));
#1394=CARTESIAN_POINT('',(100.50000268966,-13.4999997764826,-88.0000005662441));
#1395=CARTESIAN_POINT('',(100.50000268966,-9.49999977648258,-88.0000005662441));
#1396=CARTESIAN_POINT('',(260.50000268966,-13.4999997764826,-88.0000005662441));
#1397=CARTESIAN_POINT('',(260.50000268966,-13.4999997764826,-88.0000005662441));
#1398=CARTESIAN_POINT('',(260.50000268966,-9.49999977648258,-88.0000005662441));
#1399=CARTESIAN_POINT('Origin',(260.50000268966,-9.49999977648258,-78.0000005662441));
#1400=CARTESIAN_POINT('',(270.50000268966,-13.4999997764826,-78.0000005662441));
#1401=CARTESIAN_POINT('Origin',(260.50000268966,-13.4999997764826,-78.0000005662441));
#1402=CARTESIAN_POINT('',(270.50000268966,-9.49999977648258,-78.0000005662441));
#1403=CARTESIAN_POINT('Origin',(270.50000268966,-9.49999977648258,-28.0000005662442));
#1404=CARTESIAN_POINT('',(270.50000268966,-13.4999997764826,-28.0000005662442));
#1405=CARTESIAN_POINT('',(270.50000268966,-13.4999997764826,-28.0000005662442));
#1406=CARTESIAN_POINT('',(270.50000268966,-9.49999977648258,-28.0000005662442));
#1407=CARTESIAN_POINT('Origin',(260.50000268966,-9.49999977648258,-28.0000005662442));
#1408=CARTESIAN_POINT('',(260.50000268966,-13.4999997764826,-18.0000005662441));
#1409=CARTESIAN_POINT('Origin',(260.50000268966,-13.4999997764826,-28.0000005662442));
#1410=CARTESIAN_POINT('',(260.50000268966,-9.49999977648258,-18.0000005662441));
#1411=CARTESIAN_POINT('Origin',(100.50000268966,-9.49999977648258,-18.0000005662441));
#1412=CARTESIAN_POINT('',(100.50000268966,-13.4999997764826,-18.0000005662441));
#1413=CARTESIAN_POINT('',(90.5000026896596,-13.4999997764826,-18.0000005662441));
#1414=CARTESIAN_POINT('',(100.50000268966,-9.49999977648258,-18.0000005662441));
#1415=CARTESIAN_POINT('Origin',(100.50000268966,-9.49999977648258,-28.0000005662441));
#1416=CARTESIAN_POINT('',(90.5000026896596,-13.4999997764826,-28.0000005662441));
#1417=CARTESIAN_POINT('Origin',(100.50000268966,-13.4999997764826,-28.0000005662441));
#1418=CARTESIAN_POINT('',(90.5000026896596,-9.49999977648258,-28.0000005662441));
#1419=CARTESIAN_POINT('Origin',(90.5000026896596,-9.49999977648258,-78.0000005662441));
#1420=CARTESIAN_POINT('',(90.5000026896596,-13.4999997764826,-78.0000005662441));
#1421=CARTESIAN_POINT('',(90.5000026896596,-13.4999997764826,-78.0000005662441));
#1422=CARTESIAN_POINT('',(90.5000026896596,-9.49999977648258,-78.0000005662441));
#1423=CARTESIAN_POINT('Origin',(100.50000268966,-9.49999977648258,-78.0000005662441));
#1424=CARTESIAN_POINT('Origin',(100.50000268966,-13.4999997764826,-78.0000005662441));
#1425=CARTESIAN_POINT('Origin',(180.50000268966,-13.4999997764826,-50.));
#1426=CARTESIAN_POINT('',(0.,0.,0.));
#1427=UNCERTAINTY_MEASURE_WITH_UNIT(LENGTH_MEASURE(0.01),#1433,
'DISTANCE_ACCURACY_VALUE',
'Maximum model space distance between geometric entities at asserted c
onnectivities');
#1428=UNCERTAINTY_MEASURE_WITH_UNIT(LENGTH_MEASURE(0.01),#1433,
'DISTANCE_ACCURACY_VALUE',
'Maximum model space distance between geometric entities at asserted c
onnectivities');
#1429=UNCERTAINTY_MEASURE_WITH_UNIT(LENGTH_MEASURE(0.01),#1433,
'DISTANCE_ACCURACY_VALUE',
'Maximum model space distance between geometric entities at asserted c
onnectivities');
#1430=(
GEOMETRIC_REPRESENTATION_CONTEXT(3)
GLOBAL_UNCERTAINTY_ASSIGNED_CONTEXT((#1427))
GLOBAL_UNIT_ASSIGNED_CONTEXT((#1433,#1435,#1436))
REPRESENTATION_CONTEXT('','3D')
);
#1431=(
GEOMETRIC_REPRESENTATION_CONTEXT(3)
GLOBAL_UNCERTAINTY_ASSIGNED_CONTEXT((#1428))
GLOBAL_UNIT_ASSIGNED_CONTEXT((#1433,#1435,#1436))
REPRESENTATION_CONTEXT('','3D')
);
#1432=(
GEOMETRIC_REPRESENTATION_CONTEXT(3)
GLOBAL_UNCERTAINTY_ASSIGNED_CONTEXT((#1429))
GLOBAL_UNIT_ASSIGNED_CONTEXT((#1433,#1435,#1436))
REPRESENTATION_CONTEXT('','3D')
);
#1433=(
LENGTH_UNIT()
NAMED_UNIT(*)
SI_UNIT(.MILLI.,.METRE.)
);
#1434=(
LENGTH_UNIT()
NAMED_UNIT(*)
SI_UNIT($,.METRE.)
);
#1435=(
NAMED_UNIT(*)
PLANE_ANGLE_UNIT()
SI_UNIT($,.RADIAN.)
);
#1436=(
NAMED_UNIT(*)
SI_UNIT($,.STERADIAN.)
SOLID_ANGLE_UNIT()
);
#1437=SHAPE_DEFINITION_REPRESENTATION(#1439,#1442);
#1438=SHAPE_DEFINITION_REPRESENTATION(#1440,#1443);
#1439=PRODUCT_DEFINITION_SHAPE('',$,#1445);
#1440=PRODUCT_DEFINITION_SHAPE('',$,#1446);
#1441=PRODUCT_DEFINITION_SHAPE($,$,#14);
#1442=SHAPE_REPRESENTATION('',(#847,#946),#1430);
#1443=SHAPE_REPRESENTATION('',(#848),#1431);
#1444=PRODUCT_DEFINITION_CONTEXT('part definition',#1452,'design');
#1445=PRODUCT_DEFINITION('Pared acr\X\EDlico','Pared acr\X\EDlico v1',#1447,
#1444);
#1446=PRODUCT_DEFINITION('Soporte acr\X\EDlico','Soporte acr\X\EDlico',
#1448,#1444);
#1447=PRODUCT_DEFINITION_FORMATION('',$,#1454);
#1448=PRODUCT_DEFINITION_FORMATION('',$,#1455);
#1449=PRODUCT_RELATED_PRODUCT_CATEGORY('Pared acr\X\EDlico v1',
'Pared acr\X\EDlico v1',(#1454));
#1450=PRODUCT_RELATED_PRODUCT_CATEGORY('Soporte acr\X\EDlico',
'Soporte acr\X\EDlico',(#1455));
#1451=APPLICATION_PROTOCOL_DEFINITION('international standard',
'automotive_design',2009,#1452);
#1452=APPLICATION_CONTEXT(
'Core Data for Automotive Mechanical Design Process');
#1453=PRODUCT_CONTEXT('part definition',#1452,'mechanical');
#1454=PRODUCT('Pared acr\X\EDlico','Pared acr\X\EDlico v1',$,(#1453));
#1455=PRODUCT('Soporte acr\X\EDlico','Soporte acr\X\EDlico',$,(#1453));
#1456=PRESENTATION_STYLE_ASSIGNMENT((#1457));
#1457=SURFACE_STYLE_USAGE(.BOTH.,#1458);
#1458=SURFACE_SIDE_STYLE('',(#1459));
#1459=SURFACE_STYLE_FILL_AREA(#1460);
#1460=FILL_AREA_STYLE('Acr\X\EDlico (claro)',(#1461));
#1461=FILL_AREA_STYLE_COLOUR('Acr\X\EDlico (claro)',#1462);
#1462=COLOUR_RGB('Acr\X\EDlico (claro)',0.964705882352941,0.964705882352941,
0.952941176470588);
ENDSEC;
END-ISO-10303-21;
