ISO-10303-21;
HEADER;
/* Generated by software containing ST-Developer
 * from STEP Tools, Inc. (www.steptools.com) 
 */

FILE_DESCRIPTION(
/* description */ (''),
/* implementation_level */ '2;1');

FILE_NAME(
/* name */ 'Tapas_Rodamientos.step',
/* time_stamp */ '2026-06-11T13:03:03-04:00',
/* author */ (''),
/* organization */ (''),
/* preprocessor_version */ 'ST-DEVELOPER v20.1',
/* originating_system */ 'Autodesk Translation Framework v15.8.0.0',
/* authorisation */ '');

FILE_SCHEMA (('AUTOMOTIVE_DESIGN { 1 0 10303 214 3 1 1 }'));
ENDSEC;

DATA;
#10=MECHANICAL_DESIGN_GEOMETRIC_PRESENTATION_REPRESENTATION('',(#26,#27,
#28),#733);
#11=CONTEXT_DEPENDENT_OVER_RIDING_STYLED_ITEM('',(#766),#748,#28,(#17));
#12=MAPPED_ITEM('',#13,#484);
#13=REPRESENTATION_MAP(#484,#746);
#14=ITEM_DEFINED_TRANSFORMATION($,$,#447,#482);
#15=ITEM_DEFINED_TRANSFORMATION($,$,#476,#483);
#16=(
REPRESENTATION_RELATIONSHIP($,$,#747,#746)
REPRESENTATION_RELATIONSHIP_WITH_TRANSFORMATION(#14)
SHAPE_REPRESENTATION_RELATIONSHIP()
);
#17=(
REPRESENTATION_RELATIONSHIP($,$,#748,#746)
REPRESENTATION_RELATIONSHIP_WITH_TRANSFORMATION(#15)
SHAPE_REPRESENTATION_RELATIONSHIP()
);
#18=CONTEXT_DEPENDENT_SHAPE_REPRESENTATION(#16,#744);
#19=CONTEXT_DEPENDENT_SHAPE_REPRESENTATION(#17,#745);
#20=NEXT_ASSEMBLY_USAGE_OCCURRENCE('Tapa Rodamiento:1',
'Tapa Rodamiento:1','Tapa Rodamiento:1',#750,#751,'Tapa Rodamiento:1');
#21=NEXT_ASSEMBLY_USAGE_OCCURRENCE('Im\X\E1n 12x4mm:1','Im\X\E1n 12x4m
m:1','Im\X\E1n 12x4mm:1',#750,#752,'Im\X\E1n 12x4mm:1');
#22=SHAPE_REPRESENTATION_RELATIONSHIP('SRR','None',#747,#24);
#23=SHAPE_REPRESENTATION_RELATIONSHIP('SRR','None',#748,#25);
#24=ADVANCED_BREP_SHAPE_REPRESENTATION('',(#29),#731);
#25=ADVANCED_BREP_SHAPE_REPRESENTATION('',(#30),#732);
#26=STYLED_ITEM('',(#767),#29);
#27=STYLED_ITEM('',(#765),#30);
#28=STYLED_ITEM('',(#768),#12);
#29=MANIFOLD_SOLID_BREP('Tapa Rodamiento',#421);
#30=MANIFOLD_SOLID_BREP('Im\X\E1n 12x4mm',#422);
#31=FACE_BOUND('',#86,.T.);
#32=CIRCLE('',#450,2.);
#33=CIRCLE('',#451,2.);
#34=CIRCLE('',#454,2.00000000000001);
#35=CIRCLE('',#455,2.00000000000001);
#36=CIRCLE('',#458,2.00000000000001);
#37=CIRCLE('',#459,2.00000000000001);
#38=CIRCLE('',#465,15.);
#39=CIRCLE('',#466,15.);
#40=CIRCLE('',#478,6.);
#41=CIRCLE('',#479,6.);
#42=CYLINDRICAL_SURFACE('',#449,2.);
#43=CYLINDRICAL_SURFACE('',#453,2.00000000000001);
#44=CYLINDRICAL_SURFACE('',#457,2.00000000000001);
#45=CYLINDRICAL_SURFACE('',#464,15.);
#46=CYLINDRICAL_SURFACE('',#477,6.);
#47=FACE_OUTER_BOUND('',#70,.T.);
#48=FACE_OUTER_BOUND('',#71,.T.);
#49=FACE_OUTER_BOUND('',#72,.T.);
#50=FACE_OUTER_BOUND('',#73,.T.);
#51=FACE_OUTER_BOUND('',#74,.T.);
#52=FACE_OUTER_BOUND('',#75,.T.);
#53=FACE_OUTER_BOUND('',#76,.T.);
#54=FACE_OUTER_BOUND('',#77,.T.);
#55=FACE_OUTER_BOUND('',#78,.T.);
#56=FACE_OUTER_BOUND('',#79,.T.);
#57=FACE_OUTER_BOUND('',#80,.T.);
#58=FACE_OUTER_BOUND('',#81,.T.);
#59=FACE_OUTER_BOUND('',#82,.T.);
#60=FACE_OUTER_BOUND('',#83,.T.);
#61=FACE_OUTER_BOUND('',#84,.T.);
#62=FACE_OUTER_BOUND('',#85,.T.);
#63=FACE_OUTER_BOUND('',#87,.T.);
#64=FACE_OUTER_BOUND('',#88,.T.);
#65=FACE_OUTER_BOUND('',#89,.T.);
#66=FACE_OUTER_BOUND('',#90,.T.);
#67=FACE_OUTER_BOUND('',#91,.T.);
#68=FACE_OUTER_BOUND('',#92,.T.);
#69=FACE_OUTER_BOUND('',#93,.T.);
#70=EDGE_LOOP('',(#272,#273,#274,#275));
#71=EDGE_LOOP('',(#276,#277,#278,#279));
#72=EDGE_LOOP('',(#280,#281,#282,#283));
#73=EDGE_LOOP('',(#284,#285,#286,#287));
#74=EDGE_LOOP('',(#288,#289,#290,#291));
#75=EDGE_LOOP('',(#292,#293,#294,#295));
#76=EDGE_LOOP('',(#296,#297,#298,#299));
#77=EDGE_LOOP('',(#300,#301,#302,#303));
#78=EDGE_LOOP('',(#304,#305,#306,#307,#308,#309,#310,#311,#312,#313,#314));
#79=EDGE_LOOP('',(#315,#316,#317,#318,#319,#320,#321,#322,#323,#324,#325));
#80=EDGE_LOOP('',(#326,#327,#328,#329));
#81=EDGE_LOOP('',(#330,#331,#332,#333,#334,#335));
#82=EDGE_LOOP('',(#336,#337,#338,#339));
#83=EDGE_LOOP('',(#340,#341,#342,#343));
#84=EDGE_LOOP('',(#344,#345,#346,#347));
#85=EDGE_LOOP('',(#348,#349,#350,#351));
#86=EDGE_LOOP('',(#352,#353,#354,#355,#356,#357));
#87=EDGE_LOOP('',(#358,#359,#360,#361));
#88=EDGE_LOOP('',(#362,#363,#364,#365));
#89=EDGE_LOOP('',(#366,#367,#368,#369));
#90=EDGE_LOOP('',(#370,#371,#372,#373));
#91=EDGE_LOOP('',(#374,#375,#376,#377));
#92=EDGE_LOOP('',(#378));
#93=EDGE_LOOP('',(#379));
#94=LINE('',#612,#138);
#95=LINE('',#614,#139);
#96=LINE('',#616,#140);
#97=LINE('',#617,#141);
#98=LINE('',#623,#142);
#99=LINE('',#626,#143);
#100=LINE('',#629,#144);
#101=LINE('',#631,#145);
#102=LINE('',#632,#146);
#103=LINE('',#637,#147);
#104=LINE('',#641,#148);
#105=LINE('',#643,#149);
#106=LINE('',#644,#150);
#107=LINE('',#649,#151);
#108=LINE('',#653,#152);
#109=LINE('',#655,#153);
#110=LINE('',#656,#154);
#111=LINE('',#658,#155);
#112=LINE('',#659,#156);
#113=LINE('',#662,#157);
#114=LINE('',#664,#158);
#115=LINE('',#665,#159);
#116=LINE('',#668,#160);
#117=LINE('',#670,#161);
#118=LINE('',#671,#162);
#119=LINE('',#678,#163);
#120=LINE('',#680,#164);
#121=LINE('',#682,#165);
#122=LINE('',#684,#166);
#123=LINE('',#686,#167);
#124=LINE('',#687,#168);
#125=LINE('',#690,#169);
#126=LINE('',#692,#170);
#127=LINE('',#693,#171);
#128=LINE('',#696,#172);
#129=LINE('',#697,#173);
#130=LINE('',#700,#174);
#131=LINE('',#701,#175);
#132=LINE('',#704,#176);
#133=LINE('',#706,#177);
#134=LINE('',#707,#178);
#135=LINE('',#709,#179);
#136=LINE('',#711,#180);
#137=LINE('',#719,#181);
#138=VECTOR('',#491,10.);
#139=VECTOR('',#492,10.);
#140=VECTOR('',#493,10.);
#141=VECTOR('',#494,10.);
#142=VECTOR('',#499,10.);
#143=VECTOR('',#502,10.);
#144=VECTOR('',#505,10.);
#145=VECTOR('',#506,10.);
#146=VECTOR('',#507,10.);
#147=VECTOR('',#512,10.);
#148=VECTOR('',#517,10.);
#149=VECTOR('',#518,10.);
#150=VECTOR('',#519,10.);
#151=VECTOR('',#524,10.);
#152=VECTOR('',#529,10.);
#153=VECTOR('',#530,10.);
#154=VECTOR('',#531,10.);
#155=VECTOR('',#534,10.);
#156=VECTOR('',#535,10.);
#157=VECTOR('',#538,10.);
#158=VECTOR('',#539,10.);
#159=VECTOR('',#540,10.);
#160=VECTOR('',#543,10.);
#161=VECTOR('',#544,10.);
#162=VECTOR('',#545,10.);
#163=VECTOR('',#554,10.);
#164=VECTOR('',#555,10.);
#165=VECTOR('',#556,10.);
#166=VECTOR('',#557,10.);
#167=VECTOR('',#558,10.);
#168=VECTOR('',#559,10.);
#169=VECTOR('',#562,10.);
#170=VECTOR('',#563,10.);
#171=VECTOR('',#564,10.);
#172=VECTOR('',#567,10.);
#173=VECTOR('',#568,10.);
#174=VECTOR('',#571,10.);
#175=VECTOR('',#572,10.);
#176=VECTOR('',#575,10.);
#177=VECTOR('',#576,10.);
#178=VECTOR('',#577,10.);
#179=VECTOR('',#580,10.);
#180=VECTOR('',#583,10.);
#181=VECTOR('',#594,6.);
#182=VERTEX_POINT('',#610);
#183=VERTEX_POINT('',#611);
#184=VERTEX_POINT('',#613);
#185=VERTEX_POINT('',#615);
#186=VERTEX_POINT('',#619);
#187=VERTEX_POINT('',#620);
#188=VERTEX_POINT('',#622);
#189=VERTEX_POINT('',#624);
#190=VERTEX_POINT('',#628);
#191=VERTEX_POINT('',#630);
#192=VERTEX_POINT('',#634);
#193=VERTEX_POINT('',#636);
#194=VERTEX_POINT('',#640);
#195=VERTEX_POINT('',#642);
#196=VERTEX_POINT('',#646);
#197=VERTEX_POINT('',#648);
#198=VERTEX_POINT('',#652);
#199=VERTEX_POINT('',#654);
#200=VERTEX_POINT('',#661);
#201=VERTEX_POINT('',#663);
#202=VERTEX_POINT('',#667);
#203=VERTEX_POINT('',#669);
#204=VERTEX_POINT('',#676);
#205=VERTEX_POINT('',#677);
#206=VERTEX_POINT('',#679);
#207=VERTEX_POINT('',#681);
#208=VERTEX_POINT('',#683);
#209=VERTEX_POINT('',#685);
#210=VERTEX_POINT('',#689);
#211=VERTEX_POINT('',#691);
#212=VERTEX_POINT('',#695);
#213=VERTEX_POINT('',#699);
#214=VERTEX_POINT('',#703);
#215=VERTEX_POINT('',#705);
#216=VERTEX_POINT('',#716);
#217=VERTEX_POINT('',#718);
#218=EDGE_CURVE('',#182,#183,#94,.T.);
#219=EDGE_CURVE('',#182,#184,#95,.T.);
#220=EDGE_CURVE('',#185,#184,#96,.T.);
#221=EDGE_CURVE('',#183,#185,#97,.T.);
#222=EDGE_CURVE('',#186,#187,#32,.T.);
#223=EDGE_CURVE('',#188,#187,#98,.T.);
#224=EDGE_CURVE('',#189,#188,#33,.T.);
#225=EDGE_CURVE('',#189,#186,#99,.T.);
#226=EDGE_CURVE('',#187,#190,#100,.T.);
#227=EDGE_CURVE('',#191,#190,#101,.T.);
#228=EDGE_CURVE('',#191,#188,#102,.T.);
#229=EDGE_CURVE('',#190,#192,#34,.T.);
#230=EDGE_CURVE('',#193,#192,#103,.T.);
#231=EDGE_CURVE('',#191,#193,#35,.T.);
#232=EDGE_CURVE('',#192,#194,#104,.T.);
#233=EDGE_CURVE('',#195,#194,#105,.T.);
#234=EDGE_CURVE('',#195,#193,#106,.T.);
#235=EDGE_CURVE('',#194,#196,#36,.T.);
#236=EDGE_CURVE('',#197,#196,#107,.T.);
#237=EDGE_CURVE('',#195,#197,#37,.T.);
#238=EDGE_CURVE('',#184,#198,#108,.T.);
#239=EDGE_CURVE('',#199,#198,#109,.T.);
#240=EDGE_CURVE('',#199,#185,#110,.T.);
#241=EDGE_CURVE('',#198,#186,#111,.T.);
#242=EDGE_CURVE('',#189,#199,#112,.T.);
#243=EDGE_CURVE('',#183,#200,#113,.T.);
#244=EDGE_CURVE('',#201,#197,#114,.T.);
#245=EDGE_CURVE('',#200,#201,#115,.T.);
#246=EDGE_CURVE('',#202,#182,#116,.T.);
#247=EDGE_CURVE('',#202,#203,#117,.T.);
#248=EDGE_CURVE('',#196,#203,#118,.T.);
#249=EDGE_CURVE('',#202,#200,#38,.T.);
#250=EDGE_CURVE('',#203,#201,#39,.T.);
#251=EDGE_CURVE('',#204,#205,#119,.T.);
#252=EDGE_CURVE('',#206,#204,#120,.T.);
#253=EDGE_CURVE('',#207,#206,#121,.T.);
#254=EDGE_CURVE('',#208,#207,#122,.T.);
#255=EDGE_CURVE('',#209,#208,#123,.T.);
#256=EDGE_CURVE('',#205,#209,#124,.T.);
#257=EDGE_CURVE('',#210,#207,#125,.T.);
#258=EDGE_CURVE('',#210,#211,#126,.T.);
#259=EDGE_CURVE('',#211,#208,#127,.T.);
#260=EDGE_CURVE('',#212,#206,#128,.T.);
#261=EDGE_CURVE('',#212,#210,#129,.T.);
#262=EDGE_CURVE('',#213,#204,#130,.T.);
#263=EDGE_CURVE('',#213,#212,#131,.T.);
#264=EDGE_CURVE('',#214,#213,#132,.T.);
#265=EDGE_CURVE('',#215,#214,#133,.T.);
#266=EDGE_CURVE('',#211,#215,#134,.T.);
#267=EDGE_CURVE('',#214,#205,#135,.T.);
#268=EDGE_CURVE('',#215,#209,#136,.T.);
#269=EDGE_CURVE('',#216,#216,#40,.T.);
#270=EDGE_CURVE('',#216,#217,#137,.T.);
#271=EDGE_CURVE('',#217,#217,#41,.T.);
#272=ORIENTED_EDGE('',*,*,#218,.F.);
#273=ORIENTED_EDGE('',*,*,#219,.T.);
#274=ORIENTED_EDGE('',*,*,#220,.F.);
#275=ORIENTED_EDGE('',*,*,#221,.F.);
#276=ORIENTED_EDGE('',*,*,#222,.T.);
#277=ORIENTED_EDGE('',*,*,#223,.F.);
#278=ORIENTED_EDGE('',*,*,#224,.F.);
#279=ORIENTED_EDGE('',*,*,#225,.T.);
#280=ORIENTED_EDGE('',*,*,#226,.T.);
#281=ORIENTED_EDGE('',*,*,#227,.F.);
#282=ORIENTED_EDGE('',*,*,#228,.T.);
#283=ORIENTED_EDGE('',*,*,#223,.T.);
#284=ORIENTED_EDGE('',*,*,#229,.T.);
#285=ORIENTED_EDGE('',*,*,#230,.F.);
#286=ORIENTED_EDGE('',*,*,#231,.F.);
#287=ORIENTED_EDGE('',*,*,#227,.T.);
#288=ORIENTED_EDGE('',*,*,#232,.T.);
#289=ORIENTED_EDGE('',*,*,#233,.F.);
#290=ORIENTED_EDGE('',*,*,#234,.T.);
#291=ORIENTED_EDGE('',*,*,#230,.T.);
#292=ORIENTED_EDGE('',*,*,#235,.T.);
#293=ORIENTED_EDGE('',*,*,#236,.F.);
#294=ORIENTED_EDGE('',*,*,#237,.F.);
#295=ORIENTED_EDGE('',*,*,#233,.T.);
#296=ORIENTED_EDGE('',*,*,#238,.T.);
#297=ORIENTED_EDGE('',*,*,#239,.F.);
#298=ORIENTED_EDGE('',*,*,#240,.T.);
#299=ORIENTED_EDGE('',*,*,#220,.T.);
#300=ORIENTED_EDGE('',*,*,#241,.T.);
#301=ORIENTED_EDGE('',*,*,#225,.F.);
#302=ORIENTED_EDGE('',*,*,#242,.T.);
#303=ORIENTED_EDGE('',*,*,#239,.T.);
#304=ORIENTED_EDGE('',*,*,#243,.F.);
#305=ORIENTED_EDGE('',*,*,#221,.T.);
#306=ORIENTED_EDGE('',*,*,#240,.F.);
#307=ORIENTED_EDGE('',*,*,#242,.F.);
#308=ORIENTED_EDGE('',*,*,#224,.T.);
#309=ORIENTED_EDGE('',*,*,#228,.F.);
#310=ORIENTED_EDGE('',*,*,#231,.T.);
#311=ORIENTED_EDGE('',*,*,#234,.F.);
#312=ORIENTED_EDGE('',*,*,#237,.T.);
#313=ORIENTED_EDGE('',*,*,#244,.F.);
#314=ORIENTED_EDGE('',*,*,#245,.F.);
#315=ORIENTED_EDGE('',*,*,#246,.F.);
#316=ORIENTED_EDGE('',*,*,#247,.T.);
#317=ORIENTED_EDGE('',*,*,#248,.F.);
#318=ORIENTED_EDGE('',*,*,#235,.F.);
#319=ORIENTED_EDGE('',*,*,#232,.F.);
#320=ORIENTED_EDGE('',*,*,#229,.F.);
#321=ORIENTED_EDGE('',*,*,#226,.F.);
#322=ORIENTED_EDGE('',*,*,#222,.F.);
#323=ORIENTED_EDGE('',*,*,#241,.F.);
#324=ORIENTED_EDGE('',*,*,#238,.F.);
#325=ORIENTED_EDGE('',*,*,#219,.F.);
#326=ORIENTED_EDGE('',*,*,#247,.F.);
#327=ORIENTED_EDGE('',*,*,#249,.T.);
#328=ORIENTED_EDGE('',*,*,#245,.T.);
#329=ORIENTED_EDGE('',*,*,#250,.F.);
#330=ORIENTED_EDGE('',*,*,#251,.F.);
#331=ORIENTED_EDGE('',*,*,#252,.F.);
#332=ORIENTED_EDGE('',*,*,#253,.F.);
#333=ORIENTED_EDGE('',*,*,#254,.F.);
#334=ORIENTED_EDGE('',*,*,#255,.F.);
#335=ORIENTED_EDGE('',*,*,#256,.F.);
#336=ORIENTED_EDGE('',*,*,#254,.T.);
#337=ORIENTED_EDGE('',*,*,#257,.F.);
#338=ORIENTED_EDGE('',*,*,#258,.T.);
#339=ORIENTED_EDGE('',*,*,#259,.T.);
#340=ORIENTED_EDGE('',*,*,#253,.T.);
#341=ORIENTED_EDGE('',*,*,#260,.F.);
#342=ORIENTED_EDGE('',*,*,#261,.T.);
#343=ORIENTED_EDGE('',*,*,#257,.T.);
#344=ORIENTED_EDGE('',*,*,#252,.T.);
#345=ORIENTED_EDGE('',*,*,#262,.F.);
#346=ORIENTED_EDGE('',*,*,#263,.T.);
#347=ORIENTED_EDGE('',*,*,#260,.T.);
#348=ORIENTED_EDGE('',*,*,#249,.F.);
#349=ORIENTED_EDGE('',*,*,#246,.T.);
#350=ORIENTED_EDGE('',*,*,#218,.T.);
#351=ORIENTED_EDGE('',*,*,#243,.T.);
#352=ORIENTED_EDGE('',*,*,#261,.F.);
#353=ORIENTED_EDGE('',*,*,#263,.F.);
#354=ORIENTED_EDGE('',*,*,#264,.F.);
#355=ORIENTED_EDGE('',*,*,#265,.F.);
#356=ORIENTED_EDGE('',*,*,#266,.F.);
#357=ORIENTED_EDGE('',*,*,#258,.F.);
#358=ORIENTED_EDGE('',*,*,#251,.T.);
#359=ORIENTED_EDGE('',*,*,#267,.F.);
#360=ORIENTED_EDGE('',*,*,#264,.T.);
#361=ORIENTED_EDGE('',*,*,#262,.T.);
#362=ORIENTED_EDGE('',*,*,#256,.T.);
#363=ORIENTED_EDGE('',*,*,#268,.F.);
#364=ORIENTED_EDGE('',*,*,#265,.T.);
#365=ORIENTED_EDGE('',*,*,#267,.T.);
#366=ORIENTED_EDGE('',*,*,#255,.T.);
#367=ORIENTED_EDGE('',*,*,#259,.F.);
#368=ORIENTED_EDGE('',*,*,#266,.T.);
#369=ORIENTED_EDGE('',*,*,#268,.T.);
#370=ORIENTED_EDGE('',*,*,#250,.T.);
#371=ORIENTED_EDGE('',*,*,#244,.T.);
#372=ORIENTED_EDGE('',*,*,#236,.T.);
#373=ORIENTED_EDGE('',*,*,#248,.T.);
#374=ORIENTED_EDGE('',*,*,#269,.F.);
#375=ORIENTED_EDGE('',*,*,#270,.T.);
#376=ORIENTED_EDGE('',*,*,#271,.T.);
#377=ORIENTED_EDGE('',*,*,#270,.F.);
#378=ORIENTED_EDGE('',*,*,#269,.T.);
#379=ORIENTED_EDGE('',*,*,#271,.F.);
#380=PLANE('',#448);
#381=PLANE('',#452);
#382=PLANE('',#456);
#383=PLANE('',#460);
#384=PLANE('',#461);
#385=PLANE('',#462);
#386=PLANE('',#463);
#387=PLANE('',#467);
#388=PLANE('',#468);
#389=PLANE('',#469);
#390=PLANE('',#470);
#391=PLANE('',#471);
#392=PLANE('',#472);
#393=PLANE('',#473);
#394=PLANE('',#474);
#395=PLANE('',#475);
#396=PLANE('',#480);
#397=PLANE('',#481);
#398=ADVANCED_FACE('',(#47),#380,.T.);
#399=ADVANCED_FACE('',(#48),#42,.T.);
#400=ADVANCED_FACE('',(#49),#381,.T.);
#401=ADVANCED_FACE('',(#50),#43,.T.);
#402=ADVANCED_FACE('',(#51),#382,.T.);
#403=ADVANCED_FACE('',(#52),#44,.T.);
#404=ADVANCED_FACE('',(#53),#383,.T.);
#405=ADVANCED_FACE('',(#54),#384,.T.);
#406=ADVANCED_FACE('',(#55),#385,.T.);
#407=ADVANCED_FACE('',(#56),#386,.T.);
#408=ADVANCED_FACE('',(#57),#45,.T.);
#409=ADVANCED_FACE('',(#58),#387,.T.);
#410=ADVANCED_FACE('',(#59),#388,.T.);
#411=ADVANCED_FACE('',(#60),#389,.T.);
#412=ADVANCED_FACE('',(#61),#390,.T.);
#413=ADVANCED_FACE('',(#62,#31),#391,.F.);
#414=ADVANCED_FACE('',(#63),#392,.T.);
#415=ADVANCED_FACE('',(#64),#393,.T.);
#416=ADVANCED_FACE('',(#65),#394,.T.);
#417=ADVANCED_FACE('',(#66),#395,.T.);
#418=ADVANCED_FACE('',(#67),#46,.T.);
#419=ADVANCED_FACE('',(#68),#396,.T.);
#420=ADVANCED_FACE('',(#69),#397,.F.);
#421=CLOSED_SHELL('',(#398,#399,#400,#401,#402,#403,#404,#405,#406,#407,
#408,#409,#410,#411,#412,#413,#414,#415,#416,#417));
#422=CLOSED_SHELL('',(#418,#419,#420));
#423=DERIVED_UNIT_ELEMENT(#427,1.);
#424=DERIVED_UNIT_ELEMENT(#735,-3.);
#425=DERIVED_UNIT_ELEMENT(#427,1.);
#426=DERIVED_UNIT_ELEMENT(#735,-3.);
#427=(
MASS_UNIT()
NAMED_UNIT(*)
SI_UNIT(.KILO.,.GRAM.)
);
#428=DERIVED_UNIT((#423,#424));
#429=DERIVED_UNIT((#425,#426));
#430=MEASURE_REPRESENTATION_ITEM('density measure',
POSITIVE_RATIO_MEASURE(7850.),#428);
#431=MEASURE_REPRESENTATION_ITEM('density measure',
POSITIVE_RATIO_MEASURE(7850.),#429);
#432=PROPERTY_DEFINITION_REPRESENTATION(#442,#436);
#433=PROPERTY_DEFINITION_REPRESENTATION(#443,#437);
#434=PROPERTY_DEFINITION_REPRESENTATION(#444,#438);
#435=PROPERTY_DEFINITION_REPRESENTATION(#445,#439);
#436=REPRESENTATION('material name',(#440),#731);
#437=REPRESENTATION('density',(#430),#731);
#438=REPRESENTATION('material name',(#441),#732);
#439=REPRESENTATION('density',(#431),#732);
#440=DESCRIPTIVE_REPRESENTATION_ITEM('Acero','Acero');
#441=DESCRIPTIVE_REPRESENTATION_ITEM('Acero','Acero');
#442=PROPERTY_DEFINITION('material property','material name',#751);
#443=PROPERTY_DEFINITION('material property','density of part',#751);
#444=PROPERTY_DEFINITION('material property','material name',#752);
#445=PROPERTY_DEFINITION('material property','density of part',#752);
#446=AXIS2_PLACEMENT_3D('',#607,#485,#486);
#447=AXIS2_PLACEMENT_3D('',#608,#487,#488);
#448=AXIS2_PLACEMENT_3D('',#609,#489,#490);
#449=AXIS2_PLACEMENT_3D('',#618,#495,#496);
#450=AXIS2_PLACEMENT_3D('',#621,#497,#498);
#451=AXIS2_PLACEMENT_3D('',#625,#500,#501);
#452=AXIS2_PLACEMENT_3D('',#627,#503,#504);
#453=AXIS2_PLACEMENT_3D('',#633,#508,#509);
#454=AXIS2_PLACEMENT_3D('',#635,#510,#511);
#455=AXIS2_PLACEMENT_3D('',#638,#513,#514);
#456=AXIS2_PLACEMENT_3D('',#639,#515,#516);
#457=AXIS2_PLACEMENT_3D('',#645,#520,#521);
#458=AXIS2_PLACEMENT_3D('',#647,#522,#523);
#459=AXIS2_PLACEMENT_3D('',#650,#525,#526);
#460=AXIS2_PLACEMENT_3D('',#651,#527,#528);
#461=AXIS2_PLACEMENT_3D('',#657,#532,#533);
#462=AXIS2_PLACEMENT_3D('',#660,#536,#537);
#463=AXIS2_PLACEMENT_3D('',#666,#541,#542);
#464=AXIS2_PLACEMENT_3D('',#672,#546,#547);
#465=AXIS2_PLACEMENT_3D('',#673,#548,#549);
#466=AXIS2_PLACEMENT_3D('',#674,#550,#551);
#467=AXIS2_PLACEMENT_3D('',#675,#552,#553);
#468=AXIS2_PLACEMENT_3D('',#688,#560,#561);
#469=AXIS2_PLACEMENT_3D('',#694,#565,#566);
#470=AXIS2_PLACEMENT_3D('',#698,#569,#570);
#471=AXIS2_PLACEMENT_3D('',#702,#573,#574);
#472=AXIS2_PLACEMENT_3D('',#708,#578,#579);
#473=AXIS2_PLACEMENT_3D('',#710,#581,#582);
#474=AXIS2_PLACEMENT_3D('',#712,#584,#585);
#475=AXIS2_PLACEMENT_3D('',#713,#586,#587);
#476=AXIS2_PLACEMENT_3D('',#714,#588,#589);
#477=AXIS2_PLACEMENT_3D('',#715,#590,#591);
#478=AXIS2_PLACEMENT_3D('',#717,#592,#593);
#479=AXIS2_PLACEMENT_3D('',#720,#595,#596);
#480=AXIS2_PLACEMENT_3D('',#721,#597,#598);
#481=AXIS2_PLACEMENT_3D('',#722,#599,#600);
#482=AXIS2_PLACEMENT_3D('',#723,#601,#602);
#483=AXIS2_PLACEMENT_3D('',#724,#603,#604);
#484=AXIS2_PLACEMENT_3D('',#725,#605,#606);
#485=DIRECTION('axis',(0.,0.,1.));
#486=DIRECTION('refdir',(1.,0.,0.));
#487=DIRECTION('axis',(0.,0.,1.));
#488=DIRECTION('refdir',(1.,0.,0.));
#489=DIRECTION('center_axis',(0.,0.,-1.));
#490=DIRECTION('ref_axis',(0.,-1.,0.));
#491=DIRECTION('',(1.,0.,0.));
#492=DIRECTION('',(0.,1.,0.));
#493=DIRECTION('',(-1.,0.,0.));
#494=DIRECTION('',(0.,1.,0.));
#495=DIRECTION('center_axis',(-1.,0.,0.));
#496=DIRECTION('ref_axis',(0.,1.66533453693773E-15,-1.));
#497=DIRECTION('center_axis',(1.,0.,0.));
#498=DIRECTION('ref_axis',(0.,1.66533453693773E-15,-1.));
#499=DIRECTION('',(-1.,0.,0.));
#500=DIRECTION('center_axis',(1.,0.,0.));
#501=DIRECTION('ref_axis',(0.,1.66533453693773E-15,-1.));
#502=DIRECTION('',(-1.,0.,0.));
#503=DIRECTION('center_axis',(0.,1.,0.));
#504=DIRECTION('ref_axis',(0.,0.,-1.));
#505=DIRECTION('',(0.,0.,1.));
#506=DIRECTION('',(-1.,0.,0.));
#507=DIRECTION('',(0.,0.,-1.));
#508=DIRECTION('center_axis',(-1.,0.,0.));
#509=DIRECTION('ref_axis',(0.,1.,4.4408920985006E-15));
#510=DIRECTION('center_axis',(1.,0.,0.));
#511=DIRECTION('ref_axis',(0.,1.,4.4408920985006E-15));
#512=DIRECTION('',(-1.,0.,0.));
#513=DIRECTION('center_axis',(1.,0.,0.));
#514=DIRECTION('ref_axis',(0.,1.,4.4408920985006E-15));
#515=DIRECTION('center_axis',(0.,0.,1.));
#516=DIRECTION('ref_axis',(0.,1.,0.));
#517=DIRECTION('',(0.,-1.,0.));
#518=DIRECTION('',(-1.,0.,0.));
#519=DIRECTION('',(0.,1.,0.));
#520=DIRECTION('center_axis',(-1.,0.,0.));
#521=DIRECTION('ref_axis',(0.,-4.99600361081318E-15,1.));
#522=DIRECTION('center_axis',(1.,0.,0.));
#523=DIRECTION('ref_axis',(0.,-4.99600361081318E-15,1.));
#524=DIRECTION('',(-1.,0.,0.));
#525=DIRECTION('center_axis',(1.,0.,0.));
#526=DIRECTION('ref_axis',(0.,-4.99600361081318E-15,1.));
#527=DIRECTION('center_axis',(0.,-1.,0.));
#528=DIRECTION('ref_axis',(0.,0.,1.));
#529=DIRECTION('',(0.,0.,-1.));
#530=DIRECTION('',(-1.,0.,0.));
#531=DIRECTION('',(0.,0.,1.));
#532=DIRECTION('center_axis',(0.,0.,-1.));
#533=DIRECTION('ref_axis',(0.,-1.,0.));
#534=DIRECTION('',(0.,1.,0.));
#535=DIRECTION('',(0.,-1.,0.));
#536=DIRECTION('center_axis',(1.,0.,0.));
#537=DIRECTION('ref_axis',(0.,0.,1.));
#538=DIRECTION('',(0.,0.,-1.));
#539=DIRECTION('',(0.,0.,1.));
#540=DIRECTION('',(0.,-1.,0.));
#541=DIRECTION('center_axis',(-1.,0.,0.));
#542=DIRECTION('ref_axis',(0.,0.,-1.));
#543=DIRECTION('',(0.,0.,1.));
#544=DIRECTION('',(0.,-1.,0.));
#545=DIRECTION('',(0.,1.11022297499432E-15,-1.));
#546=DIRECTION('center_axis',(0.,-1.,0.));
#547=DIRECTION('ref_axis',(1.,0.,0.));
#548=DIRECTION('center_axis',(0.,-1.,0.));
#549=DIRECTION('ref_axis',(1.,0.,0.));
#550=DIRECTION('center_axis',(0.,-1.,0.));
#551=DIRECTION('ref_axis',(1.,0.,0.));
#552=DIRECTION('center_axis',(0.,1.,0.));
#553=DIRECTION('ref_axis',(0.,0.,1.));
#554=DIRECTION('',(0.624322716659498,0.,-0.781166528637079));
#555=DIRECTION('',(-0.364348700056066,0.,-0.931262597105379));
#556=DIRECTION('',(-0.988671416715564,0.,-0.150096068468299));
#557=DIRECTION('',(-0.624322716659497,0.,0.781166528637079));
#558=DIRECTION('',(0.364348700056066,0.,0.931262597105379));
#559=DIRECTION('',(0.988671416715564,0.,0.150096068468299));
#560=DIRECTION('center_axis',(-0.781166528637079,0.,-0.624322716659497));
#561=DIRECTION('ref_axis',(0.624322716659497,0.,-0.781166528637079));
#562=DIRECTION('',(0.,-1.,0.));
#563=DIRECTION('',(0.624322716659497,0.,-0.781166528637079));
#564=DIRECTION('',(0.,-1.,0.));
#565=DIRECTION('center_axis',(0.150096068468299,0.,-0.988671416715564));
#566=DIRECTION('ref_axis',(0.988671416715564,0.,0.150096068468299));
#567=DIRECTION('',(0.,-1.,0.));
#568=DIRECTION('',(0.988671416715564,0.,0.150096068468299));
#569=DIRECTION('center_axis',(0.931262597105379,0.,-0.364348700056066));
#570=DIRECTION('ref_axis',(0.364348700056066,0.,0.931262597105379));
#571=DIRECTION('',(0.,-1.,0.));
#572=DIRECTION('',(0.364348700056066,0.,0.931262597105379));
#573=DIRECTION('center_axis',(0.,-1.,0.));
#574=DIRECTION('ref_axis',(1.,0.,0.));
#575=DIRECTION('',(-0.624322716659498,0.,0.781166528637079));
#576=DIRECTION('',(-0.988671416715564,0.,-0.150096068468299));
#577=DIRECTION('',(-0.364348700056066,0.,-0.931262597105379));
#578=DIRECTION('center_axis',(0.781166528637079,0.,0.624322716659498));
#579=DIRECTION('ref_axis',(-0.624322716659498,0.,0.781166528637079));
#580=DIRECTION('',(0.,-1.,0.));
#581=DIRECTION('center_axis',(-0.150096068468299,0.,0.988671416715564));
#582=DIRECTION('ref_axis',(-0.988671416715564,0.,-0.150096068468299));
#583=DIRECTION('',(0.,-1.,0.));
#584=DIRECTION('center_axis',(-0.931262597105379,0.,0.364348700056066));
#585=DIRECTION('ref_axis',(-0.364348700056066,0.,-0.931262597105379));
#586=DIRECTION('center_axis',(0.,-1.,0.));
#587=DIRECTION('ref_axis',(1.,0.,0.));
#588=DIRECTION('axis',(0.,0.,1.));
#589=DIRECTION('refdir',(1.,0.,0.));
#590=DIRECTION('center_axis',(0.,1.,0.));
#591=DIRECTION('ref_axis',(-1.,0.,0.));
#592=DIRECTION('center_axis',(0.,1.,0.));
#593=DIRECTION('ref_axis',(-1.,0.,0.));
#594=DIRECTION('',(0.,-1.,0.));
#595=DIRECTION('center_axis',(0.,1.,0.));
#596=DIRECTION('ref_axis',(-1.,0.,0.));
#597=DIRECTION('center_axis',(0.,1.,0.));
#598=DIRECTION('ref_axis',(-1.,0.,0.));
#599=DIRECTION('center_axis',(0.,1.,0.));
#600=DIRECTION('ref_axis',(-1.,0.,0.));
#601=DIRECTION('',(0.,0.,1.));
#602=DIRECTION('',(1.,0.,0.));
#603=DIRECTION('',(0.,0.,1.));
#604=DIRECTION('',(1.,0.,0.));
#605=DIRECTION('center_axis',(0.,0.,1.));
#606=DIRECTION('ref_axis',(1.,0.,0.));
#607=CARTESIAN_POINT('',(0.,0.,0.));
#608=CARTESIAN_POINT('',(0.,0.,0.));
#609=CARTESIAN_POINT('Origin',(14.9160797830996,3.29999998509884,38.0000005662441));
#610=CARTESIAN_POINT('',(-15.0000002235174,-1.,38.0000005662441));
#611=CARTESIAN_POINT('',(14.9160797830996,-1.,38.0000005662441));
#612=CARTESIAN_POINT('',(-15.0000002235174,-1.,38.0000005662441));
#613=CARTESIAN_POINT('',(-15.0000002235174,3.29999998509884,38.0000005662441));
#614=CARTESIAN_POINT('',(-15.0000002235174,1.72499998882413,38.0000005662441));
#615=CARTESIAN_POINT('',(14.9160797830996,3.29999998509884,38.0000005662441));
#616=CARTESIAN_POINT('',(14.9160797830996,3.29999998509884,38.0000005662441));
#617=CARTESIAN_POINT('',(14.9160797830996,-6.,38.0000005662441));
#618=CARTESIAN_POINT('Origin',(14.9160797830996,4.29999998509884,37.0000005215406));
#619=CARTESIAN_POINT('',(-15.0000002235174,4.29999998509884,35.0000005215406));
#620=CARTESIAN_POINT('',(-15.0000002235174,6.29999998509884,37.0000005215406));
#621=CARTESIAN_POINT('Origin',(-15.0000002235174,4.29999998509884,37.0000005215406));
#622=CARTESIAN_POINT('',(14.9160797830996,6.29999998509884,37.0000005215406));
#623=CARTESIAN_POINT('',(14.9160797830996,6.29999998509884,37.0000005215406));
#624=CARTESIAN_POINT('',(14.9160797830996,4.29999998509884,35.0000005215406));
#625=CARTESIAN_POINT('Origin',(14.9160797830996,4.29999998509884,37.0000005215406));
#626=CARTESIAN_POINT('',(14.9160797830996,4.29999998509884,35.0000005215406));
#627=CARTESIAN_POINT('Origin',(14.9160797830996,6.29999998509884,39.0000006109476));
#628=CARTESIAN_POINT('',(-15.0000002235174,6.29999998509884,39.0000006109476));
#629=CARTESIAN_POINT('',(-15.0000002235174,6.29999998509884,38.5000005885959));
#630=CARTESIAN_POINT('',(14.9160797830996,6.29999998509884,39.0000006109476));
#631=CARTESIAN_POINT('',(14.9160797830996,6.29999998509884,39.0000006109476));
#632=CARTESIAN_POINT('',(14.9160797830996,6.29999998509884,39.0000006109476));
#633=CARTESIAN_POINT('Origin',(14.9160797830996,4.29999998509883,39.0000006109476));
#634=CARTESIAN_POINT('',(-15.0000002235174,4.29999998509884,41.0000006109476));
#635=CARTESIAN_POINT('Origin',(-15.0000002235174,4.29999998509883,39.0000006109476));
#636=CARTESIAN_POINT('',(14.9160797830996,4.29999998509884,41.0000006109476));
#637=CARTESIAN_POINT('',(14.9160797830996,4.29999998509884,41.0000006109476));
#638=CARTESIAN_POINT('Origin',(14.9160797830996,4.29999998509883,39.0000006109476));
#639=CARTESIAN_POINT('Origin',(14.9160797830996,-4.,41.0000006109476));
#640=CARTESIAN_POINT('',(-15.0000002235174,-4.,41.0000006109476));
#641=CARTESIAN_POINT('',(-15.0000002235174,-1.92500000372529,41.0000006109476));
#642=CARTESIAN_POINT('',(14.9160797830996,-4.,41.0000006109476));
#643=CARTESIAN_POINT('',(14.9160797830996,-4.,41.0000006109476));
#644=CARTESIAN_POINT('',(14.9160797830996,3.29999998509884,41.0000006109476));
#645=CARTESIAN_POINT('Origin',(14.9160797830996,-3.99999999999999,39.0000006109476));
#646=CARTESIAN_POINT('',(-15.0000002235174,-6.,39.0000006109476));
#647=CARTESIAN_POINT('Origin',(-15.0000002235174,-3.99999999999999,39.0000006109476));
#648=CARTESIAN_POINT('',(14.9160797830996,-6.,39.0000006109476));
#649=CARTESIAN_POINT('',(14.9160797830996,-6.,39.0000006109476));
#650=CARTESIAN_POINT('Origin',(14.9160797830996,-3.99999999999999,39.0000006109476));
#651=CARTESIAN_POINT('Origin',(14.9160797830996,3.29999998509884,35.0000005215406));
#652=CARTESIAN_POINT('',(-15.0000002235174,3.29999998509884,35.0000005215406));
#653=CARTESIAN_POINT('',(-15.0000002235174,3.29999998509884,36.5000005438924));
#654=CARTESIAN_POINT('',(14.9160797830996,3.29999998509884,35.0000005215406));
#655=CARTESIAN_POINT('',(14.9160797830996,3.29999998509884,35.0000005215406));
#656=CARTESIAN_POINT('',(14.9160797830996,3.29999998509884,35.0000005215406));
#657=CARTESIAN_POINT('Origin',(14.9160797830996,4.29999998509884,35.0000005215406));
#658=CARTESIAN_POINT('',(-15.0000002235174,2.22499998882413,35.0000005215406));
#659=CARTESIAN_POINT('',(14.9160797830996,4.29999998509884,35.0000005215406));
#660=CARTESIAN_POINT('Origin',(14.9160797830996,-1.,1.58447590837049));
#661=CARTESIAN_POINT('',(14.9160797830996,-1.,1.58447590837049));
#662=CARTESIAN_POINT('',(14.9160797830996,-1.,38.0000005662441));
#663=CARTESIAN_POINT('',(14.9160797830996,-6.,1.58447590837049));
#664=CARTESIAN_POINT('',(14.9160797830996,-6.,38.0000005662441));
#665=CARTESIAN_POINT('',(14.9160797830996,0.,1.58447590837062));
#666=CARTESIAN_POINT('Origin',(-15.0000002235174,-1.,38.0000005662441));
#667=CARTESIAN_POINT('',(-15.,-1.,-1.83697019872103E-15));
#668=CARTESIAN_POINT('',(-15.0000002235174,-1.,0.));
#669=CARTESIAN_POINT('',(-15.,-6.,-2.22044604925031E-15));
#670=CARTESIAN_POINT('',(-15.0000002235174,0.,0.));
#671=CARTESIAN_POINT('',(-15.0000002235174,-6.,38.0000005662441));
#672=CARTESIAN_POINT('Origin',(0.,0.,0.));
#673=CARTESIAN_POINT('Origin',(0.,-1.,0.));
#674=CARTESIAN_POINT('Origin',(0.,-6.,0.));
#675=CARTESIAN_POINT('Origin',(0.,-5.,0.));
#676=CARTESIAN_POINT('',(-6.93533795925696,-5.,-1.0528947672439));
#677=CARTESIAN_POINT('',(-2.55583536368356,-5.,-6.532626240169));
#678=CARTESIAN_POINT('',(-3.65071101257691,-5.,-5.16269337193772));
#679=CARTESIAN_POINT('',(-4.3795025955734,-5.,5.4797314729251));
#680=CARTESIAN_POINT('',(-6.29637911833607,-5.,0.580261792798351));
#681=CARTESIAN_POINT('',(2.55583536368356,-5.,6.532626240169));
#682=CARTESIAN_POINT('',(-2.64566810575916,-5.,5.74295516473607));
#683=CARTESIAN_POINT('',(6.93533795925696,-5.,1.0528947672439));
#684=CARTESIAN_POINT('',(3.65071101257691,-5.,5.16269337193772));
#685=CARTESIAN_POINT('',(4.3795025955734,-5.,-5.4797314729251));
#686=CARTESIAN_POINT('',(6.29637911833607,-5.,-0.580261792798353));
#687=CARTESIAN_POINT('',(2.64566810575916,-5.,-5.74295516473608));
#688=CARTESIAN_POINT('Origin',(2.55583536368356,-1.,6.532626240169));
#689=CARTESIAN_POINT('',(2.55583536368356,-1.,6.532626240169));
#690=CARTESIAN_POINT('',(2.55583536368356,-1.,6.532626240169));
#691=CARTESIAN_POINT('',(6.93533795925696,-1.,1.0528947672439));
#692=CARTESIAN_POINT('',(6.93533795925696,-1.,1.0528947672439));
#693=CARTESIAN_POINT('',(6.93533795925696,-1.,1.0528947672439));
#694=CARTESIAN_POINT('Origin',(-4.3795025955734,-1.,5.4797314729251));
#695=CARTESIAN_POINT('',(-4.3795025955734,-1.,5.4797314729251));
#696=CARTESIAN_POINT('',(-4.3795025955734,-1.,5.4797314729251));
#697=CARTESIAN_POINT('',(2.55583536368356,-1.,6.532626240169));
#698=CARTESIAN_POINT('Origin',(-6.93533795925696,-1.,-1.0528947672439));
#699=CARTESIAN_POINT('',(-6.93533795925696,-1.,-1.0528947672439));
#700=CARTESIAN_POINT('',(-6.93533795925696,-1.,-1.0528947672439));
#701=CARTESIAN_POINT('',(-4.3795025955734,-1.,5.4797314729251));
#702=CARTESIAN_POINT('Origin',(0.,-1.,0.));
#703=CARTESIAN_POINT('',(-2.55583536368356,-1.,-6.532626240169));
#704=CARTESIAN_POINT('',(-6.93533795925696,-1.,-1.0528947672439));
#705=CARTESIAN_POINT('',(4.3795025955734,-1.,-5.4797314729251));
#706=CARTESIAN_POINT('',(-2.55583536368356,-1.,-6.532626240169));
#707=CARTESIAN_POINT('',(4.3795025955734,-1.,-5.4797314729251));
#708=CARTESIAN_POINT('Origin',(-2.55583536368356,-1.,-6.532626240169));
#709=CARTESIAN_POINT('',(-2.55583536368356,-1.,-6.532626240169));
#710=CARTESIAN_POINT('Origin',(4.3795025955734,-1.,-5.4797314729251));
#711=CARTESIAN_POINT('',(4.3795025955734,-1.,-5.4797314729251));
#712=CARTESIAN_POINT('Origin',(6.93533795925696,-1.,1.0528947672439));
#713=CARTESIAN_POINT('Origin',(0.,-6.,0.));
#714=CARTESIAN_POINT('',(0.,0.,0.));
#715=CARTESIAN_POINT('Origin',(0.,-5.,0.));
#716=CARTESIAN_POINT('',(6.,-1.,-7.34788079488412E-16));
#717=CARTESIAN_POINT('Origin',(0.,-1.,0.));
#718=CARTESIAN_POINT('',(6.,-5.,-7.34788079488412E-16));
#719=CARTESIAN_POINT('',(6.,-5.,-7.34788079488412E-16));
#720=CARTESIAN_POINT('Origin',(0.,-5.,0.));
#721=CARTESIAN_POINT('Origin',(0.,-1.,0.));
#722=CARTESIAN_POINT('Origin',(0.,-5.,0.));
#723=CARTESIAN_POINT('',(0.,0.,0.));
#724=CARTESIAN_POINT('',(0.,0.,0.));
#725=CARTESIAN_POINT('Origin',(0.,0.,0.));
#726=UNCERTAINTY_MEASURE_WITH_UNIT(LENGTH_MEASURE(0.01),#734,
'DISTANCE_ACCURACY_VALUE',
'Maximum model space distance between geometric entities at asserted c
onnectivities');
#727=UNCERTAINTY_MEASURE_WITH_UNIT(LENGTH_MEASURE(0.01),#734,
'DISTANCE_ACCURACY_VALUE',
'Maximum model space distance between geometric entities at asserted c
onnectivities');
#728=UNCERTAINTY_MEASURE_WITH_UNIT(LENGTH_MEASURE(0.01),#734,
'DISTANCE_ACCURACY_VALUE',
'Maximum model space distance between geometric entities at asserted c
onnectivities');
#729=UNCERTAINTY_MEASURE_WITH_UNIT(LENGTH_MEASURE(0.01),#734,
'DISTANCE_ACCURACY_VALUE',
'Maximum model space distance between geometric entities at asserted c
onnectivities');
#730=(
GEOMETRIC_REPRESENTATION_CONTEXT(3)
GLOBAL_UNCERTAINTY_ASSIGNED_CONTEXT((#726))
GLOBAL_UNIT_ASSIGNED_CONTEXT((#734,#736,#737))
REPRESENTATION_CONTEXT('','3D')
);
#731=(
GEOMETRIC_REPRESENTATION_CONTEXT(3)
GLOBAL_UNCERTAINTY_ASSIGNED_CONTEXT((#727))
GLOBAL_UNIT_ASSIGNED_CONTEXT((#734,#736,#737))
REPRESENTATION_CONTEXT('','3D')
);
#732=(
GEOMETRIC_REPRESENTATION_CONTEXT(3)
GLOBAL_UNCERTAINTY_ASSIGNED_CONTEXT((#728))
GLOBAL_UNIT_ASSIGNED_CONTEXT((#734,#736,#737))
REPRESENTATION_CONTEXT('','3D')
);
#733=(
GEOMETRIC_REPRESENTATION_CONTEXT(3)
GLOBAL_UNCERTAINTY_ASSIGNED_CONTEXT((#729))
GLOBAL_UNIT_ASSIGNED_CONTEXT((#734,#736,#737))
REPRESENTATION_CONTEXT('','3D')
);
#734=(
LENGTH_UNIT()
NAMED_UNIT(*)
SI_UNIT(.MILLI.,.METRE.)
);
#735=(
LENGTH_UNIT()
NAMED_UNIT(*)
SI_UNIT($,.METRE.)
);
#736=(
NAMED_UNIT(*)
PLANE_ANGLE_UNIT()
SI_UNIT($,.RADIAN.)
);
#737=(
NAMED_UNIT(*)
SI_UNIT($,.STERADIAN.)
SOLID_ANGLE_UNIT()
);
#738=SHAPE_DEFINITION_REPRESENTATION(#741,#746);
#739=SHAPE_DEFINITION_REPRESENTATION(#742,#747);
#740=SHAPE_DEFINITION_REPRESENTATION(#743,#748);
#741=PRODUCT_DEFINITION_SHAPE('',$,#750);
#742=PRODUCT_DEFINITION_SHAPE('',$,#751);
#743=PRODUCT_DEFINITION_SHAPE('',$,#752);
#744=PRODUCT_DEFINITION_SHAPE($,$,#20);
#745=PRODUCT_DEFINITION_SHAPE($,$,#21);
#746=SHAPE_REPRESENTATION('',(#446,#482,#483),#730);
#747=SHAPE_REPRESENTATION('',(#447),#731);
#748=SHAPE_REPRESENTATION('',(#476),#732);
#749=PRODUCT_DEFINITION_CONTEXT('part definition',#760,'design');
#750=PRODUCT_DEFINITION('Tapa Rodamiento con im\X\E1n',
'Tapa Rodamiento con im\X\E1n v2',#753,#749);
#751=PRODUCT_DEFINITION('Tapa Rodamiento','Tapa Rodamiento',#754,#749);
#752=PRODUCT_DEFINITION('Im\X\E1n 12x4mm','Im\X\E1n 12x4mm',#755,#749);
#753=PRODUCT_DEFINITION_FORMATION('',$,#762);
#754=PRODUCT_DEFINITION_FORMATION('',$,#763);
#755=PRODUCT_DEFINITION_FORMATION('',$,#764);
#756=PRODUCT_RELATED_PRODUCT_CATEGORY('Tapa Rodamiento con im\X\E1n v2',
'Tapa Rodamiento con im\X\E1n v2',(#762));
#757=PRODUCT_RELATED_PRODUCT_CATEGORY('Tapa Rodamiento',
'Tapa Rodamiento',(#763));
#758=PRODUCT_RELATED_PRODUCT_CATEGORY('Im\X\E1n 12x4mm','Im\X\E1n 12x4
mm',(#764));
#759=APPLICATION_PROTOCOL_DEFINITION('international standard',
'automotive_design',2009,#760);
#760=APPLICATION_CONTEXT(
'Core Data for Automotive Mechanical Design Process');
#761=PRODUCT_CONTEXT('part definition',#760,'mechanical');
#762=PRODUCT('Tapa Rodamiento con im\X\E1n',
'Tapa Rodamiento con im\X\E1n v2',$,(#761));
#763=PRODUCT('Tapa Rodamiento','Tapa Rodamiento',$,(#761));
#764=PRODUCT('Im\X\E1n 12x4mm','Im\X\E1n 12x4mm',$,(#761));
#765=PRESENTATION_STYLE_ASSIGNMENT((#769));
#766=PRESENTATION_STYLE_ASSIGNMENT((#770));
#767=PRESENTATION_STYLE_ASSIGNMENT((#771));
#768=PRESENTATION_STYLE_ASSIGNMENT((NULL_STYLE(.NULL.)));
#769=SURFACE_STYLE_USAGE(.BOTH.,#772);
#770=SURFACE_STYLE_USAGE(.BOTH.,#773);
#771=SURFACE_STYLE_USAGE(.BOTH.,#774);
#772=SURFACE_SIDE_STYLE('',(#775));
#773=SURFACE_SIDE_STYLE('',(#776));
#774=SURFACE_SIDE_STYLE('',(#777));
#775=SURFACE_STYLE_FILL_AREA(#778);
#776=SURFACE_STYLE_FILL_AREA(#779);
#777=SURFACE_STYLE_FILL_AREA(#780);
#778=FILL_AREA_STYLE('Platino - Pulido',(#781));
#779=FILL_AREA_STYLE('Acero - Satinado',(#782));
#780=FILL_AREA_STYLE('Pl\X\E1stico - Brillante (negro)',(#783));
#781=FILL_AREA_STYLE_COLOUR('Platino - Pulido',#784);
#782=FILL_AREA_STYLE_COLOUR('Acero - Satinado',#785);
#783=FILL_AREA_STYLE_COLOUR('Pl\X\E1stico - Brillante (negro)',#786);
#784=COLOUR_RGB('Platino - Pulido',0.831372549019608,0.819607843137255,
0.788235294117647);
#785=COLOUR_RGB('Acero - Satinado',0.627450980392157,0.627450980392157,
0.627450980392157);
#786=COLOUR_RGB('Pl\X\E1stico - Brillante (negro)',0.0980392156862745,0.0980392156862745,
0.0980392156862745);
ENDSEC;
END-ISO-10303-21;
